<mxfile host="app.diagrams.net" agent="Mozilla/5.0 (Windows NT 10.0; Win64; x64) AppleWebKit/537.36 (KHTML, like Gecko) Chrome/138.0.0.0 Safari/537.36" version="28.0.9">
  <diagram name="Page-1" id="ByrT313UM86mimDU0_J1">
    <mxGraphModel dx="1426" dy="777" grid="1" gridSize="10" guides="1" tooltips="1" connect="1" arrows="1" fold="1" page="1" pageScale="1" pageWidth="850" pageHeight="1100" math="0" shadow="0">
      <root>
        <mxCell id="0" />
        <mxCell id="1" parent="0" />
        <mxCell id="t9vtO4sTCr5M2yLo7zf6-1" value="" style="edgeStyle=orthogonalEdgeStyle;rounded=0;orthogonalLoop=1;jettySize=auto;html=1;" edge="1" parent="1" source="t9vtO4sTCr5M2yLo7zf6-2" target="t9vtO4sTCr5M2yLo7zf6-4">
          <mxGeometry relative="1" as="geometry" />
        </mxCell>
        <mxCell id="t9vtO4sTCr5M2yLo7zf6-2" value="Top K&lt;div&gt;Retrieved Chunks&lt;/div&gt;" style="strokeWidth=2;html=1;shape=mxgraph.flowchart.multi-document;whiteSpace=wrap;fillColor=#fff2cc;strokeColor=#d6b656;" vertex="1" parent="1">
          <mxGeometry x="10" y="233.66999999999996" width="130" height="75" as="geometry" />
        </mxCell>
        <mxCell id="t9vtO4sTCr5M2yLo7zf6-3" value="" style="edgeStyle=orthogonalEdgeStyle;rounded=0;orthogonalLoop=1;jettySize=auto;html=1;" edge="1" parent="1" source="t9vtO4sTCr5M2yLo7zf6-4" target="t9vtO4sTCr5M2yLo7zf6-6">
          <mxGeometry relative="1" as="geometry" />
        </mxCell>
        <mxCell id="t9vtO4sTCr5M2yLo7zf6-4" value="Prompt Construction (user question + retrieved context)" style="rounded=1;whiteSpace=wrap;html=1;absoluteArcSize=1;arcSize=14;strokeWidth=2;fillColor=#f5f5f5;fontColor=#333333;strokeColor=#666666;" vertex="1" parent="1">
          <mxGeometry x="162" y="221.16999999999996" width="130" height="100" as="geometry" />
        </mxCell>
        <mxCell id="t9vtO4sTCr5M2yLo7zf6-5" value="" style="edgeStyle=orthogonalEdgeStyle;rounded=0;orthogonalLoop=1;jettySize=auto;html=1;" edge="1" parent="1" source="t9vtO4sTCr5M2yLo7zf6-6" target="t9vtO4sTCr5M2yLo7zf6-9">
          <mxGeometry relative="1" as="geometry" />
        </mxCell>
        <mxCell id="t9vtO4sTCr5M2yLo7zf6-6" value="" style="shape=image;verticalLabelPosition=bottom;labelBackgroundColor=default;verticalAlign=top;aspect=fixed;imageAspect=0;image=data:image/png,iVBORw0KGgoAAAANSUhEUgAAAlYAAAIQCAYAAABDpCBuAAAAAXNSR0IArs4c6QAAAARnQU1BAACxjwv8YQUAAAAJcEhZcwAAEnQAABJ0Ad5mH3gAAP+lSURBVHhe7P1ntCZJeh6IPWk/c235rvbem/HeD2YGmCGAAUECIJdaakXQHR0d6RztH2mPdFb6JemsdpckCArkEABBEITHzGD8dI/p6Z62096balNVXb6u/VxaPc8bX957q/pWddftqu6qqXjufb/MjIyMiIyIfN8nTEYGNQEPDw8PDw8PD4+3jHC89fDw8PDw8PDweIvwxMrDw8PDw8PD4zTBEysPDw8PDw8Pj9MET6w8PDw8PDw8PE4TPLHy8PDw8PDw8DhN8MTKw8PDw8PDw+M0wRMrDw8PDw8PD4/TBE+sPDw8PDw8PDxOEzyx8vDw8PDw8PA4TfDEysPDw8PDw8PjNMETKw8PDw8PDw+P0wRPrDw8PDw8PDw8ThM8sfLw8PDw8PDwOE3wxMrDw8PDw8PD4zTBEysPDw8PDw8Pj9MET6w8PDw8PDw8PE4TPLHy8PDw8PDw8DhN8MTKw8PDw8PDw+M0wRMrDw8PDw8PD4/TBE+sPDw8PDw8PDxOEzyx8vDw8PDw8PA4TfDEysPDw8PDw8PjNMETKw8PDw8PDw+P0wRPrDw8PDw8PDw8ThM8sfLw8PDw8PDwOE3wxMrDw8PDw8PD4zTBEysPDw8PDw8Pj9MET6w8PDw8PDw8PE4TPLHy8PDw8PDw8DhN8MTKw8PDw8PDw+M0wRMrDw8PDw8PD4/TBE+sPDw8PDw8PDxOEzyx8vDwQD3eenh4eHi8NQQ1Md738PA4J1HbXzA+Qs09E+07J4M8rBGdKsfSQC0tnQ5RcStZE4htdJZQ+PSsa9f4WNk2GEfVXLWyDXVxTaGDu979NUcB/0I7OZaKzhKdjikRxcPDw+MshCdWHh7nPERJRILGqERERFy4v/bploeGOckLRcSooMjb6umavKXkfsn9hs3wrIWlcMcB8L+gyIdwfHTC2OfaaJ3UYkZydcEp/frTVpCfiOcDkS/dixLakKtkLB4eHh5nITyx8vA4x+H6ehyxktivWJO2a59ud9I5rznlfDa0qGEvx5/VVmRIW3c2bC4RnLNtGychWOtn7b7ggh6LI1X6dT1XclSflfq2gtVwlDTxMcfJPDw8PM46eGLl4XGOw1GRVTrSSPN7PBqOot9Qe1XjQmkYTOBCEaGSVCRVbt9B25g/kYiO0ER1fJTj4Axr99f6V5wiVkau3H2IOTkyJwblPDeXrvZ1eXh4eJx98MTKw+Mchx7gVULSbBusHhmHsT1HWWzf5i8511VSJTEHC60hV6Jhzs2F2oTRHAtr95vzkoYeNSI+VtKn9nVFM5/LhS4/jU8RLEejmrBXqZaHh4fH2QdPrDw8fg7QkA5HhPS3uu/g6EkjK8REc51KR1xWuIyuIblyf2uHBYVV6uOGE5tj56sRoQlO0sRpQg8ld3IeuX4p13MWUhVJLAB51E/AK4/pPdOeo10eHh4eZyM8sfLw+HlA8xSTcaxOA3fSUJ9mCM1o1Mokq8RGAnVoGDsbl7G9ghtNZHdvCaJeQ7Q0sXzNvKtm04RlHWCCto00CENkUbxCpmxIsiFV2ioB1nPGbejuQDErFZrUHlq8Hh4eHmcfPLHy8DjX0bAOwbqGGmLltvIgruNI1bi/x4YA6YDYRgLN13i7cqzTzoVXNEN1q0N2enewIjFr/Lq4tM8ACP1KLEk85UQkiq7jXig7NkKla9dsI51nAu1i0bvahg6V5IR/sa254OHh4XH2wRMrD49zHXqCmwWlxsSKbIU7jlqVFCMzzamApMSWMZADtzylXitb0YCHWkJBSzDkdBP/UUgSwYXq5kdlvCAjCyt4cVEUyKsSZS3ixYsUHT0nSYw0Ig0KRaJ4zPBbETDN092M3ugmry4SHUgYQxwyTbmNVIroFYwxsxQGaCNFWidMm13p4eHhcVbBEysPj3MdYjoSPcniGiImDUGRGALkeUGyEiCNWzwSAxujGhopynhJEafIowQ5nUeUIaVPWSIJWh5w2xtgcanHbR+LoxHmswwZSdUozzDifl4yjqoiR6oRRRHSJEG31UaH0m13MD05iZmpaVyQABdEJTppiol2jImUpItp11uGISXmflBWiJj+hAfqwFJvWV2LXEUkVX4hKw8Pj7MTnlh5eJzr0BPc9FgJDaEyUjV2DAKSEpKpMHY9TnTWmYBEKA2WyFVCDHl+qYpwZFTj0LDEYZKpPXMDHFjO8Np8D/vnlzG3NEJvVJBMVVhmpHPWj7Q6RT4IQwppG7ciWOqFsmRwX51orbSFTruNC1oZLmtn2DQ1hQs2b8FFm7dix/QstpJkTTGZm8ibNsVAl9ckTfeZgYGJdaWrxFAqzPdeeXh4nC3wxMrD41yHnmCRF0NzINE+hSSHj7oN25VhZEN9OiMuRu5kfVd9FDi81CeRWsauA3N4nrJ7roeDvQKLRYheSeJF0lWGKYIoJRFL3LAh2VJFFWLvD9qWMI6jHxIeSw5/ysr2YxK4JNYw3hKK4pAjdvS7qd3BxSRYl1N2Tkzg+gt24KpNLVwyAczyuvZQ/VSEEk3SVbcspmPgyZWHh8fZAE+sPDzOcegBVg+UaIUmggc2XEZZebIDkqAIOUXDe41ouG+Z8sqRPl7edwDPvPwqXtx3GAeWR1iuUwzjDgZBihElD9uooxYjSBkXCZriIVkixXJQj5gS0JAq/lciUzxST5VbPd0RrZB+e60hyu7ACBdKppXSqipMcjtJsnXF5CRu2rYN77noIty0fROunAK2kFCFTHhJhlW31I2laBnuWBp4guXh4fFOwhMrD49zHOqbElESk9J7elFN0TCcc+JTHmJI5rVYVChbbev6OUwu8+zL+/DIniO4d+8ijgxyLPT6WMpKm2OFtIug1UERRMh4bU7CI1Whieka5gtXuIt7R1D/rt/Kpcci5r8RKR5FTIMIll1WMTxuCh25zjQ7kkRVhrgcoVvn6BRDbI0DXLVlFrdcciFuvuIyXHlBBzvpf3bUtzlcEqVHZKpRZTr28PDweKfgiZWHx1mKtQ+mcY91ID9riZXWm9IsKhErd02AxWGGKmljlMSYI395es9hPPzci3hu91680I/xfLDNeqZqkZMoRkmyYrDA1fulGLhlgDGZUlSTZFWF9ZJV8qseorFYr5UgtaLrtSWRkrPIlQ0N0i0qO0iKCRRhRfJGohUyYSHjiLgNMvoZ8XCANrcd0rCpoMLOTdO45tKL8CuXX4iPznTRimOTlIEbP2O4mtcVxS79iqpBk6wGzbnj3U90kZxf59fDw8NjHXhi5eFxNkBPYfMkkiVoV3RmjZP1+KyFzmspApEVvU1X5SRT9BTE6r3JMeSjXcYJeoiwQL9PHsrwkyd24b7n92B/r0KeTJJstbHIWAr6dXEqQPVCjSH1YGyI8esUz9jZWm/ocWNkylEO6zWyvQby4Dby4Xw5hHWMsIqNiFUMX2J/gSNyAYmcI4ncaoHSsjBS104SXNbO8YHLtuCTN92C6zen2M7wN/GqRBlSFKhihhOFtrK7UqthSK16FTFozQtbIX9j6NDyVqIwGtgJ51/ORt7k7uHh4XESeGLl4XE2oDHqY2OuXVGMBuqDWTH+gow9RX4iuoVaE0HsoaowrDJUrQg5SdUinZ6eW8aDL+3DPc+9hqcP9jEfTiFLN2G5aqHOB4jaBcMtSJRISNZoA8eXzj4qMZH0MBEu49rOBH7h2uvxhWt34pou0MmUFxXClISSeajhRhErUauUGSriRT7HvBWFcyRwnN0ub5XpkgbjkyJjls/u0MPDw+Ok8MTKw+NsgJ7C5kkcG/LGxsu+izOZQ+OHjupJ0Tf3jBjoAp5bznL0o4jEKsRr5Ev3v7AXdz/5PJ7cewh7lzKMWtMIupswREriESOMI4YjUuXWnjoXiFVYLCIt+5gpcmxjpnzg0gvxpfe9C+++vIsJpj/ItLRDhjQO0Sa5VP4Eyizd25iduqwU6dKfzpvD64mVLmMAcrZw5O7h4eFxEnhi5eFxNqAx7DLkFBlyZ8w1b0oP6tihGccaW3kRK0H9L/2iwpBESW/67eoBP3ryJfzwsWfw8tElDJMuCdWUTUjvDTMMKK1WC+2JSSyPcrdUwjlCrFLSzqhk+ovxJPfRMnaSSH7+vbfgix+6DlsjoEOi2alKtLkfKa+UeSSPdj9rPuy8KkRTBsK4LCQNJ1vj08PDw+OE8MTKw+NswfhJ1BCf23WT0W3QqvnmjEy7EQMK/0WsCroulyOUUQuHuf+zV+fxA5Kqh3Yfxmt5hFHSQZ60UVQViiIj2ajRiQNUowH6I17dmWXwjOUcIVaxmI6tyk7i1AoQZj0Ey3O4tBPj1gu24L/5zMdx7SZgK/0GwwJxNURCfzZmWpFp6Ts5ui29PXgMwRLG2zX5sILGi4eHh8dJ4ImVh8fZAj6JTW+VoE+4iFhZT4uIlU5oXEpkgMSqIDHIuTukDHhqL8/f89RL+N7Dz+LxA8uYj6cwmNiKXAt66vuAxQgY9blbYdNEgiDrY6mfAe1NtjbVuUKstExXbIuUAnkxYB4VmGmF6AyXER05gE9efQV+4Zbr8LGrt2ErvbXyEjEyxHrzUIOqlofc1Q3ajHw7YPa7T0xr3/06MZIlWXHw8PDwODE8sfLwOEtgvGkszobrzTiyCCNW8kBXMS+5klgNKSNyhGXKq3T94SMv4s6HnsTzRwdYSKbRT2eRRRMMSONhNrOd1+ckWH0k9RBt9XWRoGjvXOqxCqLE1hVFxfSnvC/NmxoN0KpybItDBIdew83bZvC5m67BJ2+8CpfPkDuWNdJyZB+DXoFlJTOP/0JpOS5HO2HOzLnVLwPJ4ezLDg8Pj7MMnlh5eJwF0EPY2G/BmfdCFIqOIkR0EbFCTD9uHtWInEIfSX6BB19//AXc/9zL2H14DmV7BqPWFBbLCFnY5iUJr2XIWpMqChCRXFXDHvlIzlMpSVpq8a6vCs4+JlGVJIdJjDAlIcxEFEvErRYS5mDVX8JUUKA9mMflEwk+e9O1JlfOBNjEW9FnBkMSsNhYI+9X9+y+8KycNmLl3hgMmcvMK7rpo9CWQZ5YeXh4vAl4YuXhcRZAD+GxxErmXcRKpEpCq55XKMIUeRxhgU4jWv29PeCv7n4Yf/PkXvTiLklSMP4eYGyrphfcdwOKYgRjVsBIFL5idNsm1nMDlRYR1aJUJI6hpI6pyNSLV5N/aoX4EabiCq3hEi5lHv3ijdfji++6EtdMAS1mY1Dk6DBfEpEr7lu2kHHpY9IiVsoV5RmpmxErrRFGB0esJB4eHh4ngSdWHh5nARp6s/owyryLWI1d6wgjEqvlioSp7Xqsnp8Hbr//IXzv0efxWudCDPUtv7F/ESbbI2lQZ5XNHwoUGokWtyIOjiVouFFzj+T73EAVZ0x6ToIUIy0iEh99lTlGHgUU3ofmUmnF9iTATH8Zl5JAfe7Gm/H5m3biws1Ah3nSZTgS+5azevK0MKmu1yHzSgTLEavAEysPD49TglcTHh5nAdRp0ojgepIaukOKpW/2RSkGkVtF/cU+8N2Hn8HtT7yIw/EklqJJ9MIJDAPNnEpQk1FpxfJEyxJUI5NUQ2B1wdaUwuSjrwntFBfHuQSyHBIhfVonqSukNn+KlNHmoEXuvjpTGHB7KGpj17DEdx59Dt9+9CheXAL69DagLJNL2ZQ1zUHT65VkoFKIrrdQuXJczsivh4eHxxvAEysPj7MEIjwSZ9ydgbeeJrqo76pH4tAnB9g/Ar5577P47iPPYK49i2J6K4mXQihJFCobEisCkTFeZxLRLURFN9ePpf4Y9VJlFH345RyDLYXuhv+UN1plvaDoszhGhvQR6d7QSFbc6mIQJtibjXDHc8/gx8+8hN1a74s+M+aleqgMImMMT0N/Lv/HYUlcYXh4eHi8KUiHeHh4nA2QDTdxY0/69IpExl/LKZTkC4fJCO742cu457mXcaBKcCjoYCFsjUlFaVfpakedtByD5luJWMVGrGz+e6CzObQ6eVifW8OAQkTCFJFYafhPhLEIea/UZOp9Mv5TNF1REe+MeZC20Ot2sCsf4AdPPoG7n3oGB3lWeZExsyp9wVo9VprHpp4+Hr6OXHl4eHi8SXhi5eFxtsBYAc04iVVVOdGinjmln5cY0r4/uWs/7rjnASyTVMSbtmOwOECmHhojSkNKThqgSe4kFGGMjKRrJIlSO1bvjmhXpHWdSNcijBitqNi5g7ASsUq5l5A0xry3ECNNPie5NFI6GGKq00XUHyLv9RCnCfpRheVuhFeX5nH3Y4/iZ8+8hHl6tX67nBlbUNYQq1V4UuXh4XFq8MTKw+OsgshBTfLAbVmTWAGjOkKZRHjwpUP41v0PYX8JHByVmBuSFmy5gJzKrXclEUmqrfeKLE1zhzTERUJVc99NXpe7/psp2ucWqTKQAIUV70n50gxxhqSTFPUyTbbbyJeWkTIbYroMshGQpiRfEYr2FF48sIQfPfYMnjsyxJBZVKXqrWK4zEfX0yW16L4iGFIswzw8PDzeJDyx8vA4CyC7bp+nqUh0aNz1IeG4TlDmMRZIIu4/WuAvX9yDB/IAe2a2YKkzaaswdPsDdHtDRJWWVUgYjpt7ZOszWVgkX3rrjZ610KU7F5NStShtXqOen3OLOGjYs4hEIMcLSSgjdH/a0m1U5TwfUiLUUYogbKHOIwR5isFwM4Lpd+Gu1/r4CknqCwxv1LFQXZ7lBUoRWuaj5mgFGmNUtxZPWyF5eHh4vAE8sfLwOEsg2x1qJXD1muiTLTToYTvBHHnRXc/swt0vv4a9oxKjqI0sJmEIQnRK0qNSb/qpr2bcI0XoyHqlSDZsireIhzGDxp8jYqRvK9ecK1D2iFy5njnXSxWSFGmrP61HVYUaGmQOMI8016rp5QqTTTjYi9Gb2IaHDh7F3/zMzbfKtSJ7TDJl/teoxYZMnVtZ5OHh8Q7CEysPj7MAsttRRQIksqCP4UWBLQuwSPdn9h7BY8++iOVeRvcWJQFK935fZWsvaYr7SXDSk+cTauRBgV41QJ3EmOsN8f37HsIDrx7FcpdkU68ExhG5lUhaYeRN32wWLzNN6cmVh4fHm4AnVh4eZwXUj+SGtBBrMnaEeRr/pw4t484nn8be+WUkrSm000mSKj62oxxa27dO9Vace3vQhrLWEVsD+CRi4ZxA6MEl7+cAupNBOUA0mWCQ50i6szicR/jGA4/hhSEwFzui6oYYRVdzZMxbm/DvSZWHh8ebhCdWHh5nA0RiNCdqNKQhD7FEp32U+1/djYd273Pf/csiFHo1cER//I9IvqokQB6KVtFdzGEdMU6wjvuKGNY7Ifk5A8lTmWq4kDQ27GDY3Yz79hzCN5/chcM8reytKi1UMeLdF0avNMWqpNi8dg8PD483gCdWHh5nC0iu8jxDRio0x8MnDh/BfS/vwZ5RaW+zlUgRIUEnbCFJWmRMNYaaqE1xxGp9sZ6nE8hq79S6p3/uELZCFHkfcRRjOAJ66OBw0MF3H38WT82V6JGwlhqS1Qr1JFXNumAeHh4ebxaeWHl4nA0QiSGTqaoafe4eodz94kt4+LUDWEi6GMVd1CGJVR2jhZhbkITlyDQfq6W3AT3eDKpK89RKVEVNXtpCFk1iOZ7CKyRZdzz6FHrMztw+j+Mm/RthFax83K6Hh4fHyeCJlYfH2YAgMMNdt7tYRoCX5pfx0Muv4cCowiDuoE+DX1QBahKCSvOripI8jBfoutQtmXDivxPjjUa3Vnu0Xi9vlWko6SeSMwatyq43//IaKSlqgDaPOxjGk3j4hd14ft8cirBN0qp3DIOVeethRW8WgIeHh8fJ4YmVh8dZATGKiMSqgznylfuf3YVdcz0Uk5tInLooQ63HlCAKtWyAFkkIbDjLrisrkhFHoNYV8a8TiCA/J4L403qkqpGNwpGnY1J5nJwZBFFkC6+2goQki+QpJ3WKp7BYxjg4qHHXo89guQiZpXrzMtSULEQiVbrVjd+uh4fHeQRPrDw8zgJoYnSZJljgvlYGf/CpXRjQuNdRh5ZdSyyQdJl114wfrZiuoSxdyEdYcgbJyM8TtEBqqIU/meEh8y+o+GOTqGIsVyEe3XcYT+yfR96aZZ53EVFFKnffAof08PA4z+CJlYfHWQC9daa5VUe5oyGpVw4uoEqnaPlTd5KGXd8QdMtf0kELfooQ6EvCJATvXG+KIj51cb1dJ5MzAyNWFYmV/dWISaw0zKcFU4dhipcHBR569QCOFkAhtqsPNFfMaxsLPHPp8vDw+PmBJ1YeHmcBxJ20xMJ+GvIHn9mFMuoijiZ4go+oTmophoCkioLAfWPF7LzOk1jpm3bqs9qIbBiMX/xoI2KXr+PeyBlDHYlO2eeDKjLTqM5JrtzK9VnUwqG4jQdfO4xnj1YY0U9Yx/pBFee2vpWHh4fHG8ETKw+PtwnqpalIkNYTUaVlyrP7enh+7yHU8QTKIiJxonXXZGtu6rogKShIqbQVsVJvi4gXadWZJCMngKJcO9/qdMqZA/O0TkiqAvLRkkcF4rq0/BtFCQ7HLTx1dMmGA4f0ra/clCRUBTLmuHth4Myn0cPD41yGJ1YeHm8j1hrmtaJOqXna6vuffIYmPEZGplWJbWmStdlwvaPmhgHtO3ly5H9Yaa6QWBfF4w2hXNT3A60jkIRJn64JKRoWLMIQWZzgIPP98Vf3Yd8C/Vfq2aqR8485v1JeFtZ46+Hh4bEWnlh5eJwBjE2vrK8T7muGVE7+U4kEkRBpZEkiuqTekX0D4GcvvIR0dguGZYUojJCoy2SUAUVB7qQPC5MUUNTjIpIgOmUfIN5olxUv06UK5+2Ut4YN3usKVBYsAmq/hqRqMVBD0kaedvH8kSU8f7jEIWa9ykJrWinHPTw8PN4Inlh5eJxGyPQ2QrPNf3U9ucnmJclQL1RvSejeNsv5y9N95OjR94+ffRV7SKIWeF1regLD4RJZV4YwSfikxiQBLRQRDX/UQRGmqKKQhKpEEJYka+pPOfU/Nwm+RqRFMdcTnovpbT2xt+rsPjcAXtv0/qwn6w2XNqLzLodPXTSnSqKUl0hs+C9nPqrXKi1yBAPmd5Bid1bjocPz2NvmVczzDoswKpq4HbTEhYeHh8fx8MTKw+OMYGyA15AA9YuYyB43znwESxr2ee7tOnAQQxKoPKCZ53VR5N5cI5ugX12kidcRCVpEkhW6y21CtQYSNw6FbL1W64iRp5OIErGe+xvJOwNFrBIY59e490+EVyQ4IsmMeaqqAiwUNV6eX7SXCUTD6MkNuXp4eHi8ATyx8vA4jXi96V110Z4euFA7jZA86S21w8Medr282xYBNbJlQ4Gx41RGROTZMRJNWm9Igv6a/TMBF+raOI6XdwrrpeWNhDBmxyNl5xjaNx9yYwHpfYFhUWDPvn04uqAp68Rx13h4eHicCJ5YeXicTji7Teh3rQi1PXDNUXMqR4RX9x3CoSPzSFtdusWaUsUtfWsBy7FXY1iaTa3vA1LcelbaqtdqJbhTEuGkPUiK8gSicxvFeml5s+ISoO2pioYZ3e4KGKCd0paiuWsIQ9SUIwsLOLy46HqstCq+i93Dw8PjpPDEysPjDMAZbxriY+bhrDHpZs2dMR9w98Xd+5CVAeKkS+5EI17TuOvbgPSjNaocI5CIRDkJVvbHJn8c5qnI2tStj3UuWhF3/UZEl6/n/mZlNT9ORXThymYckDteIVX8r8MAUZpiVFVGrHokuYWIlYiuh4eHxxvAawoPjzMGWe5VcT1LWgtJW2fQ1RvSK0ms9h5AKFKFGDmPmyFBE5KCejwBfq249wzHxxba6YeRDv6sL/x5K9Dlb6fwx3abIhFsf3VAVQvZa36bFrAqwwgH5xexMMiQa17bykUeHh4eJ4YnVh4epxtmxJsNHzH1dNAmOyI0JkhESQ8Zd9UjsvfwIoKkgyyvURSkV1HKS9ynVyygktdxR/TMJrQbSTtzhOrnFmu5ke0z/5TFjdClJInNgwAFidXh+SUs9IdGrNwkdw8PD4+TwxMrD4/TilWiY3tmi/UjiiSqVCGwN/lIsvj0VTFJ1dFlLJdao0q9VbxKk9a5sev1oxnsNOqrpKqZ7ePCNdBZk9pPVdT1dLI/QxPNcaLlBpq3/NYVeeNW6a/HoviaINzNnUjOACxo0tvxfbtM1pZpUw+g9pUwMqyC5aClQ48u9zE/ELGKWV6RBSP4pRY8PDxOBE+sPDxOJ2ibxz+r9MBscGAPmy2YYGyDBp7uWgF875EFDOoI+sCKaEcYJyjM2NOfhAjHxErXOZOu3zXiTp12caGf6M+dPxHsNgm7heZeKI54aV/u60sT9umW49OyVmxYVb5Cpxa1HvvyKMPiMLMXDPTqgZHJdUjVWx4W9fDw+LmBJ1Ye5yVkCBs5bbCgZKTtyG3W2GDX4zRewZvuIlZD7h5ZHmEpq+HWp3L0aQV2va6jK9PqSAmN+1is20v7Y6+nKmcSdh9Ks0WkNLoY1/SFve2wFFi+2eGxWxP+2NCt+hZDDIsKS5pjNT7t4eHh8UbwxMrD47SBpteImjPBq3sNRJBKCl1p241YlcDh5SEGlT5T4xb9PPa6VReRgvUpFK+jl7Vkca3wh37Wh64+GVzMJ/hbG/6JhDBKNU6qpV/O7tQJsTb9xwt/xr42ACOh47tuguF2JR8UtiVWZRFikBVY7A0x0tQ458PDw8PjpPDEyuO8RDOks96wzumEjPGqaLCpsF9Z8iACcu4u9EeootT1VtFdYpZ+PGQoItY4GRpP1lvFQLQ9Uzj2Bo6VU4CjMyt3YHuu920D8hauVU5pNXl3D/yhWP5qa24K3eVnzQLKitqIlbY67eHh4fFG8MTK4+cS6/V0rJXj0bjrW3RvDWadj9kzW01YTxVJVa0FPrXPp4/2GouDDHXcMmLVgKkZ7x1PDhqCYhRhRdbe2/HyVsAQ1g2zEZsAfhJp0q21uJRSd8wfycnQ+FlXxn5OEZa7vHYlDRbQOI12nr8qAzkr7WGEktWhr6FAvVTg4eHh8SYgXefhcV6iIQdlWaIoihUxwrBhuGtXQjBrvhY6Q6kr4x4ZOdbyYIiKRtzO0MpLGqzZXQNRgLXESmTgdRGdFVBervYKcqukrntPx8Ly4gTyVqCUrM2pVVLVYJxAEqlAQ7NMe846UbKw3mrcHh4e5wc8sfI4o5Axqvgraf5WTKQMmEk1Fk1kkRQm8qsvu6h/Z6UfSZfqYNwjYvtykxNF/jXROKfFzAMaxCCnccxoLnMaUUlBoU8ZSm60PFTBbc50ZFq/iKJgLXnjMJV29+EYl3rD2I9z0A8DCiTOTK+cIsyFxCeyvxiRJldZGngVEzzKCltRwfk8FuvzpSYf3b7Juv4cGp/r4bhQXieC0rCevBHWElRli4kdrU3/qWOjV7p7cgOr+uByVKku0NVOhAi5H6kGVaxBrAdBoNXWU7faBevlm7hlDw8PD0+sPM4sREZy/oomiSA5oyhjJqHFEpHSquIyZiQ+qEdjGdq1Q/rOKMY7dLF2NCyjMTR19yhQusn4iVDJrz4R0+eJAa8eoce4l2kZe7y+T/8MMWf46pEgwSGnIakK0M9zlHGIMtGwGk2owlRUjFTpd+LuwdLRpEVbcxWlk0SMSxOftU8ix631OtFvUKVoY5LXJJbgRNHQWxonyHkvRkTGhFH7Wm9JojSsij4KrF+SsRWh0Q8DSriu2O2sCW+tWDwM98R/J4fIxokkYpq0TITKujYiy9D4HzJ/XG8QD08gQUQ/JxAFrjSfuqiEQkqEkPUtYV0QueIp5oUjVu1igDBnPYkCq5ZF0LGPYUdkwIzWw8PD4w3hiZXHGYberXL9BGbBTAhZqXHvDq0/RYsvNhKb0Pwh5Z4+7iJXg1hKSBMpicRWaBiDisa6uYpCL3WemdeEIcSkM0UWYDQi3QlSjNIujjDsIwz4ENnNKyQ1Tx6dx4tLy+hHLRQrkQlKr0yyZJz24yEmsHJv2he0rIJ6OUS66N6c1mRz+RHpGMejK9IkcQTslLASqB2dCG8m3LUhvVk5F6GaqBxXfQytTAXXiyVojbGY9dL4IN2qIDYS6NYR8/Dw8HhjeGLlcUbhaJK+gNcQrMYw05iJUIldmJASBWQ6QWssbesISnNeL+5k/KRCHRaoogIlHUfhCEWc0U09XZn1KqRFhS6J0qZ6AtOjKUSDNsohJZpF1t2EAyROu5iAJxnmd19dwH++/0n82+/ejt/73u34+iOP4SWGoV4yRxz069adUtqb9L8eeowaORbHmGMz1gyzXhM6f6q6RBTp8zXmZWPCME8kwrrXUN4yFP4J5Y3Ob0z4e1qh8DSXylEt9aS50q5ImO2c3Mb7Hh4eHm8ET6w8zjjUYyIj3lQ2mvtxf44bvmukoKeS0vQPmSWTJ+ssUiDOtOlQzkGU0ItWLJfb2OxZRIyJxEnDfMM6wlIQ4VWypfv3jfCNpw/gj+/fhd+9/Wf4ne/ciT/8yc/w7SdexM/2HMUzh3o4WkQ2nKjQFJ2jSxVjUUwyseuhubvVsyJUK6TKerQcdH8u4MrdB3crG47SXWwcSu+J5GRoUmbJOkVR4MfHdaw4ErSerOv4JsXq00ZlHMjKPRgaUsV6aQSK5chtQdarY/Wouis8PDw83hjr2wkPj9MF2bGGKZlhc06iERJSCpPm2ISe5N08NvOwdEb7dNSfiJTmba2IrtF44Nj+9ej96AB4/gDwoycW8F9++CR+99t34Xe/fy9+/65H8LVnduP+uQz7Wpsx2HwpBhPbsWe5xu6jQ+uxMpDMqcdHvW7jvgw75sZhHJeDfEkc1tCqVdChZCj6jI2svO4qiGjGQ95P0dC5DcLSdRI5CV5HPt6kMODXx3OMyMvxbmNxJ9+CbAwqE1Gn1XK0o7GwbFjFRLB0zr1QEJJXRTZXzcPDw+PNwGsLjzMLW8QyppB02EKWMmAOzdYZO1cZmzlSEnNISbtiUhCNBcoY2i4NXZWgKlMetjGiLActHAwi7KpCPDbI8Z09C/iDh1/Fv7rjJ/hfv/M9/OmDj+K+fXN4NUswF85g1NoKtLczWZtQll2MBnQ/PMSRA8s2J96ImhIlk8t4jUjY5GvtrIH5IdSzcdxCnY5aNR5ksB1xFAEsSRZ13G4F6LZi3k9hk6ePJy9vViwzTyCWCm3XkbcKBXFiOXGPlfGaDcpbAq9fve+mfJw0BEtvA7rKp8n3IZIoRqwXAeji4eHh8UY41hJ4eJwJGOk41oiZhbO+AZkyVxHNnDWGj1KHJfIoRxEWJCQkIlWFSownj1BnMerKDdst0O+uAXA3ydSfPvA4/ufv3I7/5Y478AePPITvH9iPZxjDwclZLExtxVJ7M0bJLOpkM4lZF4NeiDxrMe4JDBYrvPbqYQxHY2LFsC2t2hmnaa1lt1UTuF11IcYOuieJu3ftOFKlN/sUnO5I6LSBqXaKhDfd5MXpFmE9d5NjEv/2Yt30vAkR1nN/IxGabbNnxaWZ6jbHSlvWRBErESm6xVGINI4Q+cnrHh4ebxKeWHmcecgija2Ss+MyYSXJjF58zyhDEqoBwmpItqKlFkiXardIA89gSEPXDxL0whZ6EbetED0SkrkYeHgf8Jf37MbvfeNe/N63f4o/v+cZ/OD5w3i8l+EVnj/caWGx08FyGGNQMHibzMVqz2hQxohqErSSRpXhot3Bc3v34vBAa2CJOI3n1liijzOrcjY/bms4hqSMBwPXECttNIQpkqghQNGslEnZOj2JVMsvRG4o0QikG4cyaEmEtWtCnTJ4aRPG68SdPKGcnOy55RROJM7XGQCTtl5a30jc8J/EXe82TGMjREhCpRFljQPG3KonsZWQXLFonA8PDw+Pk8MTK48zC1kj1TJuG47hjLVmGxU0XCOSKpIrkSmtMVX2adS0ElVG/1rWM8WAMgwT9KMAhxnAk4dq/Pj5Pv7NXz9MQvVj/NcfP4TvPvEqHj4wxN5yCssTF2FxYjOyThujVoqR1okKI5KakPGFiIoAcV4jrUMkQUx3xkMSlScx9veWsWduzuZZqTfMloU0Czzeuh/7bTqyjoHuV8IfI1ZrurXENTSPRybdeSvR4nbr5CTCIrceO+MjK3hd6KcfStfJojnJOUuqEnwiOQl0VvFuVCxdGxHBtkzBmEytnmfN1HpbWjW2Vm2p0GKdm+m2ubUrPDw8PN4Qnlh5nFHIdmmy9toJ6Vr5XPOJJM3clVyflQlp2NIWyihGP8+wkGvITP1aAZbo52n+fP3x3fjd23+M/8/ffhtfe/YF3HNwDq/UKXqdLcjTLRhWk+j3U7IiLcJJKWNLgKZqtYsanaJAiyQmLt1K7KWGG+mtx0uORCX2VkM8vW+vxbdcalL8mjfC1Nsh8HCFZ50A7opjPTo3wd474/2X6HB74ewM4ow3K4POTDLy4LzZdkV0fLpF8Zws7JOce6s45t7eJrGyIOlTmTay5iz5VIma9UMr9Idlhql2jB2bJtEOSb/t5QkPDw+Pk8MTK48zCpkizSYSv3AdGWNSQUMW8Dcb0YgFCYKkizxq4yjJz9E6xKgzQ26U4hD5xoO7B/jTHz+F3/nLb+M/fu9H+O5zu/D40gD7kg6Odqaw3J3CIJ3AKGgjK92kdpQtsjJtY6QiVkxEWlZIaDhjGs0IOSoSq4J/eVxjlIToxwEWmL5nX3sNc6MaAybe3hDTnBvdgCavy/7Sj+5L8jp+wfPyurpjByseNWXdLbRAh7KwxU8v2rSJBIsmXsRKW17ihhH5bxPmnfd1h/LGslEYSdL2BOLitsjXlfXS0shbwXrhvVk5OdYjVGPRtZUIFOtIwDLKB5hkvdg2PWHEKvTEysPD403AEyuPtw3OnDXGiVWPhCppTWO5jHA0jzCPFsnNBI5GHTyXhfjBS4v4wzuexr/+6+/iP3zzR/jxs7txoGqhnN2BcnorlusIfQY3KCpKjrzMEUY1Op0EraCFMG+hlTMOhh+R5GhoB/p2YJihjnKUUUHuo0/C0CBr0nKYIow72HtkDnuPzpGTaSiSiEV/aHg178kMN/3b76qsv0esOZD5bq5UP1hEIqW3Hy+YibFlYsKGoCoRKfN59uMNOczZCkv3mEyt5LWjWyoXzXsjPUdYjDCRBphqBWiRhKuH0cPDw+ON4ImVxxmFI1OaqaQBPdEU1yvjeoBCHkVAlCJPEht+e5mnv/vUa/hf/+Lb+H/9yVfxR3c+gJ8dWMTy1Ha0LrwK0aYLMajbGPUKtCdm0e5OodVuI23FiBLSljBHVumbgBXikkSp0qditLQnncIKBclUI1XIyNQzoV6KKkBSJ+iEHSwuD/DC3r2WxJGSymvNABvpccdrxWH1aNWNaJzHop46SU0jrTlVEZOwuQtcsm2HpVnQ22huilLTA+Pk+J6ZtXKmsF5cb1ZcujeG9cJ7s3JyKGMbEcb7vEx1NeJuLI7N8mmTWG+dmSSxinhMYvUW7sfDw+P8gSdWHmcU7tPBegVvRKOneUTFWHiGxGpuucAy7dVhernzqcP4d3/+Y/z7r96O25/ejRfLBIc3b0d/+0VYntyC/f0KB48MUA1DTLQ3oZjvo5xfRtVbRp0NSIRGKKMh8nhAEiUjm6AKIpsnlYcBsogpiStKiUyfwVF3URSS4IRIswDtIdBh2Fk/xwuv7DYKOKC3Md1xYvNzHGVYNbPaa3qz1rrrmmMR8k9fQdQQXKxeMn2Ch+6XXLDTeqzWEgPt8S74O47b4y3D8tRY6+vzVGVivZokVZpnNdVt48LtWzDZJgW2j4S7muDh4eFxMnhidb7AWeljZc2uk9W/VVcZGrcxaZztgATJeqFyOmWOOI39mw2iRFWAtKoRlAGKIrQ3/JajDg7HCXbTywtljL959DX8T3/5I/zbr30PP3r6JeynWz27A9HMNtSaO1XFGGr2e9RCnHYQhgltX41uu2sfL45JnvR6v/2JrHBb8bgkmSp4rgwp3OrDNGZMlTgtyEnqFOpjzrSoGhAcktQMeH5QR9h9YA593YLdK2E3RKpFP+pzMqexuLxQ75fu32KgjI22vI5FLvqotKhVXXOP96Fw5XbF1i7vQ+8hav5XDfI/mxuWkHzGdWhGXz91UKFimtWbpjginpOcKYzvYl3YfTJdJxfm1zriSOjJ5OSwuE8kx8W1KiSz6plkXVKJZeJLEetwmPE65jsdQ5L5iOejYoTZVoCLN3fQ1UhwOa47G8T6dzeuN2ueI7cvN4nOa6C6kfX+jg/Tw8PjnQb1DTWOx88/VMrS1Y1tkC3mvpylvh3cnjNQNESNurY368zRiREFZwiqOqNURmhqEoEobKGiEaq0T4/2JRCtTRXEWKbBWkpDLDG4F+aAR149iO8/8DBemVvE0SENSqsDJC1kZamOHF7TYgpSM4gOK3TFYENqqycNztRo+YRJ7umdOw3hZNCSDqH2jbyQnIigMM2l0i0ypg9B68Z4L9v7h3HB8Aj+77/93+ATl0xic1G65SBy3kfCMGOmkQlRSLwVJMycqCYN0xycYIIiSzzG2uTxGlsgVG+d8TDSEhBkSEv9IV4sU/zWH/wtXhglmGnNoGZUKZiX8k+C2K+H7iXHMamKmMdxRVHZEDa0eVxevFm4Ycf14c6dyANze2NRMq1OTgQNh54IOrORW9V1SZEgJFnttVh39UaDiDX/I7KstpbgIGHvJCTa+SLed9EM/skvfRQf3hxgZzbkxSwAqyfHolGhJ0qzzq4QdHoZP3pEQ6RU2dd4MB+NL0cC9TRqfxyT/QpuYLnZH59pghJWvXp4eLxN0NPrcb7gOCUr/btWB6/1cIxXHbxOQSc0Fi2UdQcDGqU66JIApBjmBUZs7Wu+kyYQ5TQ6OcnWUhThCAnMs4cLfPvBPfiDv/0h/v1ffRMvzQ9xOAsxDLv01yGpilEUMStmSmLGLVnE6t+xEMFYTZwT15skwkWjFQ4oJCQkgVrF3ayxwrNenggRDWwiAkiSEhQ0mJSA8WeMe4lpfmbPfiwwtDzmOZEvLSK6xrCuxkq3lU/2HIe1ySO0snyotwyZzpLWtqpKtOIAmydjXHHBVsTMu7ASAdRQKfOPfgoVEompvU857r1ywelEI+cPmvs/VRGswbAOKxMprSI2BJKU3LpEh8cXb53BtskAqS5WHWBd1sKtp9oW1eWqGSbjtDvIRXWhEZHkValN5N7U/YZeOZfG1cPD4+zCOpbA4+ceJ9TH66hrsyFq2YuYsO08Nkpqgdva6SRXaXuG7e4UWZUiSNqIWhGG5RLlKJajCq8xwMeOlPjOo7vwn759B/7oG9/Hfc+8hDydxvxAxKGFKJ5gZeygVg8MCU5EcqXFPGXE1hP+vM6tEUt0MKKtWmK6+9wnuSLRqgL1FzExIieMJy4T68FoZzG6oxgTFG21bOdy3MZDu17FoQK2WGhppIppIylSDMojSWMsUfO8yZt/pBojHceMm0Hfes2VmKId1fpJertRWVHGoS1eWkfOyIYihcwXDW2pp6PmPan3TUcbh93AuqLf9dwl+t0omvw7ofD+TiQu/o1BBKpkfikO6wqybjPmbxjagvxa7z8fDW35i0u3b8UmreCqOOuMRLewMjueXLmXDSzEE8Ldk9uuJp/xkjxpMLhinVO9K0wSSsRj9+lv+bPrXyfuWW3Ew8Pj7IAnVucTpH1V4tyqt+d489QoaMkxR7qmaVDrex9y4sUJDVPKbamOIW5jkgB9fmaOxmouTnG03cULoxrfevoovvL9u/GHt/8Ud+/aj4N1G8POZgzjKZQkVzW3dUBTRmISkpxFtXubT0bPjNE6osSv5y6RIYwrkpOyTxmSiGSU0nhhTWJS1TRmjKNiXIpThCioSFpKGjCSljxMMEw6eG7/IbxGbmarsJPcmDlW+MoWYpyVDvahaWXQissJ0RBAGWN9QkXQ77svvwiXTvL+R0u8j4zJClC3YowiDVlqwntDrDS3itczRVXo3m48fkj0VCCOcCLRz/FujbyuAp1GNMGvJ28FGkqV2KCaSBXL2x4G1uucuwWJakjZMdnFVdtIrHhNyPpTBSwP5ndDqJoyfNNoMm3NNUqFyJP7BoG2zbCfkwaOQLlBPyeuvjSiGtfUOruWB9ab2zh6eHi8rdBz6XE+YKxoG6XbKO+1Cvx1MO3sMGJV0cygFSddSCug5QI06idilVGGPD+IW9hHonLHs7tIqO7EV35wH37wwj68lKdY6m5Dn7IUTWGBxCaPJxluCyNatTwTsUmQBG0SB5EdVU9FdGqiXo2kzNApBmiVI+7njljxdEOsSpsZpeFMkSsSIqbXept4g3lIMpO2cWiQ44V9h2wSu+ZTSUqbxL5qzCw7FK3tkaSdwiNl36WjyEBXzLyrNgM37dyCpFhGTVKoNxdH+qYgg7SeC6Yz1LwqI1aKsSRJKEzGidggdO364njA691X5QyhISHrCH83DPVYFay0qiN6QcDIlcpdPU6sxPrg9wTJ7LU7t+OyTQkm6SUWyQ1Y+3m+6Zl6M71UK1C6SZ3cnCo+MEaf3K+OJDrbnGnuT6E34rAmPnk6To5PjZw9PDzefrx5K+BxTsN0LzVvo4ePx7FKWUeroiE/kSqJDIAzcDQDeguQRidJaRBYkzSh+yA93P2qFvZ8HL/3/afxrUf34sUjA8zXHQzTGfRImvokTUXURqA3/ui/ZHA2tEjSYiZHBosiEzq2packukG9+dW2CckRiUpMAqgeMC37mKIIEuRBROISYEiGMqShHSY5ZYQsHtHokupVFa8p8fILL9oK7MoJDdyoN0P9CnpwmofHyKbz4LZvAJGpKIqOMdIt7u7g9R+8+lJsIlONqgFyEsOqGK4Jk0SMkWmx02ZIbO1bghvF8fm3Vvi7rruJXb1xND2M64kFfjLZAFSflFcaOlUZRqx0mrvuwtNOwfwdYVMnws2XXoRtbZIq1k/RcHV3BqwvDRleS6resPfKvB6b+ON9q+qsnWUliq5eSVvt3TKbgawVBXp8IGM0sZzgtIeHxxlGYxs8zgM0NuRESlfq2v0eK7rO3l/iRXpbr65pbWoafL0Jh74tyKnPJr9wNMNf/ehR/N5Xf4SvP/gqnlqewny6E0VnE/LWDP2IVKU2mb0MSXAUsBhVGCNMEwQkG2b8xn9vBZqHlI7nUUnUE6Yhv4pmq9bkcRpHq/1hiSrKSfTcGlhVOEBcjdDKc3Ro0Pa/8goGi3qzkGHSsKrXwgwwja1yR0fq9DAP2p4EjfE9pqdKBI733UkCzPLcuy+/EDsmErQ1xFcxj/VGZcyAzZDTsNOohozQHTliJXEpObfg7mFjslFoyFTkSnmnXj8tZeayjnlI0tyOKmydTHHdzs2YZTVplyTZEfM8cGTqeFJ1SrDEuztoSktHVg0pK6PtIlNVxnSx7PU2qj0L7jojVSY8FJqtwH35Gu8es/Xw8Hj7oOfZ4zzGWF2vQMQmI6nQVicqGv8yqzDJQ33IuByOMMgzjEgy+q0Uc+0OXqpD/NXPnsS/+stv4Kv3PI5nD2c4nHVIojbRiE0xUDfMprfnRAxc91TJLcWGVxiw+sJEJkRyQhEdvcm32jO0npB5IJKx0z7Tqf1IhIXhD6sIvbCNYdTGKGkjixJotaKa12gNq0CT8bVCe7GEFnqYjgaYwhK62RFsyhYwvXQEM4NlXBCT7C3oYzsyfLy2lMFzA4OBDQ4WzKnKJkRXvBfrTDgBZJDXGmUZaZEqbc2gkmleNBXiU++9BUneRypSpaXAlU/WQ+gWELWyGW9db4kOm+2piX5C64lZX46tHcfBwmjScGrCn3Eg66PJq/VEWC/MNxKlV0Q2iZnbPB4N2BxgPZyd6AALRzGThuiWA1yzYzOuucDVdw0ha400UbET5cXadJ0QeptUhF4vIvDQZJwFFrL1nqmM1QvMci9YN0Ws1aRhGsuS9Uvn7crjsI6TcAJnDw+PM4yACsc/f+cBaFpoHFTUzkCsNQPab9aiEkoan5rHoYar+FdqvG5UIm6nNhVpRGNP1Y9DbM3vXljGN+96AI+8tB+7Dg2RtbaioPSKlOQmtfebUhoKm8rCsLRwp/btWBGbKF2aG+V6ElaEHrQ0wnqw+zEjmVhaCxofIyo0YDpXKnAaMsVX6FMxInK8v7CVIGX6y1EPnbi2tCFb5k0tISU50kd3r962AzdeeBFuvngHbrloK67enGBayRgtwibmjHuQNERKc8h8VV+DckrUkUSJ242gInHSUOoDBxfwr7/xA/z0QA+YvQT9ss30a6HQCCnvQx+R1hISBclhxvQoDZr0f6K8eiM4ArU+zph6sHI/cbwnIyobTZPVC439UZI8IFmOEZA4Lw+XgKTAjk6AS+IS//STH8WXr5nFLKtMLCKdZixr9Vp2mWxR7FNHk2JX08fH4x/VdS2vEahcs6HtW3eaiHyY8Hlsk7hrCRIeShr2vjaPLD/drmqE/gTWjMbZw8PjbYInVucJjIhIUVPNur+1EPkoaGDdvB9ViEaERL08mQxMy1YmP8SL9/DwB4+/gL+58168Oj/Ecp2ijLr2UeU47KAuGAdZWKChqkofO3bhrSVVGpYRFzAjMCZXDm4/1FtwYnLrwO6H6dJSBWr6i1gJcUQDFIXoKTwNqYhUkSBG9JfSLciHiCnTIldLRxEMFjCbhriWJOq2G67FDVdchku2TmH7JDDB8NoMVr11mgyvHjUjVjYxh0EzL9Sn1vSrBRR9rkbG7NShey5wsDfC4fYk/vjOR/D7P3gA2dQFmKdB17peIY1rzHtWjM0yCzkNsCNW6vNipm4A7xSxOr4WrsVJiZX9bQS8jnlWsEGQsJy6adveZD2y7xVceulWVIf34JffcyP+5effi4tzYIpXxOVQD4AtvK4yCKxv8dSgtKrGrE2z3R3LUk9bxedDPiKSvCwfccsGAhsBA9bTvKjQ7my2KxpipaqtHi73pCojJXLkIbFKrHTN6592Dw+PMwtPrM4TOFXrCMGxqlZ7TkWrp6pkddDwlHxKhkWBqMjt7ajDoxK9dAIPH1jEf/nBPfjxs6+g3HQBBlEHVdJlGCHKYY4oy9GhYejQYIvujFy0Y3LFP21pCBSnbdfsm7/xbzh+C+5kcAaY1+si7mrYRrtFJ0KhCTSZeqRIirIhWjSokyQkXW7TUQ/XX3wBPnTjdXjfjdfiygsSnnOGS30SmjyshdZDXjvT0UdnGFY+oKXlVicJrYqle5Z5dCZMlGqjxIqZVGeYG4ww6s7g7j09/Ju/+T6eOdTHcJJGP2oxH1256Q51j0qTeuRkYl3KN4aTcJh3DCclVhtOb9M7xPqhoTU2JqZYtsFoEdtbJDAL+/Hf/9av4Beu3oGpzC0SGqlRQKJeaciWdXojJEVlpedA2+bqUBV23ENbVCWKmjQ9SW323pDuJe9fPaHqSY55vs34E6tdrIK6XoEUovYMMeSRnp3x86PHrakhrsdqwxnm4eGxAXhidd5AqlaKfC10RKGlcqRHfSaOMMjdSBEV/ijnlWGM/cslvvXTB/GN+57AviJFPrUdB0a8MCTx6E6SkFGNF0MkJCBpTYLF/YxmoCTxaoyhDMmq2nfQUXPepcMdaGhLvVYngob+3LwTdUrFZozLkkaKRDAvFpC2a2ya6CCpctTLCySHFS7fPI2rdmzBh2+5AVds3YxLNiWY0C2oM4qJSmm1RqMB2q0YSZA4WyUpmUYZwkRGTDmk/j+dkNlSevXbGDGX/lMDwyx6qOI25pHitRz4izufx5//8B70J7dgmLawSIupz/Coz0rDpFrTyg3/aXhVebg2V988zh9ixXpCQpWQpAxImFhT7CWBWYzQOrIXv/reG/EvvvQJXMDqPFGOELN+qUwr1kHlrPEXF8wpQdfqubIwKAojtDlzrgaVDHjAdGke4BLL+N7HnsX+hR6uu/XduHRTYD2nE6JcPBdXNUmWel+VMkIBSFaIlWs+aU/wxMrD4+2HJ1bnDahupcwbmHVaFfVUQS1zHukNwKaFLYOwX8r+pTl858778fSuPRhEU5QJzOtTNPqeXyzRfCy2oOsRCUmOOCig7+vltrRBezUmxmN9LONat7b2GaHivyNW2mlIy/qwnjWbOxXYvgJTr5vmas0GS+jk8zSkGWbaMa66cBvee/1VeM+1V+DSzW10eb2+JKi+KJuVlWeocmfs2iRksSaNI0FZiLyp54AGipZMi68rSS5VjqjKdK1Y+/Hm1EEzny+SuHUwl9HA8n4eebXEf/j6d/Hc/ABLrRSLMfMy1AelXU9eRIk1BMg81LcCN0qsLIATwPGbDd/USSCiOt5dBycjVpack50/CeJCvVA1hglLdyJB3Z9Dd/kIrk9K/D/+u9/C+3a0EPSWMDOhWqFV0fXBb0diVP4biVa32TxPjliRGvNZlOqtGWC/CtCjjJIIzx4c4k++eTsef2Ufrr71vbjpqkvwyzdvw05Wb9VV1TkjV6wHVhUtD8cZuUKsGK5z8MTKw+MdgCdW5w3WECsrcSpbkQHTuQGygi3iVEMR6qXiPo33kNe8vGc3vvbkXvzp04cxv5yjzAOSDhIlrVhO1R5F+hwHkFWa3svzIQmCPh/DbajeHS2rUMqcqLLxkNXNifZJsbiv3heXEKNca/bpydJ3Aqjq0jCp50rhFLoH7k9127iOxOqGbolrLr8IN11zOa67bMZen7dRvHKIFhNQZAMbDkrTFpI4HcdNVD0kIc0f79E+5My8UM4NNDTIW0kZiHzqrtSfFigDlKcSc6CcMtQLNsCw0DDQtPVcHGZhfO2e3firnz6AfTy72GlhFCbWe4jxMhJpkVhO5bE+2aOEbARK+PpwRGJDN/QGeGeIVZqx7olYdZhrLZbhcB7b8iX89ofeg9/+xHXYzvyPtWJ/qmFx5TXLn9kaUeylvg1Eq9tsqohVDy1XovKmQ8VAF0ncetzuHQLfvOcJfOfBJ/FqjzVuYjO2dgP8w5un8JErt7EuX84GgXpR9UJIgIQSM0Er3z60tDXESrVZf+4FFA8Pj7cPnlidQ2gUtGC2hUcyqu7M6qY5a1bASItOSdG6q+WkZQc0+dtULw21hpcynl5mGEPa7Xlun9x9CLffey9+8vwBvIotDC+1FjAtv+yCXWtteYWnyGOeTbWYaIGszB3zILGSgVrpqVJMtcQdk71wy1DG81f0YWKetrf7Ahobu4J+3VCX0q6bVK+UhkYKtEkm9JW1KCdZ4oU7Zmdw5UUX4NNXXYh3X7gJF+5oo8N0qHWvOcIpCV9CUqW+OZd3SrtCdEMouplQw5h2TyRUFdNBMiM/zrcDT7vb00FzUiIHndwAlIbBoI9uZwJD5q9WsX90fw9f+dYPcf+BeeyLpzBIp5mfrp8tDRKE/aH1rmW0/KXYqt2VXulXIhoZ760pA7cvKG9t58R4o/MnxMkutBpzQqgunAg6o9rispzbsVcLb7yvjUlzn9wKBZ8J3W8UZIjzHmZHi/jghVvwf/37X8DVemFhmCFtqXboTUCVfcuG4Cxr30LZjhNrS4iQBpPQZyTp7pNK83WIeYZ9x3OL+P3v/hivLI4QzmxHljEXsiVsqvfgA9fsxKfe/R68hw2FnazMHT5eE6wj+ja0SxcD57OgvFA9VnRKqj427jKGsLTzrD1DjQiuVqzdul8PD4+NwBOrcwhSmGrrqsCkAtWP4gbvKGIjVpRSh9S0GrdQ+5hKu6K2tULmKfsILf1XerW7IoHg+dA+HdPGiJ6WqbRfXAK+98wr+Pajj+OZ+TnkdYch6h0pp2pNLxvc8WoVcuRnLUR7KoYdBOrzce/R2ZDheD9i1BrO06TzUMsjFCJWNdI4tZ6xItOaVLw2CVFGNEla24nkqKuup/48NoU5draAK6c7uHnnNtx2xSW48eKdbOm30a4Zh7XomVKK4rDkjfffHFb9rdw28WavfrNQ2MqhrF+j26bVLJdQ0qjOpVP4zhO78Ps/eQ6P9CYwn2ynX826oQlUPuRLqGmk85QEVvOvmnI3Kql9pdSlVkOkei1BE7Ij5o3ol/5yntaQ1EawNk+OhwtyY+GeDOo90urzIgHHL9+h9KjMRdyNc3Br5Gr8fCx3mS/kpZ2sj80LR3BrK8A/+ezH8dmbdtrLC1pJQ2GprnFjeaQwXMDMz43kU1O4rNtVy30MPCv6SCOWY9HGYQb55FHgKz95DN98bhfLcsLm2nX1KQOSsOFMgbw/hxsnp/GrN92CX7r6IlzdBTazmhixUlHHJNb0qyF5pVOpL3PNIeOD0hSSejT1HJpwf+WEtIjdKcU1ZvSnoDdwtx4e5z08sTqH0OhnwSl9beXCMw2xkuI35e98iMaQp3Ar0kPFTpKioZAkJKGie05S1c8rjJIER8naHt27gO88+Bju27UHB6m4h2mHMYjF2CDaujh5FXLXWn8Q49efUqN9I4c0BEVOY1OIXIU0FHoRnmeYRk0vtuEt3oomEhuJ1KRiEsJunWMH2dW1OzbhfVdejHddcTGu2TqBWUbXVhQkawHv1RGrVRHW7p8tsCRT9AWbdqKFIQcsnGUspZN4cbnCnz3wEr722D6SXhLM6QtpNFk4gz62bibZOnIYcYfGmPckguSMJA2kjpl5Vhv449YJI7EyUuV6rURGtOaXoxGnCF5yspJ3WbyBcN8ALkRF3oR97NbKdyVl2jrRUgsjEnFMJNi0PI+ty3P4l5/9BH7jw5cjXayxZUL1Ykys+HA5qsHtyrMlYiWXU4SiV+HqxYpohJB1Xo2bISOp6hZe43P3N/fuZhk/ipfJkqr2hM2jqxf7aLdSDJPC5iy2hn3s4D186LKL8flbb8R7L5rAVpJELQciQmgL15INFWw01QnjIJFrh20Xv6AWkTVw3PPXwD2JdqdjcdjAnXp4eBCeWJ1jaEqrMSW2s1KCbihAh05Zyow6MlOaKncUqSXdqi8m5wHypIWMrfYX+sD3n3gGf3vfI3hpfoBRNEnFTyWvYac4QXESLevI0vrQPCrNoVK6mqUB1vYuqLcqTrRGEyMoeZY3qDV61Nqu2myBd7TcA9NNf2lRYJphXDo7jSs3z+KTt92MK7dO4YotwCzD03fd9NZXK1R8zVt7zCJn4Z3BXbN/NsHyQsJ7SAISKxGAcoilILUPVj+2UOM/fvcB/OTZ19BvbcGojhCpl2o0sHk2lqFW5tpdm8904dbu1oypI1cuRgn92nCR+Tg1KPzx7rpo4j0hNhAnIdKje3NvRo6Ft+S+oejK2BoRTJ2GRyV0Rq2WRD1g/SgwOX8Yv3jTtfhnn/sAruyw/vBUwnoXJy7fNNqtKq/+G9djRTFitYE0K5P0/SYrCzYiogAD1ud+lZI+x3jw1R5+/9s/weNHSKSntmCo6NjAqDM2IPjsVbxWZRanTF/VR5gt4vptM/jSe2/Dp6+/CJfzEZ1gvUlFAEM+3NVQn8XkfcR8rvSKhoOS4aC95oj5Nf61O1v1JEcPD48NwBOrcwmNPlzViSbmxK3MpdCcdpRK5kWUqiBvGaETtO3tNy3vlMYTNNrAMwf6+OoDD+G+V17D80eX0KMyrpMpFCRWIVq2YGFhn29pQn7zsFY/Fb6GqGzwL9BbbWypW8tfia4QJQn9cDfPaSA1B8qt11NHC7RsS0hJslKeu2hiAu+/+mp8/OabcP3OKeycoDEUEaEtSRmcDYuoV4akyswEwzwRkTobiVUucsD7iPRZExv0rbBU6CPRLSyGCX7y4hz+5Hv34KkDyxi2pjHQG5kkpSW9xmQDxpv444iuyIREBt25r8xT0/lmq6HgOuZ2A/lhYWwQvHZsyk8ZWhTVWI9IFO87ktiQtiNZRqz4p88MrRAr1Q1uZ6segqN78aErL8U//sKnccvmELPMv5moQko/xu95vWqQorAB1RVipURvJM28VsPZ2vLyggRuYVRi1O3guaMV/vzHD+KOJ17CoDWL+VqfXqJ3VgRbKJT30ynbyLMMZUJy1eb98B661QAXdmN84urL8As3XotbtnWwlWGnWvxU64aQwOWjjP6neS+ih66sJIK2uhOJ7lNi9aeR5oSHh8cpI/ofifG+x7mAhj2tgWyiWtk6JWmUp9uTy3g+E/2oJ6PWZzLSjg393fPca/jru+/HD556AXvzAH0SKq2intNoaxV1Ta4dkYVFmthyIkgJnwAafgo1NMF99aSskCoSLPUHBAmJXlFSNNxRI2VYIZlClQ9JmuYwhUVcuWkKn7n1RvzGJz6CX7z1aty6tYUL6G+CTftphsIQaABJHauMdIRxxTSKjEOrV8vIrkeizjZiJdBkWrpEgHL13kWpyycaYq2Kv3WmwxwLcXD/PswvLiFTwbcmMNISAmQOIqciADaviHmiV/odnVW4Te0QyeUv49BW1lPrYZ20EE+EN7yECVqtjMdh/XJ5M7ApgXazDRiWCBXvg78M17KBdyoiyR35DVkneN1Mfw43Taf48kffjw9cMYVZunVseHyEFplVSf8u9xSSckeXjgPUdoNptiE4Pgeq82UVkxymmGPg33v8JXzzgccwx0bOiM9cj4SrwwZEyeem0ER3Rlf1arRbUyRWCYl2gRFJV54mOJoN8cprr+HIwjy6E1PYNNtFK4kQ6+1YXq9vZ/LBtVK3597uS/myWiy6m5XslDQndaIRDw+PU4LvsTqXoJJSw1dYo/RkIE0Bu8PxKalReXY9HzWNTh0kbr0cWphX+zXuePhJ3H7/Y3jx8BL6oict0pR00hb1XM5KGgBemrRcS14fhV1Rx8fiZAZSQ3uKvyFUJcOujVRJnVPvMy0azmpTs0+SEGlRUZBUddhav4pW7wNX7cAHb7kZV15Aw8FLJhjcBNMVFxkNHnd4nYxnTtaY0+C42UMROrz7VpNB5wBkzkWsVGpWYro1vRnJ/YAHGc8M6XaojPC1ux/GVx94GvuDKZZjiHhyK2qSYhtG5d0bkdI2KGxfgayQbxOVRUMeAsQiVvJwqniDS06qWnht823KU4W+96cPXrs0U0gqV0gVnS3XtLSIhPcf0TEisdLboDfFPfzWB27Ae6+7ApfPBPZKRra8iOlui/Wd+Raz0TGuQ476u14rm8No9VxyqtCwtD7azadxQInb1lP845d7+MqP7sYDuw+imNnBas+ntojQnexgVGboR7kRo6lgBvlg/KYtExO3mLZI9zZEu+qjlS3hiokYv/Sem/B33nUjLk+AKZ6Oy5HGla3MNYdKc+/c/DsduydQabL7bBwb0YnGg4eHxynBE6tzCSop6ndDo/BMaVLGW8HpQx3RRMu40GCUVYK+PozcAZ46kuHr9/8Mtz/1HPYv5SjSGRrBFoo8plcqXq2TpDWt9Bq/hjCo0Fs2vLZ+VTkZsdJVSrIz5FLqDamSEdR8KKp8EqkuW/StaohguIjts5N4/2034Ys3XYd3b4swqWleDETDfiJgNo9ErX8Jg6qVTpI1EUK21SkBJimrs0vOBah/pcCwyGnctXypy211dOi9SpGkksZ2OWrjNdrL/3znI/jLe5/GQncnFusOy0nmX8NXynFSA+atKJrrrbJTdsYmt4tYjff1p9I4QdG+RZAsniBc41QbJFbjGuXqlAnrlAuQ4iJUr2dcFUi4Vf7pK3/6RM3/7kPX4Zdvugg7Nydo0WtC8tGKWSt5TqFqiQUj/8wVhSixnH0LxEqUuV8us4HSwnCZ6U7bOMDg/vW3HsRfP/U8RtNbcDQPWbc7fA5aWFycQ9JJMGI1sN65TAvCxm64U/EzUwvVB9b4kOQriTK0R/PYmVT4/LVX4dc/+H7cuinRt6P5fInQkbBbmVOYV6Lfug/14DX3KLGss+xTThDy4OHhccrwxOqcgopqrPQMUpBj5cdTKkpHcsYa0oqWkmfo1V3MsSV7/64+/uaun+Anz72A+VYX0dQWLGa8rkyouCmlM7bqCdLclEK9QgzHDS+tD9fzoLjkVVuGYJ5JeCh660wt74ASk7QpLK10jtEAU7RarVKfwVnGlnaId11zKT783ltx49WbcDWD3a7um7UQsaJRMbE4jUaYQaQptdyRq773Rz52DkEpz/krOqTFSt196GUDrRSOUj2GGX3EWAjbeGGU4Pe/9wD+4u7HgS2XYSlUjwu9KKuV+STUtd6MZCjqFVSZKjx5aAyrbUkobJhQTifESU++AVysrwPTeIIzb4goJ9FnmsJOGxk5Vd9unKJX45RUkqkkIlHJMkzQb2c4xOZWGx+6+Ub8gw9chptnx3PyeO9xwBpqw6RKjetR1cCyjhSURE0BR+YalzdGo1a11WsjBevtQGWStZGzYv7k2T7+n3/85zi0dYeV51DfxWSjpmMz81m3I5KxlP7VlcSotSRKXEXcashX6eRtymuQ0w/vsR6iXfSwhUTxtgu34+9+/BP4xGVttJcH2NJNqQJYt5iWtN2xrdKlxXR1O64mNHnQCM+N79zDw+PU4InVOQU3XKTtMWbJdKE0JFukeSEehCghteA2H7FFmyY4xP2vPbGIv/zhnXh2/37Us5sxRwW9qOXEJ2epRslwZJtM1LZ1w0lyVGylDd+tD5G5tYZEkJv+ioRKXW84aYY1DT1o6PRR5+k0wtaJFkZH9yMczOOmS3fgS5/+CI3fhZhSBwTDEKnSkIYdSM+bKA8Kpspm0Fja3Io7zgjI61o5d6C81qT1kL+JHSknjVgpT8seTy8bSR2lk1iMJ/DUAPiTHzyFv777YfQnN6MmUVYdKFgHLPdZZhVJmfqknLhAXb64vNLk9jrUEOT6aAjyeljf9c1hbQ/rqWKKF6dZiaUywyhmTdVHsh1TctVgwLzqLeGiqSl0l5fQWVjEZ9/7PvzaZ27GDTPAjEbYWI9CfSBSvZ9GrAT15ijv3XBZAx058qE7fnN3reegEeWu5kWpN/UI+XGPSf0f/vVf49lhhd0ss1HSYdr5vDI5HSVJVzBNw7RGFWn+F5sNTJB6rUACpq8eqEdNw5WBO+E+I1UNEQ0WMcV7uvHyS/Hxyy/APyeRxMIAkxOu/7YmaWulMYaDPts6AZKEYY6Jpe7Z/Qqazafa91ZK2cPj/IQnVucQpPS0bIIIT9PK1Lwaam8KFaANiUgZhuiPqHoTZ2gOHSlx+/N78bs/eRQvH1owf+2pTejnNRY1aXx6CiMLnQqWYQVsWbdJglqFtmptRxhEmhvl0nEqUI+VrrehlHyELuOYSaiysz6K+YN419WX4BPvuQmffO81uJC639rJjLtDQ6ThvIiGRo6aBqRdGSn1AAhKjt5bpKmRbdFJx09UozV+IzlnoIS7m1WviaPP7hbc/BeyqCHLLqZRpSE+ULaRkVS8Qo9/+O0n8Z0nnsUSM0m9LXrNPivVU6glGTSsSMLAwgsYjtUbbl0PJMucRlXGW1Gsh7dCrE523s372RhEtpNBjp5qQreFgsTKFo4th7xVkoxWjKlihOjIYVwWR/jibbfic++9DddtFykD6zQD0RirXsgwYqWUKLViZXp+mDY6rZI/lY3oliOobwZriZVWe18MRZiBZcoff/sJ/Ofv/RSDTTswNzFjw9jWo1vWSAtNOles+igzE8CK3eK96VkvWK4Fn29JoB4ulm/CjLTvH/J+xJFKDDEUCU9qXJFU+Oc3XoFf/dAtmBKvYgImeHt1rmVX2MCxxa+UGcT4XqVZdLdqrDB0buXHw8PjVODfCjyn4OiUjK8UnlPxVIOyAgT1ss2h0OT0AZX5kPp6zxLwtyRU/+mOn+LxZbZqZ7YiTicwHBZUnDHSVgdZrnfpGI5ZXgrD0xwdfexVSxlY/5Wt6MxY15ETQsExvLrKbA7VBTNtdIs+hgdexWVTMX790x/Cb33h4/jI9Vuxgwpfw3fxiK1rGgh9qsZendc3+3ijUv9OpPjVhyAz50ydzKHspFkEibJDmaMT5xKUbt3ROE/1a6VthzypycsRjV2Uotcbsqxb2Mx8u+zy7RiMCiwePojlIwfRjmN0Wm0WI+sL64PE8ozhiiy4WkQTqkwTseKxRb0BuJSuD3cbJ/ahtGwEAYmBJqhH7TYrTIxcb5Fq+IxlnvJ+pqscnd4idpA0/eJ7bsGvf/zduGozz5Gbkmvoy0suU21YWQHqh5VFazKM2ZQ5U/SjBofE9fqZ6ylBL24skgAtMt6HXurhP371O6i3XoQjOYkwn8WaDQ99YkrPnGq2/pQkTcgX90vZ0FBSNeRd8NmuNYSnsqUYN8xYhmwEqd7UaYIsSTEiyyoY5sEXdmFpOcPU9ovQngBYTWwIMGAeWa+08kLgtU6jqNdOTRX1WOl+PTw8ThWeWJ1zkAKUChwreZEqaT8qxjKMscjW6yKVYo824vH9wJ//8CF856Gn8UoWINtCA8zzBQ2T5jolNLhFQVKl+U5sHa8aOobMg2Y+R0VFrEUNTwS1yi1VUs5jadCKSsykFZJ8CdXCQWyNM3z2XdfhN37hI/iF916Fq6aowgcjhKM+ZtMIXRI4zXBRdEbKzPCbrZO5cbdKEWdaEZ0UtG08qKunMRrnApT5VgDOmK3JQrstOcpAa60rDfF12x2bQ6bRrOk0wCU7d9ibktn8URSDgdWPkGWslfVlkGW8HZEgSdDbggFJms1VE2lYE9lxWFuWx8PS6XbXhbv2xD5W69upIWB9DPX2XsQGxIgEk/c9kSSY4XGXx53eMnbwrv/+pz6CX/v4zdgu0s7GwyzrYUw/ileE3SZnWxr4Y6SKx6uVzTlLGJaIlXvmTr1Sqdw0F+yZgxX+/V9/A6/0CszHXZRpFyMWg9EZvWygOVgsD0sTI9YSGrHmVlkFYDmuEGRdYQlnNSf50r1YOvV5ohr2JRzmvRohmoj18v5DOLg0QHd2B2Zn5J/OWQ59aNzm41kKKCLh1mOnp8rdqc56eHicGvxQ4DkEFZTmMatTSUrPYItJquehxihsYcgzB+jys109fPOex3DPUy9hoaCinJxBX4ZE0GRffUJG4chIUdPmVOzq9LG5G1S22kqtKi77vpyNtSkFr0fzMWeFY8aU3lSt5J6Wi2iXC5iKA1y2fRM+cesN+Mx7bsIlbD3HWYFJxqreKU2REUl0Rl7Gg+GFaoUrTp10LemGBMi1Ufra2v6Ko9K64npuQGlXsoVx0mXUm464ZvhTfQlFNiJhlUmlEe0Pge4EFpj3e3o1Hnx6F7734JN4dPdRzKGLfHIrBlHb3phcHS/NGYq+E8m6Q+Ottcq0HMd6MLt7gnwcJ9OlfR2E1tW2/rW6Nw0HbgSqG6oTWoZC0mK96TB/4qyPdLCIWy7Zgc994GZ8/Obt2NkG2hruznuYFEMJZ5gDvJ63q2AUkmq7SxAPlD2Ci8L4VsG8qvjLpghroRj7G0P1vxEN9e2j21e+9RD+9K77kG2+EHv7QDKxmc9ggmI0QMrno2QjRGK9RYw4LRgfM6kOWPpqYDDBJfNUq8LbM0oxqkei1dyLfio9y+r9qvSmLQllVKFb9HDbxZvxKx++Fe+7dBYX8L4mWP6pevrsuaFDwHrAgJpyUY0Y73p4eJwCPLE6h6CS0uoHzQiGQUsOUPFqbZ9h1MGBvMZdz+3F1+59AvftOoT5aAp5Z5MNFbRyfaeMJIqEJbeAArSoUDXkF/I6vRHIXxRhTGMcIdfwn8ZNNLRSjlRZxpEeCynyExGrqXoeV8zU+ODN1+Nj77kV12+J0eV5+whuolfMeUDDJ8aoFeHDhJYwaWFUkGzVQwSxLB2Nma0OLqPGNDXJUCbI8HHLEChuDpp6F7SUZksnzxXonmTYtdV9SZg3mobu7s2JciAkMW6XWqVe+UZhOalXpBd3cSQDHnj5CL7z0PO4Z9d+HCS5GsQdDPQxXvWGqIuLNMvNfssYBslq2WG86+eVitMl5vUww9uUxTo4GbGS8d4osSrU5cI6pzrTiVK0hyPEyz1cNtXFLReTVL3vBrz7KmATb1lLdEzFrPdVj0RyxDi3Ma+Yi+O4dQ92H8r7tcRKGFe3nPmkwfIEKZ3k+MZoSJVkxGfsWw+/in/3zR/i1biFgyynxZAti7qFNNdMJi0NkSFLSmSxehAjpjVBN0uZ7ghDRql1u+w5ZXh6SnMeawV6ci/eZJORAZKKz1QZMtwKo7LGcpseeN+bghE2j47i5s0pvvzBW/CJqy/G9jTABOuReqftRoPUddrpkKJs9vDwOHV4YvVOoMly04fWXn6dNBjrOIPcZQBkU2q9KaThHZ7UwpEZleD+AfCTJ3bh6/c9isf3z2MhnUavRWIVpjQYNaZJrnINndBv3GrZkEpZkorQvVml3HqsGGjJc/Z9QIYfUOm3ygH1t4YPE9qzEBkVd8FrwrbWu6KCJ/FSD8gkr5nI6J+yvd3GzZdO4+O3XYLbbrgG28SZGKTm0Wo+VTnqodOiS07rp+GNSEaLaZCiZ/xGKWy1ap6zHpVmO8Y4c6wFz103E0a9Xlq3SJPa1/g927FuwetO3GRiifomA5KqlBYvVh2qyQJErHQh80ufv8nitr119uzBHHc89BR++szL2LM0whJzfkhypbc09TKBrhKxTnTpiCSNxl/1QT2iFrR1gTR1k79Kz/hoVVheJADjkyvQGcGG2447Z6BTXGeMO3PzAukgMmFrLEl4rOFOC0c3bsRdYjUApREN9URlSEcDTAyXceXMBH7xvbfiE7dcgqu3sSoNgUkmzRa31eRvNjwURkWiafVrnCxtTJpbUnwNFBlFZF1Xajq3hgPfDI4hVrzuK9+6C39z32PYz2dokc/ksLsFS3xo2dZBd3rahuNF4NQ7JYrbYj1vs8WgofgBibMmwFu43CiZ6rkyAiT2o3xmI0YnYnpoMY0RM5Y0EvlEi1WEiqEYYgaUso8bmFe/dNtN+IWbL8cFvHySl7coJetTwMaOnnuVue5UUehJtD+G38TfiM47P3KQB8q47nh4nK/wxOptB7NbSlAwBSQiI+U9tiFrtoKU7KqKyqjA+tYTpLkQZd1GUSXIaWj2zgE/eOgl/PixZ/HovkMkVR1kkzPoyVJGDIVGdaKfsdWrQldYGkhS75Xe2tOq5VSl6j0apyDkdTENWsK41LMBtngTGtGkJLGqtGZSikESYURFXKtXqUV/ZQ9T/QVc0F/GDROT+OLNt+Bj77oMl2ylwqdxSJKESZGl4x2NjY6tpePxliAjqIFc1aEhSbL6oqo4xWuLA/zsmRfxk8efw/MHF7F/FKEX06i3N6FH81vYQkjqzRiQfGi4SXXRzeFZWZ2d1UGkws39YRmb4VQNpWtNo11Pcv9YIyrjazhR2fJ8u1jCZL7AOGLrQSpI/kvS4UqfWyJhs7XPmBZVSc2305pTSp0+0K3v4NX1CK3REray7r3/su34xfdcjw9euQWb6XeShI011D08IuskaXrOlD8u1DODRpVaA2Vcv/Wsqsfq8cM93PnULvz4ocfw0twAi+mULZmxpCZGyDTyeTWCVBRISIImSLBabFRo6Ywi6WDE+9CzqgYP1KCyu1D5ifC4Se5yteeXwaj9UYWsE2TOdU5ipd5nkbDhEFsZx3VT0/iVW27GF26YxSVd9zWDkHlZhMvMLqaZuZVgijGM6SQDVIwrxI6iWtDkpxaAcJVF8dPVd3d5nMfwxOptB7O7yXIpIKomZ6acwlor7qxTXNYXU5FY0WhoInKp74pVMYY8ub8HfO+nT+PbP30Ir/Vy9KmIe1ELg4CkS4Yl1mvTbgKvejrcd9XUBqWCZBpkX9VK1XfSBMUnRW1f+6eIcBVS0OpAUrcJDV8Ut6AVz3M6ZvkyNk0liAdzmM57+NhVl9LQvQvvo8HbRqWdlgMjUI24Sc0OnlidDrBu2JAwy4OGfEByVbLMc5KURZbjiweX8dCLe3DXY8/h2X3zWA67qNokWDSHKr8g1Ae6VQNZNrwmpIjGaNkxzeIR1Kek+Uyi464HSTWSVId10dWaNWDxWv1dU87HQ72gqst6w1G9VFoaQmRKPVf6lE/NehcwAVFNgsEkpKGbM6T10GIR+LTCVTu24P3XX4UPX3sJriF538RI01GBLs1+JPKnujUmVjb0yHh1N2eqxkmVNve8llipZ/coZY7pe2zXQXz33ofx0Ev7cJiNol4yyWe4xcZRh3nP+6afqNKwY2UNGxFJ9d7pObUGkJErxaB43HOsXip7g1bx6j4lImnWxcS6UPGhJbGK2RBS/rWHfcwyL69qp/jCzTfgc+++1OaiqYcvYQMqDN3iKyF1jAiVVnwXubKcY7CKQz2eyk/umjCXHemVyMETK4/zGJ5YvSNoslyGxEFbKapjQaXKX/my1ZvUmqWxGNJzrwoxShK8ugR8575H8N37HsPu+QGKzoy9wk1+hUJvFKVtGqwaWZEhjmUmabpkcxiGZK0itqGFsZKOdC396fX0Ed31lmHE+EzJUzlrVW99e61DqXpHMVEPcfmmDn7hvTfjF953Ey7dRCOXAV1e27VBLN7H2Oho2+x7YnU6wEKS8aQhtnpEA62hoyHN3ZC1Z0S3Q/TyxMsLuO+pF/HQc69g95FFFCTf5UQXizFrBQmIhsjKnCGY5Y4RkjzrzTQZb9UZGU6b46NeTHqrRMhixjsm5K+HK+MGzZG867uOmUiPjLVVQu5qy3qoN9VEKtwnadTLOqJwS5KgddEv3dTCh268Ah+89SZcsT2yD3F3SQL13b8Or4u0LIVgw2SsuKxjTQ9L09dzptEQK4lI0XyRI0tIoHiLLy2U+Mljz+NHjzyDXUd6GJJcZa0p9PXGruZ/MadEyPTx54k0RTBUT7UaPzzPHc2vavJcu1p6wtEqka6x8Frda5sPteZA2hcUbAHVEKnyMhtgetTHDhLWz912g01qv2IGmOA1mtBeM98D6QuVPYmVI9i8ngSRDy/Dd/kpKGbFZUlqiJWInYfHeQpPrN4BvD7DHYFy0NnGx6rPimSmUA8CjeHRARnLZAvPHs3x13fei7ufeQl7BzVGbPVmYZskisqUmi+luktDGkgq6WFdYNhyyk+9VuqJ0grrguyZextIylOGVEMLkSNXNLJ9KsleGiFpJ8i0NEMxwEQrojEboTx6AFuCHB+/+Rr84gffhduu3oRNqdJLwxiWmCARSxlNY2SEhlitJVgebwE0nNaVyLJRHgdpYmRCKxXJJGcsU30QZ5FydAC8eniIR555Hvc9/Bie3HcIvZktCNpdJDT8+lB3ybKvWPasIQxXQsNKWSE/ioNFWUU5qngoR4qDleb4sCnZxm1tSY8ixqMhMKsTPEODb0N+VYmQjYCyv2Qr80/Q8BdLRxDlPVx24Q6868br8L4rd+DG7VPY1E2hGV765p+bt1chW+6h1VJFZ2Cqz+oF4kbESjG9HcTqeJWqZlHOZ0S9PCOmWIthHOXBw7sO4/tsED343G7MVQnC6a0YhC0sa/6iUhnrC4cBJnms5Rj0gooTLcugODTvy5Er3auGcNWrJRG5pld0Mj6HdNdHvJmrqBM1tpSoDO1iiE45wOZ8gC+++xb8+offg50skhlmVichiU7Uq8jrVT5W7spP5SuFW72/2NypUS+XJCvOM57JHh5nMTyxepuhzG5E+keqyaknihWFttJOhBkHCklQWRQYydi12ja889Jcjq/e/QC+8cCjOFjFyKe2ok8jaPNmqADTKEWaFQgGI7QZRtVNcMSWMZfxqkl2SiQURad0aNFBN3FYn8wQGZOIXEVsUUdY0noIVMTquohpHsLhIjbXI1zWifHZm67Blz/2Ply1hQasnyOOMnS6TJPMOtPTDTVh+Fhi1Ww9sToNUH0p1C81LkzlqSa2q2ZFbrVuESz5UF/OEuXAXIGXX9uHZw4u4I5nd+PgYh+LvT7JdYKopcG0BEP1XpGo1zY0qGEqR0tUYxVNFeYoNUtc8Y5h0TfJGPtbOV71hqF6kUR87IR6qRiDeppGpIDDZWyfZLzLc5hgyq+6cAvezzp263VX4+LtE7iIydhcL/EaN0SlFcuLYYaE9xqSsBl9srAZuEgGN3qiFP3bTaxc/Sbhy+aRkvBqWd75YYFSQ4Akky8fAX786LO4/YEn8MrCCMt0Lydn+Ywzn5XwuIVu5p7VhlSpp1BUUQu86nNHuidbBNaIVYSceVsxbHVStXs52tQFmmc55DWZwtAbC9QFYVKRxJJYse50F+bw+WuuxT/+zKctfy+YVX7py5QlG2IWAX8I3Y92xwTLlq5QGfDP8lUZLSeJh8d5Ck+s3mYos2XyBKeStBXB4RnreRiLQAUpA6GPpmp19OU6Qb+d4pl9Gf72hz/BXU+/iEN0WwjaWI7YZo8pNIx6u6tDRRuNaPR6bMEzPH1PbY6tVUET0iXqHWjanDUVsfvyvYaEGMaYXEWUjIq4H2ZAtoxWK8Jk2UfSm8O7L96KL3/0/fj0LRdiE8Nok7B1U5LAeojF/jyTEmC6s4nhsOVtBub18MTqNIDlWw+GCPSGpYH1R6SZYjaRhEMrV2nu1YjGOkjbiGL1YgALtNEHybgefeYQ7nvoYby4Zx+WaMgzGmPJSKQs1ORy9TCRGKgHSPVExpvX6325tTASRVFNc+Z27LZmK5Bq8MANcQWa55XnSEgGJ2JgKqpRLc/jPdddgY+9+ybccNlObGHV7tDgdxjAFt5NO5uzxyTQ8hwB6+xIq6+ToLXdJ3wM9Gt8YByp8mLN4RnDesQKtfoMNRmdZRJqkn7beq/keoiP6T1P7cPXf/oQnj2yjGFnGkf53PXVQOrOsnFEAsQwK61nRVJVU0ih6CaaxrtldOqtUrkUEpFp6Q66t5kvCc/FIsdRgIx5PFAYGuePSGTJucL+EjblGTYvLOOz116Pf/krH7Ph1c1TGhbU25saVlQk4/vSLbkVfHln0iCutF1ZyoN2xlsPj/MQnli9zVBmu34jZ3zMBFjvwphcmUGk0qNi1CR1kR11HIyKAmzz4oVRiP/ff/06Hn/+ZQz1ZhFJ1TCewDDsWM+ChZjRUlYFulR+E5QwH2K5LEnKuqbvNARoYvEqRVTabNHqjSP1R+mNQxGrwIhVRMPKtm47w5Z2hNHh/ZhYnsNnbrkev/ULH8d7Lkvd/BbdSJEz+TQXbYXhjDpjY1oYFpX7WhLVVDtPrE4DlJXiN8rTQsOBJMx6C6yxdJqFzrpkdUq9GjSUmiunejjkKdUCFjOWaWdfOVTj8RdewmO7XsKuQ0ewb7GHHgPKYn1MO0XJrYaZbB5XrbqpGT6K29nShjzZ3B/GpSQ052yoaIy4XLLFY8nnWVVzRGWBzZNdXHXxTlx54XZ85oM3YpZGX8PKtO8gfWJYNOGq1yT2WpPK6paYU6ShP1f3S33uZkwwV3iAJUoHEssUOZ8xaH6U6vVq3a54j8xFEiN7Q1c9fyRNecEmVdjCiLehXsTH9gF/esdd+MEjT2PYnUE4swWHFkdszGxhCMpzR6rqQKRKyzKoN6k2YqXwNElfa9BpiFVz2HS/iRpVA81RCxDrJZYwsPhKPsuVvlfFxpIKRqvWz7Cs20fm8clrb8C/+I0P4aJJl+8t1q2U8WlKwUo+KniKSJVeYlDe626b8j/DWezhcVbDE6u3GcrsY4kVXURwTGQdCRrCYUmyQ0VYxVS8NB6jqsb+MsB//3t/gr20gPNLGZUoW+etGYbXxrK+Y0HFGlCpug56KV71COSmhPVKe04SZm8RMSzN2dD8iTqk0qc2LKnwNXygtrC4nQxVIqLGxIbhEtrdPpLFOWxmy/aLt92Cf/z5j9r318i50LYpLZpJIjKlNmwz1VXadayBPc4s1j7FK/sqyHGdMoM4BgmPSscgI09vmr9nb4ayyDW4d5SXHeoDj7z4Kl7cfwi79h3EqwePYK6nj/xWKHi+JKGp9a072Vteo8nWth4aVYre6tPcHjUSNIytOXfqwUri2GQq6GFbMsCObdtw2SWX4KrLLsXlF27FjhmgWcCB1WpFNC1IE9ctsXoDUs8La7iJTfh2dczucnxrq7c8vk5b86vr3k64Z0P9O5ZCpctEaedTStLT43Gfef+y3vD92Qv45t33Y8/8MtrbLsXuRRLUyU0kVnxWMy2dwLzVpHaS0YAFpx4lzYFTv5KGVysjVyGF/kPNk9LHnfUyip59t7SKPrGT25Ag80UvPpQZJklKZ1mwM0WN6zcn+B9++4tI2UjbOdUiCeZzrnmTmgBPv2RZls/63JXIlQYk9dQ3T/q4CDw8zkt4YvU2Q5ndECupd6kkZyioqNQiZIsyzwqUaRs5FeSB5RG6ky3MU7H9zl9+B19/9lUs0PqVVJR13Sbpsfd4aLhoMEIqNypWt+aQWra5tW6pgRk+z1f0TwWseRk2t4tbrehcUsyoMu4giW2tqWLEa4c52mkL3XgRRX8Xrp2ewm994lP48nuuxmZa36rXw5ZZkrs2w2AcvEKh8p60mjSVrOyINKzXsmcUqlPNQ2zZfcwTrUJofBxzwkFOWqWTZN52E7dER4+XLdJox6nouZv4Pk+bfmQhw34SrP2HDuPQ4jLmhhmyPMeg38dwoO/20dDz+hbD0dzAiIa3025jcmISszMzJlPcv2JLB9dub5Nkgf71mv847ayqIaVDd83tSemY8IaMlOgZkbpST5D1BrHSqr5zb61YOBQz8nIwUiVRXjBgI1dvH5QExSy4hhSP9Kw3YHq0SvoCn82CDHI/ec4dDz6PO356H57ev4DlmSsxX/MEMyrSgrxqxGT0xDvUQrjiRnquRa6al1BEeAp9Iidh6THPEj7gKRtmCYXcis8r9QyJVR6xcWX6geVGAtyh3w4J1JZyER+4sI1/+pu/gs2MusPopnhOQ7WsIcx23ofSwbA0BOlye9xrNRYPj/MVnli9zVBmS8ULUkeBGQun2KRwNWojQjWMUltBWwMer9GgfeuH9+Av77wXryRTVJZTSEKqVBKsoHCTzPUdM70uL2qj74q5ia4kaLYtba5UQq1t691YiTvV5wiVpqmSgMneiJRJyXJXPQUYjTAZHsUHb9yEX/vQh/CBiy7Cpbx0Qjch21CSYU2E9uHXEcNUy5Upsmul8C0as3AeZwpr65SgLF+RladbO2ulAa+sZHxLm8sng2vDwjSW+nizhqC0yEEzYV2iYtfHg1kt7ZMqaiiwLUBilZHgl2iJjLfVg+L8a56zpuSoTlkVo6gHqkXipV6uxp+RJhEOSkx3VRudX/HQqCo+H/qMkbD2bsZOK971fLmTvEc9Z0q5SJURgbcPSoLySFvFbLEbsRqL7ov/WndO86rURurxzMNP78Y3730U33n+KPrdLUZ61ZuYWz7QE3WALd+pl0zoZM8280tnRZ6KpKKIFvOpZIalJckVH3iX4zzPhNhXE/j8S2con6SP1JM9lS1g2+AgPnrTtfh7n/8MrpiFzaO0Fe35YCckZJo8r7hcD6jrsWrCdr8eHucnPLF6m6HMbviGU/xSrDJuTvnr8xdSrktUsjkt0R4yq7+540F8+867cIgatze1A3XcYSs+JqmiGqOBC6lFtdZMU5Ia2pMURqpcr5T8SLFqKFCxu+57DRcErgVMRVmRJGmxyOkWlfWwh3DQwwXTU3jf9Tvwq5+6ETdu2YpNTO5EP7dlFEyb6zV/GlGtzzOyMEWs2DJmLPaZP0XnidUZhYpdZrF5kBuj5kp69Xilgqz4FFRI6v1g+dO9ERlLDS0p3Kok4VJdqyMj9ImGg3hixHIdqG7Rp+JQqBIV9zHxHgP64H9YFjT2uet84l+zcKyrKnS0tHJLd9c7tQpNnFeK10I+1hNLUJMyhSkScFx4ZxqKXbmsvNT96bl3hFcu7tnXWlOVGlNkrFWUIExIHnn22YMD/OGPH8XDe47glcNH2OBqoexM8nlLmQfqF2bjik9cxOfaesMkep4pJZ/p3Fo3jJfPv4YBtYSKCJjEGC//RaykJ7RAsHqepY/a1RBb6x7S5QV84rZb8Juf/QCumFSvFR/3guSZYWvRVsVn5TbutVodDPTwOH/hidXbDGW21JFUuw1irBArKla24PWttyUqvQXqqZcWgK/d9SC+e9/DOKRXtNszyOMZFOr2p7GjLjQlLX7jVmh2ilK9CzYkoPi0leKjAte3/GySqxnMmO7qmXBDA7GGBUbLaAcjbEpre+tvSxri8x/+AD73gRtxyQwwTb/tvMYkjZM+eWNzM6wrIrQ4tG5SY2bVM0Hd625U4nHGoDqlX23d/mqGN3vrFoM8B6x3rIMsvvH1es/P0QD5V20xI6x6oxnuqiw6LdF6SprZzItd3ZM/ErOSYdD4Nh/lNtqlcw2024TZuB+/LceVR5Pu5TZ2ViK1OKVIh5zWitLq+mvGUByCNo3z2OnthMvX1SQILhnjIU5KRR2gHuco1JMTYpRp5SmeTVM8vQx8496n7HM4e3oZeumkfZKor6Uwghb9iWDpKukAFQxzZ0x6Gl3g4nYNKpWnrVGnrZ1XnmreFYmYlIqurTKSqwybGN5kNsTHrrkMf+9j78c12wJ0MuqAuEKL5e/6NHnJmIjrpQgPj/Mdnli9A9CUFtdYpAIzYkWhIclJVnphgoyt1WeO5viLH/4UP3ryRezu5faJmu70dmR9kiLqTnvzi8ow0urIaqEqDKlRMyY0ZTJaImBSudzWWi4hHDhFWye0j+7tP5lP2cooLJAGmX2WppMt4raLt+IXP/BufOzm63DxNNDKc7ZSGZaGaRQq49OipbGMZ6zhlVVTofidOKzueZwZqOxlUB25Uo7LgK7mvFEb2zZY2dMFulyQI0Vz9CqScJEsM81UEapHGi3SXB43lCbhxTaEpF3t82KrBwrEpcQgJztUPXVpFImw6ez0b5fp9BjmYxyWETaiSeJa6C6dWC2mSxMnr1E6lUZe35yRyFXytmNN0pSe1ftR/6BOusn9NZ8vNZqU5+r9KaMUbF/ZdID7n9+Lb973CB557QgWwi766TQpVAq9WWhvPjKMIChM7GPOdGoVakSFJE2atM7wpXiUN3zoWyRXKbeKS8PAeewmtWs6pqWwzDFN/TKdD7BptIjPXH8FvvTB23Dd9g6JFcOutfSsI1buDdBxnusmXbF5eJyXiP5HYrzv8TZBxsXmjhgZMgdzK6gItW7Q3vk+vnPvg/j+A4/iMBVjMTFri3+WQQfRIERChRhRQWoCqeZPlVSkbuFATUSVgpUhVas0YqtUbwPJgNFP1KdOlR8qWCpCt5VvUiwq4iBbxmQ1wrsu24Ff/8QH8IX3XIXLO8AkG8D6SGukCc5KN4nfkHGPmP4oTUypGjujH0Wv8KTobUhpnBqPMwnVI82loVHlvuX/mrw/NvdXj2xP3tT90/RCESIzoYg3t0ZZQtWVyIaNSzPOmhytS7lfaikNM62swxLXa2lLO3Aro17RTROqbZJzRD9arkFvoWqYb2zsJer1tPdZVS8tTm4Zsu5OSdNWIlcNlOkd1mAsdhPq+TWfuop3Z9crDath6J5l/t92KEnjZEm06+7JET+JTtRsYEUkV2FE5sKHM8zY2Mlhw/M7d0xjcmobFoYjHJxbxIi5EMap5YTIsD3bIQlxpGUZMlurboJMScOEmkuZ68atQ0x5o/ioRxixep/1mSJrk6kc1IBSYylpYzRiveL5NlM4t28PwnyEy3fuwFRbMylVWsphNvCY166mWcDcjLceHuchfI/VBuEU4VhJm9JsspHbFf3iDIWgs7bHnUJzFLRYp15bljGgMlsqAvTZ8tw9CPCt+5/B13/6MF5ZHCHoziCjQcpKLYCoXoO2+deHke3r9eM5ESIyeovK5lqQ5Nj3vcbr5UjhieRUbMLWJEI9rTelLv80Qsg0tJnKiVEPs8UAH7xiJ37rsx8nuZrBFJPYKkdojZW84mUquNVdS6XKbMqk8pxuUHngbte2yiOnbhtHjzMD5fQaQrEiclndX92u2dMlutzKj6ICdcXLQxJ3fTeO+xrqkWNznbya4aestaGqAlYN6F3O5k9b7dCh8WtRNm5ucwya6xqsPXYpcUbdQdtGmtAkrvdkvdt726HIGzBpa9PkIJdxipXhyhySHZEakdGCvLFIQ8zz8GcvLdsXF+564RXsl97oTmFIIqxlFgLNvSxZJjl1DAshZRh61kcMWOtXWQRKgMpNPVZlaG9hKiEizQVJlRErkS8lriB9I2HTosDdfBlXdCJ88vor8eWPvBuXTbLRJW/DAdot7tDfqBoiDbVIq15PEOVy4FkTuViJNI1KqxBydQTYHXl4nNvwxGoDUIZJFwnucw/8MT1hByvaQS1utaeb/gPXm0N3tkprKqyW3iUnKZIim6vb2N0HvvXIK/jqvc/h2YPLVIQTVGoMqMjQYUtUhKZfa/VrmhUqMU1QV0tV69RIEiphiRZVlsFzbUmqMaajrlPq6Q7yhNd2tbCjFgYcMPwc7f4CLq4yfP6G6/D3PvRe3HrhNOJshA4DCjUDPWkx4dLKSr2Hh8fbB+kWNZ64SxJVk2Qt8fl++LUFfOfxJ/HdZ57HC1lhw4Lq0dYqYFHZQTwKbQmLOh6QMBU2QV1CxWChGtTzzcaXzaEzYhMyDJEqKS+dZ0RqAKpbi42uoBphBzXaRdQ5X373LfjNj16J7SRq0bBGu1sgq5eYRE2p7zKkLoPQQKHTGhJxOk2wt1cPrHdRkTD8IKE+1dundmSdah4e5zL8UOBbgFEXaYwVXcUDtcDG4uaHOFrlaI7TazYnin9RrM+F6LMWKeaqAHc9/hK+8ZMH8OKBeQStLqKkgyLPrPWfJjHyUt8LI1lSsIQ2kkZfqrfK5sAwJg31ucUC3VafuMgYb1YO2QDWWz1s8WfLmMkGuJjK8xffdSu+9MH34ZbLJ2yphEKfGFF3P+PV7flJqR4e7xDG+kRaJNecKD7inck2tu+4mM9yggP7D6K32EOiz/uQneizOVFC3VLlCDXRirAh/EYLqeebeiKRMDzpDEeuxn7UAmRDTQSn0VVGhNTLpDcYyxyH9u9Dd2Izdl44Sd3kwtUSGfpstAYJmUperdDcn9NKzbFplLHQVTfErVwbfx4e5zI8sdoAnMpww2CN+jhGxopwfJIbqh3rVdI1FF3IlmePCrDHltoiffz0qd342o/uxwv751CkkwjTjrXg8oIEJ46oe0Is9dlqTJM14VJEprh15EoKjUciVIxf81oaUmXrVVFTBmGJmoRqggRrYtjDJWmEX/nQ+/FrH78Nl0zHCEZs81I/x1TMBdM7qgoqZ1stx+L08PB4+yAypRlkNidSPdXUI5r4rylQE+0A27duRyts4+ihoxj2h4hJtNT4yuxNA/UQKQwn0himLzRVgNKsxG7DuRQGbbBGH5/9Fh0098r0l/QZ9YC2eitzOBri5d0vk9xdgu2b2yiZyG5ISpUX9qKwpiaYfjJp/laPmz1LpMK2/VVXD49zGX4ocENQlq3pypYqsJ6i4yANYXMJXEvPtkIUYiErsUSmU3RSPPTSEv7oa9/D47sPoe5Mo1dFJDQkR1SS+nRISJITxSkGwyH0YWPBvf2nraKRcmzcpAZFqhibyXjfJrYWSIoRNschWgtHsIMX/erHP4hf+fit2DkN6NNhugt9Zk5vCRW1I1Waq6F1qVyMHh4ebxekMQbUIfapIO43Iq2tFSn0Ee1Fbr//yG78wTe/j311jGrzduwf5mh1Z4ARtQH1gps24PqKmh7uhNe5Di26M1A1vppJ7iJWSVbQf42S+qomk6upGOxLDtUIE8iQDuZxzUwL/+yXv4CPXjaN2QzYyniKfAlJhwGLDNrg39qlYcf3YPGO4Zw9PH5usA4b8HhzkGaQ2tO0cB5ROaySGZ2Xo4QHxl3VlS5ypXWCeE2SIiCpeuK1Ef7r9+/Bo3vmsJxMY4mkajnLSWxKtNPIFmPUJ0Oykuqpo3kLgqiTWpVUV4xMrU+tvqz2qbrk1Uu1Kq6FSXXHnz7JUw/R0mFcNd3GP/zEh/H3P3wrrp4AOkO2OOmvQx2oHjWlUd8ddOvTeHh4vFPQNxdNlYxFv3ra2zyYpVxCzvJ33nMJ/rsvfAYXpcDw4G7MtErkw3l6JTmS/tGFpq7YDJO+0GLBpjck5DaaJK9G4FhHSezFwEjDexo2jOiPpK1OqE/a6MVdFJt24JF9R/Cfvn07njvM+Bh3LwsQJ10XFhuTAUXfKlVvvfSIxJJiOmkM7VgaFa8S6eFxbsMTqw3BVMNY1KYz2mLqSFvTE5QVNA7WvVSjX+hNqxj7SGb+6o6f4oeP70K/vRn9dIYtUFImkq6IpComc6JONW1kSzEUWu7ABWbr3HBX3fhuNWUqSu6LWNlr8rzGLb+gNwYrxHWGbjnAZoxwaSfGr374ffj7n7wZF+tTg4sZJmLeRTlEb7jMMGqkEUkdw9GceY0qSCF6eHi8vdBzp/6epse45N+oGiAv+JxWfbQjPuMLffsiwm99/HL8xic/jOs3d7GND27Un2PjS6/P6A1KN6SnMKQnnCoSYZOYK4WahSf0tq/eJNTnCYMkpB5yUwHiQt8l1Nt+HVTRJOazEO0LLsODL72GP7v9Ljx/FDgwgq3D5xb+cLrK6UmmQbvEiiuj1JkVGLEbe/LwOIfh51htCHz4pQRMF0ltuTdqGiUhZ+NDpkF0xB2nyZCHEbKwg0NsMf7FHQ/gew88jfloBqNk0j5XEaeJTQ4tiwxFPrLFRJM22Q/P5cOBvZxnHewMV6TK1qiy2ByhcusBUaWRVIlQhVSsEVuCkyRUM+UydpKs/YPPfBJf/uh12M7LEkbQ6jCNUYZAijQO0c/I+MqASjuyr9prwfZQmt3Dw+NthakNre3LR1SNLNMmfK4DEioN2Qeag6kXTNggK6kLrr9mC6Y2XYRnnnmCz39E/SFP0g+r+srU0fhPezykvtCaeONPYFFHqEGWV5mt9lCTAdlHGxiHpjzUQUJhmIw7TGNsnp3Fc08+hSRK8a7bdqLXJ/Wi4nAv74jEjeNierS1+FwybHqVUufAZqkcLL0eHucufA3eEKQVnLhBOackRKysE507+tqLHeRUVhStdN4jWdGciAW2//7mB/fhm3fej6NayqozjRGVUsnwhrwm4H6UpAjjmDomQq6hwJwe05TxkDSpVUeNp56klYgp+t5aRGKk/rOAmrAb10iKAdp5H9uoKC9mgv7JL30Ov/zha7CZRKnN0o+NVI1QxSWv0krbQDftYIJx6S1rhUt+5eLx8PB4e9E8d9QLtpinHTi9k+vh1PpRcYF2J8RsiyqCeuezN23B/+FX/w4uDAp0yh71QIGwHCDmFS3616r6Wo+ObTv7TqgTa0vphUFGwkj5zNcpG4ExCRtZXRTF6LB11akpRWwfY261ZqmbQhwdlEh3XoLbn3wWX7n9Wcy1gcU6xRAtDEjKRlpextbkojBoRmO3tVYcjj3y8DhX4YnVRqHJ6moNWhZK0VFpUEzlUYHozZi61AKLdCZJkVrrR22M4i6++8Cz+OmTL+Ngj0QmnaRCC1EOqKmkI2N9bka9TlrXRXOmpIak6zT0p8AaF0XgWoOCuvA1L2qY9aEXB9tRicGRfdjM7cWdCDOjZfyzL/0iPnL1FdiWMknUX+r0R1igJgETpXJd907xWcVwt+Th4fFOQo+le/T5bLpnVJpG0w40vbwyxqXGFJCQWG2m+8eu2orf/uLncXE3QrB0CBOkOTFJ1nDxCDrtCHGqdeu1fIt6qsakSirF5jpZRAyTP3oTUapO8dI90lp51GsxG4tBRq2R83wdY0jd9lpW4UcvvITvPLYbR4MEPaS2lEwVt+yzV+qFd/fgROChtVENzdbD4xyHHwrcCKQJJOO+ecc/RHg0Y0HzmUSC3Ikw1ne6gAG9ZvT/8N45/P7XfoDnD/WxXKUoky4yki4pNs0aD9UNNZ7oqW5xhah43LGLiS7Qyuomld7UoSsdC30jTAt6snXaoaKd0azUhcO4fLqDv//xD+FL774GOzqBkSo1SrX4p+ZhiVRpFobuQMOKWofG1sNSdNJ8FiHFEuHh4fG2Qc+fer4FPoMBn9emAeQeTzXC+NyajgiQ9fuIyhib0wBbt0wjndmKo3NHMD93mI02kizKMM+pb/gw8xprCnLX5m6Oxe0zcBErDf1Rx0jX6PNYTvdQuJPwp6pya2NGLTYeqbeOjIYYDYfYPDGF2c1dpCGvZTAt6S3qRfdtSPWqK07+EE1UNhSoI79mnsc5Dj0nHhuB00bccVmoqZohNaBWFdZbMMhHpkTkZUANOKSf5xZL/Nntd+PRPYtYjmYQTW5GoZXS6wxTrZCEJ2MLcGRhauiwgOYyxNYrpdefJaZ/VuJ24dskUJKuinEHWvk4KhDmy0hHC7hm8wS+/KF349c/eT22tqkMHTcjqWIQWt+KKk7qTCozoebWG0CMkSfNETzwpMrD452CnjubvS6yo+c/4KGe1Zh/OhHzcVbvNskK2UmrRSJTDu37glv43H7ptgvwG5/8EK7fOonWcB5TWhx4vGSC6/MSa2O4agxKF/HQll3R2GBGBaC3B6lkSpKtjNdm1C255mOGmoxOfVNS7+QVCrYMg/YkRukEnj20iK/f+wQef22IPkMfMX3DvCBfYnjSjbwVqZZGpRjJ0pEcRPg8PM5x+B6rjUIERZCu4EZ9PiJWEZVVqPE/zToPEgypoIYtYA+Z1R994wf40eMvYCHejlEyQ0WohT+pyKjopBoDKh31UOljtVKWRqr4p/ZdTFKloUBNUJdL8xagmouabKqJp/r4ahWMSNCoWIcLuKwb4R994dMkVjdgK5Vsm95jKshQa2ExXrZbUdoCgFTIjFOft9CbQtb9JQXHTSlSpUO7WQ8Pj7cTNsSvj/nx+XacQy+thIj4vKoJpFaPkSr5pbSSyJZIEIFRI0nzNndsn0Q77WD/oUM4srCIMG1TX/A6zUwf94ZbD7Zt3TIu9r1RPvx641hxStWUPOHWw6Oe0tuGVfPun2uc5UygvvQwGBXoLQ4tvAt3bseWlLqHqUzVE6aVRKXX5FfJpB/B0kA/LhW+x8rj3IZqscdbwVgzuIE0qji1yKRA9MoOW5BaJmGOzbafPvwifvTAI1hGC/XkVvSKGP2ssm8BJmz51aNlpFWGVCXCa7RSDc9y64pI4VqPleKTljNVRDHl5Lrv1YOuoYKcYV20fRZ/70ufx6feewOmyfNa0nzyF2nSKluY3NfwX0gl1+JfULL1mzMArRAojcf/nNKnv5HF4OHh8XZDtGXAX4meWXsQ3axzTatiI0o9WJqLGdlkdq2S53hJzouHSHp9zNDfp951Df7OJz6CizZNIxj1ydPysT5RTxX1C8X1VjE8+m/lIbpZSL2hRhyjDBg/G25ZXGAY57ZfMI6YJK6dUHewIVlJ2TFtZdjGUtDBQ8++jHsffR5HBowjStwEdlNg3BJULyaCXK3XasXFw+PchSdWpwluKJAKg8rKpCig1cuDFvDos3vxzR/8BP0goWLqklRREUVd8pcERUYFWIzYuiQpKzMqpnysWlQ0bsFP6SIpQVtkj/tO/bhfKSPruDJiVSMjqdo628XnPv4hfOr912EzG7WdEcM172xpUktKWTvVFiEmsbL5YCJeEjUa3UmqTafUM26l+Dw8PN5e6HEc8RkcUoxYCXo+m+eV6sP0Ax9wNZTU521zMTXcF5aYooepIsdW6oGP3nwVfuljH8JlWzexKVWSkDmdstpLRXLFRpXIVYvErUtylTIYudu8KzEvEquaUiZswNUZSuorXe/WZaDO0kT1ZAJD6rcDywV+/OBjeOy5l9An8cpK3Y0gv04ljY/Gop63xtXD49yFHwrcCPjsa6RPLwWqV4ftOCoptgClBjOpCJKnuoND7RAPLgC///178OArh9Ce2I7RiC06DedR8SVaoMZUISlZKGrleqhMUerNwpou+lbfmFBp/ZpSn5IIYyRVG1VJ1Vi3pVXZ1GTrcbgfF6fL+M0PXId/+MFbcHWasMVaoNUikTOexrAZtzr/pYh1mcRUmX4aBwn9i7zJn/uwqqNy5wOckj9WGqzkgYyJnZGV41Zkutk3T815h8ZgNK7riT5fpK28Nm4rsAMXSq24bAiXW1UMO7mSshXoDS+j0Dxl15m/402X3BQxfbK+VQzX3gyjJ+PbJescj1XfFaOR+PFVhvHOWvc3I5Z2feZJ96L45Oh+iDUpHO82Z4Q1Z3/uoXvVoJ/mVWloT19CMNfxM2rPKQ81+VvPqr14Yo70EMWoYj7tPGyFIabjAJdOTmI2jXFo924sLS+z1dWxtfWGDCBJGQMJUjgaIeGxerbzSG8OUkdR91j9cRUBkeZUsdBXFxmVbiF7Y7xa+66dsbYwjPmswFx/hOkdF2PzpgnEOXUSiV6gBl4+QFZlCKPUeFmRaVFkhcP78vA4h+GJ1QYgJW+dO1RYaoNpRZmUYp+FIFcaklQtU3k93gP++N7ncNdzr2IJbdQZ1WNJ9ccmoCaZq32pqzVR3c2pkrbURHW1IPV2oYb/TGWZ4tJ/uwUMlgZUtJNopdO8jsQqHKEo5rAjWcQvvesS/KMP34Zbplto9aggNbSXUOExaClY0SOFx13TzabD9COHtTLeJDx5PpGq46GyPh7H5IV50M/Yp06+LrOc4/FhvS5sehNBsSl6GlphfZIYkWI9kMExcV75wxDGxCovtJijSJGIuiNH1ovJo+YaBxeee7eM4VKalLnwWdZj0VVunzVBlnsciGqtSKAu13SeY3DcsUvd68X1ciiQMew6/TCuNwjz+NM/z9CTJ7IkYmWESXevzRpRUWlXxErPtnOMqFc0LMerSIzUbGsXBbaxTmydnkZdFth7dA6HBkNkSYq6RYJFEhTkBSZ4jQo317QBiuqR/akOsoLa1x60tRgbxSJtwthZrGHG+AqSdBK1OfoTsVpkg/OiLduwfYLXjdioTCoSqhGvE3FjGqkD1Wtm1ex8KmCPn0t4YrVRSAG4DZWe0SIqHr1+HKOfdLBELnP7Q3vw1TvuwjCnp5CtshGJUpLYNCbrWh9fv6pH3JGtoN6Ijsfudol1p+uNQfV80YEtyrRcRDdfxKdvvhK/8ZmP4Nqt21AMl9nqTBC1us4SEtJ/FpTHSbG2TNbLLhWDysYsADPViIcMi4kyea04NGGuiBHmxhf3WZYaSrbZMiQ+9voC3fQilUQ9O1VFOm/kSSnglsSkUo8S3aOEYdpkGRa2hnwDLQGpb04WKDVkQ9GxfUSX5xsRuRKJc1DK3L7IV13R6JGw1ZqkzGOXThlwzeipWO9VM50pN+HPyv74+HisxMSTWhl8Jc9MxgGYhzXS7PJiOxy7eZwcje4IrG4RJDsq6mS6i6ltF+HosMDL+w5hSL00MTGFvN9HTfI10WljpK8/xBFJj3qu1Phz+sj+xsRKSzDo2MqU55oPvhthVxnFanKWCIoRjh7cj1nqvmsu3YJuhzRRdVYfIySpGpFoRWHLFiK2KuDL1+MchydWbwGyb0ngjKGGUAoSnjzuYpkK5aGXBvir2+/CK4cWEdJtOKoQq2VoSsqZF+mPVR3SHEmkBsf7jaaR4aEyK3ojTM/Mol9myAoqwrKHyWIRH7/+Mvzmpz+CWy+aNqKnN3baJFVajZ3azT6FsxKsxxtA5bNCZ81FcKXmtuMOGxPxVon2LYsbj4bmehfmMVfWzZVrhBc3xW3Ca0RyNKwSyvKwPNXHpJNBFJvInbXKYnLi6I6GjWzoSGHasfoXnDFs/kRsApJ+W39jHKmtiUS/ijMiq9ME5UjxyzvTI7H11o5Pu+7J3Mf3qjBcLCZrYT7oKEPciI7lUVudF+S0ctCEKyiTPN4QVhrUTSo/EfK8EGFqg20/TGy6EEv9EQ4ePCK+7uoGq4CG/UbUH5UW9WQ+a+5W08hzPVb0S1KlnisrXZ5TPHqBUL34WlZB060yhhEn6okiKed+f+EoNs9swUXbJ2yZmZyEK2EcSax+cV3o6orqmYfHuQw2nK3563GKsMEUtur0Vp8YlpYtyKiwlnjuqSM1/vDrP8QPH3gK9cQ2WwC0T7tTk3DJgATHj5+MLYprVzbndOy2jVtMh2kaweWsh1GrREvLKwzm8L5tm/B/+ru/jA9f3UbUp792zXRRcZUjlFScm9szTlutDd7jJKCZ0GNheaUf9dXQyZ1Z2T9elL36RK06jo6Fzo6vNOIx3rdHbywiCtplfHLWqHJJg6RhQbuClsomJ2tokDGJTIUiVjJGJc8MB254TcVMNxFq86P62YDn9bi7IUY3n6qgn7rTtTh03mod3RWreqn06r6ZTbpZDWX4MtKRhSu/IlSWUQTddB92rPM61ta50beJoKs0nN5cufaqZt/ELmiubK5u4vE4GVZzTDVGvZ0lChKrAWvpKGyhT57+yF7gT79/N+568gX0NfF8cgo91qeMRR6Tfa30QnGr2mHDdTpHnaV9C511oXmhuJRuUyURU8ty1r8IXZZ2t6auXD6I9119Af7JL38a79qcolPxfH8ZWxin5vHllDTUoKcvW49zG77HakOQ4cmpp4bUIdQmNY1TkKLH3Zcz4Bv3PIFv3/cYioCKqdKawxEmpqaxNBogatP0UunIYEh9uDaamazxVsfOcDTDTY2aUYuyQ4U4v3gErQkqt2IOl29N8Ntf+iw+fc0sNtFPPFDPGI0qlduISrTTaSEhyao1YVRLQKyE5nFSWDat5tVqKaxibFdWIB9ax3HlxPGXrHRl8cS4bF0vkdvq47ZFoNfmbZlZVBHrCsk64hQlW/WSKmHrXh/dHQ/TjHj5iH7jToq6zbrWaqFopSjSBHkcIyNxWhFek9Et5/VlmprfnP7myXLcemWsczKKmkBM/5r8PAroX6SO6dNnlmRE1bulOm011iry2vtYK+N7HWeIq/MuJ9WWELkSdCyx8I7bPxbNWYrC9zgpLKeU9cwr0XEdaORVZDtmGaoT+4JpYKKzHXt278WhuaOoWwlGbMHppRx9ed3otPb1Q1FvlYiVm2PFshyH3fRWuSkOYl480Pj0qLTV1wc96r5OgiPLCxiN+rjhukuxiYkZLg3QZp1LqLOCQE0H/an0PTzOXfgeqw1BJmGAIh8gjiapTdo0bgH2MCe/+uge/Nn378JLR0foxjMYLVXUTymibhtHqwEqarMo1wwpQUpJoh4RKTB37Nz162C6ioipr0IRp5imNF3CzqkCX/7UbfjND70PF4xyTFUREho4pS6LGG+bBMtmYw2R83y7NcszTagebw7HPx6ubNaKaLagnHUr2/NnbTavJRn8lxcZI1f2q2HoHVF3zvXmaGrekDsjivXw8GSfngZZbfs5f4bDEXpZgdeOLiAraRDzDFmWoywL65HS492IIhfhTkjOUhIrbbtpjB2bp9Ai6eqSmHXbCTrkcm3WU62pRnuHhMZYa8qqN66h5gqNZhNsOthd2O0R2jeDa/uCfGoz3grapdHWNwYafxI9E6+77hjwjJydB483gvJKFYoZq7fvNL9O8/WMvFBXjDISdDocpZ8fPH4E/+Wun+LhgwexNNFFEU+w4dhmEE43ja8aL8lAMWJlziRUWpWd9ZF1pm5moJPAh4yjTX0VqneU9XJihkSqdwg7khy//Uufwd+7+ULMshJMFX2kXTUsVOM1LMgK6OFxDsMTqw1BZq5HwzZEUpNYRV0cofF7+Ajwb7/7Q9z52HMIpi9A2KciGklh0BiWVGybulga9TDJFpyGbZxhleKSH+5L5FmGmK6CGRszjHpLkPoqrzERDdEJ5/Clj92Af/CFD+DSNMFskSEeMinhePkFJbFDw1z2abD1hfsJOrcZo6lDj5NAtki5r1JwoiO62qMyFp1Yc1ZlaUMYIlUaxxOsF8cZJn0hpNRpOqtotG32GxI1TyMjP0agBsDcwjIOHpnD4fklHFlYwtH5ZRxdXMLcUg+DYY6MHouyJG0OMEzaYNUwMmWEiuGpN0HDgtarwLRrXTWdU/XSEI2+Hdeizw7rji1HG4ZGrKYmOpiZ7GKS+5umJzHdbXE7ga2bZrB18yxmp9uOfPH2uoxHPR+qchLVrmP3Nem9snk2NjzUgHExRu64p8By0fKXsPovERTKig/D2rMeJ4EyTBWMhaEXXbRUi4Z1NSc01GKedQtZjyR9IsECWfIf/eQlfOV738cenk83XYBhXz1WJF+qP7xSNVzfCxS5Mv5kUbBOMfycDjkVlPZVtnS2lsIMa1hG8j/J+jQKR6zXR+1Fm49cthP//BMfxaeu7GKK/sKgT06lp0D0XXpqtYRVd1WHPTzOFXhidYqw7Aq0vrGI1QhFP0XQncUrS8Af/OAh/OkDj2E57GIQ0PjkpDI5lYyUGjfLKQ0hW3dtGkN9Jd7etKF6snesxsqrKQw7Qze9GVbpMxA0Sm1N9KRhTAeH8cUPXIN/8Ln34YZtCflTRvVVsCVJJqUV1KVMFZDsFpXVgH8MiSqrw9ikDj1OBGVbQ3yUU42gFv3hmYpbiVrlEjunq7ivcRZdTNGcu5LHVZggD2PrjdIcFMmQ3keMYMBgFnrAESNMPTz78m4s9gYkUAuYX1zG8mCIPgnUINOLESQiDEefQdKnjiSwfX3kO8SAdUNDg+uhmYy+HlKms53nCEXGNESte9MitbxfTThOWP9s1X+moJPG2DwzjR3bt2Lbls3YOjuBC7dM020Km2enMMXq12X1E9niruWbNQbYqIgYFlOoF8XM7jrypHyTEIzfJpSJjEbu3hp65pYjWfXdnPF4AzQZxqx2pF6VU18gZW7aJD7mYpWw3EP0SZRf4dl/9bV78Rf33oNgageGxYRKjOL0VMD6l1BCBmZDghY89RMPtDRDzq0+r+UaFCTu1H2TNqbI61neo4QpiHJMVgPM9BfxxSsvxb/44kdxzZR6REmqkj59Mj1li3VEoTN8PlsNsTpmvqCHx1kMT6xOEfagU9UMy0UkcQe9UYz5PMH9uxbxP//51/HcoEaWdKloOmjTRrXVVaEraKAG4jxUPi0Sq6bHSmvNSGm5bWC9CFnGliWNWaeVYjRYtm706akJpEGFwdED+Px7rsdvffw9eP+V05glwVPTMIn15TCaNCpK6/6QJZL1SQqSPPVpaIHBNn+9cjoZ9DCMuZHllMSMuBErCTO26X1hmRpB0EUsv7IKkNekIFWIolYvFYkVSY+GvAYMcH4IHFwc4iCJ1GuH57H/yBz2HZ7DIW7nlvtYHhW8nnXCbFOMQG9LRQnT4r4HJ7HvSKquiMSN64zeMi21fIIl5NSgeqGaMzZ/vKWKdVO9TKqjIkIiViJcrFQVTSwJkno9dNta9ENEapZ1U71ZF2zZhIu2b8Gl2zdjx+wkdsy0MMnzE8xEG0ZkOLboLa9V+IF6cRmmjRw1RpP3xIeMHtQqkJveTCOR5J6qtERnJB5vAGWahPkrYkXaY+KIFUVVRpOjotQmn++h01MLNf767nvw9TsfJEPeSSLUwSBnvU/YgIxTZFqDituY9U/V30JV/QvVaNTLEHJ05Sbd1+GlIv9qOI5M/1XUUgXay3O4ln5/7f034R98+gZ0qdsmUymugHWM5O04YuVJlce5BE+sTgHNQ643AjOSFQ2g5EEHLxwG/s2ffhc/eXY35uJJBJ1JchutQFwjsTWCeB0VWxap5VYjljGhs87ISDakSqLX2zU/RgYsprKp8xFaSWAfVy37c7j6gin8t5//JH7php3YRuvSGi1QKRaoW1qub4IqjQpQ3SMNM0hK64IXeWvpnDl6nAgqE2Vdk30SLdJqpErkisTADWmpTFWeIlHyqEneAYZBy4yYrl+mnTgwN8BLrx2w9YL2HJrH3iOLOLI8xNHeCH1eWKjnSd9RC2l1Yr3o4OqCCIbRG4ad88d9sDteqSurPZwk43WOTtk30rIerN6O949HFqYYaj4Nw2WsFru92MWtpGT9U0psTa2xu4iVQnQ9UJo/MzR/CevsdDvB9ukutk21cfkF23Dh5ilcsXMrdm6ZxaaJNiZaGuhhtaTE+lg4w9TQlOVtqXiUCoLp0RohiqXpsXK57onVm4fylbnGPHX1qsk/1WGKVS7mO4lSzTq4n7sFGfBDBzP8+7/4Fh55ZQHBxAyGrD/qdS3oJ2OdDbkfBQl1mAbs9Byod5ZakUpNxEmrsUckR5pvKLE3C8me1bOqXtWEcXeLEbZmS7h2MsQ/+5VP4yPXzY4/s8N6RrK3dghb8EOBHucSPLE6BRipYkvP2n1RjAODAUadDv7Ltx/FH33rbvTCaYxsNXQ3RKMVYGSUxqqBe27mgHoCtJVhlltjLM0PjVNKEhVUGfLBMqY6CVK27DLub23V+Od/9zP4xA1X4rIOW4NUii19iTWkcaOlqW3GTGyTSxmwg17hoR/Fo54JxeFxcijrmodCrXKVoSNTbJFzqzV4apEc1gGtn29zm5itam8fpr06sAi8svs17HplN155bb/1Ss2RTPXyCiPWDX2+qI7blNR6Y0SccpKKIKK76o2ELfSGOB0vrmibrdKn4R0N956YWK3e0bHQmtxqHGg4Wm/4Wf3krxYsdTWS1/F6LRLqllbgeXEe1l3LF4ZgL4BxPyyZAzmbGyUJU5WjTWM720mxTb1Xm2Zw4fYtuOzii3DJRTtx4UxgDQPVSNcjyPjKDG0aX/VsaV6h4tAiohKlRnegGOXfrvF4Ayi3WG7MO5srZSWq8lW9VrnyHPPcVuYksV8oWJdZmIss5p8+u4D/8I078fLRRXuLNEta6Ol61tuclV3NOFsnTeXEkO1P5IoSkljFNtnKIlohVhoaV/0usxyzmstX9dFePojP3HgJ/umvfQo7SbonqF+7Kn8re5de4fhjD4+zGZ5YvUkomxpiJVrUZ2utl4T4/mN78Dt/9i3sGSQY1RMIIxIr+tHwRklCY9/Zon/9WUtMXVem8MYKR+aJymYFVHbtlAqoGKLO+pjuJugvHrGJxL/ysXfjtz//blzU1twtEjDGowX4pLyodSwcR9mc8jTVZlHpvBy9YnrTGD8VLCUzQjbxm3msZQcylmGf+ar5UhpJWaIh2nMgx8sHDuO+F1/BvsUeDh4+jKPzixhkhfVGBTGthohUGKEoQxonXk8DpCUMVC7qHwpsXhEDVDFZfVOxNuRiXHbcyIitgg5BgSIYcKvCXgcKa7x7PIKaaauZNqZlLRTbOMZxOlwIKwZunA43Gd71h2jIUKRIg5fqFSkGPaS8Tm8Wqs8pjQPMTE5i08wMrtk+i/dcfhEuv4Qka4vrxVIbgG0H6/nSG4miUzHzRgZcplwpkCilTdo8TgYRYXVfK+9I2plryr+mbGvqmtDexKttTiCCNrJCRB84yqr45/cfwZ98+3s4OOwD07OY07xQvSShOssSFbnSXFFrAlglUf1jHeBDIWKl+aQ5W3lqdOjZ0cd5dF3J8Ce6LRTDeUxXy7ikleHXP/wu/MZHb8Asg5jUyxTHDf1pKNAPB3qcK/DE6k2iIVXaav7MHPXVHBXM/+Xf/REeeOUIiulLkOctVEMN22kCZo4sLqCPmBqx4jVpGVPpiADpkyNSZzKsIlc8sGOqHSojm1FTjtAiKQvKAe3mEB94z234J7/8Ubx/KmerbkjFo3VoIsT6ErQpOoIbzRXNGJJUnAb+ZKhMt9Ldxl+09Tg59EjYYzEW/mtmkeZMab7UUMJ8PNQDXti7hMeffwVP73oFu48s4LWiQo/+7HIZE5ElHmvUxZUzjYPKi1tn6Fx734yfjJSRCPolQdGK2eIweoPPODED1caC0ZbXachErrl60czt1NCkoMHKniLmmdImlDsypV60lZiZFplt1TPdki1KyquVZuhlC0oShSRVzl0vYFSFcpFEi+5baWMvZANh82QbV1x0AW6+6hJcf9k2W1dJE99jBq7v24lgxYrbUsa4bePS5vFGUG+VaqzKrc0yc7lowuwrjFgVVBuVveHc1tIxJQkYK/gSme6j5Or/+duP456nnsJR1seFKGa9JzHS+mqBlkUQgaLaUb21uikhyVaPFolVxpPDtDRipTILK33KhtclLdQRn6cRiVWnwszoKK6fiPF//vVfxs1bu9hajYxErZB4u5zXe2LlcY7gPCdWza2vKhyhUdluS1dmkXJJvRa2QjApTY+28Xf/8k78+T0/ozGlspi9mC0wtuBErGKerHKMSKxGtBAa8tO8g3YuYqV5BmNlo3h5zlQSj2Ua9fmQcjREh4RMMlw4iFuuvQz/8O99GR+7JMAl2TKSgmSrO0EjRutEsqa1q0yHkjhpEmqfyq1gWC0qvkndBRucdjMtitdNx6Ep9fFWGxqRVXcaAGZazjweMQ8X2cDfdWAZj+96DQ89+zKJ1REcGbCcWSdGcQtLaRt9GgDryRlfb9/0M5KkOXQiSVbYRk7GXhgDTVKhYTV3XnWhYtNeb+pppXN3gXqGXFEqCIn5rWns9NKCmPU6ONkjrq+5GVW03gbVQwU8joX7Ioa6XCu+q/5r3w1V0i/vUz1wCl9/ghlD7Vhydc8ykAqNP5YOnajRZR2ezodoBaqnJTa1Aly1cxbvvfYS3HTZdtx0+Q5RAbR5PlUAonDN9QxTjRLB4hr/rgdd0UD78nli3z9vkFJQM4D1ohZddVnoepA0dK1pDSPry1Jfd5SxlCoqCdYl9cY+Tz/PHAX+9Ht34ydPPYPBxBSGrOND9W6qF1YNO9YLkSvNGVWvlWqueuX15uAgIbFqkSFbjzr9kLRFDFsL35Y5W3ubWmw0LqGzfAhXsvw/f82V+N986gO4rqv5fCJSFIan8lI9soqke7BfB+ciNK6rLh4e7xTOY2LF27Y5I9zqlXjuSWReZJ70mnii+Qd6TvVBUrbcaxlNXjJKE3z32SH+v3/8NeyeW0R701Ys6N35OkI37aKQ0qAR1Fsy9qFkKQRu9H0tMSi9GSgHTTY2xcEi0ARdvf0VUnFpgcc2m42dqoetwSL+j//oy/jcey/FZl7VVSuT12mOjyWOYZoqUcIZvBSmSJW7D728TEi/Crox83yuwOVTg7GKXXFZPbOK5vacz1U/a/2aOw1CPhpAb71FKTMmZ8te5cayRdxhuSX2Jp+mbmsEY44BPPFyD/c9+TwefHoXDrO8j9CD6kOhFjylIsmwvB9H3KTF4h4/Zk0LXI7HkhEZNV0jA2LOvGRMWJqAmm0DHtt19GdvuY+dTwVKQZMOF5rbNvtm0Hja1MSKN4sVJSPV+kUunQR/dHvNPerTOS4M+taOBeH864mLywEbBZMIaczDrIdWuYTLZzNMFofwf/vf/29xyfQ0trY7dm+aa61hV7PgVrub2iBhrlkCXLza6qwRCB6Nn3ITPQ/uHcMT16PVcIXmSmHV9dxAc/dKMyvx+DZcI66RsQ6SKMNsSJguvPRoNsKg28KPnzqEr3zrR3hmocSAz8YgavF8aT2PGuqt7ePOLAURJioZEWrlsXtTkOcVJCtAqKkQ/BvRfxDHSCdSPnZ91IMlbEoiXDwzjX/0wRvwD999ITq8JmHDIqG+i6h/o1S9ZAyboruS6K5canlUU3tThzol5+HxzuL8/aSNaRUqHWkQkhSRKnWaNxzE3lbSZNwxudJwjIaCyiTBngHwle8/hnt3HeV1KdqdKYwGmfUeaPJmRiOtD5FKmdiflI4C4b97NVlH6n1QX4ib4G6Q4qDfoqiwiQoNvTn8+iffhy9/9CZMD+cwy1ZdIOUx7oa3UKVdJKa83K4IlV6gX1ExTvu4k+cUVEjjvDE4gyk0huHNQlc1Io5QFiy5RPNEGL5IlU5ovhqV/nxGwtBqI2c5vdYH7n5mP776kyfwFz+8H3c+8RL25zGOsPW9HHUwSroY6TV01SGSEA2JuKERBjkW7a8UQeM+Pm7czI/Vk2PhXCgrLXaZQZWsu7rpuYlY7zTXaTWCNyvMUxualCgOSxH/XPhmhe2Yf/Q7rnX8U/7zj3G6VKyK9VxQVo4bt/G+xcDoMj0rwRTKeAv0PU3EJLO9/ZiZqPALH3kvplsJOpHq+ri8eY3mECpePT9yXQmPYgU7hmWVfHErn863M7t8yvgr6Grnvh4siJWz2srFuZ4bUFp1x8ohYpz85i5cCatEJePyV+8oN0EwYiNu0apIlLKxVyd4Yfch5kLCMmeZFG5dMr2wUBbSkQyJjcKC5zSMHWjCHKHGpH3+hgUhvdTUAX2DMtQwM3VdpWFDhrtYx4iyAa7dvhUzU9wPda0jV/ZhZ3uD0RaLMBHcfTCR9GNHqlgeHu8wzl9ipSdSilgamKRJ7To9rHLWo6mWbaiHlYZWruq+HoUJDQHww4d24c/vuB8LRYRut2s6V0M9+kSIlIomgkYM0wJbizXH2pXoLRkzP6YQuKXBn+lQcfWP4oM3XIH/9lc+jkunmB6GqwVCTeu9LuCfV8iYNXD33Pw2+XciOV75Gocws0wlrdZtMWTRcj9poUonsFQEWCC/KrozGLVaeHUI3PnYHnz1B/fiW3c9gEdf3IOjPF+1JkigWM4sX70s0BgKETQnLr5TBi9q3qrSVqJE25t6FFdLXOlrX704WgbCLQXB+klipzcMT1UqGi8tASLCr9fl3SvzEpIYbtUjpbWJtKq2ra493s+0yjbPu/s/dWgo0XpqNWAdtxGU+gQUGxpLe/FLH34XPnHbDZhkGvTpFUbBhg2FESmPdc+ad7XyvTojf/SkrLBSp8i4U9S/oVf4NdwlMQLKra5oxJHF1eNGhGb7+jM/52B9UMOzl7GEZqbQnt1ma68dmV9wb7CqIvJHb8jqJQz1+ktcEfA50PUNHMt1ULmpzvFPowA6peFxZat66qu5A9ia1Lj00p3oSiWyKFts5Vqvp4aWQ/VcuaCUBHlxUel5UThy9fB4Z3F+10I9hOMHUc+qHlKJ6ItbYZukKuGDTMUxonrWvINn9w3x3TvvxfxyHxMkVVIKw5Hr8dAQh3qt9B22E4N+TOlLFYjQ6cO7qe0LE4y8VSxjRzfAb/7Sp3DZJjdC1W1PkLTJx1irnBdo7nXtPTfG/EQiwynjKp8O7mqSqVpDtCqrHFE7RtLpoMeW9P5hhV67hXJ6Aq/y0q89egS/81d341/92bfx1bsfw4tzOQatWQRTWxGQeOVU7np1XFCcMQ1QTBIuWel9PGWIqJBYaf7dWGq95GDhUVhnjCxoDTQtMKutCDyNU8iKUZFcVKynpy68A1ZGE8XGrcid5gEWkqgkmSqRNRI7ySX6tskGUZfqd2MDgs9LXmVs25QYDZawbXoKH37XuzCls0YaGQefO3EnPamx7plOgR5Gx/7cSSNXDZr80jNMUa8ziZuJnmmFa+LqioQ5QXHkdW1IroR1Rq7Hnvm5htUnfVcyRou3fdkW4O984n24UD1Jw3nrRbLlFpIOwrRLFZnYPLxajRXlv5RV8wBaOY7R7HNrOcsGiuKwb1ey4aih9fueegFP757HPL31mfcFGw0j6VjNXVU5MQjpaB05UqVysSMdeHi845AeOU+hh1C37wYGmkdTDyzb8mwR8wm33AkwogHSxOXD1M/fu+dhPPXKASoTNxl0MBggz3PqiRqjbIRcbz6pGXYCuFipeBireqk0l8eIFfc1jJRUQ4S9g/iNz30Et13m3rrR6taCVP/5hLHqHW8dlH+NMXy9qEfK7TewkrAhXw0VaMDXGdthv29LJgyp1EftEHvo5ZvPZvh//9cH8L/85e34+oMv4NWsjWjnNQi3X46FcAKvLec41MvdcAfTZWXJMrPVxMfESr0wG4Gu0tuiRqqsx2pMdtRzNc4BN8TmqqUNtZmw3tKIiXBsVNw9uJx2q67LzW0tL633TKJngqKtZKVUTh0ViZXWVVPPVVb0EYmwDRfw7uuuxQ0Xb0No62HReDM+9VQJlhYRI2WJCJUmXfHZbOYFyYcVignTZnlH/ysEi+XP+7Vk836d6LgR+W3qkLs382qyWgfPByhrMmZJu9W25S8m6faBK1r4/PtvxE42+jDq2VxSlg7qSAvbRig0d4rl45ocDMDy1w7c/hjupYaAZasyI5HXkKDqMIlVwAbki0eW8dMnnseBAZ/WWJ+QjxkHNbPKVWU5fs6MVDXiiZXHWQTV7PMXIkBjEqSM0Fo7mm3lZlzxaeXDO8jUUm9jSA+P7VrEnQ8/jUHUtXWJRKI09JcmCVtdibXgRLA0LHhijA0ktzItUkiKVS3EiAojonH5+K1X4xO3XoXtjDPJcmsxKpUFFZCuPJ/gckr37IZrrFxWRPm8VlbPSc1KrIIbKdCWRxquYHmO0ikcKRPs7gN3PbeM3/nzB/A//ae/xN/e9zgOlilGnU0YtKaxiJbN/RjxmrA7hagzQTLMcraezvEQEqN0it6lduM4tmxdSO7e196lKKIb1OQ+TxdMQBGQ8IXZKUul1+0ZaCMi8nEZcEvhNlkRuTuJGnkLt6q3ZN236hSICM8A26bb+OAtN2KGzlFGUkVDreUAap6vRZDsszpMoE2y5mVN/HyG9YZioQVbw5TSshcKKhp8toAo3LLx4kQGmnGbNOHoh+HagbbN/vj0ytF5BOZnpMYj9Zve2pyi0yzlCx+8Fh+56UpMiWCrITliveOudJmeBmkzrdK/QqS0bTKP+9KPgvzqT6QqzzL7jFdZlhiwbBfDDu5/7hU8sXsBS/S7rAuSjhEyVzaOXBkRXoF7Tjw8zgacv3Os1oLPowyiJpPrvS5r5QpU/kXUsU/R7DoCfOPuR/CzF3Yjb83YZEsZV82lUqtbyiNSV7WUvLXIpLhdMCuwY0enZPLVW8V22v+fvf+As+Qqz4Tx51bVzZ1menJSGOUcAEkgghEiZzA5GoyNw3o/fl6vvbvG3t3/t7b/9nqdwMZeg4HFJi1gLLIsYZCQkFBGOY5Gk0P3dLixqu73PO+5p/tOq2c0M5JQ3+56ut9bVadOnap6T3ifE+ocSohCp4VS0sBpqyp49ysuxRlrqxgKYhZqNCyaME/LTjAAfYa8lIoPFcN6Xy/OpSvazBwTXZIsuPiUu+KSW8WLWgdRwjTjbj/J0n17aviXa2/HF793DW68/zFMBSWEQ6M2V0+Nl2gST82sroWUOyFTBt2sVk6jozspfN+64e6se6gFdPY5jhi6xC5j/Fq3lohbV5iW3J0codPYLpv/jNuEW1sAN08DF7XJVeKjEj17IY1svJKIkttSRKy4NYJFPeS5NSHJKnRF/np1fjQIme4DEqs2032Y7yDfHMezNq/DGy46G+vywACfK6D2U32ea/dQqxofRBOCddSES7euemJmO7Uo2/xilCbPtXhCYus1BiRTlBzj0c0r5nVLKOiDmj78/ZxI7/6Md10acClbH3mUqD7GFDNDA1G+iOrgCLbs3I8x+ypWaTCy1iZb9sgIj7qTu9qaUZjbt8OeNKPqpY71J9JlxIukuNHQgswdbFy3HstKmimG6Y2518ZuKR1YGaoAFVY3vJ7dDBmeSXRLl6UJX2AKrgj1GZbCE/bpcD6HOjPr7Q/uwK33P4oGa1PTKkzo2wZU0sgmNLaqcalQUL52tbLHi7nzX2a5w9oZyyuKumPayMcNjBRSPP+CM3Hq+lGM0HYUkzrKqtQ3ZS5Y3ljT+dKBtDaLOSWmnXR6pWK74ktWinX7NLlP0pF2UGfRPElCtYPnbtub4B+vvgMf+9J38c/X3IIdNcb0wAg6kdZCU+tIarPflytFW17IdSVp9UfWxhkFGhStwt3uznsa4VFaMTk2iEyF+ioqIeEg0dGgbRu4zTA1KFddLqJBMUlBzHTQ5oOI8Ev0lamNO7EZr0n2RXq6cjg3if7Il4ygmfCOxl2kQ1Ys3LpvIa+jfxKhvIRMRqKwjvWFRXA0hidME5RzbVRzDZxDYrV6mCcVbSSy5qc7ZkfrHViLhW9xItRa16B6prgd4/FWRtPd0x3cOt7GzWNt/GRfGzftjXHHOPAAs9A2+hun1OlXE7yqi7/Fl9dUAQyU/9oKFrNdWZqwt6ee1QqvPBTFTcZRG4VWDeduGsLzzjkVaweLGFJ0tBrMWSmK+rgm0Vd+pGSmOqaiXhV291UOao42iQiVKqeRze/GtEjyWw+0fmUFtz64Fbc/tN2WmVcJqPUKHZgObAysSJzKa4elG1sZFhpyTORLNj1aLwSh8tSZFGXfbgsHDXEjLWGCew/uBf7ua1fj2nu3Ym87h3a+zNqZChxfEM9CV1otTP883b2Fg+7DgiDP0qbVipGvDKHNLW2jLe1w6Rkb8YFXXYJzVuYxghoLK1kY3SdPQ1q2B1XR8vi7Lk6oyJTofZ22uy5WmHY1rX4I+WDh7FqLpCYahJjFsdZbzBVYMBfQKhSxk+q87q7duOond+Cmex9BMyzaF34iKtYKpBCpY2uD4tbR5NmtnsLik1nGGww7o2N3xkhK99RRwQwMn0WJRt3Lom3+eWhxLFyttyZS4Z5NerAL7d6ltiYs4HPoHA2bsrUbxyKdOFLvJyk1d4XDP2lPrXLuCQhmCuk6pC4lWn9E76rP5W2r67t+1VLWjNx4sKNFziaLLCCKphjufpy5ooRff/Mr8KJ1VQzVgIJWEtcC4h3SoLyqH3xmxl+xUyLB1MqIvD8zg4zutokE92zbjru2PoYdYxPYP13jY1NnfLk8ienIwBDWr1pDWYXTV1WxaTiP5UPUNx87VVc7WWmZFSjND6e86JQq/ShNuDQlEc2VbpYClPaUNkzzHUaIvqRlBSMJB1kmlvAgo+dvr7gNV972EHZMJSgNDjMuQzRrk+S+Gjva1RTTiyUW06nSM6VrcvSrtCj4rVoXWzzPkpFpehIXblyOX37DS3DucqaJZhOjoZvmQenSYiMoMWKKVhkQ9IFhhgzPNDJiRbjBsaz9GJFRhtV81BVSmxD7WZ585eoH8MV//RF2tkLsa7O4rQ7aF1nz2RM5HY5YySjriy4te6P71yfGMTpQwqmrB/COl1+K55+2DCt590EaFnWFuKI8j0QFiFomusEsBahwl+h93Xt3XTyxoi7VWqgWo1ykrlkW6EZMZBBaPNe0lqpGoYC7d7TwzR/dhh/c8SB2TLZJtKrdbiKFLLOd2IBt7bt4011JUljgK3zb909hkapjTzEkcnRi8X+UUMzmErUQsOauZxKZYjgJnynRWBJZfLrpWO56Ro2DUTd0ngdhrc1UwmMzaO7+nljpWJ+2p2IaXXdBRKsVJGgXGSIvs7dhWEagbBvwtnwmtVxRNX4+NpEybfUVY0trzR0DsUraAeOogoFwDMV4F954yZl4+89dhNMGIgzyMTVPEl+MD9LEdKuFguKLZCluMFeUItT4Wlrs+pZ7H8a1t9+Bux/dhr2NNhqBph7lSY2t0pbPrSmVimGe5CmP01cUcd6m5XjWOWfipOOGUeV7a9xYmZ70pVuBJMvZZulIbZQiWIprhtOVpQCXE5SP+OYpK5z2RS3jmhW8Wq6KfTx3yy7gv338H7E3yaORK2KKlcRiicSXl6gx04E72rdjt39QDplDrNrUcEJyFbWnWQbGWB028fpLL8BbX3gyhlopRln5HVRPsPKE1WLIrjWuTumUh44YZ8jwzGJJj7Hymdvyon3lJHLFQqHDmhcLCtGsB/cA/3L1Dbh/536bDDItlKw2lqN1VUtFL3RkBs9jbiZ3NzLjqZYrreav7r7hoIGXXXQ2XnLh8VhBe1BOaUjsiybCLB6L+lzE62TOlg5MnxS9sxPvIiGkDxbCWrsxlrpYXZW6mtxvsArbKZSxpxngX39yH/7x29fgmrsexe64hGZpOWpBhaSiYORK4dks+BR92WfmlPEzIzzvvsDjfbu31r0d+XItG0503PN8RwERmZDpTltLVvyxljAGaUt7kLzk+HxGALkfkgCoQ1pdlB0atFKnRCNYQMR0YuOXFBb3Qh6LIEnMTedzeXMXtUlDkqMiU3oQU3ciWNRbSKEeU4pN+MD7qdtNLWYymBIdi9Ia4zoGpAxcY57K8RiOH+zgjTSeZ64W0SFRZNhmaEUE9TzUQ8q4Za5Ag9sx2tKbHq3jih/egO9c/xPctX0P9qcRGsVhxJVlmOoUSZwH0aY0o4p9eDBtLZd57N23Gzt378Kju3ajkeaxZv1y695tNFmV0tQqfCfembrRryOS2gr01t1bGlAyND0wD8yma6VFujHfDA4wr8URtjz6KBptpR/61soRauU0P/Ru6JZbsz+zG/nr2Ur7+gJQeU05LGnWUZs8gNNPOg2jg7w371Mme3LzZFH4aJpTrsNIFLHqBpshwzOKJT94XRnRMqMZCLUFaOBrRGIV2ULL37/xAVx72304QEsitzRiAd9WnfgISM5cD92baSC6Wq2idg0jrJGfvXEZ3nTZRThxtIBimtJ8sHixVgERKhXnvBsLHl/4LBXMFuUSV9Cai6khR+PMI+kndBN2ilDpE3EtoTgdBbjx4Ul8+V+vw/du+Cm27G8amWoGRbTJGjS9hREXijp8/L7gvtRkYc2w3bgpxYEjT3ZziwfFj/Z1hTe//oldOEcFBqCrbCyREXyNLXLTfuS1JeHLk3AXO1ruiCSAxyUR83YTUdKkQaNhixo0bg0Snxpr/tMMwUmCmrmluToNEElUSH+UNKjRGNVQDdsoxE3kGVZeM9InuleCMI1ha8HxaUQ+1JCmyUqVV9RypnUMD5oI8ihghJhvONjcixeetgEvv+B0rFWjrJoDFae0kjEj2FrMmO8arQ5a+Tz2MX6vvW8M//eam/CDW+7E/pj0cXg1DrRDjDcYh8UBa93Vl7Yi3JrWQdGqmbtDilr/UhruXWMTeHjrVkT5KtavH0Upz3jm+2jFBUsTym+KFD2rxbW2Swv+ffX+BtUaqRcdWVcryfHGjSvxwENbsX3PPuRYkdHUCJo9wYotojePGA7euHKtZ6sWYv4jr8Smln3GWe3AOJYPVHDqCaMoslJQ5Cl1UaoAULVH+d/GgykcBZohwzOM7KtAwjKjiBULVg0S1oQLdWbUu7fU8fWrrseWvdOYYkHS1uBm1cbUgsCr5toUHVrZY0czO7PgsRG3VoJqgbWy2hhWFtp4x8ufi2efsh4juZgFhxUV9KtGeIkrLmZIld8uAZg+Kb7AVOeYgztqtxkXmjmdh2161FhvbfdNAN+5dRu+fsM9+PG9j2LnVIJmWEWNHpr0bOssWkHuSJVapRwpYkAyxiLQXd33ip2369z9XVxoa/8UT/6OHgozVYuUuqJCLflB48EEpq+sAhIorVtZ6H7kEDVriBo1FLgti1wFMcnENAk79wus0ZcSDJSBwYEchgZCFItMV3kSMW7LRRor+inkWX0gydKalBWGk2/UGV7DSFWBBk3EKmJa1zN4DSg2NLbLxNiK3ldvfvRIaTDbNIwb8k28+aIzcOHGUQylIoYufkQtgzBEGCtuIrSTwMjyDQ+N47NXXotbto+hRRJVyxUxQVKVKw2jODhKAlkgIVPciSj5Z+NzcldjwXKFEo0//ReKmKrX8fCDD2B4cAQnk1zJk0jkTIxb/Doc63v2Kw5+W729WnaZBywZaN60Nkmw0hqJTnUYdz34KPZPt9DIlRAV3VqCdqUFxB9teWC5rBu427hzvnxTCrNdI+0B8jxQ70BtbB9OOf4kbBgOUWClKGI5KSKsj4c0vlKlpi5TLs2Q4ZkGK2fdavpSRO+ba6xIp22faGtczu5GDl/511vwpe9eh3EMYKzN2lG5StJF6pVn8cuS330WfzAsSBUU/NPpg5Rrxzk0GilGyyEG6rvw4rPW4Tfe+lKsreYwnGvSqGrslVpUCjaWR3xPhbwMnK5XTd7tLH6IRkl/7o1lYL2LQGIloxsVbLFklukaisaacwPX/PhmfOX2x3DPlGrP1DgL34TJPBZRIBHL06hqMlfFxWz8OJ3KTa1ZjkjprPfV3ae33qtcHPv4oFmw49nzRwzGb2StJgls9moZLm5FbjRRZonhDpCMj1RKlDKGKSMDVSwbGsJQNY8qSZO+ZCyVyiiW+I7dudU0m3Wj0USr7b9atReAzR8Ut9FsptizbxJTtSYmp2s4UKtjfLqOMe6P022a5LXJl2pQ2tRLQiMW5AsIqHcbaOxHDR8lLKwwwmvWF/Fbl5+PC9aUUYkn0ObztwMK/RQppWZMG5tjngxxy95JfPoHN+CbP92C3eEw45FGXAv/pgHfT2PIWOFRt5A9kgwz6XGgAelKO9QrDXEclVCfmESV+W/tYB6Tj96N01cN4pd+/lV43qkbUeF1Gh5fFHkwCy8RoaB0jf9SglSpXKfiRwdBqoym2HHEaXeTcVMdxCe+dQe+/KO78Fi7jHxlAHGrPqsuU6M7UDA2PY3fdxlq5rxouwiwWhrzTF9F5gMNjSjX9uB1zz0Hv/jai21+vyE3mYal6Q7LSrXrivpJMmR4ppERK8vdOiBlysVWm2XdHXfvqONv/umbuP7urWiXV9m8Ri0agrAYokGjHOW0OKxqSU59fmtG1gqLWXMszB5pyZsiovo4ThoCfvt9r8eF6yoY6NQxGKqeTsMQusVMregSseJlGlRrpZtvY+8ruPeeFzrlQS/+UFsv0p111/W4yNjFNKgTTWqppDFxwJ0PTeCb37sat9/7IO7rrMC+0lr6pMElgdC6j4VIY5hSJAmPSbb8l3++u09fBro7+ZZC3kvMVpHQ3doVjAfb6jRdDWJUBoXr9hzBkiftuWt07LYKS9dz3wgPjX5rkl75nGGAIRKn1ctGsGHlSqxdtgyrhgcpQ1gzMoDRQaBCbl9gAORa0BoAFdo6fd0Wymjx37pJu1lbY7S6dsu68ww8pQ8q1X0q3amlr9U9rjGs8TowVm9h65692EMisn3fOLZxf9fYOCZJvpoiZgENWmnQ3sgFybeZ0WlXZo6J7r75TVoYrBbw4YtPw7vPOw4nVhIU4im0CgwzX2Had61HxUaMVhpiLMnhc9fcjM9efwt2YBBjheVISKwZndQ48yWNsJFGEuk847mj6TY6LdNnmNOYHxd/U7kSwy8jaE/ZPHGjIUnnjofwgrNOxL9715uwqRpRnzHKvE6j0CxMM9ciVtwsJbjkY2PqvJWIbIqDJoXlZbNhE+1OF6q4YwL4n5+7Ctc8sBsdLb8lXVmic2nA7yvQmV3bd2nCtnKjmtVdm9MYPEZZUWeb01gWNLAirON//Mb7cfxAgHVM/AWW2YpnDXZXRVQpQGkmQ4ZnGkuSWOmVrcAUc+FmauoAqsNVjDemkZaGsI8lyRe/+2N8/pvXYSKtos7aseYPsk+ItZ4b/zo5ZmEWBvaJtpqtVRgobJYMMtDq99cCpWp1KuTpFrMwYqGUZ01rlEakvnsLfvktb8AbX3A+lrG2vSzqoKjvv61w4Q/DsEkgLUznbKe62/4Bn15JzB66W4h2nWfEgy+nAln0UrNJ6WSMJgvQwKTdaFgtNsyXEMc5TIsIFIAD9HrD/XV88Xvfxw0/vQfB4Aji4jKSYX0+pGA8IeIT8Fks/rmvZ7HTttVJOTJOEzfgO2FcJyzdk5CieFdJTy9hqIHmfI+YYbUTBNyG/CtqaQ91S3E/p8+TdF2uzThsIxepBYVbGvuAksYN2qe6dfVVSgUsJ2E/dXkVm9esxCknnYRN69djZGgQ1aIIkzPtEg3slvFQOvBcW/s+6Xg4Umc7B+NgT+7d+S+9y6u2SnOKAw1Qty2lyZ8ak/C+cRKsHTuw9bFtuHfXAdy67QCmmm00W6qYqFJAYkRRd3qNxGd0zXqMTTfQmKwhXEYyZPymg9HmTly6OsAvvOYVOH/TEJbzpUo8l7RZrRFbZH7SAOlpEatyGdc9Wsf/+tI3ceeBxLr/GjSk9mr8cSnKdQUJbmtvQ/24HGRjw7hVpUU5VX5Kisf2NMLpfThpeQkvPudEm+5EU2kVW9MoRUw/Ca8NeA2D0af8ytpLAk5dDlSWTx/6YMJKJR40GkzL5SrGyGEbVNV3b96Oj3/uS6iVl2NXpwzNfF8aGMKefWNUXgEDA1VrjdUcczPhECJeyqEqNzXZa5t5rRQHKFIi5lW1TIVBHcXOJC49bSN+9+2XYxmTxwDznVq0OoUQbUaO8kU3x2fI8IxiyREr/7oqWDuqnqurqKRZmmkcghDjNF93bR/Dxz73L7hjywTqwRAL8UFmel+z0uDijnVjKCT7ioxGQFuhWwy4WhSNrwoMDUC2FhNawmI6iULjUZy/eR1+6a1vw/kblqHCSyu8VobSLKUMuJErdWBIrBxjyM6o6tn7BtK3jJtIixXOenrqUS8kcWWrA1+QFVUjVS1KO20g4nGB+mzWahgoDXAvj4mpBoJSCW2WovuonK/+4GF8+htXYlcSYmDteuycqiNtqeVHX3kdHfR0mhFcNWa3KDLJXZCQNJAki2ipKUjrQTKtRDT8mjjTZion0S7oa7uUBp8FfpxquRhaHEqUT1EgQeqoRaY2hlIuxiDZ0trlQzjjxONx/tln4qzj1mINSeRykvBI3W32JOoSYQqgnjQ5rMSSh/Qm+K1APfUe9uJwWbwbG+5A4K58e0PajEkMRUxluDQDffdPXwTujiPcPwHc89Cj+Ond9+CBLduwd2Ia0/ahB6sQAelwedC2mi8MhTLa1FW72cLxjS14/9nL8IZXvxYrR6g73kxL0BXVvSu9kWBJaQfaOewtlPClGx/FJ795LbYlzCnq7ut95qOAJqJMmec1ljJUHtbg/9YkVkUtnLduCP/hXa/FiUM5lHn/MitHOXV1cjtDrI7ttv0HSwQUva/SAkUVSlcKCooD5VUSbuZBZhk8MpbiM1/6Mq64+X5MrzwZU8wbWj4KrAi1WFm1HsA0YTmoT0NUJrIsZWJWiKq0qgu+xXBUkSm1ApaLamHmXVS5iZrMYzWMBg38p3e/DS/dVEFxGlhG/x3mrRrzlPoQVFZkyPBMY8kOXnflBbO02Arz4nS7hVxUwiRdr/7xbfjONTehFQ2x1l6iYZWBdsWJuhREl+xrNO5p2KQrbFTM6Iy6grT8Cf3Tj75E6tAQ016iEJFkkSwUWvvxjte+HBedcYJ142geHZEqW2PLSBUdWQq5ULv37Yq7ax+i+wLufURQzXUW9u78N3fpssNCMoei9NxWi1BEXRahnr+aiA+t8GM06p/7xo/x9R9ciz3NGA0a4ANNEoF8wVq21Dp19GAhLzLFwl1TD8icqDWI3MiWcynzOQbyFZSYJiLdg0ZeUwEkYY4EQp60SHONMs3r68iHNAjpNNLp/TYu5JxNa/GyZ52Pd770JXj7Zc/FZeeciNNGB7Gc7z2SjxjtinOaMBK4DgmAiIDu4+eOcoN8vaK6W4l19x2bHBROrxvFzYpNAsL4sfm06GyxQ7KlWKlWgVPXDeOSczfj0ovPxxmbT8foAPXDdNyenkRtfD/K1OOQxo/VJlCIGyjSHJ8ymMOrn30aTjphrZtegUFrTcxI1pdk0m7P964zxe+qh/jGj27BT7fuxnRQQUD3Y4XPVVbpUVbjffLKay1a6foEzjh+PY5bOUgjrQ8IND0F9W564X9XlgwU0XrfrjgK5A71qz99rZlnBKpaGZVzKFWGcfM9D+IAKxhBVESDJLqk9TUZpUozqZWFGkShELr50xTb7YbnrlqGbWUA9UHKF8+rxVhlY3NiDFGjgeedfSIKDFNd4lqoXJUYjbJy3wZmyPDMYukSK8vT/GHebbeaLNVZq2LmfmjfFL74zavtS8CkMEIDqfFOruXDFcoJywEZFVc0uC/KKDTiCtLWyKIhUkuTpkzIR3n7eiYvI520WDuewqVnHoe3vepyLCfRSlnlswHKDCNS84z8URTWDAnhr+7m7tiP4FNTL268jWndIFXNoutKN5uzicea+DJoaQByEWE+j8kGDSKtb0y5Zyfwya98G9fedT921tsIR0aRlqokXTToDEodcsaLjhLSvG+p0uMpnbj181zLlM1AHtOPJia1Rbglar+JeWULjemdqBTbGKzw+tYBRO1JnLJ2OV75vGfhHYzzN//cubj4lHU4aVkJo7zBIC3SEO8xwMjVot6JWj5JqGTQRWhkKFy6c+ngIJV5HPLEMaAnHKc+98u35zOZVulCkqWWNP5VA3XTMvtQhlhB2ThaxLmnrsXzLzoV5592HpZXCqjt3Yl0cj+q1FG100KFlYtnHUedXHQ2lg+UGDLzAO8rgmXtDWrhFOMhqdOXnFsnWiTPN2LnNDVcGmG60Z2PIXIJjcnRG1grFDf6sEFj70J9LNCuYdPKEZy5mWSPfkXftDYnE66phVGytCAV24s7mSVWPCHdUSGaoDdkuaUKT53F6OiKIUy0Avz04R32cUFOrVDthGlbY99ce7uidrYkcKm7w/ylMlWVio6mGCGxUp5TBVZlqlrEdK7I/faBAzhz02lYuzxvZFx5sJNj2ZrTKKulFkkZFiKWcIsVM3WbJQEt51StDla1MM1M++0f3YpvXXMzktJyNAPNzq1ZpdTIrGtcE7au9cTKigVrGekWOywI9Lm4jSUhbD6clJmeBXfcmMKqgTw++PrLce7aYWdEWi0MlfIkD7xUVpwi2maFDUVmVXcSSdAzuJ9+Ah+YhkksyhMrvZ8rVPmGemfb78J2qV3qNMfasGYj11gbzU81zXBqPPzJgzV87pv/in+74x6MdfKo5yuYYkFc132sdUWFctdIHyWkXvssn2Icly5ql3R7jFtaYy3EbC0dYY7x1qHE1t1bJLEaCKcwGNYYzxGefdoJ+PmXvhBvfdnz8PzT1+DEkTxWMahRvsMw36fK8NUFFjK8nAxUkUQqVFegJvF0d5bGROCkl8etFamH9Vu//2QxJ5w4FWkkGHceeio9Y5E6ijTbNvVe5nl9uVjieYlaYlcP5nDJaWvx3AvOxynr12I5GVg8tgsraQ1ffP5puPDUTdZ6IXPbO3bM2CxFrb5TJFYP7pnEt6+/A1PMj83CsLV80NzK51FDxMq69EistIZkzPgUedIEG5rSYvVwGc86+0RUqH89j32NS38zrOqp0nM/gK9t79sVV+qpVOKJLrEWWVLxJ6/qMg7JkEvDK3HXIzuxd99++1BHZaFaN6XDkBVNV7L1Qi4uj1mLPcvYkPlZM/67hcY13tFdked+PDWFId7nrJM3uLVUWb5qMIe6ql1ezZDhmcWS7gp0xIr/rFnVaSh21ID/8y/fw8N7uFMeRZPmQaRKRb7r5FPrlCdWVrwYqXJ7dGMB7dqvWBDQyYriNEbIAjtkLb3IGvsLLzgDP/+iszHM/B+xDHGLl6olQHSDRozPo6LFFT3OtFrLi3N0D24P3yfQMwt8ZvEe9xpOX8IMVfD+BL2fPJtpC3Gg2WH85EiggB/csRf/+yvfwK1bdqBeHEQtLKEVlWygrGivPs2XobTWpd4wjxgkC7w2UssUC3Y9ocZ++MK9owHPebVyyB8L8/YUSlp+g4X7aNjGuetHcPmFjOPLXoSXXngWziGB3sjnHmFIA3yeMmv2kRKHkaU2bQ23zoKjlaj1i9qRpeLr+0kq1R2nrxilkcfBO8570uGJxljNXDxPGGo5kwii/NZFqS4dSp7iJ2sM9RVeOyYRpjv9l0SYeFuRreEicDz18KwzT8DJ6zfg+NXLcOZxq7FmpKpA+erOHJq27Vkl1AcTS53vfve2MVx9671oRIOoRwPQwsyaQuFYYF8JMmForjKN9xJRln4CPn+B8bl2uIKLzz0ZQ3xuzaGkdztIP3RbMnDRYBGjXf2qrDMNiFhZumA81esoFDW1Rw6NZhOFgSImWwU88MDD1qKllqsOSY9argJWfKy87KZJheXLOrVaqYRQGWsttTy2sVdMA1ogXP405k3prlOfxqknbMaaZZF9RRtpCTB9UGSZKUOGZxZKyUsTysskNNb0oK47auKHN92OB7btRTgwinpKt5xGWiijyry5S6wy3d3KcGvfwWV8N8ide9zm1QylLgYa3Ty3q4eqeMWLLsWouFqjiQpPa3mGNNZQ7US0iqI91dkcCZmByiFXFvUfep5bupn755Ta84JGqhxJ1bLYrXwOe7hz1S078U/f/T5u2boLk8UhTIQVtMvDaAVlNGIRkAIGCmXk29Q/C/RjgeYmKzAxFNsh8vo6kPGvL0KbjCcRuzrZcDNskQRNIWnsR7U9iVMHI7zy9OPxwec/B7/9xtfg/ZdejEvXjOBEvsZaPsYKvtZQq4NKU/NRqUskBbkgcmQd7UJKwtAmQaRhyIckbHkaChopkjlHpXr0coxwY6aeAIfwYvFD0bNEpD8FVkAKNJISjRtEwsoJCUkuoAENExIqvmOniRLTe1mzuWsm91YbA3GKEQZ14eY1eNUl5+C0DSsRxA0UqA8zhUzsGsLliIt7mBzzJf/RUlzSuKrl0ozvsXEqA20wr2deIzmz1Q3yBSY3R5xtYlKG3SLXnYGR3K4sNXSjYr4318cM1mXLimNRLbck3CH1qvF0w8wnGj969okbmRcbCClqsVfrn6Y+cQEqIiiMTxEoE/7Z0k6KX+pdSym5iqbKAlFcfW1aQFoYxNbxGq69/U7sZ/JThcotip8hw8LAkkuNBxkZZcawYHNX7ZkGvv/jW3GgyUycH2Bt1urh8sRMT0PdFQMzv4oBcTIp0MJUWF1xY6toGPUlICmSliEhBcDzLzwbZ2xyY1IidUmwILLvm7hV64RrGXAEzRdm9rQ6mK90WwTQa7VbmnRQb8r3N6MZWDfQXpKRMUaB5Jp7HsXnvvU93L51B4Jlq0hGyiQ4RUy3UtaE1ZFAfauJo9ZCOSE5orFUiIcS61ZjfHY0glnxavvSPHXPQl7mXhO16gFpN0iO2yTHDBskC60JDHamcdLyIl5y3ma88/KL8f5XXop3XX4uzl07iE2lCKO8bpiEYJA1bLVMalC2xqK4F3R0RV9UuU4MdTCTyMtQKZ3RXdDWpQgnBl14DFAanU/40xP4wTDnbprX/sFCd10rpqKMYA9GsXcgEaLBLZAQa6LTAi1lMSI5S5so5hLGTYIcCZkNEKfxtHdUcNz2wmtCA/g1kNzW11Se4f26UXZUoh+NqdK+vTt31JVVyOf5uHxe5tliIW/1Ld3Z7m7XdSUD0Y0l0x/jmvnHJkxmfIOkqcw0ri+cT1gBPOf0zRgtsTxsTpNEN40aWbqh3hUHJs7FYGlAZWtHcS337p9OCMyPpO9oByUcYOXnJ/c9jPt2jqHOU20yMPdBgvJXhgzPLFSmLUkoU1s2z9GgsSC97ta7cf9je0iyiqinLGhptGWuVYyE9OwXBbVr6aiC2epYXSJ1kLDgVx0raTVYg2c9iwbluJUjeO2LL0BV4bEMqrAw734qg0AluUF3013c9nHwJVA/4RCvIsi51W6yMHQvprFLGgTbYCFZTwM0izlsI/v4zs2P4otX/QB37xlDozKMKREqxps+49e8RCHJcUQinKdeCyRZRYrIjGLhUH++ZBehta42xSedbeLQgCaAxEyzaWqQtuJRYzlEjguNCWwaKuBF55yEd7/yBfiF1/wcXn3R6ThjRQHLExKvmPfmM4fqslCAuo+aQTyBUyTSWR3KMVOQpubQypPausWRmX7oa1a6zys4Nf1MoedRLvAET9B25inVkiSSqjSswclK1zK0NLDqOszn+V7youWaohwJkj5GSFApiNCoDYz3oGgJH/kzyGhTYlU+eFgtlUyXOR7nNNmreerq8ihEv6ZNvpN97cdjESqr2IgkJDFGhgdJBN0Vdh89i3zKYSmi+95Og/5QOiEs7rmvjy14WFDLFeNcFceVTALnnrgBp6xfiSrjXIvK27Q08k+40pQyEzCPFA7zfsC8r0JW5ay++FM6csSb8RaV0GRebxaqeHRsCjeRXB1g1OmbQJfN1FXtnlI4XDd4hgxPF1wZtQShTB3TKDeYeXdNA1f/+Fbsq8U2/45qP1pnTIWtRO0JbnyVak/6ldqcwesWMa5ssIKAflh7i9vq5nCtVdUgxguffRY2jGgpBhkSlRL0bKKwnLjQZsPU/kGYc9g3cK9FSHNumKrEEh8JSLFUYdkcosEaaYvGdop+ayyd91BNV97xGEnVD3HXjr1o5is2Z069zXjRQFXFEQvTkAWyyK+kt3XR1YAfLyrE47bG2ripBOw5zF1cN2aNmFLQ4kV15NMaBtvTGJrYh5NICF53xsn4jVe8BB+47Pl45fkn4pQVJZLkmASvgbSg8VJ8QA0u0uh5EgkTa/KS8E6Kb76rKEWRv2VuKxRt1fFIX7Pq6oWe72eIx92fkJtLqd24068IqB/bYvsudhXLHXWlz4x70Xm3lfk1qjbvO8mxK8xHumKoUsRImeRZxJUEzbofjxFq1dCXanGbeZNEMG7UENensHKQabA2gfXLhy36NEWK0qpD9z3n1coiRvf1Z9Oj35P4VCDdaKsYNepjo1L18cLmNUVceNpmLCuz0sNysMjI1McDGqM3E8cGlcYSlbEMiflDZaMoFWOMbsyrJGXK5xpHVWflJSkNYE8rxS0Pb8VDe6atFaulFuYMGRYAllxKVA1GoqytDqga5bYHtuOOhx5DnB9ArjCAlEabXhyxYuGubqCcujfsWtfaoK392Fb/LlznxkKANS3WoRDE0zhh7TI879xTsYLa1hdTNl+VFSFSP8W6nNyxTKsronSscAkrbbTTh+h5dk9JZaJkMPWWpXwZ7WZCnfMsSdU0X7jFkzsbwLd+fB++8oPrcf++CcTVEZtOIdakn4yfdrPN+BF/cYTKtyh6cZqbX6R+dS+pO1Bdge12e2YiTtV4U5Kj6WSC4ZBURW0s79Rx4drleN8LLsGHX/p8vOGcVThneR7LaXzzidbzb1iLDOkY/1LEDMgq3fayfHlPrKz1oxvXJO8hpUBPZUpJJPHgxzxYngHoaQ8n0rR1YTJGZ0WtcOqy0QQiXYI1I1KIF4Zg7+ZTei90IkWBOlM6GR2q4qSNa62SogHmahU5VqjhMKHetVaiPnIoRYGN/ykw7OXVIjavX21TR+RiLYdDzxZXdHiG4mBhYTaHzaaCblxy62hVgDBuI99qYwUVef6px+O41ctJVpkz2k1mASnTtUK51iSKlZnO3e0zX1LvrrUqZjyQWLEc1tAJ5XtNNhoXKpgKCrhv9xhuf3g7Dqgn0lJLhgzPPJQrlhyMWDH/tvj2+5kh//W6mzHeYKYuaHoFzaiuwpQFLzOym1mdpsIKWTqzdibjYYWJCt1uueAKF0HN1ok1i2uaBQ23vPjc03DCqoqNPYi0tI2+SrL+EYbjW6xYmOjzYvcnY+PD60KHc5z6BqYmU5K9gt7YkwsrRMlCVKzW+DPJ7T7K92+/E9/44fV4YMc446nCQrOARjNFuVDGiGalbGpAbDdueBY5zY5OUhN20IxYo1XQ3biZKx7WzWdfN5HgFAooFosoaAB5PIllmEKluQcbKm2842UX49fe+nK8+qLjcOoK1sabHQyRPA3wPhoj5GbyVg1bo4YcrSMNN+GTuWfpRvNMHMqTXnrGU9ftGYBueyy3dqlUf86oeulNwYcSp4yuQh53czowbjWhrojvCDPOuaduJsklNWtMIK9KzjFC5E6LNqs7MNZUJ5USykGKxthunHn8Bpy4ZpmbAZ73UIx2Lzom/Sw2SAcuffu46xGVY90WSw1S1wcMmkrkhPUDuOCsUzFQIh1uN5APpXuVBiRN3a3LCBSWsUaoOq4M1v3sC0GSMpXDEcvjjrqC83mWFTm08hWMxSFufWArtu4jcVONLUOGBQDliiWFmRYr5loVzw/tSnHz3Q8ijipo50iDmGFV6KoAUGuVqylpHIYyPg0oM76IlRloC8s2XXE7HRYA+howZIGwgbW1i849g0aBhXWqwka1Np42UuVMjMHCU0HiIkXbmbP+4CDH/oBeS8WmtoI9vr0r90xYww20sDXP5V0L4lU33oOvff/f8PCeccbLAJKgjGYcoN1m/bUZo8PacCkKzcCKWClGNKmgZmfW7Oe2LAYL7TmRMyMW/4zPWONr+KdJXIVWu4Wk1UQlqWE0nbC14z7y3jfiLS85GxecUMQ68rkhErdqQQV9HZ3mNPkcC/wgzzhTO4fmihetcODdZD7s/T13Epc0JZgiiK5NmVGS5Gjhw3o64Z+tV4jetNorcj+cWNzbnrYHBUlwz1owqDHN1E5vJx+3HsetGUUhYf5JNOz/2KBuQHVJarJTrT2pCScLTEclVoAuPONkrCSJKzEyNDbSmrdYUJix716/VHFw/PTAoo8/Vpa5rVoC1YKba9VZ+SApPuMUrFu5nLGdILWuQH37LBLVFf1ZxZXxrajvuNZNuStv2yhElacsh0skVVFUQItlQIvxOMUy+95te3DfY3tsAfEMGRYCrIxbKvCkyvb5V+Pu9bfehYkWM7fmQmJGDZlpVUDYchbM6LbIsga3zlg+V2OzVq3eksb29cOzasWIWxisFHHRBeeSXA0h4LEKCA0Kki+F1l2xYRZ09FM4eGcXIiGiIOkzzDx/L2RUpQBjGbSdZB0aeKqRM7ff+xj+5cqrcN/27dbtl2ohMBKWPIlvtVhFQgZWGz+AqgpYkV4WvCp8UxIrLUPTijpoUGIq0t97rki5aqWytKBHYaHeqDfQbDat4D6uXMAvv/zF+K13vRYXnzCMFUwSeoo010Ccm+J2mo+UItDErlHRLdocR4i4tRmjaYzzDFvtV+qcUGrRnS3OJXptzzB6xcMe8gjhVPj04lDP417LJU2+3NGIC9M9vHGsGXQDNX24DwAC6nPNioB56RysHR2xFuFjhfJtZJNUOgIQN+tG3C48+wycf9bJNvBahN14AtOXyNXPQsULE9246MFBLl4x822thamlhmSsXZXDWWeehsGBCvN6y5GobkiWS3uOBX2NO0NmeU7xrS+sNc6qlI+sQmQJJF+0cZl7Jmq464FHsX9c7hkyPPPoLc77FLMZ0u+5I0F7yrROLBsz06tYbucCbN0L/OAndyJXGkaja+0iuifNBr0zk9JiWAg8NWML+GvUSoUvQ3LneQ1rwCJcGjRdolEvxjWsqkR4zpknYRmtcmiFh9Stb6x8CdSFP9SWAcqXl66T25lzWT9Azy59S2tWVEoPZhi5T+ulxoc63ysuk1Q9NI2vfPsHeHjXBEnLKMluBfpCb7rewtR0DcVCiYXzAOOIxpbhiOxq6wa9Km4thm2rGHOdtvJjNJigL91TEmpILAlZR5O31lFKa1hXDnDhppX4rfe8Fa99zrlYl3ezo0dxnQRJS2ak7su1KIc2DYSWoLEJSfmMxSCgQdZteSef5HjcpeDd+8uD+9Vpi+DeiHaeZrdPhCP193RCL+Ne6+hh7GUWdmRuFOanpEmda/JHGtXlZKjPPeN4nLlmAAMd3w3sKj5+GhSlApvIVdf2CvOcUoPyZ6K0oNbitE1yzvvUxjEcxfi5Z5+D44d5W94zaKtFjOeUTBWfeqSliJ731q5PpsIMGda2x98Mwrybk41aH+H5i888EetHyhhipUdrWagCaRVUxo/ypPKwxmEpV6aBqyiRXXUD0/1YMaGb8mvamGDFhhWYUsGWr5omubpzxx48Nj5h8e/mErSrGJ72vMzuHezSzawZMjxFWAQzr7ss4rKQz1AONvg0UR8TXVkAi1q1WPutU5r5EP9y41Zcc+8ubNszgcGh5UhiTZHQRCmKrMla0yZ0WLAnmkCUFlX7zLfIs8RNpvdhZKBk8xDVWfim+QqNbsjCIUWpOYbh5j689rln4xXPOt2+kKmwpqVB11r4xD7tp5sVVHMLKDr27M5sZ137Cyqy9CWf4iJS9woJJ3/IbJssHIvYz3c6QOJ5zxjwl5/7Dn54x8MoL99IHwOYbtMo6ss9dfsxvtqMyziJEUQsPNXdarHNWDfixGKa8WpfCPI2GlKtuZM0i3qnnWpOSLSSDmIW+J1iHvXGFAqDedaA24im92BToYU3P+csfOQNl+CctXksy2v2cNhaZCUSJ7dqn7EqxlmeZMpN8zDztVg3epQ+ZgaqW+Q68aOO7PSMaxez3g4++UTyFOEJg+u951wR5nM/IuGP+ze4rRyYnxhXYaHsiCtdq8xbw7TGmwYi7KIB3TY+hWohQsz8Ol2vk4DL0JKIR0VNAG+tHinjJ5dXrYb5jmmCSQNxYxphMcRgPkV99yPYSOb8/le/EC85dwOWUfeDLCfUymiD4hjHWgi6+0juAd1DLn7Ye/JHabmLx6Vdf8o7ULRRsat6aSDdc0cxuG4I2LljH7Y9th1xR1NyDKKh7n2WuTauMcd82J6wyk6d5USKNnO0a913laHAWqGTHPN/kcSMFaEgYYWIlZywWMBY3MbagQJOWz2CiGWtuhttdn6WGX7OMmVOhUdX2zq4itnsS2TI8OShfNLnsKzHP0eqvLgsoj1lLuVy/rPw1dimoMCMSPt+x/1buGUG1KB1FuRq2SjnNaO0a12ZzdCqBbvwZcTVEqJuvjhuWrN2wJqZ1h1rt1Uod1Di+VM3rMQFpxyH4TzD5L31YViTj6HyWvAFlMHn6RmHeZ36EiqyNMWRxqylrYZ7IRaQWrJ4vNVCjXZrH0nPX//Tlfjpo7uxbN1J2DvexuQUDWuobyipdd8SpSNe37v1EHdWLdhmbqbErQTT000bE6fZtRWPlcEhFMtFNCfGMbRsAEUWzPH+7Th5tIxfecsr8IHXPRsrWRjnWxQWzPlUW3XniRCJGqm1kQ9sg2slXVLlnsg9hA5VkEvcQffXxbmPd4nBHxzk2EeY+/xHIz04+FAtGaI3rMxQpRF/ihR9ZXbBCavwuuc/C+cetxqN3Y+imtZx5vFrsaJaQHP/brTH96FUyjNPMkQa1ZREKq1PIowbzIcJVi8fRL4+jsauLRbGu171c3jBOZsxytvlmR7VOmbMQE+kOOxGmhquFMtLCj2Rot1emcEcR9tlZShXZHWS5SY5LAZIlDR/3yVnnIRNIwMIteg9CVUuYMWEeVwrXIjARjZ+ihUpFpZaeYBH/GNFVMMB5EetW8qPLGuLWjpJi6G3OphudLCn3sFdW3ZgD/N8mw/RYr4XZXJgfPrdHszGp/aWXOxmeBqxaNYKFN3xUB5yR8xQzIgdffmlVihm0ybzj4zsbfdswZeuvBH7GwEKJZEktYBQIawZJzSoEusy8OjJmLKfImC1Wh2JWi1YSxYxc+1RLQwGTVx63im47JJnYaRAc8wL1H1Vb2g2atfuMU8+X5SIWQBq7qBQTftpy8it3r4VUFP5MvbRjn3+iptw5Y9uQTNXQKwCNGSBSvIbswAVuZXCpS+nMx3bDrfe1bUGuX3X5RNpZnbViBnnuVIZ06zR1ttNFAsBBhgn0dQ4qvUJvPTc0/HBN7wCF52uz/mBCn/0RafiSFBt12q8R4ij8Zvh0HDp5GB9aj9iPh5aM4zlGzajSCY9sW8X9u3chqRRw8hgFSuXDaE+vheFtIEq01yVKaDQrlNqKGnmd5KqUebR55y8CW++7Pl4ybM2Yq3G0DHuS/SvSlM3GTEdcoflgUiVRgroUXQqw+ExoydWTqg5K0enWfYNrx7GQzumcPfWPaizpEwLFSuLE+ZzH81JSlJMIhV2QoSpk0CSsGLTFR2HHfnLI8f9TiwJkJ/YizNZoV25ajmLDJIz3lct5R2W7QHj0T2Uu5F+nbiSw0W428uQ4cliUXQFurpGtyCeEbk6scKZtSjN49xiRp6mMf/GVT/CdXdvQ1wYoh2P7LN7a9EioYptcKQzqC5sB78vV5Gr6UYTQbEyUzOqRB3WjKexfiiPlz33fNakl6OkFi1rlnbhhSysl1QWzml0Cwu3pGnjZTrSfytBWhzAfpa7V/zwTnzmq99mtXY53SoYn6qjMjgoy4q2+u+kNx9Ud89tnRjx0tZEpErHumMBYWGQtVcSWsZnvsRjfanUnMRgXMPqXBtvfeHFeNdLno+z1hdRMQI+xWubKPDeEWvHii9LO3Pg3eeTDE8d/IcmquxoX/ONKZ/GzK8rmUTOOIWkaGTUvj5DcwrJ9ARq+3aC2Q+lpIES47nA+C62plDtNDFa6OC0FQO4/LzT8PoXXYLnnDpk43/CNv2nTCNMq9YtpMytTBq4TiKJnsR152Y4EmiaDM0/JYVJa812jE4hj3qnjNvu34IDTcajJvm1bloRMOY/lpWpSBSrqH79QNdU6MQt0qwqj9+6bvmAldtQKzBM78PKgQgnnHg8WFcmoWJl18rbWeJm+bQbi/qd3XdHGTI8FcixwPJ8oS/hvrUSuWLh65wseygzWY3JMjcNLcUNQQYe2FPDn/z1p3HDtgRThVWWoS3DyZjH+hyY2dZauBS2w1wlaTB6s9VCcWiZDa5WM/ZAGCOs78OLzzkOH37TS7B5eYRhxKxhaYAtr8kXWYiwOGC5sHSycGwDThOSGxnIOqMkjsqYZAx960f34G+//B3saWmJimFbxqbDglbxYGOo1H1oYcwt9Lr71OnsGf5aJLmjGsOsDK5gmHXE9QOorhxArj6GYGwXzluzDD//3GfjRWedjJNHWUu2cVtN9Tmhwb8KBkjL1A2Z4ZmESJTgW698UTXNtKOJZH2z4g7y4Tsf3IJ7H95ixHzX3v1o0ZArDUWsUA2Wy1i9chRrVq3EORvW4ZQ1yzEywHCZuDT+TsutSIwIqAeyS6xcp78jV7pdRIMf+ptmOCw6LOhMn1IydaixrfvTEnbz8I8+ezWuuW8n9iYlBKxQNUXCqOUoR21rOSrNvG75WJWlbsXZsjd/WE7rWElBfEvdjrYkFcuKkemHcf4q4INvfxPO2lBEgYR5OUl2kWWQjem0L75V+M7ail64kiNDhiePRUGs3AsYlepmR4lKTYpGUYYRsxaNOl01AeWV19+LT37x63isvQx74zKv67CGU0LMglyf3lsNmf5s3Slu54PGdMY8Xx4YxuTkJMqsjZXSaawoJHj3q56PN7/wJAzy4mG1krCAV3dkmC9ZgV8sKIMvFYjKNhkbIQvXHKbSCHXWVH9y/2787ReuwM0P7cLwhpOwbayGsFhBoPFQIjos/2zyThs868S1Rvl9gWSYO3IxzERWDrHGZUQlJJ0GwhwJcNAAJvfg2ZtW4+0vfh4uP3MNRuhzUBeFLaT5FmvQKZ9WcxpVaUR5fYZnHEoDKqJ6WwTV6tliniInQicKEdOZuRwTNKQN7uzdP2HdS0oHWli5UihioBphkFx5mK5l8jXNvK6kpQWdXTlBRwWv7j8N1mO6UO6XeOMekW4HxrwyPBGkfptUmeWf6ZYZeleN+qyW8LXrt+Kfvncd7tw+juKy1Wh2rE3b1hFMEl6of8axz9luOADzfFcUdso0YeSK4dq6j7x2tL0Xq9IxvP01l+Plz9uMYd5+lBytrNQRsxyiHZCdcOxZ4drG0LObIcOThlJZn8NnCeayLszFHzLjqdapD3ll4vdNA7fceT8ONFLr39cn8yJS6oPXBJG+5arVavWE+Hj4GdhVQGv2bY3PCFs1HLdqBGefdDyP9fUg8zJDYWVKPvkE9KuDpQTfakgNtHMRWlEe9+2YxFeu/BHu2zWBaGQ19ky3SWxKSHlOPmMWyIkRXBaaMqrG/R2tUuy6PVfwuu4/tz8DxkeYZyGdakntNortaUQH9uCyM0/CL7/+FbjsjDVYw7J1UJd0lCq0sK8LyZnQDM80XHc88w/zpSdUHmHcRDltYYhGu9Kqo9xsYJDWdi0z3Dry4XPXD+HcDcM4b8MQzl5bxcnLI6zhuSEa2kq7ibCt2dvrovrMyBRroWLs52iFmUb1YYL7DEWdfy6lKW0c/BQZDgWqmfqTOM2xhsoIbWOwQKLL3eedtREnL8tjoLEHldpulOp7EE3tRji9H7nmGMnVOOvDlOQAL50ggZokkZoy6YAFeK7G8rrJShjzbcRyWut0osbyJSW57uCuh7ZgTN4YnXoOkTCrqRkT6wphlbKuZMjwVGIRDV5XL7n+mFHMRdnbIWbVJCYRanD/vm01fOPqa7FrsoVmqKGtmhSUVpYXacB6ELimfrfvCta5IqhGpQyryUA1L0s+rmMwaOH555+GF1ywkfsaEKsB7bEqW844WM3KhT8b0uKAb/icawRdV22CVq5EyWM7C7x/vupG/OC2+1DLVUi0qqjRhuqzeFVWdbl0r+5ZdeNYoWxBOkLVvYtt9cGBWv80fk2tDuKs1tZoLYQ1FKMmio0xDDYP4CUkVR981eW4+MQCqixt9aWm5sxBxPDzJMmqLZsh1bdIapmghwzPGNRa7NOSVXZ6RS0h1sKkjyICE+5aftXHgB19ccYKj6be0HQb+qpTlRy1E0dqQYmYRqw/np55raZjUMuH4r/DdOCJu0oT9zWo0pWOlHezdPFEUN60wf7cqjXJERlVlDSNTYJqmbmUxHmoHGHjiiGsX1bF2qECVlZyGCp0KMBwPsVQ2EYFzMPMy4X2FPKUqDmBQjw9I8WEW7q7/YbNoq+y+KQN67BpRdWW1cnz3q71THHXFcV9L+YcZsjwZND3XYGuqd5BRZ/yh5ldZaTumXqHdVMWmPt5eMUPH8Snv/JN+zxX43qaNPjzQ2G4vbk1GjVHxxrczDDRaqCca6EcT2HzygF86C2vxgvOWYkKb19iJleLifU56MksM/vMrf3Fg/mIldw0H03SaWE6qGI8zeGrV9+Br/3bTXhkvI0plGwpoThggWuXKQyZNbXu0ZhRfxr4L32p9UDD4K1dyQrI7n1ogNV7ozjXNJCRWh7UlRjWEbP2u5JeXnreOXjbCy/FORvyNuGnrrbJrkK3DI4bR+PMqMRNr5DhmcThiiVb0kZd/IolpQWlOREi7ise1UU/WxbYKde7JwRNOupakSSlGDO73ZTn4FOXbc1RJE47cpFkOByUYxlDXQ1TY8rDahlknOqc5pKbaCbYN9XEtJapYv5vMTvWWiwT2qmtGapKU7PVRK0haaDRaKFNUrZvbMy+Fm6222g0W5Qm/bVtGEdCNqdpVortSbz6Bc/B617wbKxgxWl5ifHcrCMssKzXAHg1Zc2FIjxDhqcIi4BYOXLVS6pmiZUroOssPKe5/8gB4O/+75X44W334kBSINkq0bDOP95J3U9STC+p8nlPxba+LiwW8oin9pNE1TEaxXjheafgw29/BTYMgbUn1ZC13jp31AwtzBACL4sHPhnNJVbqUFVD/XQuwo/v2YW//sI38cC+JhrREA60GWcs7NStSt9dcfEm9WgpIZEr10nnCJXflwd1Fdanp1DRF3+M73ajhnIxb12ziHdhpNgkqboA73zJ5Th9WQ4VlvY2PZIuJ7FKaW3VEShKJswYAsriip3+w+GKJb9up8WS0psii1uNmTFaznPOqVsm+KB0TUCib+Zd6cjNRdZ7J/NPURroDrXqgjv+XhkOCyNPFNOhRKrrMPNZJYmlteKKZaLGvTKHq03frlHO9+rWVm5t/pA32VYf/pgor5N4aRhHiwRL+xqLV8sVMBmzvN+3HZvXLMNZm1ajkjQxXGSmt7kM1W7Zk7u18TfM4jXDU4hFQqxcvnDiWjw8sVIZ3GCGmuBb/ujeMfzZZ7+KR8aaqEcDzNCs4XZrL5av6Kc3fz2OVHWPVTDUuV+iEQ/r4xjs1LC+Arz3tS/Ba190GkrMwxUWC/quUCu5G7FSoWyheFlc6E1GnlypO6dGMjTNw8cmgH/4ynfxr7c8iHFU0Qgr1jWogahStCtadSBC64ykZrGPeoiVCJgjVdzSaxq3bV6wglor2g2W5lp2hlerMA334DUvPBtvesGLsXloECt1mW6hSUorLGBZ1sZ8zqaF52JEnCsjVn0AZW2f3BRRXXGpZxb+VK9jkkuY7xWAYtnlfaEnGBf/vOaga7XNEsYRQdoVserVp2sxpKvIlUiW6dKddSW2a5HOpRECetEpX2SqjNDlkmar20NhHtx580dMMVtrwhT1ElfoVk5JoqcOYNnAgOsu1pyDOk/pXspAFRpdrHLXDShDhicJpaZFBDPJtnUiGM2yGs/Dj27D7vFJNBLWlli7Eanq9e1qvLNXevRmN58htSyNltPIs2wu0yKvGani3NNORIkXRyQUjlTJs7/CUT7JYsVcjq5jFbAH+PP9G+7CTXdvYY2SBWd5BHWWrbHr/2Ohq/EwrLtSbO0/XqcJ/h4XEXIz/TmqVShEKKjVioVnkLQxXC4g166jEqR45cXPwhufdxGOX15lOV53NpQFb8e6gZQiXOJXHdYTKmG++M+wwOCTQY/MF28Hu3HP0qe6e7VAkeZLcvHu49+EXqyFhfsGf49FVlI+nZC6NIxN+vRqs6yu5mJWclNNqxKTILFQTtttG3fVERtS/k9Z3ZX+FVV0Av0FbVKuFt1bbn3HAQlvMJBLUenEKLJCVWBZXCDp0gzvQ8zfVZK3AT7A8sEBRCF3WLlVrleQ2kp0C82zN+uaIcNTg0VYXCi7WJYxqPVENZ6xiQT3P7TFlpVJmbkT+/pHLR/M4BT3+a5qQ90txa63X4KHvfv5KGQ5QHZA0YzrJx23DsevKdhgyXKkwttdbyrmM3hSJVd/ZjHD65Aawt2PTJNY3Y5dE020UML4dIzBkRVo1pv0SCLlC1SThIWqBq97LVmJ3BWiq0BpUl8Mqolf3YBaILldm0CBcXHR+efgjZe9CGesHMVwlMPQQAG1mOQq4r0GiiR0Ilcu8WuRWNVjZQR0h6x47RP0JItukjhI/J77c+lJf+ocdCPpXJwbqaLXxxEqgxx6peuc4bBQxcjan7oq48ZxJIq1SuXL5FiSkq0nGIZ58h7NXyfixZjxjExbDaDM85oCiTC3rmWa5UZKYekSsBIVFXLIlwIM5hMM8w7Lw4Skq40oafJyR6G0JqH2vOiZJHZklS13lCHDUwEl30UNm/eE263btuPhR7ciYdUpyJdYEWLWny8vHcLNl6luK080yHktqRCjWirgwvPONgPNvG+FikGtVdZiJTUvPVIl2bG7jquv/Qm27NiHdq6EsDSIeotEKioyHgpGjjSOyotvsZpVlPTXK7NI2i10SGyHBso0kBqtkeKCc8/Eq172PJywsoThXOhmo2IcjJNYTdJPQ2M79EWYwlJpT+aXS/T1mAt9qcRRX4MR5eOpV2bhj+b6EBnvtqZQbO5Ks7L8EdlOmRg0/UZ3Cg4mDF6hxds1Kkv7CiPDE0P6lC5j46OCNt3shlo7h+lWh+VAyoqupsJR1dTl4Cbzp4YO1JlFmyRWLUrbhP5YmU3KLLtZ3sYa30qyleiLXp5L6CdN6ygkEwytydAYn+06o5JEjAV9nmWNnsFHuUX7QS5Z3GZ46tD3xMpnBxlFdQ9ZJlFBqX0aVA0yb/Lk1r0HsGtsCq1O5PraOyQ6c/OSOcy2LTlKpi697pZimZGlhZqvNSlokRpcOVzFeaeus26lHN1TzcGjsVtqFeP9fbbV8+nIUax+gp7XvYXf8+/k3sTpSqIJVrVgtfRez+Vx+0M7cc0dD2Cfyrd8hQUpa5XDQ9i1dYut7WbdfhaGi0HXouASptO3vtlTK5ZIl0iY3J2PqFSyL4cSFqBBexJnb1qOd1x+MS7ZAAzLC/0263XUG9MYqY7wuhAHapOIbKyF7ufu7GDtlya9rhkWHizNzYk+f9jrrLRkf0yPXmbgEi4xs8MLuvsz3tyxfrNUcZToUZd2vQgsNlEs5lEolhBFBbq7klbTrQiaNkVRpUO5i4w1mf+bJGstblskbJrIt8WzLZY35iZqFoY2lgosYzTKPSiW3WLQDEzLIfU+hxf360qbDBmeKihF9TVcodfNFsxgvbVNrQ1Y49H2KeCWh3ZhbyOH/MBy1Oo8Q2JlmdAC4E+3pUTdUOqakiE3g05RXSvH8Kw/XltelGcmbtdrCFp1XP68izBaYoGg03ELQZRHqglH+VBqsFZDs6ApSnMduai46CdIP+69pS7t6Z0kNvmeJgBNNblqgqmpab4lrNZ5+/Y6/vm6n+LRZhHN0jLUOqxhing1pzBYzaM9faA7nZC6AIpOcpqXSjNJkX6yIO3kGqa3tFlDrtXSDAm8nWIlQi1m4VlibTepYfOaKt73imfh8hPK2DQ9jqqWsGAJXS5XMFIaRJFJvUxZWRlhquDDqeTWd/ia+EhbGV7+aaoFHmVYwFD89Io3i7Piuvv8n/lQXjfpetJFdiEPLC2oIkSLr+4obZUmLTVoLJYWsnEhZjgCmJ6lS+nUqdlp8+AxjT4KtK+qjiZVVguz9ntFE+JUWFGtBHn6CSncMqQyxfZZZpR4ZU4+cxUGWOVNBrivKxkC4zIfRXYf3d8/g4tPHemuOpshw1MDpetFAVfkGUvqiqZ/VDMzsGu8ha279zM3ldBoiSSFrqsqFZGiz67Ydbb1UKhOVGPVKXe6g6TVQJFEa9lAGScdt966FfSZf5BnlmVB7f2KQs0EKRIye9SHmG1r09Y0032n2uSEvXdlcAhTVPq+OnDNzXfjzoe3k2AWELMA1PgKQeRVXX6u289cGIJrL7IkSdIrdy3anJDQ6bNq1W7L5arVcDVXlbr9SpHGR7WwciiP17/0BTjv5E3INyfIlVg7dU1bBm1UbPrCvOvsdrz07HYPM/QReuPuqOLPLuCPl5kUMiv+L8ORgroSuerRmfa6udv25xN//shkNl78n/VCMJcfLLNt0L338fvuVyWDO8qQ4amA0lhfYzaDeDgXZ+6BFn8e2fIYtm3fxcpoZEtlqPzU6uszXYbETDg6Rw/KjK5z62DxmTRM2wiTJk498ThsPn7ANZZprpTunWfC627dXXyW7kf0vpEv3CTSYYp8IW/qlL4b1MU9D+7DD398M8YmNIPY4eD0Na+wcFbBmAsKNi6u0U4xXW8gTWNEacuWqhnKtfCK5z8HL3jOqRgo5xEVXKuXCtkMGTIsHRzU1ZshwzOIvidWZn+7u27PSdLREhXAVB144JEtmJh2i0cFWojT7LanSU4MMsZW65G40VDziVq7irkYYWsSz73wHAyxwqPWFyNW+mzYQnBP4hWs/YNrxP0EPq9a+dye1e+s9cexSdNlvlJFrTtr8oEWcNWPb8FDu8ZQHNRSx4eG9SQeQpJYX3NRX1EB7U6IRuwGEBfDDsqdBsqtMbz02afjtZeejxE+kLoNNIFg3FGroRr7M2TIsJTQO55urmTI8LNC3xMrZZeDs4yIj2bztSVWsfdAHY88+hj5UmiThUaRxk3QFy23u7ZLrmTJCefaHcZsXw6KYB0s8hUmdSwv53DhWZvsCn3uH6r/SsTKSNvss0kcDj7qF3Q1ZPv6lQakCRtbZfTVkaA4IAHiyVvu245rb70L9bCCXEEzyxwO0vv8onsGuTziNDDSFhZLKFXKCOIGotYBnH/CSrz1JRdh8yBJVauBEp9Jy120whI6mrsmQ4YMGTJk+Bmj74nVLE+RMdYmQEISpcVk6rT5jzy2E4/t2otcVEBC8qTWpiBgDUZmWwRIBMsu9aRnhmrRTHe3asUyUfj0QeMdtWu48LTjsWHExm2TxpFyqVakeVgE+nMEpOcRtTdn7EG/gDRKr+RgrVQ2dN0J32maxEfTGGzbD3zvmhuxc6KJpDho7oeDdHooCRiP+ahIrtpB3I5t7jBN9pnWx3H8aBVvufxSnLy8iIG0hpGIMZW2EeVJqgqMf16fIUOGDBky/KzR98TKUSEPESG3Sn1Mx1rbEav9B6Zp/kV9cmjRQGuNOaNNJFZuaKPEXe/C8OJarmbpEYUES91+JbTwgmedhTJdC9ZSxZvR3ZC4VpzuFSYOBx/1C8RRPE9xT8/3FLlSaxUdmu0EuWIV0zy84af34ca7HkQ0tBJ1FNFSV94xvnOirj+SKn3jFWjAOvXcnD6AlQN5vP4lz8OlZ25EpTmBwXga5bRBKq3pHuhH0dF/as6QIUOGDIsAfU+sZOOtxUn9fDTBmiBB3X7TTa2WDvgpV6YAAP/0SURBVNz78FZ0wgKa+jQ/zBupSuI28qGbDYmWuMsctHXTCegnNfcOQrVAKew0QZHXVop5BGkL60cHcba+QqN3rU8XhhFiDfBRi5Q+32cg+u2lFc6l/yy+VKOpYaQSU44IpITv2m4lJDKhdQHuOABc/eNbMElWmxYrtmq91vdTQ96h5HCwZW00oStJnBa0LgctFNMpXHzOSbj8kpMwHAIDgQgyH466t0kfpXuL2AwZMmTIkOFnj0VggkSoXBefiIvaoNSW0qaR3Xugga079iINCugEpEA2rwr9JLFxn4CEyNqmjFRZYG5Lgy6br669kOKnB9D8VkhatqzCacevw4oBzY4kJdKohyEv4xFJHX9cQPzXeR1JhL4kV3xcvZrTjd5LOwK1R7IaByVM0em62+7FA9v2Is6XUYs7aPK8iJV730PJoZGPGG/thOS1g5FKhNq+x/DsM47HS593PkaLWmS1hbym0ha69yH3XQyJOkOGDBky9Cn63gY50+yMq9n7IEBTjSkF4IEt27B7bJIkK0BOY3Xo21qiBJtugfveLrvNDIxUMSyRL7VI5XMkVyRVSX0KpSDF+WeeimqB4fJ6zbckUpUjyRAp82HaDv992F0aN3u6T6Dnl4i8WhegmpqMREaIwxLafO0te4ArrroW++ptJGHRvuDTtAjWgnSMUOJMW22UEKPQnkA1OYDXvOgCPOfUIeSaMeOEHmwiwjLAe+p5dI2+B8zIVYYMGTJkeCawCOyPjL2jKvqVaLy0hlbf//CjmKy37AvBVCRAXIruIk0y+kYUCJEjD0ciXLuSdXclsX3xp3FUUcfNn7R2dAhnnnwi3Ui26B6QZCQkVKm+PNS9RK4cFaEwDB9en8LpgmLdrYSIFY9baQ51fbHH/WtuvhN3PLgVTTLaoKAZkAOEoT5z7rYmHkIOhw7JWSmMUEibiMd34BWXnkdStQ6awKGoGfaN4JFY5WykG7eaHzsjVhkyZMiQ4ZlD/9sfGWcz0CQvgQab077SsmqM1ZZtO2ll1Q1IUsUT+hRfJEjjrNwEofMRHtem5Ja2IT2L2wjU8pJymzSRJ007Yd1qrFw+ZF2DtjwKEZNM6ahjfYy+O1CYfb6+BtVljU9dUqWvJFPqVVNGbdkNfPsH1yMpDJDfVOiu+cJyKFANHenwGN9d3bCVPIlTfRKnbRjF21/5AmwaCpBrT2GwoIdh8s11JwRlpCvmFHeMbZ7pksAMGTJkyJDhZ4j+J1Zm6GlSSZhkvmVOZXIf2z6FXXv2ISqWbZyPW+BTLShu/JSXg9Bj/+28WqxIDHJJG524aZ/6F3IJNh+3ASUSig6Jlfz5++oDOGusOqj7S2edPO5+fQI9d0SSFOq9SE61yLTeXGPZRJuuv/Uu3PPwNpSGRpGGBbT1VaSIaSemX+qO8XMoORw09i1uNFAJO3jtS56Pk1ZXMYBplDp1hB0tVuSSr57DxCIiQdTR6C65ZMiQIUOGDD9bLAJiRdFbiGARapmSfX3okS3YPz5BouOmWVBrVhCqmy61ZW1860sv3TGnrq234GjY9cWZDU7nVuOshiolnHbyCci7cfB2L92T3M2msDJzPhOkHkY+uoH2MSyh2AtrSgM5RDatwdZ9wPd/dANKw8vRILu0bthEM6ZzJ2lRz6Kcx4aUBE3k9oKzT8fF552GKmlcFE+iHDFGLaJIn/hIMR9O02uI1NoINnUT6v4ZMmTIkCHDzxhmL/sbMyzGkRwZdm4f27kbU42Yhj5Ekuq7siKNMbe0vjL6IkEacK5xUZqrSp/26wOzwMiUa02xVhAFTxYW8mSRsnakis1rhlAksYrU5Ud/qebGkjeKJ2busWTp6dolfYL2Zo/6BBqwLrKiJa35OklUQJPvvq8B3HrfFty7ZTuGRteg3kpIMqVTTbOQp/4K1HPB5p9yU7a2kacUcm3b14SeGqOmuacUIZrA1enKPjNAITmA44bbuOw5p2PVkNag1+B0df1pDBe3hHQu3Ye8TGTZLteXmT06z5AhQ4YMGX5WkF3qc5AoaU057qmNQlxHE1Xe9/CjZD5lkqcquc0A+U+ZBCui9wihZvCm74SkJzYSEBqxCmnYbS4kkSWG1aZxFp2IQ5IFDXZvTuGs49Zhtey6GkXI4HRNNR+hwOs0aFpfqs0o1UiVjpyYzZd734Ev2pmk1JGSXE4kHYzRdTd18O0f3YRceRh7xiZRKFVMvwiK1GkZ7WCQeoz45+ahipI6CmkdVRKrEgVx3boXW+02wnwRjRbvI0JEnar7dbCzD5edNYjnnrEGWhjH4jdahnbMow4jgQ4islFX1DZp1xvpEt3KkCFDhoWLuUMj5koGh/l00ysLDYuAWNGOhhq47FqqZHx37KpbN6DmtFJrlIS+GDtufJV5pkXWRl2BIlVyd61Ns5HUoZEOIxe2WkPK+Tw2rl2FasEdC3adheJaurrOPXA++htOUxItg5wj0RQHevjBR/HQffeQ1LSR77SQT5so52KSJ55sNxghLaRJal8PJkGeRDZCvZ1iqhnbosqF8iCascLLW/dhsZBH2m6ikg8srJM2rsazzj4Zw5XCbIsgxSisInoGeja1L7q4m4nvPsN8BcaRSob+xnxxeiSS4ZnHfPFypHI4LLWFo+fTj5d+w6IgVtaNpEHV1L/s7cNbtpJYHWDKdAPaZWoZO92tO/ZxdeikS4PPk5rLSoPUNdXA0OAAjtu4AbT/rmFkqSR8tbqF7ss7zQMWhSHIn5A2pmwG+kqOpKo9hQKl3CG5ohSSOvIUtUilUYVSBoqDCCoj6HBLH5hqk3+RYHUYrhGriOGSkEVxA0P5Ds457WScdvLJKJFVaciUp0umdi9Cz76iVWmgG70ZMmTI8LTiydgB+5jqEJJhFvPpp1cWGvqfWHWnTbAvwqhfI1Zbt2Gq3kRAMuD4lFqT3EBos9DmRpnB4xzozbU+2SBpEqtO0sbqFctNNBZLzgs5Yp9K2Lg0jVWDxqu5Ls+hEnDmiRvwnje+Eq/9uefgwpPXYkXUQrGxD9VkAsM5kiNKAW2SpgQ1xsd0vYUWOWqisW5hEbl8iVK0sVVq7bMuw7SFTm0/jlsxgAvOOAXLqgNO3934EGw7T8pVDCr+5VP7/Ybe9HS0kqG/MV+cHolkWBiYL26ORDLMYj79eOk3LBJixY2MPw9rlEce24G4EyIXiQIQJFMaDG1rynW7jMzwyqBzbz4zLB92TswsjW0A9sZ1azBcZQLgLd1A6dlI78fIP1Jo8tOmDUrPIwgi0quOLT594pohvPBZm/G+N7wIH377a/DBN78cLzx3M1aXExSb+1FqjaOYNhHlAuTzeeSLRV4ZotlO0UyoXZErzTPG8G3JoLhlY6+qQRvnn7IRZ5ywFpquSuPein5tR+6bqhVl2hrD1YEnVZLFGxcZFgf6vasjw1OHuWnBS4aDMZ+OvCw0hL9PdPf7EyJWtLRNjeOh8X1sDPjyN6/CvjrNa2EQ7Y7GSLlOJM1tJIJl5MoMskbuyGDPjsqhjbexVRq+zihDIaDfdgPLi8CLLzof5528GhV6juhP69LNJVSLkWCZPgJNhRqSUGoQviOp0hmpFoK0g1VU0CknrMQpJ56Kk084DquXDdsSQLXaNBqNOoJ2DYWOvggUtRLRpc6lqiShjrVcUBPFToOErY6TN6zEK3/uuThjfQUlRpN0LfEcSl8AKjPN6JobhSg4OiwnxWv3fJ/gyRQQi5nYLzb4ePbbJxt3Wdw/s3gy+faJrl1scft06Wqh6Um2sb8hhVI0q7q+4NszPo2d+w6QCBSs60pRoVYnaxGRMbfI8RHk9i1Kuk7ad8JfXiMFaR6rwXIJa1cut4lB83Tsf8UdDUxzaJPEimxKq1rOp6ypE+IpDOWaGKLbAH2uH8rh0nPW4F2vvQS/8s434r2vewl+7twTsFGTstf2oNAcw1DYwmAQI2pNo9OYQDVPshTXSbxa1nV4xuaNOOvkUd5HrVW8s7gzJY0dmbMI8plM0aRDE0eq3Bl56i+k1O+xSob+xXzxeaTyZAxVhqcG88XLkYri73Cy2DDfO3qZTz+9Mt81XhYa+o4feEWaoiWa5Vvjb0L3ef0j23ZhspkgV6igZQOvXLtFQJoVWFegM0I6w5D4owiTG0VbRRLF+Jr8aOZ1yqoVI1ir8VX0Yp/2U3NzWfJirjnqzWxRau4p0ehY488KYQ5Fkk0tlFymfgeDDqrUj1r4zthUweuefwp+850vxe9+8A14/ysvwpkrIxQntyI/uQ3LgmmsLFK/U3sxWg7QqY1jzXAVF593liNbvEc+yM3MURXx/qZhhp+zvljuzIEIsZHiBY5ms4mEabe3UAik3yMQXaO0pv12u21bhSXM5A1uvWRYGPBxpDjzcdQbr4cS709bxbuPV4W3mMuchQLpOo71zbnbl7RaLYtHYW58Ha34PCwRlDZ6j+fC33chQroRpJ9Go2H7gt5J0qtH/+5+/3CidN4r3l3habvQkONL9VXJ6x/Xb4OEEZULMJZGqBWAj/3fG/D3X/428ss2oNFWN2CBhIr+6L+ToyHLsUCjpDTKWjBZRthaRehHdlqtHprfKiWDSui/kmsiao7j5Recit94++twwnAOAyrLPLtYApA5kOiVnShz0MWIquJBiqDkQhvbZkIXiT4o1NkWvU3WUmzfP4k7H9yKH970U9x814MkwSyk4gTVcpHkrIVXvegivPONL8PaQVgLWFnBd2Hj3TwUWQzYu2jrKLPbV8wutK5AGUIVBBpv5g3io48+igcffNAKHbkfDr4AUmEUsiIhEUEbHR3FGWecgaLGsCmdd/35POLvleGZgzcqhYLGFHYwPT2Nm2++eYYcHS6O5EdpQ/GurY/XFStWYPPmzRbvGZ5eKP4UR9K9tiIOymOTk5N44IEHUK/Xuz6PDqVSyeJVYW7fvh0nnHACzjzzTAtb8aq4lwhRFM3ka4n2Fxr0XErnKpsElU/+PfSOOvfYY49h586dM+8hiIQpbxwqH0j/Pmzt+/Clk+c973l27UJC/xMrmVP+70kijFPXH/2rf8Z3brgLRSNWNK008m7iT5ldR6oSsqiU8ScSJesc8pQRKx4ZsQpyPC/yJWLVQDmZxjsuuwgfeM3zsY5lWNFmBuXNDpEIFhuc5hypchoTqfKuEufq9KGOQrUPutFsGk8VdFi7S6XzkLotQPWYLXtbeHD7Pnzn+z/CYzt2k2BswUg5j1/74Lvx/GefgnzcwVCUQ0VNhPNAsa/b+cQ7dyvCvNCIldCbfmVc/+qv/gof+9jHUKvVrMB4Iqgw9f5UuCick046CVdffTWq1aodS3wBLByqsMrws4UMqAyB4v3KK6/ERz7yEYyNjc3E06Gg+OuNS8Wtts961rPwe7/3e7jkkkvsXIanF715y7e03HXXXfjwhz+Mu+++u+vr6NAbtyIgGzduxC//8i/jne98p+Vvn4+1L78SQUREpGwhQmTKVyB8mvcE69Zbb8V/+k//CT/+8Y9n3k0iPyJNh4LXhSeZXm8jIyP4i7/4C7zqVa+a0c1CwMKjvMcCKlg2dJKVhi3bdiEXlWnYI5l0npSySZdIBGzQ9YzpddBZL7PwhRj30gTFQmTTLFRJqtx3hr6lZmlAWlT9wGtz1kWiVhZphftahZpQy5K0z6xFV9bGNBYrTFBKGUG1MUTNGk5eUcBl56zFf/61N+H/+cDb8IG3vAavuewSnH3SBgwxqMFizpYNOiiCesTnoe5m5pR/Ru++kOALEV84DA4OWgvE1NSUuan2eyiZmJgwkVGWfy8qYEW0fE2uF7pXhoUBxYU3jOVy2QzC+Pi4xbtaO+aLcy+Kc8W9WkkOHDgw464wK5VK9w4Znk74fOsNurYy9iLGisfe+DoaUdyrUqX4FUQ8/v7v/x733nuvHStf616eTHtCt9BaaHohAqV30rtp37/Dvn378M///M+46aabLE0rPft39+XZfDqSKN3v37//oLJP1+3duxfr1q2z8BcSnCXsc2isFdM49o+1sXd8AmGxjLiTs7mtZFqcwXWkyhOrg02Ojg52UTxpGE8niTFQKWF0+bAtvKw1A10rzcH+FzeoO7XSqeuPmRrUrevji7grCuVENMqTK+ev69/THUZStVzAoLgYyVVzchqjPPXsk5bhva97Ht7x2pdizVABQbsFxiCvUg1G18+Vg6H47ZXu3RYkfAHgiZC2KihV0BwOuq638NC1Kui1lbu2CkeSYWFCtXJBca64k1FRTV7G8nCQfxlW30Ip6FhxLsnws0NvXvN5sjdfHi18/KtbVyRB8arWr7/+6782IqE0o7SiNCD4+Ja/hQjf8q7WNLWgeyKo5//85z+PP/7jPzZSpAqBiJX8Kl1r/3Bll/z5d/f70rsqltLhQsPCjJ2jAeNC8aGZE7bv2o3pRgu5fAFtxoHmtvKeZknVLLlymD8ydaWTDkaXLcPykWE7duOKGPhhEsGig97Vv3dXX/qVi7J7TMVo66mrEa/uNeoxbKUhMwILpIQFEgsJLbw8WAyxarCEHDNcXNM0C8DKaoRip4kiGIftKaRtjVvQnXpF8Ns5MC/d+y9A+ALBG0kVDCpgVPtUzc6fn08EX0DpWPu+wPU16SdbyGd4+uALf0+GFedqsfQGsjeu54riWlvFteJX12jba3AzPP3weas3n/mWo7lxdqTioRYZhSkipZaYK664Ap/61KeMhKisEJQOfHp5IjL+TEGtsXoPPaee149FUyvVZz/7WXsXtdL7cqu37JpPP168brT10LHI20JE/xMrQhHIf2zfsRPNdky7GrrWKkWCIo1+zOTT00EDoLtu2s6FhZlqtFAOK1eMYmR4kH51QqRqlmAsDfBde9+bCtWeiJWnWxqzlnTdpXMDvaolqx2WkAQV5gRKmGcwIlj62rKJUpBguETi1ajZ+oBVHhci0bN2t3WQ8eCCmiP67UHvYYf3lywwqFDxBaMKCBUqvsZ6JINfdY1L69SP0nXPsSdqGRYm/HgYxZPEE6wjqW37eJaR8nHsDVKGnw2ka08WevUutycbDyIIiltfudKxCNWXvvQlXHXVVTMkSuc8evcXEqQLn7b13Er39913Hz7+8Y/jlltusfdU67xamvSe0p9I1hO9j87Ln28B0z0Uhq7XvtwWEhYBsaKRpgHWHFZbd+9HGrrZvYOUBppmP0xdRLRzeUoBMSWXBogYjwGNr0y4M9NkxtyLc4H5SzsKI8UAwz5uqIjRImsnul0QUXhgk4v2E/h2HWZQibUvzbZAzZKVHlFCtcQqIUQIup/46Sp3pYP3Ze46TxG5RUAdajoGnlW3nsar5eieI9HKadZ16rHeaCMK8igVioo1XihhAAG1LbEkqjjS1u/PI1a4SWY3CxG9hbD2Jd7YHgl8AaLrPEnzhXtv2MLc4wzPHHy8yUB4oyO33ng8FHza0HXyL0MiIzNfnGd4etGb/7T/RITgSODzr+8aVtyKfKhL8DOf+YxtfZxrK/R+HbqQoOdTetX7SDeqMKoLUC1wngTpvM6JZOn4aNKx/Ol633ol8fsLCYfP0QseTFg5Rkwhh2mmt4e270GhsozuEfJpbOvORVp7jn9NkqVmrog2yrwkQoH8IqdlVWTEOyRnpAVqcWnnIvOXkFhFSQcriwFOW1bEiqjD8No2FUM7JPESyegn2HinBoU15I5oqAgWmb69ebdLT94k/HGZVjvdgoOEqMN3prZFkYyWmXNXhJTeYwn3Yyb0mLpk9kLUqdkgds39RTNBlzz9RHJBqTJgYeVIwkDyG+bVKajPx1XDd4PimZUoajs8WGbv3hVlLpOu0wKFChhvJLWVrp+okPQFuK7x1/sCStveMBZaIZPB5ye3lVFUHGlf8eeN5aHQe96nA0H7Pt59+BmeHki/ijOft3w+9Og9d7QQweiNP4XrScg111xjLVe7d++eIdNylzxT8T73nr3P4dOn3kmtVd/+9rfxyU9+0ioSenad13v0wqfjw6FXv/7dBd2nNx4WCvqMHcwFI4oK1iK+ByaBWoMMmNY90Vge67pSe5Rrk5JfiR3Z/8Hubn8WOSVuRmSBRmuwWraJMNWFpWQzW7T1EdSCRHJprUAkPI60uOgX+cmlibXQua8nNQ5K+mMGSNpI2w102jXrugtJyvKaIb3TJmGKeQ0zO/1ov0SSW8rFdj5KG3QTketmIiOwXuNqwRJlck8g6U5LpT3nYi2C7vkyZMiQYanAExWJugS/+tWv4utf//rMBy4iIr5VaD48EUl5svDP5uFJj9y09cRJ46r++3//79YS1+u+FLAoLJfieO++/ajVSQBovDVI2qiST3cy2gelNSYMOnTtvPPGg5x3MMPPC2yqhTwGBwfIiunKBC3npzndPi3QGyW5IilUwUQTIthXfIRNj0B9hCRTao9yXwAqE6imrEkrErq1eEiiFDeQi+sIKGFcQ0QppHXkSaQCSi6pU6YpNV6qcUOsXeTyFNfipScRkdNXmnSxp7An4f1FuGZIlZG/jFhlyJBh8cKTkl6IoKhVxrfkPPTQQ/jc5z5nc2ap5UddXzovzHetl6cLc+8p+HuKPOm5NbWC5li75557jFjpeRdiy9LThf5/UzPYEfbs3Yd6o2ldSuqS8i1Ozlh7EXoTnBKISyTul8adicPWE+yk5FVtVMpFDFUr7ny3W2yedLXgobdWVnRUaVYL1lKkbsK0S6T0bppngvrTlBVtdX1GZcoQWsEAmkGVwm04gFY0iFZ+EI2ggoa+5esUjLx1NFA9VJeeI3ExJUGe+6JQjlzZvfx4L+um7D6V7k9x47S4nyFDhgxLCJ6kiKB4QvLTn/4Un/70p42w+EHb3p/kZwlPBnvv7d388IS/+Zu/wfe+9z37SlBka6GOCXu60PfEyto5SKz27htHs9lGGOXNMItUSbo+6KZI9dKF3zUL7vyppUpbdY0xhWDZ8BAGqiQJTBRufTr77zvoVUVd+Fa2LziVqBWOYgfc8r1jZuZmog8CApKoPIlTATXKJGU8yWNvK8L2qQ4e3tfA/TsnsK8ZYiLNo5ZzfhtBkVJGI0fCpbFtDHl2yLzLkEbkUrpay1iX1HWfTM8p8c+ZIUOGDIsRveRkLnrJk8iUJtfUeCsNCJ9LrLwI87UoPdXwpM/fU9B9RaA0WF0kUFPJ6Fl9t6VvZVsK6HtilZAUqQNr//gkmu3EESsjSl0DLvM8h1TN7tFft1nErqB/66Yi0dBYo0IUYOXoMmu1kuGPtBpw98p+g55cHX9uODgj3pTQJVX2Tjm04g4mWh1Mg2QoLKIeFnAgF+LBSeDK+xr43A8ewZ988Yf4z5/4Gn7n41/GR//2a/j//cM38f/8z8/gd/7qy/ijz12Nv/vWbfjnm7bhph0ptjPMcYbMyzFFqfE2zTSHNrcuavTjaRTF4sk9jX+qDBkyZFiKkP3yhET7GmOliUOvv/56G3sld99dKMhvrzzd6L2PnkVfNGpclaZW0Iz0ctPgcnVdavuzeKaFgr4nVpoEVDx4qtZEm8RAn/N7oz1DrAwiTR5060Yyk4a5y6a7rfy5lqtSIcKykSEbZ2UExAawM5Hblf0FRXTEB5cYqTJ4+sL3CvKIgyLaUQUt1jD20vknDx/Ap756DX7/Y1/Af/mrf8KffeFKfPGHd+P79+zFj7dM4fpHJvDD+/biuocO4N/u3YOvXXcvPvG1H+APP/k1/OGnvoaP/9/b8MN7pnEgBiYo+nKzznDbHY334hPNZDQ9g5PZvQwZMmRYuvDESvCtPVu2bLEB4Xv27LHznlh5cvWzglrMelui1KKmiU3//M//HA8//LCRLBFBkSqNC+slgEsBfUeselmvvgjMBRGmG8CuPfuhwdEaXyV3RaSZZ0Vmt2VGXwqa8E9+HNWizLRaOUKlFqtO0kYxH2B4aMBartRFhlhTBshXH0K6UuZsaxA6WY4NUE9NX7G6+eIQbWaUegTc+OAk/vST38F/+V9/j09/81rc9ug4djcjjCcVTOQGKQOYwAAmwyHUi8sxHY1gPK1gLCnhQKeKva087nhkL7521Q34k7/5DP7gL7+IH932GGpUs4azTyWBkbg4p7VtQqQx48cGts/qdjaWM2TIkGFpIo7dklcaqyQyI7v2wAMP4Hd+53fMFqrrTW4iMr6FSMfO/j218ETOQ8+m++o5tK9xVZrQ1H+96J/36XiWhY6+I1Yenv2KEzVaiXUD2tK/dJgxztyxI/M7K/5PCSJHg+7GYzllSOxrNV6sFqtquUhiRTdr5lGtQdt+hMiLRjpR6pPoNEhxghDNNMRYjfoLgZ10+trV9+H//din8c//djNqhRVoV9di13QHSVBCEha5FSEq2Hxf2oogyV2TqrY1TxhJmtyayGOKt9rDn5/c/Qj++jNfxMf+4VvYMcHbFnLYM91GvZNnGEV0Is1ZpfmtWPtJYyO9IlYZucqQIcNShVqE1OIjeIIlm6WWoSuvvNK63AQ/Z5TO/SwWZxaB05d+fl/jqNQ9+eUvfxm7du0yNz2rt9FLEX1LrDwUddO1ppErzYqeiByrO9AoFQ/MSDtCZTIz3oq7RqxmReRKn/17qRQLGK5WkBfpmrHys9f3FTrURarWKgqZYq5YQjvJoR2SjJbzuHd7G3/2qSvwRx//DB7e00BucC0e3l0jMQJGlq9BpPmrUtIlSadpx040h1XbpvwMeBxyP+hov00dahB8irFWQELVxr9cfT3+3z/737jmrn1ANY+9DZJixk6N5K6hyVqZHBUPHQ1s5/NmxCpDhgxLFSIonqSIPEn85LIaw6Rut2984xu2Xp5vGZL/pxN6FpE8ETm1SInIaUqFv/iLv7Ctfwb/PEuVYPU9sZL1PTA5jXpTM7uGiBMRqa6BNlIleDLUE8EkTtYdaNyL7taHKPIhYeLkiVIxj2qFNQF5FyGjiKy5UVl9Bj2yEnrMd8sXMd1KMU6ONd4Grr9zL/7ik1/AVTfciUY4iHBgBeKwSn8DNn1Cq02SRFIWklRFmiTU9iVyjxEiocYpHc13JZGOXLdqoTKIXGUZWtEAcgMrccsD2/A/P/EZ/PPVzIQVFhDkUPVOgDofq804CBlveaZKkTV9SJAhQ4YMSxWyY2q58l8BaryS9kVsHnnkEfzZn/2ZbUViNM7JDxKXn6cTehYRrPHxcftSUTPEa61DP93CUiZVwqJosRqfILFqMEGFmjhNxrhLp7pxasSIPiXeQXtaZHkmEcwIawgUTbdQLhWNWJlvBWZkrV+NPV86X0CuOoRaq4OpTh6TjP4f3vYY/u4LV+C6Ox8mqRrC4KpNJDkRJqabrI2UkadO2/U6iU5sZEctUkamSKBEpJxQtxKvJ69nopXkUOO9JuIQNZRRXrERD+6ewqe/8i1c8W8PYD/JXRqxdqZuyZj6558jaGRcGbHKkCHDEoUI0lyRrfLkSd2EN9xwA/70T/8U+/fvN7KlFi2Rr6cL/r4aW6UvEzUFhLoAdSwR2cqwGFqsiMmpGhpNJTatGp+6RGjsSYb5YEPfezSzzx9j1tZ8xespIvwD1QoqZS3IrOZVnlOQc4hDv0C0JybJaeXyaEVFxIUAtz2wB//09e/i7kd3ozi8xsY87Rmfti8EK+Wqtdzl4hYiKkPTWnTbpdTpRwlnJKH/hOFqMLotdg2Nt9KC10W04Ba/DivDFv7uiSaC6nJMxhH+/h+/jFvv2YVxLV9IctVOOki6rYV+cH2GDBkyLFXI3ogoaSvSpBYh7at1SnZO45v+6Z/+CV/5ylfMTee8n6cD/nl0jzvuuMMWiVaLmR8LlsFhURCruppA2zTETGiJjLGaqER+0p5WKoLc4CAYAeuKn1DUBrFT8kw4gwNVlDWBOGsJFh7l6UqwTze0pEwcFm1MEzkNHtrZxLd/eAPu3rITaXHIWpWSsIywWCUBSxG3NPy8g4KtGchjI00FtAKSJkl3sHrLBqyX0OK1TXCbK6PB4ya3zbCCNE+h/2YnBAoV3rtsY6pqSYgD9RSf/+q/4O4H96JFtQYsOAIp369TmLVYZciQYYlCtkbiuwE1dkm2SlDLlY7VQqSB5CI4P/zhD81NeDrtlO7hl9n5yU9+YvfSM+iZem2qf9aliL4jVj6xGXJqOQH2TsoQR4gYsSUkNvbHWmiCyFpoEkWyWqFSnuu06VfhhNxPrVtLpKOtL9lIFhJeE2ghYbSwrJRDRR9Z2FQAmhqgQIXxOoa9EJOM181BOupByKcXVdk1AXznRz/Bj+99BHFlGaY7JEwkOiEilIM8StRHGrdRa9aoP16Rj6gj6UB6lGhPY6i03p/Tqwn3Tc8UnVf3YNxy0ztIe51WG5V8CcWogkabmqyO4pYHtuOKa2/BfXuAJgmfWri03mM3krjNkCFDhv7FkZIMESiJ/PoxUr3XeiLly3YRGd9S5FuPNIeU3AVt5VctTLpOONJuQn+tv5cnbJ7I/eM//iOuuOKKmZYzyXw2xz+7oH3/jmrx8m6CH5S/WNAXxOpQESbRcinb9yuxRAjjFsrqqIqbSHkuCQto6vN/vWbHkaqIpEvEQMQq0lgh+SU9aOVKqGtdOxKrnPx16hgupigyro1CdEQNiiQNvA/T7UJNAtKVz1gHgU4h31un7rjvUfzg5juxg5xnMiyjVRhgSuC7JUz4rRhRO0aBiT8q5tHOS8cKT4pwpEpjqkIGFIqoUodB0kJIkT4j07MjW8yNtjqgyJf8Fnhdri0SxswVVTGdlhAs24jv/eQefOemu7GHt9E8V1qjkC/CvcfHe4YMGTL0E+YjDN5+zRWRjt5uNZXlIjWHIy0acyU///Zv/2aER1MeiAD567zIn8Kb1z7Mgfz76xWWtiJU6nq8+uqrbVyV1i30fv12PumFCJXEEyzv5t9lsaAviNXhQDuNphg5E0HSk2AUTb1x1RttZrLp0E0O9muMQeBGfvNM3AOVCkmBjpVAGLbOKdDewBYQfOacm0iVuBM+e4OvsGNfjBtvvQPbdu01QpmkzMwhMzITeVcD3a3a/A6Gjo9WXDiu9cqOLXB3Vi7tOLVB6z/+yc146JFJa4HUuC1NmbEIkmeGDBmWOHzrj4cvoz250OSfvsz2LUPy71t1DgVdK9Kj1h7t79271waTf+c737GWJEHh6LxE+0cyz5WeQc+j5/bPpYHpul5dgH/3d3+HrVu3zryX7u396/hQ0DnvR+RRz+L3PXlbLOh7y2WzJChCugnVJwRF0ZFHlPm2PZl7ocDIrlYdsdK4H4UtPuDuYV4WJPT+XgeCT8wxX2uqBdz1wCO47a57UVfLUaiB+Tm0uC89zpDN7uXauG6/JwnFg4mIr6vF2P0YclQoQhOvb9uxCzfecjtqZFZa8sZWNdQDZciQIcMigS+fvahs1td8KhNlW0Q2RDKOBJ4kyb9vtbr33nvxhS98wboGBXX9iWTpPiJX2jdbdhjIryB/nlApbMknPvEJ/OhHP7L7iRD12tgnanlSeBJ/jX9nhauwDndtv6HviZWmZYoTsl1RAhv43I0cRR7/D08MFMES78e1quiaMAgRMaEoiWtaBvNnCeLxzZsLDT7TeljG4HasCdz40/uwY98U8qVBa7FSa1WauHfSW6W8zO1JF0z4dFdr0zFD11tXIsXuMRt6quQX5JEGfAaSvNvuvBc79taRRnkkHXUi9n3yzJAhQ4ZDQsRCXWwbNmwwgqFjP22CJziHgj/vSY8nJ9dddx0++9nPWquS4O2VCJjCld/DQeEobD2L9kWuKpUKPv3pT9ucVToWifLhKrwnelZB/nWd3s8/y8DAwAy58uEtBvS95VKL5zQTpiax7I2cgIZbX/l5omRbO3NouNYqR66iMEDRmk9FVCT6cQEt9AQw3/MpK+2caOC2+x5BQxNHRWU0msrIeVfz4Hk1EHX4jhLpQS+vDsInl0gUjiNV2urZlAU1vF1TOEw3yPa0JA4ibNszhtvufkCL7qCl+RdCjWvLkCFDhsUJkQqRjA9+8INYu3btzBxVcnsiO9PbauTD0b7cv/71r+OrX/2qrdvX2yLm/R8OvlIueyoipK7K7373uza7uiYE9URI99G+/CvMJwpX0HVqRVu/fj1e+tKXYvXq1fZMiw19T6xaMdCM24hTkiojBrLhLoKVPGZEThRPsgTvf+akP8/rRaqGyKb9cjbdtGbIMTEtdMzogA+uxN8gs7pv6y5s3TuBWAPWU835RXKjmer1xZ+9oF6e5McpgXqiKBgX1DHBhSEaxXB9QFS6Cz2wMXKdIEJDk5Y2Ytx5/0OYJNdKgoIRsAwZMmToZ3iiIngCIlErj0QtN2984xvxC7/wCxgcHLQB4jqvcvtwkB+F7cNXWJ4MacJQDWTXGn4iMgpT4fnWpsMhJkHz5En32LJlCz760Y/isccem2mp0jlB/iTeXXIo+GeV/xe/+MV461vfihUrVlhY0kGvnvodfU+sxAmCSF1aTnzkWPcd/7scwcjU/NGmhCDxfpzJ16SYpULBXcOwUiUyS0yiB/pbmDhU4q63gHsf3YHJNl8nLJGI6uuMItot1iCamoKC1/Fl3ZvNkiCtPW06eBIv7HV6cDjOJV8qu0lHOyR/cQe79o1jz1gT+ghT48IyZMiQoV/RSyY8fBktERkS2dHCyr/8y7+MSy+91EiKWomeqHvNh+3D0pgrkRSJWqnuvvtu674TIdI5zZTu/TwRRMREdhSu1iT86U9/avs+fH9PkTCJf5bDQed1/3PPPRdveMMbrIVOEPHzY7kWC/qCWPUmHh95PtGpJ6nRaqJYLpnNVvOkEqaIkF7Ok6pZgz4LLV2jk0ooKfc1SN2Ws+F9CgXXF61eLIUTMmPkQu05gnD4JPTMQfpRJtZWidUn+ql6E3c/shUoVdFMmQmCPN8pInHKWeucTcwpQkWFaZyVhSXheenQ639ecd7nhaLLBv+TAVvNhmLPZ/oM0Y4Txl0V9WYLlYFB7Nq7H7v3j3UvdpsMGTJk6EeofJStmo8kqVzWebXaTE5OYs2aNfiv//W/4vjjj7dB5iI2vYRsaGjI3AR/reydoPC1L3cRFYWn8+oO/NSnPmUtWDonWJlNkW3QdfLvoX358+c0N5a+AtRYKG9L/PW98P79PbT1z6o1BPUe6vJbuXIlPvCBD+Cyyy6zcx4igv7axYC+IFaHw3S9hsnpaZKrFg18x1qtRKw08FzGXFE102I1hwGQMzAyXSLQeXELXcGkYy1WZbJrcSk3eJvSTUxaduXwdOKZQ2+Clx4kQoskcaLZRhsh31sDI/leRhr5vkYmRTJFrLonpBDTBf+kqGMFH0f61I4P5SDNMY7a7dgG0bcTFg7cn5qu25iwDBkyZFjMkO0R6RGpUkV406ZN+I//8T9iZGTEiIrKbxETkRSRJREfDSR/IvixVLr24x//OH7wgx9YeCJfOqdGA4Wt+8ufJ2g6p321mOnrv7/927+185qzanh42MI4HHSdVaAZtn9WbfX86uZ8+9vfjte//vUWjrdVukb37LVd/Y6+JlaKBhGqWquBWBElgtQlSbagstYN7EaWtnI3404nESP5tLNkXLxMGxvwLrKhxYe1CLNoiZvDSmRDvlkDWcAJQInTJ9DejFMnqRqbqiHW/FD6EjAlCaVEfO9OEuuHV4gwUm/dP/3PkFIL8ejh9e0wszMDPZ/LeMzsrPUog42Nj9m8WxkyZMiwmKEyWiRDZaBIkLrKXv3qV+O9733vzKBunfctPiov/RxV88GX/SJOClOD19Wt90d/9Ee2pp+grxAVnsJRS5Pgtz7sbdu24e///u9x++23m5v86zrd/3CY60fX6r3k9vznP9+IlQia3tu3UulZnyjcfkPft1gxRvgWfI3uCPOUBEgRpQlD1b1n6Uw/+ufWxA70zx+LTxepFrc8r41arDRJqOATq/PAzQLWmn9HwSdW6aPWqGOKGSzR+8mdpNOIlfzxPFJHrjQxQ6o/H44qKIevpBwWTttStsLr6rIbtkTRlsRtFhqhEatYhQFrZixLjpnMZciQIUM/QIRGxENloQiUWnbUWvXud7/biIgnV/IncuP9+m62+aDzKvMFXS8So3mtRK7GxsYsHD+YXffUeYUrIiY3tZxpbJYmGvX39a1KIn6Hg7c5/rkVbrVaxWmnnYZf/dVfxcknn2xkS/dUeHpObXW8mMhV3xOrnMbvMOK1lQHX7OsiBWp50lxU1lIlnsGt7LsXM/a2IwOvFim3df71FRvD8JfJymune426GBcqehOnMphgRFOkhe+l99a76T3DGWGNYYZByYe7TnDdgE8uwc9qbvbP6VnPoue0Ga24w/tT1/pIQL2RGTJkyLCYIdul8lkERARDW4kIyIc+9CFs3rzZ2TeW6yI8Ij+CL9sPB5EgERwRGW2/9rWv2QSfCkP3kpvurWOFJxuhfU2t8PnPfx4HDhyw8yI9avmSH113OChMT+z03HoGkTK9ywtf+MIZd8ETKh37Z1gs6HtiJcad0CDPtLB0I0cRpnFWZtBnImzWsMuf3GdJFUVf/4l8dPflTWKdiyIsdJPTk6MZTz88uXLvR/Iikil9+FoO3dx4MpEbDfLXVnrQu892BdIbf837McNfb2H4HYoLX8Iak0gxtyJ8EVNkMc9allRuIWTIkCHD4oTKZZENtSCJgIgEieDIXV8IvulNb7JB6yor1Uole6fyXEREW1/Wz4Xc5VcisqOtrtFAdC2erDB9GLqXtvJ38803m58dO3YY4fGkR+eOBHoXEUP/DnruN7/5zfYeOqf7+PNqyVL4cpe/xYT+J1Y0yH7MkyUyiQw2E9ITRZYz7F0xItXddvfFCoyAKEzBEurCHbg+F9KHzzDFUhGFYrcZl+8W0j0AMynfRyTGJQS+WU5v597QGqvs58lA18+GMXtkd+C/+1BAuhXBisisyiX30UCGDBkyLGaI8IgwiWCIbGgryE3kR6REY678F4ESX6579O57eMIiyL55QrZ9+3b86Z/+qREoQf50Xn41X5XmvrrlllvsWM/j/fh7zHevXui8RORJ97z88svxS7/0SzauSmHq+RWuJ12etPn3Xizo+7dhlCBP4x9RNOeSBp4LCcmRDWjnPk91O7kcrGuQ/jTVQNghK9dCxDy2zr8c6QYlYeJIdB2lo0hXglIXoHUDLky1KaH2wmcCJdrhUglrSaxKyiwJ9RLmMZ2L0M4X0dY7dRIU0jbKcQvlpE29kETyPetRHi0Ndmc40uZ8or/53J1Ij3nGgddwwrhqUbTUMgsS+tCXnJqzSm1n+WIFlUHV0OzRM2TIkGHRwrfWiIiovPbdd4LcTzjhBLz//e+3uZ960Ut2BB33uulaicIXeZF4cqXxViJXfryVzqnb7xvf+Aa+9a1v2deHvuVM5wS/FfzzKSx/P239/XWdoGf+rd/6LZs+Qtd7Uqjrta+uQD2f3Obarn7HwmQIRwhFacTfgggSLb8GYxvtMQLkiICRKoq2vVEnciVSFaZMkPxz1IrsndeKWIlUiO/rmlQRrwCVeElG5M/dfeHDJ9hBZthNA1UUW03TWUKyVAsLaORCtPh+esNCGhupKnpiRfcGCVgrCKkPp4v5RC2GhxKRpZg6k/40pioQoeoofIkGzbuCRfru8FnCQhHDI8voxoAzZMiQYZFD5EKkR4Sjl2B4InLWWWcZudJ6gvqSTpC/Xr9zjxWeFw9PrOTvqquusq/+tC9CpPUFP/e5z2HXrl1Ggjzh89d59N7DkzlB7hLfEqX5qn7jN34D559/vvnRu0n8vp5DfnXcS9oWC/qaWPWiP2jO0w8l2LlQQi8WIqxfs8IITT5HGkNSo+5AzRulxZhTkp/EROPSSDKZf6yFiQTLFmJmOMckdq3LmJoOQ2GnvIfuafs8q+fTOK88U+NgqYg1K5bbPp0yZMiQYclB5bgIiKBWrNe85jU2/5OIlVq3VGb2QsdedO2h7ICHWqVEpPTl37333msTgaolS5jvWg+FIdLlCZUna36cls5pvqp3vetd9szeXSRxKWFREKuDksERGuNDJ53+x3wZo1QATjpuPYkLyVNz2oiVm16BClOLFMlOAnX5UYxc5YxQqVWpS38c2TpaUfgkZ8qQaYcZj6GpE1AtVBJ1rVpNLWnbM52waT1WLy/yKXQ9r82QIUOGJQSV3xKVmSJVIiWa+Vxf1j372c82UiPCIlHZ6Vt+PHRdL4nqRe85DVD/4z/+Y5Pvf//7Fo5wqGt7oedzpMq1rPnnELHSmLBf/MVfNBKo55I/v10qWBTEysMZ8oNF6HUX/HaxwWfI+VAgU9m8YQ2OWzOKuH4AYdpEkLqJOdX9GZPKxLm8iQiWcoxIUSRiZSSsG9BRQ4RMnbKs3TC5qUUsIbGSiK4xF6OoOaxI9opBivPOOAlVksAgbpqPDBkyZFgK6CU0viyXiLToq8H169fjN3/zN212dsGTpF6/Rwp1v+naH//4x/aVoNYR9EugHQmx8vcOWCn3hErHF198MX79138dxx13nBGuer1mWz1bL/lb7Oj7Nz0kWZqbNrrHIlm2dZtFDZ/4JaqLrF85gHNOOwEDIi5Jg24xCZc64Uh6SK40yFzjoXpbrGyQOYnRserLugJVU+FNRJPSjsauObGPL1ONs2ohTFo4fv1KnHHScSRVvC6u81qNcsuQIUOGxYm5ZEhlteCJiD+v7j8NKBdx0WLNvjtQREgkybcGyb+/pnffo9cmiAzpepE2DSTXvvBEBMhfL38iTZ5UaQyYxlWdeeaZRtREuIrFkhE2f81SwaKgkJ4szYd5zy2d+J2BInqkApx/+ok4Ye1yEpk6SmQwORKaTspaCqmTWpM01krECiRAIkXqCvTE6piEYbgxVk7pOnI0T+dJ3HIp0sYURsohLn3WeVi/ouK+GgzlP2uxypAhw+LGXPIzFyJNarXSPFeCutm0NIzGMqmrUPCkxZOi+UhVL3SdiJq66zyhEknS9UfaZefDl/+NGzfabPGaBFTQ84rwyY+Im57P32cpoP+JlSdJ3a0z5rNbgUnsYHc5+ut6cLCTO5rHW19CEV2OgBPXr8CJ60ZRSGoo59pAu2ZdgqYT/s6MfeK+fjV43SYPPUaIPClEbQX/q3YykbZKRKrVmsLq4RKefc6pGOAz5kWoNLlW13eGDBkyLDWIlIjoeNKkVioRFm21PI1aiDT2yo+NEp6IUHmI7IgQ+S/yFEbv8eHQ26Kl1iodn3HGGXjLW95i823p+bT4sp5VrVVaokf+PAlcCugLYqWE5RPMXGZukJOMv/Ut6dxs4nKLKncTqe13tzqvsLQlXHOmIxDat/5mbmM6zTLtJ06wCwleZ/buGtXEjHPihipe/qJLsH55lblrDFFcI7nRtBUptGi1FmfudHSNy6xp3La1/JySjx7KsIUoNGLFUN2Wes7nEmsxK6Z1RK0JvOYlz8cZfDb7ArFDffNZTDJkyJBhkUJlswiNxMrprl3Tsbd1IijeXftyF4H51Kc+ZSRGftXaJOic96t9Lx7al33z+36slWycdz8S+GfV82g6iH//7/89Tj/9dGtV8/fX1i+07J9vqcBpoI+hhZJdYnOESGKJlOdmZkwnDtddOB9arTamp6bdAcOxBNpHs64/DiKNSQM5cpZTjluDn7vkPKwoAyMF6qpxAEFcR5FcKs/MkMRaYqGBuJ2YfgsafKjXPgZpNuoMp2XhtFtNDJSK9mVia2IfSiRV07u34LKLzsVFZ50ENXRrKghr3QrE9pZWZsyQIUOGI4XGMv32b/+2tQipNUgEZsb+eZslw/gUQuH6sHWfNWvW4N/9u39nXyseSWvXUkHfEys1OVYrZVsXcCYxpS7SLU11E5YZa5/GbOsP5kdCEtUiIRD59mErTAv3Ca5diNByMUUNVG/XsWlVCZc99wKcfeIa5Gr7MBi2EbSn0WnVkUtjm9+qxJqQakN61bjtWuykw6OVojX/5tBq1lEuRkhaNfI7N6Yq357EuSeuxetf8lycuWnYplgo8BrXtE3F5/o+eWbIkCHD0wKRqfe85z1429veZnZJxyo7Pfl5KtEbprayDSJ0mlvrpS99qbVU9XZJLnX0veUqFhXJJYvUUE2TgbqdyAdErtS0KQ4kstXderHjw0CJR02ZCivX3WpGd+vMeqKLFxB8hjCddDSRQoIgBU5ctwxveuXP4fxTN5HgTKCClnXNaWZ0ESJ9RhsEkfa8yo5JVINSfiyXigoJcWOaJK6GkWIH60aKeP/PvwoXnroeVT1rWqefFEFIihWW6JBl1AwZMmSYDxquoq42DWbX14JqMRLhkd06mm69w8HbDw/ZWd1DROpVr3qVETsRLBG7uX6XMvqeWCkerVmSCUlkSt1/FrV081sjV+5nZvNEk08qTGtW5b5rpeI1TLBKtIe/cqHC6aZciJBr11EJUzznrE145xtejtOOW4VyrmndgTkbyN5Bi5m01mjoKuRJXE2P9uZHKS4SrEuwE7cxWMqzRJjCcKGDd7zupXjxc07GUBgj6kyR2JGEkfglHf4aqcsyaYYMGTLMBxEcTZNw2mmnWXfc5s2bbayUyI0f5/RUwZMmiR9XpWV2NK5K95KYnXwCu7pU0PfEinHMSO32LYtcmUGfTQiCdQ/S2SLd9p+4xSoWsajVGO7sdR69Y7cWEg6XqKUL6Yk0EVHQQUHTHNQbOOeUDXjr616J007chIFCqBdHRL/5SF+JdNDWAHIfrLZHKdbKR1FrolrM4lYdZ5y6GW99w6vxwovPxABTYJTUEaUt2IgqvkOcULibDV3PkCFDhvkhMqOWIxGaSy65xFqufOuRWpY84em1hUcDf42/XiIbs2LFCrz3ve/FBRdcYOHrXrqnv1eGRUCsNLVHtftpJ2PVjLlsuuAIUG+7h9pieiLeezTowlkHfRFYbzTNtx9jNXu+J4wFhvnI1WxiV6sV3yfXQYkcqkomoy8CLzpnE97ztjfhec85H+Uoh3ZjCvkwh2KeJ5lhNMbKpqpg2G57KNH5g0VfGtqg/yS21rJnn3c23vaG1+BFz92M0SqfqNVAlbfJk3Sl7YYRMXUFklsdHD0ZMmTIkOEgeGKzbNkyvPa1rzXRFAxCL7l6MvD2Q1t9jfjmN78Zr3zlK218s+yN3GV/sxarWfQdsVIkzhAFRmKeu4OlBEnaQicqoJOvIEXeJrW0iSY7DV4UIyajiIOQEtHgO0PeQYR2J0JAo19Kmyh3mojSttp0MB1H2FcnryABUcuNQ8o/TVywMI3+Qbp5HNSFKfKZRy7UEgPAQCmPwbCDURKsF5xRwS++9iL86psuwfNOLKEycS+i/XdieboDo9E0StRlmamlpBYmfWGoKRioN4VqnaPUmyQfJCRtCYq5FnVcQ7G1D9Xadpy+rIX3X346PvLzF+GlvNcqxtcyPkOZBC7IldEJh9EJBvmcBf6R8Cn+7LkzZMiQYelibrmufd9KpH0NWvctSVr8+KKLLjL3+VqQrAGii7nnhN7rPCnTvu6nrscXvOAF+MAHPoDly5fbOYWnraZT6A17qaMvW6x8ghC5CfhTitokVhSSpiTHRJYjU6dhDkgGQrR4QYKY18Q5kqIciRWv05xOMt2JiFWaoNBpo0hiFaYx3UM0yaim2ky8uk8PiyI/d27usH/AdzdipVnPu4PCc/beJJRpHaVmE2evK+BdL7sQ/+F9r8IvvfEFePG56zHS2YPpnfcB9QmgMYWgXSfxaZM8dVCg8sMO9dWukeDGGCgCxYDxUB9Da2o3/U7g+BVlvOUlF+E33/davPMl5+KU4QbW5PZhRWEaIc/nSXb1XCnjDaG+QmSSlHIZd9B8VhkyZMiQYQayf94GautbiTSQ/eyzz7YWpVNOOcWORXZEivw1IkG98OH0QuH5yTx1vQiVxm6dfPLJtmSN1iwUeluotPX3yNCnxGoWHSaU7hdnilRGrp/k05qletCZJ75dx6DEQ3vOJWVYmstKrVMatG7n+jzRzCb6g99Y3YOhXjHtoFLK4dST1uP1r3kpPvC+d+O973wbXvHi5+L4VSWM5GsIGjvRmdpm26i5C2F9BwZxAOVkP8LpnZQdWFVq4fnnnogPv/M1+MiH34e3vflVePZ5m7FidIgZNY+cajZ5Nw2DCJ9izEuiB6IbPXGnz5NnhgwZMjxNEGESRHBEgNRqNDw8jFe84hX2xZ7IUe/EnyJI+nLQkytPiuZC4dqYZYar6xWu/H70ox+1rw8FHR9KMiwCyyVCMFit2jxNIlppqq8itOdEmNnKyyFhFt1IlQLQAOrpWh3Nlpxn1XTYIPoC7j39m0hXUp1mR89zR1MxSJZVgDNOXIbXvepifORX34o//N1fw+/8u3fjF9/xCrzxZc/BSy4+Fc89eyOeddoaPO/sTXjZxafjfW98MX73N96HP/ovv47f+ZV34q0vPwsXnz6ElcNAo8YCIAaqjKucSFXMzB66L/96iZWJPR6JVY/eM2TIkCHDwfCtRCJDIkwiQqtXr8Y73vEOm7TTtyqp3BW07wnZfFBYvktPfjVea3Jy0iYiFWFTeL7bT+H4+3rJWqwc+tpyKQq1pNzwYBURGZZokQZLM6k5D0Rve5SHXLw8DkwYukaD1yemplBvyo3hpPZ5oPNiv/0FRzT55Er4YpgS7ZO86Ks9ff6ojs8id7VeX5H+1aZUopdlJeDkNcCLnrUO733DxfgPH3o1fv/fvxX/47feiz/67Q/hD3/7XfjtX3oj3v3qS/Hyi07ExZuHcOoosIbhKDuTo2E5fzRQXrFkGhS5sm5AHTt4MixyZY8oxwwZMmTI8DhoHivBkxkRG5EekR1Nh/Drv/7rNju7SJVaoORfLVq9M6TP18IkfwpLfqdoA0Wofu/3fg8HDhywrxBFqiTyk2F+9L1mxL0HByqI+CbqCkxJgFwy0+984uB6Cg9OVDLyXjTNgIhVre58JWTqnlj1I+ztZ1/fwZrwKDyhqRg0z1Tabhk5lV5FrkSKyvQSau6rTgtDuRSDEsQYzrUwmm+imrQxHLSwosAt2shrBvfGJKL2NIrUmcKRWD2oE/NfJFUH7oH0q4TojtwpkasMGTJkyDA/eluWRJxEsER2tK+Wqxe+8IU215RanTR1kM4dbtkZXS8RMZM/XbNx40b85V/+pXUjDg4OzvjJcHj0PbHSC1RLBUSMaxut09GXEnSkdZ7lQXKgdI9FwGYOeuBJVZoLrCuwZl2BbfNpXwbyuvmv7B/MPPtMi9WsBGGAQphDiaI5pZRtO1qFulnHYJ4ESV9NxiJMk/YF5TDdlhdyNmt7laRrIIhJwmJUKINkZpq6QfsFktKUYXTihiNQvFeHGV/6tJnW6SYiJ9F+3yfKDBkyZHia4YmVh8iUxO+LIKlLUFMwaH4rEatGo2HnDwe1eolIaQqHP/iDP7DB6vV63Vqr5l4vUjdfq9dSR1/asJmI5IaUAOVCiEKkTiaSABpxuTn4Fijz2oU/6hX9en9dcsWDBklVk8zdOFXXl9+bvUf/wb0BIXI1501yGvyftKGlbSLqs0q9DhY1BUKAUhChEhVQzRdJvkKEmp+q1USR+3ktQ2OKYo0mEC1j0mozrLiNEtqoFDWGi85q+dOyQ1EeiRUCbgILdUO67wPd9A02hcPsk2bIkCFDhh5ovJPgxzr5liQRLpEgEaTR0VF86EMfwnnnnWd2U/NQCd7v3NYnf6yB77/yK79i81V5sqaWMH1p2Av5nxtGhj4hVvNFnDFl/unM6LJhE1Eize7tvgzkOXVv8U9f+Hn/OkcXnnbi6BR/uUlIDCSdjmtHmZpu4MDEFN3EBUL+zIwQ6muYOvVjg8PnvJHeUYPYc93WJK0dKJ1RJ50OqY9N7EX/1EmObmFIEpUyHEmH5EoiPx2654ruHh3NcZVwn9eRVCnZWRTZgyge1DzdZngaM9CybS7V5KzylCFDhgwZ5sKPcfL2UeTKt2KJDKk7T2TonHPOMZKkbj2Nn/JETH5FvgSF5cmZ9l/zmtdYN6ImARWZElHTtZ7MZTg8XMz0MZSkBkpFmyVcRECzpCtRiQglmvXbPDn6RAtuv27T3Tf4ffmj0L+Sz3SjQXJV65KtbghGxvoXj392uSgZSLTf9dHVkTSR60gvzIAiS9ampMzr9k2MVJEw5bpuarEKCu7YCJbCFtnSPGN5tClxWCT/KjKs7n31yaDmrSIxdqxL0htHGTJkyJDhSNBLmESuLr/8crzvfe8zdxEqufnpGNTt5/3Lzp1//vlGqtQV6Lv+5C6S5VuvMhwesmp9Cc/S9QKDlTIqJRpysulICYmRL/Ydq6uKRrvXPNvSK9qa6Iw/64+MSpBcBajVmzgwMemIlV3BW6j1xvb6DzZgv/eVDXovadFLVzvazPh17iKc0otIUkdEyaZEoKiWFOnYEVItR6Ps1+LWhsGnIdpxDtNJQAFqPFfnuQYJWV3dhYrL7kzujlDJjZsMGTJkyHDUUMuSbKAgcqUvA7W+n77wU0uWSJLIlc6JaPlpGbSQ83ve8x6ce+65dq1aq6y3h+KnWsjwxJCV7Dt4UqVpFRjfEKca0vpIak3iKaNBbsd8mdg1kh7wvHeRVyNhXX+5IEQrTjB+YMJavvw9na/FCL2VJ1dd0Tvz3+lmFh15lbu2OuZJDa9qkg/VyY3UoddmnpZM020yzmMKedSCHGp0G6Of7ZPAI3tq2L6/RhJWsKWFUs267p/DZofv3iBDhgwZMhwxPBkSefIEa9WqVTYf1YUXXjjTZaitWqHkR+ff8pa34NWvfvVMy5bC0HnZP+1nODLIki14+EQyF7L7HSYcTbUwunwZXeTHTYDm2bgzzkwUBxlp50+utjsD50/kSsRKXwKOHThgXwZaWGTsWiR4UcGpZ1bsR+/YKw6mNac6blXDSZHmUiRaQJnexIuSkJmZ+ThmME1KndIIA4wnJFL7gB/fXcPXrroff/O5b+D///F/wB0PPGatV0lYIMFyw9ZjMjY3jN0eKEOGDBkyHAVkA72opUn2S1sNYv/IRz4yM2GoID/qDrzsssvwtre9zdYBFKlSV6G6AnWtiJUPI8MTY9ZqLmB4UtVLrmZbrfgSfIvVq1ZaN6COC2TbrWYLoRg3j2evcpCfw5ls5z+HmIlobPwApms1IxRKVGolm12UuY/gH3meR5eTl1nluB1HP3lGCrCxT2RIcIPNTTpap7FBX6z1MB6iSF+JuLOTtSYe3LoHV113Hz731Wvw5//7i/jTT3wWn/ziFfjONTfhpnsexrU33YGxWpdYBQWGzhpULuT1GjF3uFjKkCFDhgzzQa1MngRpXwRJ3XqaNkHdgSJXGkO1bt06m+dKS9X8wi/8Ao4//nhrlBDR0lYtVyJefuC6a6zI8EToGy3N32IlFk3hvr4KLNCoa/RPUcTKWplmWz1ED0Qd3Fa/uorn+N+R2FkHjUXS7eI4xcTkNKZqLST0pK8DzZcRjD7FHK7i39lDx7Nu8uySSEcTe6pliqKRa6JXdLGxVMx9olWYjFt4ZMcOXH/bT/G1b34Pf/MPn8GffeIf8Nef/Qq++K3v49rb78NDuydwoB2iEVTQDgZw850PYt9ky1q4UsZXSlKV5kiueG/pPEOGDBkyHB1EgCSym7KTfqC63ESk3vWud+HTn/40/vzP/xyf/exn8T/+x//ARRddZIRKfj0p07FmX9d1IlgZjgx9Qax8IvGtVL0IAk2MAKxfUcGyQoIBtNA+cADDg8tIrkQSIgRMXIW0gXzaREiCkNKtjbJNBKqpFxSCDLqIREjSVEjbyBu9CLFzvIVt0xFqob5kq9AlQSnX4hWiFn2EuarTMeVxGuVr97opg3U0Gp2v2yT7mYwjjHcKGA+K2BuUsA1FXLeliS9cex/+6B++i//yF1/Ff/ubb+HjX74F/3L9ftz4aID7pwaxuzOAadaYWqUCWiG11ykz0w9h564mHnxop5HWXE6UrYkC46XA4ywbZ8iQIcPRw9tL36WnlieJ9nVu5cqV9qXgy172MtvqS0ANaBd50jUS+VcYfk4s7c9ngzM8Hn1BrA6HRJ/okyatGC5jtJK3pVeCWB1J7ss1idqnok6LEpM4yXiHiHNF19WUI3Hgxg1ap0JIwiL6CaxVKsRko4O99QAtakpdVdZaxbD6stVKr+ilBwc7z7ZXCarxaDmflEoKChHSQoCdU8DVd+zHx790A373z7+Oj/7F/8H//PQV+PK/3oYbH5jAIwdK2NMexTjWYSq/DtOF1agXhtCMCmgGOVJf8TTNcTWAZquAn971EBrqO2QcKMZsZnweazHoDBkyZMhwbOglQ55sSfz+oQhTb0OGSFaGo0PfE6tU686RIi0bqWB0+QhazQYTC4lQS4PulDA8UdA+E5A7IA4mEI8DTytxqW95/9gYtLLLzNAqGf4lBBHQ8XoTV//oVvzF33wBf/i//hb/86/+Dp//6rfodgse3j6G/ZMJuVAJQWkAuXwJ7VyAehqjncRGUkVYpX1NKqpkpxZCjaXqREX85LY7sW33fpItN3g91ZxW1PecvJ4hQ4YMGTIsePQ9sRKrVndVpQAsXyZiVSex0iShTZ7T14SOB3U6OWt9ceK+aDP2NEOWHPXqRaApF9oxdu/eS4JFB/MglS0ti5+QJE00mvjxrXfgq9/8Lq658TY8tnsCaTSI4tBqhKVR5IojSKIqGkmIqUaMumb9pZpsDByJUo6sNEcO3EkVX4wfEiyNy4oqA9iycw9uvet+NOmmlRlFqDQt1hJTc4YMGTJkWAToe2KlmdbVlCR+tGL5CA13C2Eg4pRwPzHbrJnD3aRLnhSJRTlipW7Cx9tv51dTLsRJip2792Bi0jnbxJiBmkYff9ViRY4sp7J8GVZt3ISR1eswtGI9BpavJ7Eaxr7JDvaMxzgw3UEzySMJiuhEBXTCyE3BgMTGtYUktAGJU67jZm7XAPU29VinPhu5PG68415MtzokXNSvVJtTq1WfjWPLkCFDhgxLHv3fYsU/vYSGWq1buxrlkpZRabsWD7VK8d+1VtFa275rsdLSKW6OdYZxUGuVqJZ5RZJoncEc9uzZh7Hxqa4772Yzji8dYiXaGhVy2HDcJgwtW44DU3XsG6+h3gTCaBDVoZUoV5cjLFRJRvNGSDXdVxCQTOU0Xs23WJFYiW2lIRJrsQpQY7wl+Qru3bILDz22l4SLpExxkDaQphp4lSFDhgwZMvQP+p5YdTS3Bv9EczaQWA1WS0jaTRRCR7gccfJje7pkyJiUiJVaUeTQbbmyfQd1H7YTTS+Qw/4DExg7MGlky32D2BPWEkCSxDaAfS31u27dWpRKZRSLFUT5MolVCXEcoNFI0Ki3bP6wVOOqclq3kcJtQBI702JFYqW40McC6mLsFMtooICdY01cd/NdNnN7rHjQ156MwwwZMmTIkKGf0PfESj16NjCaxnjVyuUYGizT0NcRWmuJCJMokIiXvg7UVn+OIhl7smvdVgRLW0ez6EOtXEFoawbuH59AS0af7tYcQz9LAfblSBigEuSwYqSCtSuXoRRRkyRLSYtEqt5gHGj2+xxK+QiVYh7lQoAIJKWtOkmuFvFMqWNdQwpsIt11kDJ+gkIBLfqebIW4+c6HsXN/E42U+teHB0HfJ8+nFGpt9VvFi7Z+bhnt+7ln/L62C1X0fBJNQuif20PnMxwMxbc+phG8fnQs6dVrv0jcM4Gljj169zNk6Ff0reVSQWNCw6JuJs2ztGIUWLNmFO3WNH2IAqmrT3RKrSSeWOlaGqZA53oJ1sym+6MJ0TTrbB5NMqrHtu/EtDgCNUY6wJ3FSayk017IcJMnQfRnpACcefIJWL18CCBh0tgpkSyRKE1lESQt5OImz9W530Re46tIcDs2no2qS0MjVtaCSC3KvSHDGhURh1U8vG0MN952H+qx5nEXFqeOjxW9hknxpMVUNZuyyImOZay8YfLERei97mct/jnmis7pufUO3s0/v/YzzEI6Ufx6Eu3nGur9JF7wOl8o4uO1V+QutFgpU/z7NCD46zJk6HfkmJD7OyXHLUqMWlBBk4b/D/7mG/inK76PaHAtmkmBxrvIHOv4o4hUR5NQ0qBL1CXlWk/cWddS5aYCYBbndQlKIIFoH8DLLj4Dv/beN2Dz6kAzMC1iavV4aH71lMSqgQru3jaBj3/2m/i3mx5CrrwSE3UV9JoLRfoQHaJo4Dn1qxYp6dMmaU0j6lvTrjIWRAJIuGIqMcgX0KhNYygfodTcixefdxz+44ffjI3DLRRzEcmbi7v5MJcE9hNEImQY/+RP/gR/+Id/iIkJLfZ9+MH6el+fXWVc5V8T/m3atAl/8Ad/AM1J09uCJZnbyrEQ4ONNz3rSSSfhhBNOMDe9j95B6Oe4nQ8iFYoLH8dXX301fv7nfx7j4+N2fCSQThSGJ9OnnXYa3vve92Lz5s1dH/0DLaVyzjnn2L50oxm+fRpdiHGvZ9Nz+Wf0x9dddx1+8Rd/EXffffeM+5FA1/r31PaGG27ABRdcMJNOtO31s1jQG8fXXnutLa1z44032rHe+VDwevBbn5c0i/yVV16J5zznOea+UND/xKrdVM5EMyihmc/h89+7A3/wV/8AVFaTWJXooULxNEikirViE439cV1TDl1SBS2p0iVW9F/sMPzGGM7fvBK/82vvxrknVhEx/iMGJ8rgsdgywEHQhKhpHa1gEONkQ5/95+sp30ctraCekizZl3xqhZLRoNgM6tQNVWLr/gWsYSc0+hRpSefiMEabl6VhkbXXBEOlQXQO7MAJwx385odeg8svOg55ZpySXXEwejNXv+LJEiu1WHj/w8PDNpOyiIpEfvw5XfNMpc3eokX7/jn8Vsb0Qx/6EN75zndaAenjs9fvYsGTIVZeLwrDt1Qp/QwNDWHVqlUzZHqhQfHYmwZ8WtR7vP71r8dHP/pRm+3b54W56WMhwadJ/z7+OCNWRwevH71XRqwWMtqaBV0LoeTRLAT40T378Jv/7U8x0S4jDYaQdkisOt3pEWZIVdv2AxICdU8JzCYU11olcuUaslIa9iaC9gQ2DufwH3/13XjBheuQj4F8roOQIsyN9EWHDvWVNNDOVdBgIf7D2/fhf33yS7h7yx4Uh1ah2VYBKmIlfVCspUpHOSNPLUohzlNvJFc2f1iCOGqRcHV4XoPfI1SLy5Cb3o/RcAqXX3Icfv19l2N1pYiyJgvtYr7M1a84WmKld5You0rUsiP/3thq3xsn78dnba+vZwL+GQT/HNqKDOgd/vN//s/4lV/5lRliJf/9HK+HgjeYx0qsvB49cfZ68vsLCT6e5z6b3L285z3vwcc+9jFLA9KN3stf57cLCXoPPZd/H3+cEaujg9eP3msxE6v+L8FM0UyANOOKslWrRrF2zUrE7SZCKl/n7Lxapqx1yvllNIpV8rgb0fbrwSMxK/rv5AKEUR7T9Qa2bttuUwxoFnYjDrzey+IGdUHCGemdaReO2ziKE47fRHLQ5Lur2893r0ovavVjYWmrLRa4pdFXpqFIZ/rVeosRyVqIti2c3dR4i1Qjtcpodsq4+8HtuPPBrRZdc3WrjOVlKWFuOtO+14FImo5VMHmy5f0/kzL3OXqPta/n1juIGPo41fN78pHBwetN8PqTYfH68m4LRfS8c+O+95y29Xrd4l3wrXCCzmfI0O9wqbmvQeOS0lh3M+bIMA3/pg1oNuvMrDzLTOzMT68hZiGl1qYZJ1do6XDGiYWWXK2QJ7mqN5p46OFHMF1T4TZbwPVi7vGiQZdkWnLhKw5Rx2eceTqWjY6gmTRJnFiQ8pQIVGItfhGlQKJU5DEJU2A01pSr+NB6jW4Wqxihxrox5LbmDMvluQ2xZ2wK1/3kVm71EYKDN7y9stRwuHfWOZ8mfTp8pvXk7+/FkwFvRH0XlghWL3nw5zM4eD35lknpaaET0LlxP1f8eEC9iwav613knsV9hsWA/k/FXS4T0nir/jPAMmj96lEkrZpGS9GFhoa/Mt+OYnXFNa/0QAcUc7P2KPvTXFYJM3+DmX/r9l2YbrIQoA99iOggXzQKupd1Dc6cmAdPdH6BQo+cuKZalfF5pppTTlyP49avoVWkNqjLlElJ81IZiTLV6oceTc+UbjBORwQ3miaj1WhgqFpBGrfMcKRBhPHpGLfc9Qge2LLLyFbHJmSVUVbMKU6duBhy4XZDJbhnBnrWZTHCkxBBxqj3WNDxQhQP7cuQ+q0nXf4LsQyzkF56dSSR3nzrjtftQhGPQ53T82sNVh2LVPsWK71P1mKVYTGg/4mVlpeJ9EUJM2wMaLj6GcetRTVoIUjrNMptxLkULWZcDaROU/qnBAmNeCe0dhMjXQrAZmSPaftVg27RNUFAJtFSi1h5EA/v2otH902gQXKheZZEvmyiUd041+KdtdJdTOkpHGbKGblpvJAMR58VHgFfmDomU0XYmcYAnZ6zuYDzNqzGiMaoTZNQNSPkWEC20SDzqiPITdnYtAp1WuEr51lg5hQXQQdN6jTOlW38W8R4CFoNFDuTVM84SWwTrbCK+3YGuOrGR/DofpJa3k/TuYqedeIaf5uUFrWYmjal+Zm6uxivZmy3sVyLC72tOr0tFgvZGHki4MnAXNGz957TgHYdZ5iFyId0oykKvM4WMvwzajsf9D5qrRKZ8pUCn0Z0vJQwN617nXl9ZHDoTUtz93uPFwoWRypWSwYlynWgj7XXjg5hw6pltD51umv8jzO8CXds0k8/+7dIFS9UtLiocS1VIlTOleB5mx4gF2CqmeDRXfvMrCsYdxWFxK17B4r2u9d2NzNbO7ewC8X50FWZzYsadhookFxV6X7RWadiVbWKShhR9yRY8kcdpB2S0kCUtY0wjVFIcrxOStAUDNQSA9IYLHQK9lVmmCY8atB/g/ciYcgVUE8Hcf1tD+GnD+/CNHmSFnROGYbWLWzXJ6lSR2BdqD0q1p4R5O5hhgUPGZBeg5JhfixEA3Is0HvMF89Z3Gc4Uiz0vND/xEp5UTrmNtBs3cTaNatx6ikno9VsQKuiuBnYD64pP5HhVSa3At/+aNjTjg2yvu/+B1lzdJf3BnHwMW/ae1LwY5T6UOV+OJomWg00vUISULdtXHjBJpx88loUC1JIzWZg76jLMCHJQmStek+GRj66bRf+9YfXY+8EUOMtEn2tSe6aL1e5VeejqLEGw7vnc+CeGGCGDBkyZMjwDGBRWSBVeGRgR4ZDnLz5BBr/Ol8wITGgNbZWDNc8rT/X1uFgezOW2bnboWfFZqgDG070wIMP48Bkt5VExIseZ0OaB70nZ8jVzM36Bn74WIAC9yMS1giDVeDZzz6FxKqGdmMP0nYT+UDEK0Kaaj4wEStHZA8lh0NYrOD6W+7C3Q/vAoPERJ0REGrC1xzJMoWh6wtDr1WDEoGObJshQ4YMGTL8bDFjj/oetNEy/nGqeb6BTRs3IB+S+CRtsqCYVEZjObqenPcZEc/pdVU7lbbO8Of4p/EAGmCZx46de7B9Bw19t7fJi4fM+YxJ9ydmPKhtpQ9VLj2kIqd6txLfIo9SXsQGeM6zT8K6NUW6kW226yiQcAVpEUniiJW0eaxIgwLGGsCX/uW7eHB7ijrDbHVCHDgwTTVKlzZk3siVizOB91O35CJK2hkyZMiQoX+wOKxP9y3USNHtDcTGdWuwcvkwiVWrS6wSO2fdhWbwPd852PjP7Olkt/VDk19qkHwQFTA+MY17H3gYLfKMVGOFuuTBm/VDYsaDHnb2fn0BI6SOWOnRTd3cbzVbWLcswvMuOgVrVxQRxHWblV4zXnVSUh7q7cm0WDX0TUB5BLfe8zCu/OGNSAuw8VZqyeo+BaFPD0SsrA3RqVbx1mcqzpAhQ4YMiwP9T6x6DKjoTUSjKqe1K5dhw5pV6GgtQRIrdRsFgSbW819b9MrB8N1eCikn8kSCYCN5cnnUmjHue/ARND2xspAPJmeLD1IGiUuXu2grHZUK6oabxkteeB5OOW458mkTYZKQVmnCx9C8PgF3OizSMI9WrogaGdWV196Enz4wjgbvXShXEbcVMHVuN2BkdB9OR266hwwZMmTIkOFnj/4nVoSGULnP62lY07Z1BVZKwPEb15IPtJAPeC5p82VJf8zoaoyVM75mis0Ku6ODRP9qrdKVHUeigqiEh7dsw9iBOtqy4DbDuNRooVN0LdHdzGz7GnoJacxBQ86kxyJ3QjSweXQFnvess1AJqPu0gVzScsv92OD1wytAZw8lQVhAgwQqV6hi2+4D+Mo3rsK+aTfZQk0rOFtMc6spFrrj5zTnmCUHykKGb63zWz+Xj/9oYrHCt1T695z7Wf5iffe576V39vG9lKYY8HHtJwf1U0gIvelgIaL3+Xx8Hssz61ovPu59eNoudD08WSjPS/x0MUoL/v0PBa8v6cb79RPnxrGmMVpYWBQ5Wl/suQajFHGrYVMuaBLLU08+3sYCFQJGhtaccwzMIlUQZ1ISniFXStAUS9i2y32GrdaXhMcxLyiUBrB9137cfd9DdokaTjSqi754pIjvBirM3fYz9Ho+tXBr3aqIUaTOC6Q6L77kfJxz8kayngmEHRErt/7XExYSXZ3PJxovZxOEhiW0cgXcdOcD+Pb3f4JxTWyV5507EVK3vpCJ7qWkICdtFxr0fCpMtPWFgz1zNz2KXEl65/iRP7/fb+LfwxeK3s0fez30HntZbPAEsnfrdeP1tZhE8TxX/DlB6VzwcS99eFmI8OnSP5/fl/TG4aHee248+3Pe3YevY20XI+a+Y2989+pmPtE1gq6T3jx8ebnQ0PfESmkwjKh0UzwpjgasI0GBuj5x0wasXD6EJG6iEPFVO4pIGjb+BcrYimAXzEFQSJbgc4pQtUSpYAxI4PRlYM7kppt/auOn63WN79E5FQ4iHLqPBTMLC9BJf2YZPTxfVhulGL0HhUUiKWWo7wSxolLBG17xc4iSCeRz03Rtmr7l51jRoUIVn+12giBfxf6pGF/+xlW4/vbttq52i3FU1wyhmiRW/knyNAN/Nw8uaKiw8AWN9n0hI5HbYsHcd/HvrPfUewu9+4sVvYZB76uWGm90FyN8PM8ngioY0oGfENa3Ong9LVT45xcUj54czX3HXpkPulY60HsrDM1E7+HDk5/FCL2f0r22nhQdSk8eXh/+Gm2lO21rtdoTXv+zRo4PtLCe6CiRMD+qbMoFeo0WjWuCBolPA2VsG+/gD/7y/+Cam+5Hp7gKLXXn0QinaYwor1nXSYb4+lEnQUgSEFh3IjM2/WmNuzTQYsLMHPwN0jb9SJoopjVsHungk3/5X1HMAwMlKZKh8WFKImyaTVMMxGtWhwrWHT0JqvFMgXqx1j61BRIz79LgtmVDx9tpCTvGc/jdP/wEfnT3DqTVFZjsFJCP8tTLsSWxMMyjbUvmJCgXIsT1A+g0xvDii87Er7//53HWRmawVgfFXJM1F8YnSXOq5W8Yx8quLssuPCjL+ULhiiuuwDe+8Y0Zd7/t82xpUOE59130zn4refnLX25SLpdn3KQb36Kx2KAle6SX22+/HZ/4xCfMoMpQLCYj6uP4UFD8XnzxxfjgBz9oaUPrBnqSshChZ9TzKd56n1P7Dz74ID796U9jx44d5jYf5uZln84FhSF9/P7v/z6OP/54O9Y5T7ifSJf9CN8FKN194QtfwCOPPGI6OFz8Sw++LFF68TrV9iMf+QjOOOMMO14o6HtixfgwYhVocHWnYSSmQUNeS4qYSiN86kvX4DNf/h7quWEkQQFamiXRkif0l9pn+XTqEiuJGIMGqmsx4UTdUDyv+apCzSJOYkXzbsSqVNuOP/6938RzLz4eMSsb1SKVmbRRYD5Q16Gbs6oL5Q1KKoJiu+6vfyClUPjI6vJ0CUZ7LARYEAg0hTZ3+reuvRN/+InPY0+zhFq0nMSqiLR9bH3gmty1RcMThK6rVa2QQVKn/ifwhssvwYff+VKsrNDPxBgGqyWEkSZf4PMF+i4xYJwtLB37rKZCwrdYTE5OYmxszPZ9ISp/vdnSFyr9Bk+shN5391uRiuHhYYyOjs4YEkHuaslYTPBkUUZFcT09PY1t27Ytuvf08PE8H0QeqtUqVq5cOaMXD6WTw137TEDPpHjTc/bmQz2n8u/ExMQMWTgU5l7n31HuU1NTOOmkk4wweOK9WCsWel/Fv9fpvn377J3l1lsGHAq6TiK/Eul/8+bNCy4f9T+xYnr24306JFY5WuOYbzTRIjEqlPC967bjT/76c9g+RgJQqKATlZCQIKUkUR0abBGcXmKlMdcajK4WK9GojroCKVFO1IGs2ohVHYWJbXjd5RfjP3zkbWhMdzA6yJAU4WRZUUQC9zhipXYvl/lE0/qLWBHSSy7hO4gkBfb8gfrjuuVJ3G4B5QK2TjTxh3/3BXzn+vtJrNbxZanjYxzwlLYaqJYK9gVmk5FarpTRqk+hkqtjVSXB+994Od726gtRYCLIB4yfkDpmgcUsSg0rzg5dA3omoMJDUIGgwkQGVvu+kNGxLzg8eo1Mv2XVXuPh0evma6m9Bkvnj7SQ7Sf4d9J7Kq71nv6dpQcZ1cWC3jQ7H6SLXn14EvFE1z1T0DPqeZVWhd7nPxr4+Bb0rhKVA6pIiGh6fQj+HospXeh9PEFVmtex4Aml9Hu4NKBz0pEnsdrXdQrvaOPi6Ub4+2qD7GNYMmRcmF5JmDTEST9JJ0TKiGqlg7jlp/dj91gNQb5otICplxfwIueZJlimWHRK7SICCz0jVJoygH6UCejHxgwZAUtQpSGf2LsTF1/8QgwN0jjQW55hWhhm0HsSiHZJrESt3KH76yvwcfX8HVv2WFoXseJ7Ko1TrFDItdApkHpSz3c9uB37JuVvduDh0SJI2qgyPE3q0BFB0/QLJFHVSgn1qQns3bEF61auwsnHrbQ4bZOIObLCjGZxtrB07AtoX0D4wsDrR8e95/yxl173fpD5ntu7eQOiQrHXze8vNvS+m38/T6R17I3DYpDe95xPZBhlTL1/wacHQX4WEvQ8c5/Tv8eRvrPE++31r31PLFQ2+HO9/hYb/Lsp/bvy2u179/lE8ERMOvG699ctNCy8JzpKKN25pKcdGuGYhouvVcxHiJgHhsvAmmUVVMIYhUBr2TEBy+SGRfMXqGBTXrH8wsJd4XQhkmREiWRKn5npC8E4SWncuV+s4KGde/HAo9tRKKn7wikz0Ij22TLCgUHOOs092R9wT029SR9d8ehottQwZ0sIIWnhvDNOwrmnbEIlnUIl0iLYYl/yL91SS2rNm2nRkzvP52Lz1xEBpTdR3bBQwMTktOlcLYytVhuVgUHsn5hGUB7Eo/um8Pkrvof7tk+imcsjjYoMVh8YaOC87qmMKHHPqt/55GA83uWpgi8AVIiqgJaoS9AXqIJ3l5vEF+S9bv0iHvO9jy8UVXP1+vDwNdLFBL2vf0dvLPWe0oFIVa/eFoPoXQ8lIhLSgfx5XSx0AqHnVnzpmQXFp3/mue83Vzy036sbQWnf5wVPNoXe6xYLpC+f51XueX1oX/DH84nXtfalo8L/x95/wFt2lefB+HPOLqfdNnOnazSSRtKMupAQIFGERO+mmWJM3OI4+RIn+ZL4n+44ib+fkzh2EjuOC7HB2JgOAiQQVYBQAVRAvc+MptdbT9vt/J/nXXvfe6ZJaAxId2a/966z9l577bXWXuV9n/WuRtkgeq7WmyWvsVK+WtbyolJRry+kaCSKpas2C234QLfTxd13f98BoqCJqFJH6jVR1SR2Ai0N4QkySKYWsMGC5JVm7Uij5UnU09lW/YlJ1gLMEEj4fhVXv/hCaOfKkYAeTCjQT56wlJdOtCvMQiumxqP7pUNKrYzyVcZSr3lt2sqipiHZPoJ6ExXmf7PmY3lrDDsfvQcHpg9iXuXBsqkx7+OI/gcEvZo3lWlIRPPd2MiqFK4MT7mjCeiZ7Q/moeKzPJnnjpFJlRzBCzTjjWVJRLt11x5EVR/rz9pIxuSh5rMXhJ4GcdUK82xmD4eXifYdY9aLZR3JtgxcF0/yd34SVDBRMYSC0Qwzh8J92BzP/bluCjqWe3Gt7x/OD1EhXE42Kr5PpOviO4tvP1VMQcf7/uciKV1Kr0yRxuL66UxBx3JX3RcNh3ukn5ON9K2FplrXw+3/qYz8yhQkt+cqLX0ONiQhJZRt6G7ASkp3j6bBenvGmgmcuWYZ73t011ws4qBY2iuCJYEqhUHj3ne6GLvKh/6qAwIAuzZPBrPaREyR38Ij23bhiW0xGg3eRwIajDAvcMlxB6qcUaiLZimS0i1GUFQbaZrY29D8s9AncE3Q7xLU0Pn8M9biVVdegLEwJthhryPpot9r004JjrQXidTfhWaCIIk5pV/TWJmLG6DVXDcBK7loOFZGiwk0461XCRHXxvGl79yFz3/tFiRBFYfaPcx3pAXSK/xRmZE8NsiAIFu3na4eLpIDVSWVVFJJJZX0t6elD6yehoRzTl+/Huds3OhAEgVzIGygQ4VNhJ8YZQRWtdoInnxyN753x10U9kDfVr8xTGlydDUUvINT+l3KWe6+YpHcfbE3mFS5Pnsf3V6E8VEPV7/sZbjovE0IB30bhq0OIst7gdZeP0LV13YW0gVKv6QJrOy5MCO1c4bHsKTdOxKayip2w08S+vFq2Lt/Cl/++rfxxa98HwOvAb++jMArYCAhI2PYCYFdmhiAUiw1Iu4CHg5/TfE9R7qWVFJJJZVU0o9KSx9Y5TIwF7uHkfao0j5XE+N1bDxzg+2FpB3YA0puW7r/FPJToEhA4diGLw58goQW0swnsPohZttMSqBxXwEBaV8Y8VGqEEV4tDhfEnTYpwynX9caanMTUus17V3l22rNNauW49XXvBRrlzVRQw+1Sox6QDBUzQisevCCGnSyYDbQPjYBBhkLJSP8zOhH4+pSOzG/pXkamNE1o5MlAEZQFfOd8eVrsfdgB5/6/Ndw212PoD/QUGHINHh8VVBa5cWXWPaVQYpawDh474x9hCN5ew6rl0sqqaSSSnru08mhsTqmLHQSWLt3U9bjjA2nYfXK5bbXlEy+1sx5faYkGU2hnaUBGs3lePixJ/HAoztQYTxaM5dWMuIDTcjVnYn1PImLV0uSDsuu4ls09i0Ao8qkCbpAs6ZFAe7p5Refh5e/8GI0KxEq/VmCpS7dY9TqISJpknJgNZCGiWC1SiDkMSxP868MSDlwVQAhIzkrNq+OhMBWB+tUaxPYfaCLv/r4F3Hz957AdBfoM6xOlNmu+G6nfdaHPhHwIKLRBHcrLRcgE+sgsd2VVFJJJZVU0gnRyQGscpJANKGYqyG05N73pZ0ANqxfi81nn2lDUoi7qKaab1XM8Tk2Ha2pcsYikSYkpXD3G5htx7jtjnswo0Vxnk9gJQEtrZXCJ5Az+2SiRVDljCYgapBN+1npsGvY9hMabls9Abz2pS/AJZs2oBWkxDRzdI9Qr3mI44igivlIQDUgQII0VjY/jrDJ5rXloEdwx/LdGbkMCJZiLUZAiPkOwVOliV7WwOM7pvDJL9yEex7aofUELA8PbYKrTBPeWB9sBt0goVHYNHkcFqaLyeySSiqppJJKOhE6qYBVQSYknRzlRYa4n2HNiho2bTwDrbAKH3342vPqaYDV8YmAzQtpGuhRelfDEXz/ngewfd+0aayiTLBKIprgwHbOEjDQe0udhj+iAFXOFMtiQ5/AMsct9YAVjNebT1+Gt7725Thz7QTzvYu6n6HfnUMYCowZDOMLTmNVyRceGLBagDmFKS4VpzaKU87yPb+FXhIw71sMZhkeeHwvPn3DTbjrgV2EcMJrfKagFJen+BSIyr4wDlgNx1ZSSSWVVFJJJ0InAbA6XBQWV04zQVGZpaY90Zl+Z59xGlYvH0MwSCjgo1xwH58q1cqxjWk+KNwZhQYUtUJtz6F53H3/oybI44HOrXPaLVt1SI98DbFWDS4mdQmSvtkBqaONq0pV5Y++l9+ts7GZ7Rghbrrqss248rLzMdGq0q2LatZFgw/dbvfKo6oVl8Jy+7kwFLrr3v4YlmJQPspWjLrSXCtt8ZAQlGXVOrqpj24W4u4Ht+Ijn/4ivnfvHvAWPfruRgxPE9rzeMzklqKy6NxtSc8hcvXgx0cLmueSSiqppJ8AnQTASiSNg9M6iBYFo2biSIuiQ2SA09aswMbT1zpQlfQo/I8PrCTIc5F+9J8ekjEnmqFd8RFpLk9SxV33PYK90wkGdngzszb3lyVS4WjytVK0BOmwROublMOHG+1L5VU9u1N+a4K48lz7iNUZwLIW8Jprr8SF556OuHMQk2M19NvTdrh1UNWGrpr0rsn/TvulgCp0r+S741ssFQGwHGDpiunSLveaQ6VJ8PEgQCSDGmb6Vdz72C4DV7fdvQcxX+pkHjqxcBVTprJJYgxiOrBgLPzclPTcox8XECoBVUkllfSTpiW/QWhBi6KxEJCZCWJNXo91llzoY+BVse9gGw898hj6cYqKV6cvDUcdTZK7xxezWpGmA1V15qDOONJ8nz6yNMKZG9bjzPUTBAwEGAQG0sgkjEtzkGwjNOGtPJQlRYU8KvIlt4fzXbZdFX5lm+aOZcG8GJ1owq81se3J7ZixHdW10y4BGIGobQCnlwcJ85Kgl8VSUR4zDBdDof3TTeFCm9fuT3eLRvPrdPzN9Owcdu7eg9bIJM7aOM6wXT2wlHoOAKdMozRmTts2rBEr6dmmYSD0494Q8Lm8wWBJJZW0dOkkBla5yyA1YFXVEBAlZoo6Hnz4EUxTsKeV0DQdxyYK2afguwJsAkmphhUDjyBBR3P0sGr5BC4670yEfF9DYb60LpQNOr9O4ELKK5vms1SpyBNmzmKeO2OPhkGVLH6wgBUzAP0oxuq1a9BotvDd799hm4Qylyxver2IeUOQGgh5ZsjseBuPuEy76DuwtGhIzHw7z9Hd2a+eFX6DWh2RgBv9zMzN4/6HHkBjZAXOOXcFAZfbgiHwNeRIoMW0SoB7jM9AlQuypOcIHQtc/Tg0TyWwKqmkkn4SdFICK9GwENZwklafDaoV1Eea2LJtDx7b8iSiAYGVzmM5Bjmee3zGmyR91GraKiDLR8b4o72cqgNcvPl8rF2uswp1vAqFvXYpzSgIdDgzvZlmZqlSkfZjfMOi05Ag5McKhGpHdaEWP/SwctVqzM238eADjxBc1REEGiwUiCLcIRqtBpqnFiPNNBRIQKo8NN2S4JDCVkzO1fLdhgj5jIBMg4K61mT1AcF0j6B6wPwXuHr0icdRay7HutNXIqxVMd+JMUhT1MJQRx0SJScWqgtz8WtKenZI4OlIUCXz4wBVohJYlVRSST8JWsq6k2PS4SyXd2TCge/RuCNNlo0CF24+B616YELVzc06xp9ePc6fzX4eRKh6KXNwgH6SICEwIKwiYNuN+x/YYu8b29aiM4n7RKeXJ1LcnFR0eH6LXJ4v2BRemnulz66zDOLuPMabVfzCe9+G512wEUlnCv35KdsNvU6gGmt4lRlXrbF8POmf9CYdDL3yimHa8ULMWHeOowNSlUqxipCGAEvrBOZjxt2cwFxMgNZahp1TXfzeH38Q1335duxvE+Q1A3j10DSamgNXEbpKtceVFVpJzyIdCzwNA63i+pmakkoqqaSfNJ0EGisxSzJNCV8z7leaB9M+aBjK0yHA0h2Z2IVfW4FHn9iOXYc6iAeaMH00uc6sC+9Isrlb6DPcAeIss3lAGpoK+FLUnkOjmuGCjZuxYpygQHO5pFHRO5rDo6HB44S7ZMhlsOVnQbnTItlD/hC0pLZyb2DDpgIvVQKmkUYVq9ZsxBNbdmLPvinCI4/lUkM3Zr7qMGsabcJaGQQET05bpflqso0Uv7QXZuvWaa2qprUaoJtUMLZ8NeY7HfghwyCom5mdto1J77zz+6wWKdasWoPlozUkvQg+06a5cogJrLyAyE5T70t6NqkAQoX949AwDYdRaqxKKqmknwSdJMBKDLIwR9yJedJLRukrAd+n3Bwfq2DPnik89Phu9Ci8ybmdPxoJ6WKsLnfKw3K/zDJa0qKkSJKE4RK0VUP682x12yCNEXfnsGH9Kpxx+gpUGaAnQOX7Um7xNU2az7UwS4mKzy+SPZT8w53yO7P44/mEO7QJNk2jRHAUaNPO+QRnnT6GIJjAY48/jrn5edSadUQEPBlBaCRtYqz92JlvFgIN3S1MlRNtO5x5ITr5cWBaphrU0e0LLFURESz5fojxiWXodiOEYRN3fP9uzMzMY3JyDdaunbA5eGmcwQ+0B4RClNZKII5xKtoiomHKnQSzzQt/pUlz7+Xv5k8WaeGlo+kYUTzn6Vjf8aPSj/S9Lg/NK39ka95cwraWsR6kuUlyu3CTrbcyAm1pMFFhudAUCyBceO6q+ARzy+Nb/LBFV3dV0tNTkXeiI3OtyNtjtRH5LTZWdu358LCGqXhWhKN39H5ZSiU9+3QSACvXkAotkGta7k9XA204WaVwzwbI0gz1sIq400MzqOD2Ox9EL/IRa7dwCnuNFfaiCPVWg+9pmMkJc9N12fwon8JcOzOFfFaFx+tqpaYrxkRQpU0t6W2uPY36SIjzLzwf9SaZOwFCKM2ZVp9JEyLgZkx9iZDLysPN0OWQU36Tu8jSt3oCl8wl4qBAAJT50PCZZ1kVm8+eNKXi448/gqmpgxgdm0CnFyFOPIzUGvB0BJFtFqoy0Dw55h/BmtkuMua8w0KyDbKaUGVeU6CqDH2Wf5pW0e8rTU0C7AYB1DgefmwHduw9hHBkJZrLxhAHHlKmK4lnUfO6DClDFvWBhPVAE780RlnIAhFvBcQ1oKwNYXU+JGsXH2hT2CMBljzTsjSTijBkF9ei/PGSIKW7+LxjmYKGrwuy7zziwVCbSAmstUpTJO2iVtRqFW6qRSLspMzz1Q7LI2KBzzOrD7G4Zthp6tK9R6Mty3r0GyVdJIMOY+qyfbZZn1iXNAFP7Z2JEDjXJ8y327ZhrQC6fZQqpUWvumS1z2gpFc+zR2p9ysecDxeZZ6R8VdtQGynaiTzIH00l4Z12ndP7avdDZOHwR0A5fw5rbzFdZSu24y1GKqmknx6dJJPXXfPTb2GKKzeKwAZHpu1LmLMJSlA36nXbofsBCteRsVHMtjvwwtqCwB5Q+C8IagXBK7k4mEVhTsbrwFvhQ3cS5oxwEFE4d3HWhtNx2ppxNAnmsl5MPMCw7RW+s5SA1YmQZYkTSDLKHTvrzwyzINcctNsxzjt/I6ZmO9ixZy/mCHr9oEZTtz2m3ABu8Rrz38KU+LOMtGdFTg7b7i1R7m+gci2M9t0KGIePHTt34OFHHjaN1eSqdag1KgRVPqq2fbzHMqsTLBNUKQEa8yU4tx1nFWxhjNzNYop0dYSxMs9fKN4bcjrseilRke4jTUFHXg/fH0n5syrbSLfbM+DjB1q9W2H2ExwT5M6mHg72MmzddRA/fPBJfPu7D+Kr3/4+7Xtx5z1P4PFt+9Dm84DAvBpqNTA7VwRj2vIkrNYoz1mObOdRFLMe6cxJgn61TdUw04oWtYeJkVY0T9TTJb0kRw72qJ2KX5KYaTYSQOP2pRO5PJYf1ya1v4o8aaqEWrh4tUASn6ntsuxd7svO38nLZjiMogWWVNKzSSfNqsDjkeZnaMhOjFrgSj1hubVGWpjuh7jtzvvIgGvo9PpkrjUy2QAxe7TaB0lNXKSm62BAIdDVlHMtihpyLjAdQ9Cy/QyduSmM1n1cuPk8jNXpiwJZ7tbuTwVgldOQiMo/mS4CKUYUahSaUiCcs3kTDkzP49EtW907yiJxY63m5K3lbJ7Prix06e7tcsGXe8+u9LxgyLqm0HRPUqRJxNsYjUaAfqeNB+67F7t37sHy5WuxZvkY2XSDGCrk6z7tzLQlns84pLBkr9r1mhmWgmViDTha4UoYyJPsXDDQvYjZPik3vF0wQ5+ydGgo/YcZ0ZFuzJojv1kf7eY5yYhcGZoxJ4rXIDC9RsyXEwrSuS5w7xO7ceN37sZnrv86vnDjt3D7nQ/hsW378OSuQ9i6Yx/uvuch3PXDB/DIE9swr6Hf+gjCxhjBVd2Glj0lhO1c23mkrIu2vxzDTlgn/GKY3uLXtfiGrh0NXZZ0HBJn1AmpKkm1kkJ3u2iLe2qxj7SF2ktO12qVIpa5HW3FtiNAlRUVh6QAC9uu5e4AlUYTrKzkXFJJzzKd9MCqIDHwAlhpZ28ND4ajK3D3fQ9j+85daLRGjXlLI6WdvKtktGqk1lAXgIDauFiD+rk5sDKumzNg/kq8uq2YEkSdOZx3zplYRUHdrHnIdPizPVRv69RgAUXOLeTlAlckzKhSWEoz6FdRawJr1m7E7Pw8du54ko81rOYx66WzcnOY8reMOVv+0RTh29O8nNxvAXTyWA1U8U0bhnDs3Scv9hm3tJPdbh9TBHZbt+1irC20WpNojvFdFlXCNOiYnUE1QZL2KIgVjqsHFg+f69aUHXxFI4a6HDaiI92cWfw2pdildmnQ4d8xZPT9+pBhQ9KzgnSt3BO5plC4FKGw9DwffTppkEeDQ4/vmMVNt92Fj9/wLXz1tvuwbzrCwB9Dtb4MabVFvzX6rSGoj2OeL27dsQf3PfQ4tu8+gErYwuTqlWiyvCuJCosAK1A7VHt0+S5MpQ6VI9q5RmTh1l2V9DS0WIKLprhfJLk4Gq71alraXHnh8aK3xQCKQEn2eCjgheIrqaRnkU56YCUwJW1VcV0YaZ5qIxVs3zOH27/3fYwvX4FOX5tZasNKzZsiAzbpIIGck0lPtXo3d8c14oL5yr/AFf90PiEf9tszmJwYwaazz8RIkyCCQjkogJW9d/KTGJ+MyyWXn2aEQvKM1fw2Yhu0Rj2sXbsBM9MHsGfnNqQ6/69Sd/5oTGDrggLPtFc0Cq0geXP3+mWMAjxyFBVlR2N9Y9qCNIlpMKsIg5bFt3//LB68fwsOHuoiaKzC2PLQNCb9NEaUaq6OtBqKS+XPeKQRy+jgEqcHBqyORUVaZTujmSiL0MrqjgJYIqRUC6Yufo+jxWv3bcXfMHByLciyKzdyZ2ia22TEUmLe9ugU0cPjuyN8/qs343Nf+Tae2N9D31+O/qCBuMJy88aQBaNAOIaBytFrsC0P4Nfp7tXx+JO7sGXHfgTNlVizbBlGQneWp4C95nGpo6UFoQJVi7m/mLLibuhhSU9JamOxOKIt3hnOSWu2dq2OqWqBrp0/Le7xaKyDMkzFyyL3wuHAvfDP64X2XlJJzyKdEkOBBZgSLQIrPiM3TQYhfnDPPejHAzMCVRUam7sqpmBaEIoFCeLc6F7QyIAXw7Ix/hxU0cH2xzLmQGGcRT1s3nQmVq4cgR/Ih5iJU1ufCmS5xx9lvysB3eSGpFV7GT1IiSAh12yGWD4xhvbcIew7MGvl41YD5gDXsthxV2OuIpWTwlVZ89YZzdHglcWlMlOByjiNlSZEu7MItRUH46iGfD1AlHjo9mNsfXIHHtu2Db3Yx+jEJOpNDVlonk4AHcHDlDN0gekcVBXlWdySFtOyIA9Ii2l0pFS6v6IGLRVypbJIxXepLBZtd52XWO6uEpDOdzFftA/Z4TCtamdwZmwzOw8BX/jarfjKd+7AnvkUSTCOxGvZ0N7AqxH4egS9VcQpxTmDiFPG4/s2N85252cZ96IUW7btwPJWDWdvWIUgtBrjtFS0pSFdrKP6las9WST3sKSnIQNVA53FqlWYzGM2iAI4aVBcCzx0dH3VVmlqGxX54TPjobxQXajKJMjMkI/SpDTWITIjnqzI2GbMtsuSSnpO0Ck1FCiQpaFAW3HksdfK1jg6Poat23bioUeeYEOuE/ywx5v6SGL1YjV274RDIZRtB3EaMQHHBpxokC3RKNYhJkIRzPdTzM1OYe2aCZxzzhkINEfHRIqOcjk1uIC+WGZRaBUuNHlexnFEUCU/hJ1JgpWT45icaGHn3hnsO9RhfrEM+LIDLApInuWaB+NcjzAqD71TACr5lpapuOe/wmA5SksJArgMBNSVOqoSyoGPg7OzuP/hR7Bj92661TE2vgzNRo3lugisXI/chW1xUFLrzqVBtUL1x+lnTMtp9470pqsHznY1aemQvlPkvuBw477bfWvRQop7GXVNpAnUtXVSDFQxD82Q2Pba/RRx1cP37tuBj19/E3ZM9ZE2JtFR+6zUKGwJdulP83Vk64BJgSiVgcowIXiOWJ8qPsuLIGt6bh4xAfvZG9ZjxSoCM0ajLdPUebL9z+RAV9emZXhnbkN05H1JR9MgYjG6VbVOA1mUu+q/m01VaKxss1/1vFSZ1MAJpEAANfAIqCoyBFQEYixJ+o7ojW40WgV4WDgWgMiVW0klPZt0SgwFyhTXha2VQBoG0tCcFzRx6+132vBBUBtBPyJrzSe7u2NSJDQLUGVBGLAyRpDfizTc4bRcsFVnavSd+Vny+QTnnX82mmM1225gkGZI4wQ+mX+hUSvmfhXDlicVMY/0VYtZVTBBkXFUyws9D1gu9dDDimXjGJtYjb0HZnBw/x4KPvqReoFloTwr8o0XlnfMPHuuOVPyJV7toiku8nJ0jrzWu4pR8QYMQ5ozvstyS9jbTtCnQHaTm5/cvgcPP7wFBw92iOdaWD45wnj0roc4UdmxB659uryU75Hps64U03ErEgRJn/VFPXCLlcYgGf+K+8PNUiGlVXltZavy0LXajP3RTcNttJNIpxRIS0sy3KScqSLlQ73rgJWEsMqR5cN/lUWEEPvngL/53FdwzxO7kNXG0M5qLB+2T49vEDjpHEppOm1RH0MdZNqeI0Gqg7xZZ2zoneHq1APVj870fvhs0+dt3oRW3S0vEAjU/nOu7emuWIvqSN/g6g2v3M0pTzZPVe3vCJK7+KCGw2N2WKI0wGyPbdSrG0hO2KGN2TFJKqGBYx0pllZDGm2hojqh5/RHPzFLJ2JZyGiOnYzOdhW8kkZa8EptvzjZwRWOuyqppGeTThmNVUEGqgSaeK1eqphyvTGKLU/uwuPbdsMPR9hcCYoqTuyZhkNMn3YBrORezTwDUcZw5W4SQ/dOaA4yCnkyfwaP2dkDmFjWwqbzNxLM9dEg4zC1uBhJDqhEAgtaoXSyUS6SzDiSC8myz4FJ5ZOM5qZJs1MjcFm2YhIrV5+B3TufxNTB/WSgzHn61dvdfh9hEPIdwqLAZ14z35iPOjpIvWAWnAKn7Yz1aIsEmK0faZ00QV7iVdoO34BUJYgoFLq8pg+fAiH1MDXdw549M9iyZTd2724jrC3H6FjI+sL0+prYnqLdm2VaJJQJsFKKAxay03/k6eC/zclaMPye/JGZIn1LhfQ9uW1thX+LbvzyhMBSQk8fJi1jkiGOtLpSw6pa5edA1SKwkmEAepeCuEfXux/eiU/f+C3s67Bsw3H0KnXLJ4/5XdSZApTJdjvvS9hK8LtrASwH+AaIe/OsJykuuuAiLJ8IwOJjZ4dxEni5uqXys9pixMdmLF12Y3cl5VTwroLEX2OaNtvSQZbZ126+EzfcdDu+e8/juO+x3fj+/Vvw0JN7zTyx5yB2HGhj72yMQ+0KZroB2nG+BxlbTUQgrOF3HRWmw/MzNFguGvpVWeocVlui65qWHbSv+xJYlfTsEzua4hinIumzE5vbM8de1ddvewT/8ff+AjNRDZXaJN3FYCV4xTgEqjL2wmTrXTZrPtcwkLQTzp1GwnmgBd0h+XQFTZ8AoRphfmYLNp+7HP/+3/4jbFjVwiT9NsgNtNJMm5MKXNVq7jDoY/UClzIpl2VMJsnB7pSn+RMJ0wVyPjTnSq7dag37O8Ajjx/CB/7yI7j7vkfhNZchC1ropZqloa0Q3D5HAlbSjGhYUWdDVtUDtvJRuTAecV9dMQpdGQPW5HYDOAJWFO+aL8WnlXCWYGqO3WOCbr9JsMfy1MKGKEGN5T3W8LB2ZQMvfsH5uOZll+LsM8ZRJ0+XjkUH8Dh9h7RWtAn0tCO/AQurPC5eZ8udlyLZhVkqZFnqcvOYCc8fRQLBddZv809Dr5qQnvDzJQpZUnSiRCXgkcaK8AgZAe2BLvCBT3wNH/7cNzBbHUdaX0ZhO8JOTZdgKHIBLcTrbBOyJuwFpuTqIhVkYnSo9mcx2aziH7z/bXj9SzdjVR2oSVOm+G14WYJ8cf6XlZSBPbpomLEEVgskUCXeZdrmoXyZpTlI88j2Hv78L/4a99z/OKt+Hc3RMfQIrJOBwHXFNmSt+aGZ0G/Qph8/xShN2Kih3mrxnSZqjbodeK+O6oZ1q+Gx09JkUazks01nnMZ3WE5k5F441J5KKulZpFNOY3UYJRTE/R4bZB3jyydx/yNPYsv23WQCWootdk8GLU5tQplE5mHHqFAgur1WxLkpuDUvwPY2kj+xcj6vaHhJ+yURXJEp7N2327ZaePGLzkOoDQpjCpswdNozhitN1WFDXCcJFV9y9BfJZfipxBhJ2c0/CbMOu6+hH2ByWQNnnH4Gdu3ciX379iFJM4yOjZOxa1VfYloQLRjQUI+GEjUsZSWWB+9iKn4tdPoRaM6v+WdkZZ0hztqUoQK+2qVdw330Q5Dnhy2WtY8uAdZcp41HHnsMP7zvPuyfnkHQGkV9ZIzPGa40khTQgg2a6K5zKm2ISyowXStxZlyaLPo8CXnKj6LnZp0oPmToA0TFJYtUGKdqbYlgik1EVV9oRcBFnySdhOCMA0AiDZ5qm4Wq7aj+qetvwpbdUwhGVxBME/QwPytZRLDrdkpSx+doI1BFwyCdHxeuTMgOTLvdxmmrluP5F59JIU5gZ6CJCVW9Ybt1oRRvFDVTvIB3J1Hb/NtSoWEv6qbxO5ou3bYyu2741oO45QePoVMdBUZW41DkoVNp8nmTbg0b1p2h24H5AfbNpdgzm2DfVBv79k/jyX3zeGLnNB7edhD3P7Yb9z60gwBtK269/R7ce+8juPuOe7Fv936ce+ZGNIIaO7AsaRVPzkZKKunZpFMbWElboonT7C0FDTL9yjjuvvcBzPX6aDTrSDJNr3WMWuzV9XspFcj4q5nOsFNLdqBqUGUPOgdWauFaXZjqAGLy7EazRqESYceuHXjB5S/AxpV1E7tJ4uZZubkdjlGJTiZgJXL5V3yT7MLou4dN7i7vzMN64KFBoOQxPyZGR3DttVfikUe34omt22z4rUIAXKvVCV4onrOU/gSsPHeGowShVBYWIv+kHVKJ0XagygEqF6MizIVyhWVGQRsELCMNA8aZ9bIlaBmBGWkoNSm6GtYwPd/G9+68Fz9kr7zdZzon1iGsM82sJt0YmO9oHojb6d2GKog0rJxlLHL+0MiSYDgePSfrhCWp+A5ntA2G8krASXs7Ts93of3zqwFzmZWezcb2ptLnaPaMdENuyE4kLaTmzvg2JKTjaT71hW9i/1wffnOC+clQBVRZPk4rKHKlWPzZvWWkyldlLiDLdktAq7ar+jI7N4t1K8fxsheeh3EWyWHAisC5AFZFrVSrN14hqf1cLIdngYpO4DDv6vf7dt0jT7t7D/DRz9yIHXunERNEJdUmZnpsM41RxGy3CU3mhdCqTjqi4jdZtCPs0PJemwbzvs93uoMaulmIbuKjl2iPQQ0t+5idnsKLX3AFXvLCzRhrsZRZzAaqyuIp6TlApziwSlGNKYQ1sZK3I8uX4b5HnsS2nbvY2B3DcHzUMWpj0rmxOVa8AnvOA61iyZcCy2+Fvd6BPfconGvodNuoN0Kz+50ZvObFFxtgKOYnSGjqWnbBqE4ekgBcFIJHkWVwbkwgyrYHfMQ8Sbom2JoN3xjnlS++Ao8+sRsHp2YwNT1HHhzSkBkz/zICWb3sKw+tB6uACoHrBG0BqhysEklDSH8EVAtL/sX06U+n2mjejXbm90IfcRahF3etCvj1EH3WnX5CANhchtlOhu/c8gPceutd2Lpths/XYvlkDaMt1gK/QqEDRJGAgRvmZEIk75lGaTzlVmhWjk8/KXBVAPpnTkq1AIfKinf80YR0aaU0D8aKMwjYvioUisBUO7X9pOb7KcZH6wgyzaSRdolBmH9N+adhOH2G0WPQn7nh29g/00VarUPZF4QUwjYXy0qOEQgWyyYxQgHnqrSGDEeby7r2Ko2Zux8wsnZnHutXjOMVL74IE6GAlQrahSngVgArharW6ICV6gXvTHqXNMyriiFB3aujuLtbwWe++X384J4HmXmhTavoaSsbgSaVDXmfVmUb30vZ8UgydoZoCJz7aUQwxXbGXO+zLFJ2eiu1Fjztnl9vMi6WA8trfCTEL7//Z7F2hUYP6BTPM36WP8MvqaRnm05dYCUmKmaZko2y16QJk6iDTL+G+x95DPOdNntPmgEiri8GwgYrxkxbmyks7LlSjcjPaYY0VlplNsj0rnpXZNQ54w5rPnZtexSb1kxg01mnGSNKpPmgXTCmn5TwfHZJ+VKQ5dphdNgXSxoXXc+oTSsib2Ye2j5jWlYPvOp1l2PHrh4OEVj1+jFiaf50MDMDTnUd+CwXB1YkFhWWaS8EqqzcHKyyeFlmAlSLoEoAt85ycQd363xJv8Z3q1oVGlM4MFxedyN3BFJQG0W3V0UvCjEytgZzsxHuu+8RfP0bt+CeHz6J+TkfYbgMIy2GozMjFT+rUlUqS1WpKoUS//SrIcM8VUeR6sVzrW4of5XyYS2VOig20s280+aeXQrMPQdm8M1bvotPfe7zuOHLX4GOprlw00Y00TdQpYnlGmJnDtAIWDFsZvk8weiNX/8+Ds33WHQ6s1Hn/gn0KnaVqzML2kgzykO1U9YHAmQ379G1W10nbPNZFmPjukm84qrzDVgJSlnqrbo8FbBigZXA6igSsBLv0rBgt9vFHfc/gg9/5nOYn52Hz/wKtCKUfhpsx2nUJS7qsR/Dsmc5BOSNyvEaM7tOAO43mL+jbOdswwnD7LNRd9iB6UU99HodtkfWt3Qeb3vTtXjlS9ajwff8ag+h385BlfhuSSU9u3TqAitxTVPvi1/6plUQw240luHhhx/F7t37yGMbZM46AJaNVT1herYN7Yz1ivR+vg2DkeZdOSN1dUahMsgSjI41yXAI1CikO/MzyPpzeN6ll6A5UiPTZy+PvMQEjHg2GZFCK4zI2LwYu8WnmF3sS4+OnfYFvHCYzR8NnWn8iMYT6GAGNRtApwu88AXnYH6+g5mp/ZibmUItDMnYtRhAS/ApTJmhJhyZnwaiGIk7+FkDuio/XUtYKk81t4aG/iXgPQpxgRyViZ5rHl6/R5BHHxp2VLWpBXXKioppoaoE5tKkaNi3Xg/RbI2yh13HnoOH8N27fojb7/oBHt1xAJ00RLU5jr7qhlYPUhBo+biWlquOqYbZdy+YnCzddLF6prqgL1O6i2u504epiJ4pMWwKN+WWwnf5ksdHe0GbZYCicHVGhw7Z0njaMlrFNx9XcLBTwb65GHfc9wS+dNN38Zcfuw43fPU72LLzIPZNddCaWE1gdRYmRxgmQY82aFW47hv1Pa6EugRWN33nPhyaYzuyXdVrjCNBxozW8LClIi9T22CySF2eZCPLGj5RJaOpVToEdPO4eOMaXP3CzRhlFdMQsuJWCJofp1BEulKYMuZWhHNKEDNuoexdW5IpKEvYyVCbYf0zIEpQ1SEi3r5/Dl/53n343sM7CY4biBLyt1qLobnScSCM0FeGLpa3YrwWlzYK7qPPDlWaDmyjV2kxtYq0xvbSZFn5ySxWtQb4x7/0DpsfFw56bEF9Ajh2XsWnrS6VVNKzS6fwUCDFKkGPNhKMYzZO9oS181RIwRn3U3zvjnvI80fZkls2vi8BUyMnqMbzCKWhIjvJjIPLUOhnmlTrjASkGIaW2+tcuYQ9NK1as6NTwjq279yBVWtPw6bNa52AiGMyBoYjRkXmrYXjOYxy7Egar4HmLwgISNWxlJi70jpsjuVCOtJRHy5NhICVhB3zJahqonOCRpDSDHDx+RvIcFPMTh/C7MysMfFKtcnXNOmc+cdwDA6z7DzmrZbga9fnAXvLFWPEymUHqBxcdkZM3i3Tlw5lwLJhvfBD2ppbRyDAdEnBJXEsoOXAgMpGO+tEvEoIlgg8KBBilvehGHhgx3585wcP4zs/fASP7JjCwS5792ihx+/SvCN9oiZbq9BNxigP+KN6JyAhYK00aZ8m2F5NSrsMvyPlS0yXAasCXCmMPDwTXMoMUeEmW6RwUiJV09jJ0cUlDYOEZpKkfJ3pUDppW77mhhgKXZrZCARSwBN7Utx+3w587uvfx8e+8G189mvfxX2P78eOAxGb0Wo0Rtdhru+jGwdYt2YC5561DGnise3V8vyU9rZDQdmFjeoScN5x9248vn0GfW8METsm/VAQLkPAtBWdHE820yxbbgMT+nyd1xkNC98Wowh9La9ModF+Em98xVW4ePPp1qaVz5qvp/NBlQf6ZffIbCOBKT47ObXJxyFVQg27qQ7yu1VldFeQHShvnY6+zTWcZWXY1wEe3tPBH330S5jCJOLqCFKvhZh10zSRDFIdHYWpemqrdvO6ZfWLztJitVgZ/GpIvqxsF1euwM8iNAirvbk9eO/rX4LXvehMjEgLNtBuZwxOfoOmUqbklVTSs0qn9BwrtnNTYavXrw0MNYig2x6ZxLYd+7B3qs3Grrk1VYy1mo5ZE4zpOJSsqqEFx2jV8N0whIzcHFMmy8hNQboaWI8sIpi7/NIr0CC/z6I+aiEvJATIaJzqypELp2BrfEZh48I5BUgFJNLnmknImDXkKg1Lynzs4bzN52P1mrWmYTx4cNqGBAOBZS08MNBDgKMtLXhvIIiFqO0chgLlf1FqfIWPrJwJxAq3RZP/SkAs3DljieWFKznBMTesZTuDmwnQTzLsPziLxx7fgjvu/AHN3bzejkNEXu22tiVI0I8JDLzAhsIc9GMNIih3my1KSyQNkYSUhJHmnVGsaBhUiVDkNCa7HLKguz6Il5I3R7jbrvS697XjvDZGJexkxIorZjdDGzQOtOcU4+8x7i4TpInnbRbBobmIgKmHex8/hNvuehQ3fuO7uP6rN+Mbt96FHz60BU/uncYgGEElHGHtDZle5sGAaWf4miu1cryGSzefhkY4mieJbVDHmCQdppUtsVJHRIE8NevhrgceQao08lPjSmwH9XoC3fpmo1w4S6jSlgZac3l0bdicYWtBgrTHmNmG89aO4PWvvhZnnjYuHYcVndYlCEwOBcl/d6fWRy92t/D8pCd+sdqJ8jMHVkUeKKczDeXxRpPN+6nTVk6x7/eBj3wOj+6eRt8f4zusP+a7yLki94bvh90ZHt8SONaGoV7YMG1Ve34W43V2rNip3biqhfe/9TVYN16Hl/TRDJg+JVPabRtfVyUvqaRnl07tyevWA6UhA9Ewk67J0xE0xnBwtov7HnpCzZxGkEsLCN3uzLG602rE9v4xSO7HeSYWlWlyZmeOveUqLr/kTPbSgBp742JgNnSVv6tfB8wKtiZhIuZxnHhPRnKZwE9nHkjLJNWGgQJNZNZqyxSrV6/C5vMupFxM8eS2J9DpzBLQEIQwLzVHql5v8J0qOt0u876CoFY3Jc8wOBL7NyNwy3ftkOdjkYrheMRnLD0mTyG5eT0SFVZuNFoZWK81CPwoBOh3fm4e27fvxL333o/bbrsd993/EB56bAu275nC3kMd7J+OMN3NTGOq+SYDjRmHAg4EVgQPGoaL+V3SqyXMl5RAKWXeEEIQfKV85kxCdxm5yxTusTQODMMN40mXp3Ap2lgvI35/N6tgtgfsn8mwfd8ctu46hIe27MEdP3wIN916B778zdvwpZtu5f2DeOiJHdhzcB7duIpqfRSN0UkCI2m4WK89HRfE8kiZI35IQEy4GM3i/DNWY+2qFTYULq2sNv0cEABJSKZZCG1PUgmX4+57H8S+6SleV9gh6SOshJbHVmpMv/JZAFaCPGO7rDCOTp9gmnmsxQ3SLqdJpHn0CLv78IoXnI9XXP0SjDdZJgyFmQJt0G7DikWx24W7UZHLLLqcSqR85le7f7tzbcW1k4RlHAkwMyNv/NZ9+MLXvoPIayLWeasnklusv+J/2lbDtuZgmQTs7TS1IWx/Gm+69kV40zWbEDJ6L4sRsnllmidr82FViEphSSU9u3QKbxDKBskvN/7JnqyBGTqIOWuZ960/3Is/+OCn8cDWfUjDCXR6FFxkIo06GYaGZp6KGNZxWQoFWjZoo1bpYcPyOn7rn/99XLFpkoImwkhDQlh+yE/IIEy4qycvJibub8/cfJRTghZqpr5f+pscWPGBdFYS3FFG0OERKDFLtu9J8Y1v346vffNWPL6vhw5aLDOWKcPRhqG24zeD0qR0ASATEKz+xdwrCVYLm6AlNaD9DImgTQfOarm/iR6Wn2yBQNMQEfgJJGtIM+B3VAmwq5kO7LCBEkT9NkEXgZ/voxYGGB0ZwaqVk1hF8LFicgLLxsewbGIc4+MjaDUbVhcbdR+NGtySc8kVJqNIufsa51YYkXKzeCbwMdsGen2gyzre60WYm+9ganoG0zNztGftes/eA9h/8CDm2x366dN/3zRoCOoEQJpYTjBUCZyQpXGDqAR+cYJmo24aoajXRS3wMUgSTOAAfunNV+I9b38NJpj2YKCJzDqGRolivvkjmCao6/JjPnL93fjjj16HtN5CnyAtTSlEMye4HQBmXDnQEklDFRCtDTQ+xPwNPKZEixmSLs5pdfCP3/M6XP2SK9BgU9Kk6TRObWsPGwItcqwIl79Ffi3GcAqQPrjIC13RcneCyC6ftJ1MNwswCH38YGsPv/V7f4rtUxH6fgvzOnczf/eZkB1RxIqs+YfdPtsHy2TlxAh6B3Zg89px/Kd/9ndxyekBGkyMl/ZtqwzFY6cf0HZz5Eoq6dmlUxpYuTF/MktpKcQ+CZiytMpee4D9FDYfv/42fPCTX0R7QIY+CBEP1JNmr1fL+9OImaf3jkHGT47NVDT8kmhegEcTz+C1V12Cf/F334PVYz5GfDIs02vnCWMYYmgip7XSxamksRIDL4SdbOVBUV3ZW2bmZBTm0rR0IgpPMvipuRR3/PB+fOLGO3HPlil0un3mIYU5BbI2qLTzAAmyNJ9GgMoz4+bouHowoPCWhug4DJpZf9zcZ3q8jJBNGiuGLxFUAGRiQD5n2hWXwY6E8cVm2/CHNE18rqnASoO8C5a5cuc7lOj1WmAgRQdBN2i3Gg2MjDQx2vQxOa7VV6qboe3iX6uFCAJN6BcUYEgKm6hSO9P3ej30KbTSVNtF+Ng/lVCIxcwrglHmlzR7Whgw3+7aqksBU2nelJoCyEjDayKWyZMQFIC0Icp8eNKGZvjt7fm2gcCQgKo3P2eAJyB68ud345qLN+Af/r134qz1DTQ95kXCDkeVILnPMqk1cJBl6Y97eHh3hP/94Y/h5jseQFQdQaa5OxU3Idq6HaatcmkwYlnWAsahjXsZpoYXpZcLKjHe/bKL8KtvfwVWLhuDRt+lqVK7t2xiCM6okOVwCgMrkZU7aaHCKyfydshn892IlXIUh2j97p9+Hjfe8gNkzRVoazi56oDOMyW16ZT1aWF4OO5gWb2C+NB2/MP3vx2//LYrUO0NwD6pzcdKWZ/9sM46IGBMN6ufJZX07NKprbHKbWOfmhSsrKCjzoZLKAjufvgQ/uAvPoG7HtqFmD3ofqWJuW5CodVkT4ni3Hq4z4wkYPsEV3X2lsNoBqvqKX71XW/AO19/JcYoi9SztpmYIvqVYBbIKoam3LT4U4Xc4JUAhnFNI+WP8oKQgwKxwp6qfPSImlLlFZlyzDK8d+s8rr/pbtz07VtwcLYDvz6GTqzhQQKPxiiBRcLK7zSLHgGHTXy2OAg+yNVTU50cTeZ6HOat8KrS4ijFVmYKUcBKRu7uG9wqPKelki14YJiLgM/N/+JbHsNSGpg2nX+odAl8ZQRDOvRZ2i89N+2Wrw1AWB8Zh3r7WvauIevh7Tvsl9cCV0miMFzdVSq6sVZjKSqmgz61bN2WrufgQhO7da20aThPSfQIPhWXiK9ZJyXl95uAM/8egV1AYNa1TVt9pjXp93jtVsH63WmcNdHA33nfK/HKqzdjWY0pSefRYBtDzPbHDg77MezUZJiKE9zzxHZ84MPX4ZFt0yybFr+2wRwp5q/R8NqAFT/UZxJ67Wm02P8ZqQ0QzR+gXcXzLtqEX3zjy/CS80+3VW0CqgLTrqj5Efowl1H8d9+u0uATs53LKUT66AVS3hSdG5Y1Gdk8AVXKPPzyrY/jt//wwwRVqzAdS2upAj6xnNLmob0B6wuB8IjAMXmk15vCZRtX49/++i/jwnUMn6B/+Yj2rlM9ZtsNdH6g44ynVPmU9JylU37yush4qXaDVKvUjQQZe92tES0XHuD+Bx/FPAUxpTO0U7BEoWkZcibzTCgjF9c5aNIOSOPQa89hfvoQNp9zLlYtb1JgklFIY2WMjFYhoI3ROyBg6T0FiCKcv8pjfbe+mnlApivtiWYlV2jLvUqQYav+yPi9QWRGQ2bnnHUm1q2atPzdt2+vAQ7Ny+r1NQFeAECQTeHkLHkhr3lLKvJ62IiK1Bzb5LVqyFHYxsKUzT/BF/NlbtK4CJBIq1aXXsUmeJuxITWCrUpgzw08sF7qpIBq2LRVUBp+izOZJvoZ61PCuhWHaEcB5noeZrtVtPsB751bh7ZMN9GkY9bvQQ2RwtcO2D7rH+tmWq0xvpBhU2DRVpoUj9zMMA0ytkcUBaxBUuandpYvDsIVSBPZZq0EcYn2/eJ3aiiQ6JBgtoLufIxmC7jwog1sCx47FQTSEYUqQZsWwmoqWjLQNiUpJpaN4LS1p2NuuoND+w8yDMaag+E8BblN4Z90Md70bLg9mt2DiTDF1S+6GO980ytw+TnrUGf90JwrDf+lth+Zyp8lwnQRjfI6LzQrIHtitOhy8lNRPy0bjFSeOb+jozb9TAjqt+6L8YG/uQ6P7pxGFIwRFLlhYbWDIr+eibG5VV7INpzAT3uopW000jn80jvfgOdvXguf5TZWJ4gSjyQQ1qIjgXlpT/OSK6mkZ51O7cnrpKJBG+mC7VXaAt1UyXBbo8uwZftObN2xGzEFnUeBpgnTOhFfzPyYJG50HCPBrQm2mqdSZ4++QmY+PzNFwVLDuWef7Xr0DFvDNCbAyTgkfOc7PYTyr+BdLKcEmQbFAJTAlANUDmDldm6KvXF8Zo6GmijmMUoGfM6GVbj4gvPQZM9629YnMDV1CPV6jUVBP8xbzbuSdmZR48IwmM8Ze8OJhogoPKQVkmJXWh7ZhRbo2EQWX6EAMnBMCEXbQSkJJQpu3tuO8nqemwXQxe/TXCG3gEGAj3+My20DIHL39s3m5uCEAI4BHh3+rSEYA0G0eW0AyECShsukB3C2gJLT9jAM5pcD7gKtLmzC1MV48riKe7dkXoaxE+BYbugj9MnKH8agEDQ/xqbW09byfF/fLS2vhKbitk1YZ7F582kEwBOMMUVYrWsvVrfAi1Sp6lBtt93FyhUrcfaZm1H3CRgP7Udvbgppf97mq5kGOevbPK1mNUY0swd+PINLzz0N73zjNXjLq16KzWdMau9Jtykl25mGjfjp/B5FlF/Yty04KgkLlD85ZUjDvAk7luq0ZAQ0Klcp9bQgoUNgFbOMPnrdzfjKd+7CoLEChEHw6uPoR+zcqA1YhXhmNGCb1HE3QaZyZD3pHcKLLjwL73vLqwiIuxiVpt+0+gqbpcGKYppKd3dKlU9Jz106pYHVYkMsmqNJBru1bRhIVb9mAvfehx615efSGkjbsTh0dAwiUy7CPtJoSEjLzZvNJhKdU2juA8zOTmPd6pU4a8OkTaa14xnI0HT0Q7vTgReEthdWEc6pQfrSHGAsCG57sGgbFbniyk7gw09jCmiC1zDAyuV1bD73bKxbuxbt+Xns2rWTfFn+gUjHaGi+kV5l/kpjoZ25baI5w5EGUYBK1/W6Ttmv2VDasUjl6EBVLlQEmiyhDmzZFg6WPvdM17Kd0Y3QhH0tb3OTezF3S7K5KCbduGv12AWczJYG7EgjkahBR2cPP1N9pEUyKJSHSyNHe5DfH2YcabK/m/hfuPJa93I3cEVj7cQBK+kVBKqU+ixhOgYh838aq1aP4Jyz1rOjQaCTVik4GZoCrPIdAivdqhYICI/UfZy/6Uw876ILsXr5KGoevyjpI+u3Ca4iE7wrRwNcceHZePvrr8E73nANXnLZeThtWZ2CmuCOZatcdsOkjEaBi9yNLhbvi2tScbfocvKT5tb56mTalAeWKzuamqeoBQpZWMV37t6FT3/5ZuyejjCoL6N7aNt1iHeZ5vBEiGWs7UUalQj1rIuV9Qy/8LbX4oIzVmKy6dkmIKpXrrzYEbEyc5z4VCufkp67dErPsbLWWJAJQzF+x0TUWLWLdyer2enr/+WPPoKb734C7UETcaVB7xIqevEYJGGVXx5JEmZdSvFmq4Vue46978x2D87m9+FVL74E//zXfh7rl/uoU2CEEhrsWXd6PYSNpoU5xPpPelL2yhjDLG5Ew/ZwZizMAdEDNy8piwaY6zMvRyfQpcu9j07ja9+5E9d//RbMdLSdZx1eTROiAwr5DLHmbPC90PdtqwZtkBmzB675RcbL+aMhxWOT4hUIk4ZK5ABQkVwJbretR0ELT3jJZ5pUZCUsKp7JdsY11cV3LGRmjNVcVsbFJz86qaZKI5ZDOOdoxGuCz+HYFp872wEr5nnhySHAnPTl8pm3K7unydmNtFVedZTYaScuPX8ZfuMf/hw2rx9DLckwyjrvgqIUH3QpaCVKfZZVDRqRVxZqpLHT13xI2DmE8x1d01dAkR7HmBgLsGwU0GlElVR6uhg1IqqqtJ62koDulsD8m46089QrGQufl5tTgQSq4mRg8/cKnqjjouYJiCuNGva0gd/+nx/BrfdssT2reoMaEDTJqxK0WnVk2nR2Ied+dNK+aTFzeazahTe/Fz/z0ovx6z//FqxpVTCqxT0E0RauLY4QsNKiBVdOKpvh1lVSSc8WneJDgeTO7FEbM6VwUeO0Hrx4Cd21L5LmjDRb2otnBHffcz96/RQ6bsGdoC/zzEmTeTvteVtdaMewUJhIiB84sA+jrQbO27QBtbBi81P6vS7qjTrT5OI68ViXHtl3slAWvre4KDLhSGNsNTdRj3Zi+9toj7AoItDKPKxb08Rll25kHl+ImakD2L3zSSRxl/kr7UiGVrNugnlAyeKG/jJbYddoEkzzL1WdsF7yMcjSUCTYfswukle42DCGGV3TtXiF1wIeBj5ULw2EOFAiMmBipgjLuUuzM9D4mYClOgjPwJgWzepyQQozD9esofuFa2dMW8XLxTTR5sXw/eHv8JcPZKQJlnCURmrq0H5csOksnLF+BVoU5BWKVpUFC8JlQ8b8pgB1QfA5y0Y7o9vk9Dow3gBGaY81KljeBNav8MwNEb8v7qPhDZw2TN/MyCWMTRsohKYEF7a1MRmVr0u9qHCVOWWIH2sr7FjG2lhVUxK0/UHiNaDdLj5+wx24/pvfR1qboFsL890YzeYoyya1xQN2PuqJkN5nJ6HSPYR14zX88s++EeesGbWFPVF7xp0DmgMqMmeWkToFSm5R506pUirpOUqnMLAi2yyEV85UbZhkoYmyydowgXrAFUyuWo6du6fw8KOPkyFrXF9zVY4tYAsQdCxS6JqfpWXCAm1aqp6QSWiIqdvv4cDe3Tjz9PVYv05zTshM6BaG0qbENqn32DGepKSiyS8XyMm8w41o4Z4/Ml7ukUJTc6gCr4KEYEuytRX62ECA9aIXXIq1K1di+uBegqx9xCV9+ukwv5tk4JLMlO0EV7ZaTiCC4QpUHVfJa+WuElbcLv7D/vT+8P2RdwJWeQiylQF2z59hd9kLZB6VUTlIyp1+ZGNxqqbp7mha9KuwF+Mv3PXjVkDywhxE7kKpNMNnxbCjWxzAvGFdjpLEhgh1FmON4Ofyiy/AmJbWxzO8d2E4LV7IEDUXjmklgNSmkJr3o2FaTQSqZDqKqoJRAq06n3Wm5+GzjBos52bNZ+elSJhseqhIOKsjlX+J0m7PCrNIx3Y9+Wnhm8kjxRWlwYIfImWH75Yf7MIHP/UlHOyTDzaWoRPJs09ApKE6eiQ4ciW/GM6ParQiuuYRXPVn8OZXXIU3vOwiTBI0M2a2DwfwDFBVF7W77l2ls7grqaRnl05tjZWAFRuk6wFpDoruHLMVr7XpBeQP2uTQJ4OuNZbjjrt+iG6UQkd0aNDoeHS85q3QEfcw0mzZ7tDat6VKIa55VNqbaH7mgE3E3Xz22RhtBjapvdulsK+F1oN0ovcUJFONiFlrmM2VlJsUrmcy/DHbmVRlKuZL95igVKuIavXQhHKFYCllGdZ8HxefvwZXvugqjDRC7N39JKJeB/1Yc0mqNnFdgFcCXKf2JwQCCt6Vw2HRmdHvYZPABZwMuOR/vKaHIwz9FddG9kVm2+CefbNz0ycuPh96heR2IvdoP0PDdxzAOBbR1UBkYYZJqXPfa6DKwnB2YbnPEqjKDQXi4vwutTcKS77VCEO0CWwvv3gTVq1qEBxpHaJrl9CwO/0rW23eoQ0UsUvDfLFtG8wMTMMlbUmVZdRo1my/LGmotCWHaR75lnWICAAs35TM3D4WFc6Lj/X9x/F80hJzjZ+sko2lwWXebdnTxgc//gXc88Qe+ONrcWAu4jMPI61RJGwjOsNRIF+jrcqtZ2q0ae4gbmPz6avwtte8HJvXN6ETALOoa/vUCVSpXqgOFWQ1z4YrGcKQe0klPVt0agMr9awkOKquF62mKaMGKoavA2+lrdCkca2EmVjWwoFDPTyxdQd6qRq3ek3HIHIjMYljkcKtEljVCZT65D6xuHxQI/NPyDM89rwTzBzYY/vunHvGaWgQ0GlpuIajNDzlVmSdKpQLc6mZcjAlW8DKgSoHrCQ0pSVy1860YyAhMlZJarjVFFgKg73eatKDdjyvE2VF3YjlO8DzLz8bz7/sMgtptlOhGaDdnud7VZu0rmFZaQw1FCGgVQiCYaNf24JAAIfxqrRl2zXLWbb+CjczNrdKQIwhuECM8i83N10vakFlM54FVCAPAkkE3gPty/TMjNKYb721GJ67cXSYk7sonlqeC6jQVp13GinlgbOdlqoAUocbUUU7otOvdquP29OYHA9x3rmrMBoqRE21Z75kocsAywRaFTfHRrln4Dol0EqlMmHZCoQW5Wxtm+XENlX1GAZB1ZEa5iLYwhTkvtKRs498egqQ+KLOVnQ3LDMPB2fbuOGm23Djd+5Ep9JC5I9insWhM/1qzOdBrFWZbHgshxM6uYCkdqlh3TdccxVecvk5WMaiC1i+Whlq5WCdYJWlI7layxewUpvI61ZJJT2bdIrPsSLljdEJKseXC+PmulTg+74BmnpNR4eM4sEH7sHug9MIWi0kBEQx/VXDuq0elFDRZoh22r6xcjED8ii+rx2FTQgRIOnMOm1uaSp2vq/tADRUVSeDmp+dxaGDB3HmmWdhYnIZ6k0tmdfkXK2QUnqVVpdeBZ9HcTQd03EJUZH+w75DNzIOmBS2M4tPmY0Sy3neaMm4u7a8I9Cqsiy0uaDKVdspCPAsJ0e/4nmbcfr6DZgYrSHrHkDc2Y9BNEuU1iG+05JzCXwGo/cJirTfVKYBENv7SbZKnAI/14aKzy8UmYkDGgoet3rQ2e66AIkkAQSLRDeO7FLhFNe57Yz++LWmtVp0Pcws1JnDjR3SbJP+VXPl4oCTjKiwjYoH5qgf1W9p8bRSizbDkTbJvolPlQeK1obUXQbI0T5S7SAb+NYW1HHQXKtuZxqXX3o+JicmGIrSo00zpHXMX5Ub49DeWVbuzNyFjUzVQMwjje5VAQimdK02xn/6X/w2GdHw/bARFfYiHe3y3Cd9eUFqCcem4sus06AyYr3ICFqlU4wrIdq0b/nhNnzma7djx0yChKCqm4g31hCww6HtGHzlL41qQ6whOwZq2kXjhaonqv9KkcpHp1g4fqmtL7TAQFrKRjKFF5w9gbe+4kpsWt+Crwn09F5My7Ay5Tu6y11oFwWsulB8SUklPXt0CgMrtXo2y9wUjVTC2Bk1XgpJASD50aRKuq+aqPNZH7f/4F74I6PoxLGtSvIao+TtFLbxwPbZUS/LDRZSELCxC1TFZCZJNaCbYiCbIQOTwNfuQki0coksQhPjKzVMTc/h0Nw8Np7LXttkiB6ZnHiVJk+bbGKYYkq6Fr8y+TjMU453vaSICbePklHpuBKSwC2M0wHpb9HHok8avqqNKc3FGK9K0WkgtaO4AJaAsOa9hfTWoLf1a1t4/kXrcfG5qzDZyhC19yMjuBpkPVaDxOU7y1FHHJk48Fos3wb6KUvWV2FoRSLBSpUiRAkh0MgoXAb5IdKaJ2QgRIDG3GToR+EuFKIKls65WbhXOevSbKZE4IXXNgRZPDzC6NFCQEcZCTuBIl7Ke+GsH6OFCyN6IcmzWgdF6KBDW4BTJrHhN2fo04CVs20+lDSuTLMlx4Bogx2TGLU68415Njt9AGedeSbOPXs96znLSelhWHYagYb6FC3Lrcpyc2fCKaS8TCVwF4zclB8yTtjbnlUu5QtG98Nm+JnMIh3tsjTI5b3LSN27b+DdopEX2pa3tO00gxwQa9uRPsHvPPP8gZ09fPj67+D+7dPoeWOs++JWbEOqg5rczkBUfzVfVHwuErNiOP4gYScztq0wiq05Er2rjWjFIcnvNJ/OJ79ssD6tC+fwC6+6ANdecQFqrDN1XzyO9SkHyQamlV4Zxinbfq0+yDaHkkp6VqnUWA21RF0VpqDiaBA17iShEAgDrFi5Grum2nYmXa3epDCtoReldjab4JjN9VhAOxSxbPROY0WmQKDmk2E4TZZYmrOLOGXbae0UxAf377W5I+ds2gTfVjURhDEcCXdbmWaMSkNUese9K4ZoNGQrluJ2aZN94THM0XTsp7kLM8m0F3nZmtDNjTYZTdj7DsnQVy6fwAWbzqWg34jT1q1lrzxBtz2PLGaPPXL7K9VDn+KFoCjpU3BoLpcO1xCwsJpgsZrw4o8ghWlYBip9DXbJp7SYMhQc9ob+VK6uTphRFbFrlWRx7e6La/dEvxKkhxsmhX4k9o42DljpWn5cigvjXBbvFY5o0U3fo3Tnc5ckKJUb/D7VcAHXLGOnImH+mGpW+UsQJcP6qz2u6lXmWdJhm2gT1EZAPGd7VI01QstXzZ+SKHVR6zeHQJaYpzMluaw4PE+KnCls1U1XX2mzUpt3tQMCqnbiYbpfwee/fhtuufshHGwTbGWsw+xYqBNgXmmMlemObqqVUiqq/OwMTqsNrP/ig3QtdPlhrcYakyLpzKAVsKzTLq6+/Gy841UvwPKJcYbJluGxnRDsaYsTTYUo9he0qn4sKj6qpJKeRSqB1VPQ4rwWdx1pPyOColpzBCMr1uHW793JHrceSqAESGINhegsNAd61Pr15+aViNk45uUZ8OJzk5jyoTD07xiV9DCalBv1O9i7dydGR5u45MIN5HU6Q4vE90MDcYyB6ZGQEhgz5pjLnQUauh52PtXJgNWxDJ+ZxoU97QEZei0IsHrlBM7ZeAY2nrURZ55+OsZGR4iWY/Q6c4j7bQySHktfR6SYPDIBoPKgJKEgYGnmGhRCalpaN+UEjIbC3HyRkM/V43aAqrClqFF6DjdWWxZIbiJXixbB1LBxQ3PHeW7Aajj8wri8EB39zBkTnZU6vyGkrSNuNJhDAajvolDW0LiAl+am2dmCzF/lid5W/npZhFolQiWag0dANd7gM16/5AWXYOWyUdupXRpHB6z0Hiu3KrjCKelHoCKfZLvro1ysU6c6ktcPAiHVFXUPegRQc3EV3/7+ffj8V2/G9gNzyLw6smqNxSjgnJcKed1CeCJeCHS56RA5r6Oj44M6y7OKgKDKVjyz49j0GX9/DqevGsfP/cwr8bxNpzEAB/as7ZDE4xJ2bI6/h1xOC4koqaRnj0pg9TSk3pzAlHpKatRq3BrCm1w9RnZRw7333UdwpUNsxQR89PqJre7TkJ29TyNAJVtGTMiXql13BqzkKycJDAoeJ4g8C+fgof3Yf2Avzj3/IqycbGpExJ27xuemSWPaFISWlNsu0kV4shUcLZn8tqScjrdlgsunxGlKmLeawKtl5NJgrZpsYMNpq23F5rkEWqtXjBEYxG4Ols3DatO/9iTz7Rw62xKAAExA2Ca+SygYsBA4cJoqEIygoqOKKKg0sZ6uTlwpHUWpqbYsXg8b564yFkgq6tSRpvB+9DP+5mEUiPxHNfwsDYUOHKCy4TgDPQpHPnQMDd3ShBi0z9DZIfGVJ1qR2UElnkcTPfjxLJa3qjj/rNW45srn4UXPOx+XXbQJrdAd7aQcUljKH6VxMXdK+tFosbwcDdekvPRVD9gexLMy8SbyoYR1sk0f9z1xAH/z2S/hsZ2HEPst2wR0oMUAfKYq5EqEbWUhPGfLLJ5OwdhYL2zoT5pNaSxp+p1Z01iO+uSZ6OKN116F11x9EVo2VC7tpkJV+hiXQFmuuXpKGv7Ukkp6lqjCBuVaQ0mH0XC2SBVtQ0Y0BqwoFCOCmH3zwP/3e3+OL33rTnij69ibG0G7VzVtkgSsDfaQudgEYTII01gJWIlZ0M7E0HJGINZkYoTyMVAvX3Nw0i6vO5TtM3jepefiN3S6+2kNW9YsllMPQwoqiZyCeVlQjnjtYnVsTo+cyCvpqYkCpj9vAMABBZaJX2Ox+CB+Zm+bPuic0OcMcdSevfPY+uQO3PfAg7jngcdw/7YpdFJppQgMghp08r5Ah3YIlwbHDaFIUyUBUQwDqnwoNDJNEVbIR5OV5XD5HkaqR1opKV9Hk5X+cd/N690xqHjFqu8xKGbHIho0TehJs+Q0Y5qjozk3FKOmcXLgNEsjdgL4bdJiMP9aXoINK0aw6ezTcdnF5+GcM9dgw9rltuHnSF2zd2Ia12kw0Gn5tFiDj/s5JT0NsTysnghMCUTJTTorB6xseJx/0sE+cgD4k7/8NL753R8gDsfR81qIUtaXSmj8S51Edx6kGoULx/gYA1WdLlxc3WXNYJ3X2ZReENipE00/RX3QQYP87cqLz8Wv/8rP4axVHppZ385FlcZKowTiu1pgIi3wArA6Tp0sK0ZJzwUqgdVTUHFCv6gY5xew8gmcelJIsUP+3Xt349//zh9iKqpjukfmH06g001s3lXBdCRkTN1u7Eash61foErsjJdmJDgGZBqU2hIiVQqhqDdvWpJ+bwpzc/vwqz//VvzqO1+F1eMBmYyxMNR8/mrOFa/JgZgo2jlzKUCVE9wSofmDkp6CmH+pdm1nASs/WTg6u1Ew2Q8bTkDwqc571GifFDUaDp6ZTbB73yHct+UA7nt0O354z73YtXs/3/OIyxp8Rxti0q92EVeP39NB0AJZhA+SSybk3B5NBTkgZZVjwVqkxbJUTSrA+zMnhmMgb5FUY44kF9vh7tJYpYP8QGvGXxUYJaiCVk/qTD7ehx5rH6+jXpuAaoDT1q7GuedsxIVnr8clBFXr105ichnQCJiffaAWDhCz3o8064yzyAsHQouUKS2LX1/SU1FRYov5pdorV1U6VWDHH5yruAhBVRJhz9wAn/7G/fjQJ65HUmVnLhhBF3XWYb7L+mLaRL5vc6hUdy1MlZh4kOM3xnusvbCLKVDFzqh8hkEVndmDmGwRMEXTOH3Cw6+852fw6pdeAI+NZLxWMS2xQtAegoX2yqY60BgVH3YklRWjpOcAlcDqKUgbS9qcqlrNbDVq9aAC9qZ03Yl11lwVf/WZb+IP/+LTSGuTmM/qxEZNMhPNgSKbEvPRjAVjQDnAIpNxgjBb0Fo5YKUZVFpt49sBzdpnqYo+ryloRvissw+/+evvw2tf/kJQ7pgMk0DSpGrr3WtiFm1HjmHKiJnpT8Cq5DuOjlftTUAQGGgOlXFpDWfJqxi6hjMy9uxZYJqELk2Nyq5HYSAB4AV1zFNCEVfj0HSCRx/bgh/e+wAeePgJ7Np3ELPtiICM7/oEDX6D8knDaL4BtJTp0Z5LBqYYn6sTIjnIODI3pcVd6Me9UwicYxHDdmEdhzSEnJM0EcMxF2T5ckQotgcXa55e1ypAm5eW9Qn0+9Au9gKoOkpm9YoJXHj+Objskouw+dyNmJwMMEFsOcrqqmbAfgGaNQZoQ6aqrWwrtvGY0q1USOAvAisnukv6UagoMZdfuhsCVjlpuxiBn0olNH3p/ukp3PXIPvz2//kspthZRG0UcxHLIhzhm+QnrLCadO6xvP0hYOX4jeu+aX6g6ezZRpIq+Rl7IJrQLr6nTUDrVYLvzn47E/BnXvlC/P2ffxvGCao9tru6be7qwFRBSRQv8F2j4sOOpLJilPQcoBJYPQUVWbPQmElyc7cZuh2CHq+JfXMZfuu//TFu/eHjiMPliAbs2bF3Z0MkFMAD7Ro8iAmCJITYC9MqKQsjzYGVmBL9kV1BmzYKYDEeCSwtYwfBladjHuIpnD3p4d/9i1/HRResN1HjM4k1/oQ201nMUoxT5JicY3klsHpGpJ68jKjIsLwOqEpojp3urXbQWfdyEvCKCTYiva57yoUe8cW+g21s27kXjzy+Dfc/+Ci279qPnXsPotsj4NY+QDWCcY/IojYmCG6r6GKby8fSY5i+r8ntjIegzoQX41ad1DNnC5RT4Fm8ebpJ5t++hTcL78i45y7N0poqHovCHE17xkutENO8FuWFvWMvgHVRafJtKT2ijs0ji6MesriHRs3D6pXLsIbm0os346wN67D5nDMJrupo8DMkK1VNAwZVo12ApGqVYlgP2BbMuETnRm3DdLJmSmD1o1GRXyLLSYIgDcW6uk0eJETOctS+U3PdCLWGNKvA3Q9uwW//zw9i60wDUXUEcbVGP9oqhgVo4RBYGaiiyVRjNZCouNQmtAWDNFm8Y73tJOR3Kj9eKzrbIT9hR9EnsGrvxaVnr8a/+ce/jE3rx+Cx/ug0BE1UZy3N/3JSeEXFFRUfdiQNeSmppGeLSmB1QqQsS9Dv9uDXR7F3OsYd92/Ff/3DD+HJQ300l5+O+SgwtXnV822t1EDn1GnHbzV8Ty4MRfNiTLAVwIpQqQBWC0yFwktDRBUyvkEH45jDWaetxL/6jf8Xm89uosrHAT0GZImBUJYLmaYEVidMh7UI3gxlmkpKq/6KoTfzmj+3OwquVAjHQLU0UtJXws5T0ygKMRN27Z3DY1u247EnttFsxRNbtmHX/hkc6rPcgxbqtQaarSaCMKTwI3Zhb122wpSt8GXUcl3rJdDxNHTmFjQUxs7WE5Din9ImrasZgiWz+fKAwjEZELjTrzQEhezSvVa3Dvg9utZ5lXokjW2n00avy85C0sby+gDr1qzEGRtOx1lnnIazz9qAczduwGnrmobxa/wkGeF+nWSgjkVIYKbd1qvMEIVpcRqgUr7pRtfmmBu1DX2Do8K1pKcm5VeRZ6b7KYCVeIQqTtW3TsB8xNyth4iZqXPsCPzrf/9f8ND2GcxgFYFV0yayS+NEDsN8dxwl0FAvO4vFdgqufPiU/qTBEuCKBPalna01kTEubThayfoYDWP0Dm3HykaMf/Ir78HrXnYpRom0s94sWvUWw9EedSrjRX51VHkXH3YklRWjpOcAlcDqhIhZRsYi0ryZjAJ0ugv8xUdvwIc+fSMG9RXoYYTCVMNGPkbItCpJjLQ3byulUjIqWymYbxhpWgOyJ5tjReblNFbGCvlMfmTEyPpoZB0KpC5edtUL8Ku/+G5sOoOQqgc0yZgaRFja97igBWaXQ6qyp/8MSK2CmXVk49C90wrZlXtu/lxOq//vwG2R97IFlAP0iYqimHehNrh0IehIkENTHRyaj3Dng7vx2JN78NBDD2PXrl3o9voOSLGJCqAXmyTyIr8nQLHJvD6SiOVr81II3pKUJmY6+Z6BI6XZUmrx6h0ZB8DoXlWaBbK0V1uCVO9qIrNcKSC1M3rU7xO8VbFichIbN56FszduxKYNK3HxxpUYH21hbCxEo86w+ZLeU12r8cLVYoYvzQbBkx0UzXgqmTQbLr32Rl7d7WUDVSK7oXE1V18gU7iW9NRU5JfI6fsEqPK6axkZ2HSGmOWasChYFfHbv/9x3PzdOzHd8zForSPYqpNf2cCfgSbjJgJOtulnYsBKJaN6rkU9NqeQZeyTP/bYi/DY8UzZkeywc6B93kJ2EBvZLLzefrzx5ZfjX//jn8ME49a2DGJkgaeFIiWwKmlpUwmsToiUZWRIUZ+CMkGtMYpuBGzZPYvf+5O/wje//xAqrTXGlLoUeAEFmHb1lsYq8AP2EjXfgOyoAE1iKuQIAldOW1UAqyE/NJrDEmQZJpohZg/twXvf8Xr84ntfg5VjFGL0HtIwZL7nmKeBNYbhgFUhnkr6UchaxXEyy5qMNCy65p+jHEZlPWKf4uWKHZujOVQSPNrDSptm2u7gvJcvabH0XLY2G+/SJoaxIcTpaWD7zp3Ytn0Htu/YianpWbr30W53MdfpoEPTo8ckzhCx/oVBzYboCtKQnW1ay7qmxRcyBpw0vFcQgX2Sdm3j22aziSbRUbPZQKvRsPMsN5x+GlatXIF1a1fTrMXyZT74yPZZK4bzAkYZsD8gmOS+2plY2ypI40W0Fdr8P5E0ZqzPmUCdhpbo04BUbutyIQTR8LVyefiupKci5ZWMSFol4wsL7F4HjbPGso50eNem8wc/fis+ef1XkegIm9gj2Bo1bZUDVc4IVGm1s4CT5li5cBWy5lOp0+ibu5+yU6D6HjbRJqjqxTFGaloNGqN/YAtecslZ+I2//z5ccNYySK+bsNPZqtd4pXYhAKdyLoFVSUuTSmB1giQtgoCVBFKn3UGdPbNZCrdvfe8B/O8PfQZb9vUxCMfRz0J21lMEGhpij02r+XT8iYAVxSlLgL15A1diKXQzbZWbU2JcwoYLpdWSHzLCmAys18HKZQ1M1DO8/Y3X4F0/cyXGybQE3jTfSpN/3YZ/AlZuOFCxlcDqR6SnaRGLYIpk+Vzc06bAsbwvwEJupJPUpN+FeVLyyh8tb/cIhgS4VMKCPNJSKUQFIVtG4kvDiN0eMN8GZufnaXfQpUMUJdi75wB9VG3BRafd5rM2ARrroCKSYWC+77G+1tAgcGo2mqjV6whrAkrSNoUYGWlhtEVDe6RVYZ1mfTJtgiNLF9OgdAknCcJ5dEvTmEYT11XT3HNNPq7ViLaYerkrHWQ2pnAzD0N5s2Dcw9wcj5QboqfyU5JIOSUjqKIaaPVABWidNgIr2j06sTrhEzfcgz/7m+vQrzbp5iOoj7D+uK1lbEVfDq7cuX805GXFYhzFUIAqATEdpBykPbIxzcsSMKuYhpTdTPjRNM4iOP+Vd70Ob732QvKyiJ1CwjImyWP9dEeIlRqrkpY2lcDqBEgZ1iZDqFMYQQfIsjFroK3LXt6+2QSf/srt+PB1N2HfTIJKbcKeafpInR77fE/7XRmwMlAlo3PWxPwUOMUYGZu7k59FYKWdupO0wbBSjDfJzNr7cOaaEfzq+9+Ka688306FF5NywEqvk1stCKtFAVnS09AxW8QxHF22khaf5aXIsnJgQsNtiyR/8lGIDIEsAS7NedIzzcuiUNGCB97JzfY+YxDuTWckyorrYVpITk5P91wkPzERnQk2VRfeyyjVMsP39j5fsMnttB2AVAh8IptC0YXo3jKgpYqowPVY3yiveiwHGwLXzXBMi3T4ncKVpfeO9lvS0aQcy2E8DWsNy8MM8zsjn4kJYLSK9eu3P4E/+stPYft0gg4a8FvLbThZh46rY1YcySVjGisDV06DrlJQHdX0Bs3DErDSwGGjGtuebx3+CMBLazmYP4AJv4dfe/fr8bOvuQwrpfm0ye+Mi3UkYqdTGn2RK2HXSkRHlXZeHY6islqU9Bygcuf1EyStpNGGkW4jRLlIGe7mvixbdRr2TbWx5cld7BzWKLB8RH324iQwM7K4SnEkBDkPjR3IyxCsR29/buhO3GPBD5mPVORJpYWw3kKv00bgDdCeO4TZQ3ttSfuqFZPmZsLHOI+Faka/NnG+pB+BmOfq2VseDhkDETSyjpmXVSQEFykFjcrXzswzsMF72gNpChRsXh75E7pRfFHA+Drao9Knm4w28iBotzVVpi+AduyXCWT4ngbSQsYlUeQ2bqCgYtlrOFirsrTPUOHfudse6XbgtNnyTzfNhaozadrxIOS7zn+umUj7poFQeioDmZ67ttWq/Bh9j4COvlP5kn+fYLxWNyoGTaI3AGX5IhGve9V/ZyvfnPh3QQyTQlqgol6b42FPSjoGLeZQnrsCVcxDDT2nmVavVvGD+7fjzz/yGew40Ea/2kIWjtsGt0LzGtJzWa23dSXOpBITuBK/s4eurkurpWFDgitVAm2wqz3aBK608CHqd1FnJ/LqF16Cd77+ZTh9Gesf672tLPQZqpLHOlN0RFxsrp2IFr/laehH9lhSST85KoHVCZJPYRHHfTRDijT17giexHbEhEbGq6g3R7Bjx5OYm5+m3EwRk5sN6McMBVvFhvakWRKocgLD8QQXhsjYCq8NaJF5OVEYIO51QF5FJpTwrRhTMwcxOz+DtevXYmL5MlOppwmZFhkbWRW09Md6jMdgOk/Lh5S0p/V0EpK+WeUwbJzj4dfDhu5ZPn1JWkwB2cJeuOaF/gpFsXrqticWAbkLRuXvHWFU9jQSOnbtwrC/HOzp1cK2M9ZotCu/7cx/mNHbzjig4tKlsBYK2x7qR9c0mhRv6crTYXW0SJvSLTv3L2PpZFyevo1OQyRvhbF7e0f20UZU2Eb2ol3k5hQhV0yO+Nk2rMxLZxdG946TFKSqUUGXdmxlLZwbV0J0NIeKZXT/k2185AvfwJ2P7sBsEsBrLUOf9Tchr/LYW8zYoXNzQV2+K3QHqJxRCVh8fO408Lohkd8Jw6leCZzVsg5GMI/z1rbwS29/FS46o4Umn0m7PkjYgdACDFYULb5QEKoysou6IVq8ysl5OPzBUZ5KKunZoRJYnQAZg6GxCblEK5oT4OYt8JlxswqWjYeo16p49LEHMD07C6/WRF+zk8M6OWCfXjQXR6DKMahFnqDw7Je2XBm2GS111lJmgTqxUa36isS5zOw6uBe9OMKGM87E+FidDKuCOpnjoKf5EAzHpHrOCI2Kq2H2RVr0cDgd5ukkJyuAEzAkDaflWT0kII4w/LFtEHKQZMaAi0CKtAUyui6MBI/qQB6q+ZVx77oS1G8BwPMwn8a4fbCO5X84jjzuhbQI0Q+nUX74TmEMuckcHuSCl8Oci5Qf3yzS8Z+c1KT2qOaet0s1ZQeiMnbLZLS5p4CVuNJivhgb0jvpDI2mp1fYv/LQRg29EHhgD/Ch627CLfdvw6F+FWkwQsYivad4G0Mko4kI9rVbuhWcuUun5LRVunexuedKl+OL6llIv15DQD7lJ/OoR4dw1kQFb7/meXjVFZswEZB3aosPgq6qFluwfi3Oq1LtczWjuJd5SvqRPJVU0k+PxFVLOiEqEAhbtDGeghmI4WQYbdXw0qteiCtfcBlaNa2UiZH22zbk40jQTHNpNGEztw1AsUgMpBWcoohHRIZmmi71UfV+Ddmgyd7hKLJ0HLfc+iA+d/3N2HOAbDasYK7HOD36DwXApN1yYQ2ntqSSSnqOk2uwZoYuaQxK58Yxc+MgbOa2MFUaSQPCDZo6sqBpe1U9uXuAG278Ju78wb2Ymm2Tm7DLpmWd5GNaxWqnTIjDSDvFMMTPTEOVazhd7G5Q0MGt4loAi880jMzOo59FtCM0gyouu/gCXPOyl6ClrWcsRoWlcBatIvSSSlrqVAKrE6QFJiCmIGZitruUHly9xbGRKl7zymvIVM63eSo1L7WjPvRM820WjJjS8D27f+JhGi5yQ0YEVGRyTulPoGRdUfljDzMHVimB1excgK989fv4/Be/hQPsqCYee6lVgiu/hyid4zt672gq1y+UVNJzlHK+YiYnd7sIqqTrcV0yARYHcxylRFoh4LcQE1hpVtxBsoFPf+FL+Po3b0anlyAIGwhrDZsbattxpIlxGWlUHWQSuHKgyoEhcRFdyfBpRbHl97xWCqTIr2lRTtRGMEiweeMGvOYVL8fK5TWyMm0omn/O4s8ClZyopJOBSmD1YyXH6AKNB+k0/3iAC85eiXe99fU4a91yO9G/GmtvHwElMhQDUGRGA2/BuJ5fYYvpkNXk4MqOpBDbs/dVdAHfaSDJRhCnYwxuOeY6IT513dfwsc9+CXOMPwkDtMlgM19K/EJnNUwlKyuppOc0iQ0UJicHqjSD0v0KWGnRglbskfHQaLtPzZFqoIsQ81kF+wiqbvj6Lfj27Xdjppu6yeZ8M04H6EUxYs0VJTjyCLJsfp40TzQGrHJuZHzL7gSqnGsxD8s4CR9rxaBirQ86OGf9JN72xlcRXC23RT7iYW6jWPmVQxFeyYlKOnmoBFYnSGICmmmwQI4/GKOwI0AIrppBxTbufP4la/CW112DOnoIsi4qtjqHfg1YFUYaKIEsGTIrc5MfmUWNlfVCF1iQTz8aDqwTXDWJtcYQD1qYbgOf+vxXcd2N30AfNXQE2shcE8abscd4LHhVUkklPVdJ7d4Ztd1iGF/MW9oqgSxTYms7CwErnQox0FYJbjd17VN1sAt87ZYf4HNf/hamOwQ3tVH0EtgWBzFfsRXOVQ9+4DZtTWN3XE1xZI2GBAtSChyQIs8yW4Z/TISlT0OA8SzWTtTwple9FFddfjp5IV9MMtQDz0CbA1QFDV+XVNLSpxJYnSCJzThWM8QUcmAl4CR1uO3zkmr5OvD6Vzwf11x1KZaPsDeozRrUCzRDRkQQJZBlAQhgWbG4exeHfnPmWqjkC+9kZprEmjAsnVKPoIFIE1SzBj7+mZvw5399A7LqBGb6HiJy0MR24D627qqkkkp6rpEDK5qsPtxmBaQcmMqNPRJDkOUexBW3q/r2Q8BXb3kIH/3cV7FnuodO6mOuz5f8mh0C7gc1eH5gwEpsRVMZdK6f7VdlxmmsjASkFsCUcy2uxNPkPyR/W9Go4JoXXYJXXHURxupkSwy45lfg2xJUvmXginzOAJbFWlJJJw2VwOpvSTm7OZyqZDMJGVOWoOa5fYJWTwD/5B+8H2smm9CZf9V8fyL1Bh1jIhXgyoqlGAosSDHJxflxLI1dzYrbciGrRqiGVRyamyHDbCCtjuCBR/fhk5+9GZ/9wj2okHGm2kNLGisyQJu/pWBLKqmk5yy5Vr/453hATkUDNmfyjCH+ofV70cDHVATc/fABfOAjn8Vj2w+g2lhGd4IodsCSgYck03mmQMJOlw7Y1jwrHYWkEyUWeJN1/hSR41QuBS4V7s4NQWqVnzqNQdbDhRvX4q2vvRprl8NOhKj7NERXUdTlW3nCjwBVh9+VVNLSpRJYnSAJ2jiQcwwi39AxJZprpXkPOsNP0x50VtZ//51/hRXjNQSDHqLOFIEXnxN8eeRcaaJhPoapYUAXjDPm5NiZGKiYnFtk3ac7+6SeM9Pze7FizTKCKB8zsxHOPucK7N1XwR//yfW47nP3QWezNTRRlT1TrfwRuHI7fpdUUknPVTqqhS4wBho7ZJI2mYPYRwp2oLwG4U0NEd1uvmM//veffxQ7D3QQtFaQR8Tw66Pk/CEBFTlYRfvvafpClfzKdr2DHUGkwMQbcj5hxhTmugaiOCIAY5z9LvkbeViFgIo8bTSEzSd9/8++CSvHQtPWk8WxkymQlqFWowftcyZjZFytpJJOKiqB1QmTuJrMcYjcR/BI89hDMqAm+cloE5gYAf7Dv/6nGG8Ak6MBGVKEpDeHShZjtNXAYPiAXGM6Q4xHjFDG/sitKgkZY592jyXZRXPUx94DuzAzN4t6c5Sgao58cQTtdg0f+evP48Ybv4L9B/ZDO2Frh2OnuRJXfnpaYK7HMCWVVNJPkgo+oHYvYpsrnHxtVJwgScgCyGim2yl65BFRNcBNtz2K//tXn8T2vdMIR5bDb4wT5dQRpxUDYZrbKSqCKlb+FdsqDD913Tpn6+lIq4ksidCse+jOHkQrIGhCD02ad7351bh40zqsXuaDj61z6VXcCkNL+wK5GEQufnddUklLnUpgdcL0FFzA5g/wXx0z0zSptwb2CIFGAFx+YRP//B/9AuoEQ4hm4A/U60uQRh0CsYJ1iYzdMKrcJqnAxPhsrxpjVAJXkZk06WDFinGMjY1gfr6DZnMMy5evQZoG2Lv3ED760Y/hkUceWTicV5orhVuCo5JKeq6S2r1avWurjtTu1bFy7TbKUvR5qQOVuwiwfw74xne34A8+8DE8tm0fAdcIqkET3T4BmKYDSOtd0fExi5ty2nxPg01OsyT+5jiRm/NpxqJ34K7f7aBVD5B05wiq+LQ3g4kgxbveeA1e9ZJNGK0JUNE3O4oVbQTKEESLnGYhZrvTA7tb9FBSSUuWSmB1wiQOcGQPrCCyiIWJmXruNDs6Zsb2B42BV770DPz8u9+IoNLFaKPCjmeEQdq3nl0BxBw5dmdh0hioMhcaBl21ocFFMz87b1qvJhHc7Ox+RNEsxicCAqwWrnn51TjjzDNQr9VMYyVK2NXVvIqnA1dup/Bjm5JKKuknSXnbL9i1Gr4dzJ4iSiN49Rp0qMNsRNZC+4Zv3od//1//BDsORmiMTdrxWr0oQaQDkWsN+OpQiY8oGDM5qJJN94LjLAAqGfIz2QWJRw3iPkbCqh247MVzuPZFl+Btr3kBJurabYb8TMfV0F/gV9nBdCHqcHK9fbgpqaSTi0pgdYLkmI8zxyZlrWMatk1Czrx8crNlLdjcg3e8+WV4K3t4PnqoZF0+Sw1YGWDLgY5+i1U4ujPQxbAcU2SPUxNRMwKltE63GsJqDYnmP1QTLF8WotPZibA2hze95eV417vfiTWr1xBsxXZ6vcLTRFXPYzglQCqppOcmGRNwl3YxUNuVYQ+NGCkmOkppd+j0+a89iA998kbsmaNDcxX6SQW9Pts7QVXghwh1bI3mTZkmycEmx100VJfDqAXe406D0AHL+RO6EuDxeYtgrjc/i7CSIBxEePFlF+A9b3k1VutkHB32QIAX2CpAcUJpvxinhVnow0pQVdLJSyWw+lvRArc7BjnGIQZif9Uq/ECrbSoET8BoAzb/4B0/8zq88PkXkZnFCDwyoEwnyjsWdDjlTCg/X9DmW7GbKlBVyRo0TVRpe5U6Aqn4dY4g5jA5WcG1r7gA737PKzAxMZqv/NHwoUIk4/ODhYnsT0V6fqKmpJJKOjFyXITEZiRlj0CR1N7aDiGVIS9I6WH3wQTXffG7+NhnbsC+2Rjjq8/CfI/sveKTybvOk9p5r9slyIoJeOhWJQdg+xSQckfX0CzYilJXi9BrKDWI+j3UAoK2+Rlcccn5eP+734bNG1pokafpGBstxlGCyQFMS+WuKHB07uRCmDktXJRU0slBJbA6QVpkMTkN34inyOS+XA+tYCx0yfrGfMJqhLUrGnj3O96CSy8+jwwzIi+K7I3Dwia5sBSagJXuxBQFrOoGqpCO8L6BqKcVhixWxlGttvH2d16D977vFRgd1dt8lwCv0SAQI7KKEx3kzN7u0w0F8pmY8vFMSSWV9JMjx0VIxlcEVFKkWYyEph/3sWf/Pnz569/Ap7/wRRxqR/Cby7F/NoXXWEb/0kazU+f75C18l23d13I+ttsBO1gLsInhFqDKIjLiU9NkO1M8tTuhPAK8i88/Fz/71jfhok3LoD1AQ4ZRkzo9D8f4Cl8Qv5KL44WHh7dAh92UVNLSJbYl1fySnhkVLELk1ONHMgWDUeq12bXIMRJjZIMeer0+yAHRTX10sypu/8FW/NmHPomHtuzBwBtFOtCy5BqZYogkYWiMrh6QQWZdMqsMceZhUA2Radm0lkWLV/HZSINWbz/G6jHe+45Xkem9EuMt9lnJSL1BYFNgazVCLG23rM38As/2ltEhrLZS0L5Hqn+Xbpd22ox/4Zpxae8b1RxN19AbulYvVXu8V3SeIZm+QkNFEy7Icgd0s3XXLhQNPOTTW+1eWeWuRPRnh00rtTIllbSUSdxAQ3fiGVXWc9ZpNxNcjw4nOdPIWcNntkBF7Tv3p32nkoqHHgGTDlR+dPscvvLt7+Fbt9+LXQe7SP1RzHQy9NMqJpYtR2d+lu2aQWpvPTbSChtaldcJO1XiSNpmoYhtmAbatgFaQUggpvE8tukqTRZ30AwZRjSDi89Zj59/2+tw1aVnYJJ8p8H0VAn07BvsHV04cqE7ICWQ5WjxaiH6xVdKKmnJUgmsfuokQNNHrz0Pv94C+5c66AbzcRVf/Ppt+OuP34Ad++bJCMcQJSEZYYu8pkFg4yEkQ/QrHfT7BFfaKTnQHscMThPetZdMNUJvbi8mmxne9eZr8YvvfD1WjfpkdnMIG6PopGRk5KNanahpGlnSI2MViCHoomPKqqCl2AOCOW1Soy1yupoQ2x2gP99Fp9u3c8UGHoWDX0WtXsPoGE3LgSux0mrGMAcEagRSvscAshEG0OQDAiWfqa1q/62MueCzt11BLWg4UEWjMIxsYq42EmQ6zJRU0lKmjH8amhe40tCcOhqs7cJZR3JfAQs9oi0wxm4PbwiYpmfhTaximwkwFfnwRit4YBvwqetvxq13PYg9h+bYLuvwwho6/T47WxlarRFEfbY7Na48MqcNd8bdWxfQrlzkcpGpMYmjdiizjsepB2y36TyafkT2NYWN65bhF372zXjllReilmaYCCsIND80YXrV2/LLdlvSqUslsPqpE5kPGVUc9eHXtJEfe5/ktymBzN7pDF/40rfx+S9+Ezv2sKcZTJCxsdcYe+w1tpCyl1nzM8RJH2G9gT7ve+whtlo1BD7ZMHuRwaCDN7/6xfjl9/4MTlvuYdCbx7IRMvJqwB4r+7+KXqkYaNZDSh5YRZeMGARqXhBI14QDUzEe37ILj2/djt17D2B+eg4zB6Yx3+4Q7KW2AWmVpjnSxPj4GEZH6jhn4+m4YPNZWLtyHOPNwLaV0DLrCgGj9nA2YTHoMfweAaFudXZhFX61vgCsrLNqPwJWOuWMHs2UVNJSJoGXmEaARlscqGfDBuEQjTOiRWzDzo3ekcaKbaHfJh9gCJU6okoTc2yk92+ZxmdvdKBqukvg5tWQsGFp9Z6G+xWkNv89bCVhHpkDVry2eBnPYsOzp7pOBwFNDY16iG57mu1Zp0hE8LI5rGBn7eff8Qa85mWXYw37TSkZ2GjAdq44MqZXWjCBq5JKOkWpBFY/dVJ2J9Ak1Fgox/Nt1U1ERqvjuw7NAtd/+WZ84jM34uBsirA2idn51LQ7dYIpqZoCMjEBo37URYW9xDAYsKM4j1aY4W1vfAXe/dbXYv1KMtdeD+ONKmrCJjacQDcyaAEjzZ2IGV+mYQE+VtyPbTuI2753N+764YPYvvsA5to9dHuxkkvApuMv6EkT4wkC4/y8Qc+XoEjQqHlYsayFc886HVdecSkuu+QCrJ4kYyZ/Dfiahg49X3O8tOeWeu4OXEkjtcDzHW+nzResh6+hQpmSSlrKpJaiOi/YokouUDUErApymCZvB8V0b6DHduyHDXbAqphjs7j7wR34+Oe+iu/f9zi6GmYPR1Hl8y4bdJQkdpCyJqvHccy2JmBVNCyGx8Zm7W0o4mFgJdugFzs9EZv+SFPzBrqopvMEVj00Kj383Dtejze9+iVYvwzgUyTkEWNkMraaUBouASvN4yqppFOUSmD1LJDtdk4+pmMhZAd+gJjcTafN6/RmgauPf+ar+KuPfwH9tI6wOYlDMz00RybQ7vXp30O/18ZoK0SrVsXs1G6E1Rhvfu3V+IX3vh0bT/fRme5j2UiI0EsR9+YRhAQxBEOoEqgQyGkoLiGoajPOLbvmcf1XvoV7Hnocjz6+E1OzXQS1EYRk1lGUIqUJ+I7md5BTkxFrCTZFBI0fCFi5nvUg6SHuzqFJkHXxBZvxqmtfjpe84HxsWO2+O2DUgkmEkGTckc3zqjEeDBbBk5i8q5CapK/5KAXDL6mkpUzDbJbXC2xX17ldgKC8yhvAoZlnG82IU/rEZjd952F85FPX44mdBzEIx+jmI+JDzYDSETVqP5orqVV/0ly5bVUUoAvUxepalcIXmZs5uPvi2tpf1idvIVjL5lCvdPD2N1yD97z11Vg1DrDPBp8v65DmGuOzgNQnGsZyJZV0ClIJrJ4F0jwlz1PPMLNl05rzlJGRaRJ6TJCRVT3s2B/jI5+4AR+/7ivoZzWMLl+L/dNtDLyGMU3t0k7cRHQ2i7oX4S0EVe9711twxlpNFmcntkrQEjDMuIeEptaQO7memC/j6FdrmOoCt979MD722Rtx9wNP2Bljfm0MSeqh19WKwQqajZbtfRP3CYSYPvFNASsJgSp7pRpK1BBlEjEOv4KReogs6RPMtfldFVx24Zl4+5uuweWXbcAKMuOkr0n0HTRCMn9jvurZ5kagjVeKQ0au4tEllbTk6TAuy9ptWlsZtUm56Ue13e0ZZbtKsf3FbBNdtpNZgqvPXX8HPvfFr2HX/lnyhIA9lRFU/Do6bFPSIPvsPAXsvSRJRL6SkMf4ebRqaBoeVPty13Jz1zKHJY7kNllQ+9WcyWj+IEbDGK+75gX4hZ99I05fFaDOIELrnqkvKBAmvpJ3g4pgSyrpFKUSWP2USZktdioy9jaICX46fEDG6JNNeTXMdmJyrRYOtYE/+LOP4otfvwUV9k4PzPbhNZaTYVZtY75BdwqjQYLXXH0FfvE9P4NzNoyTX7P3yGA0mb3fnWd8A4RkuFL/VwjoZtoRaqPLsXXPLP7yk9fjc1+5hQCrQreViNj7JX5ijzdEPazBI4CKbTNR9lh9gaiA4ZLxE1QJZCVpas8CpTtzWisTCfwWrQ7UisM0OojVkwHe8dbX4XWvuopMmZ+oWfHxvE12DbVE0biwgJVbU5iLGwNWi7qskkpawqSGX3BaG+omUrKVrzIFCpHWSYadq4xtQdMDyCR294EPfvSbuOlbt+LQbMdWAleDFtrdFINqgKDWZHtMbfhPq/60QbA6O6ZR1rC/hS+o5ACbu1brGkY/LoEObtEn+ZJHUNXwU3bcYlxx4Vn4ez//Npy5ug4/7WO87jEE+tFcKsYTx3yPaamqw8igpMAqqaRTlUpg9VMmZbaAQ7efGgAKtXJOm3lqOwKhH829qAToD2qI2RPcvj/D//rTD+GTn/sS1mzYjOmej7jfR9PPMBamdozEr/zcW7Fx3ZjtjdWQFislGKLxpaUim9SS6V5PR9d4qI+2cO9Du/Fnf/Up3HzHg4iqI0j9cRtSSGxfLJ1wL6aZs2JWD61pypgs148VM2ZPlr1hgSwx1SROUAvdHIuopx3k2Zm2OR59+pxHlkyhVo3xhtdcjff/7Buw+YwRMufMlm3bdytXGI5glCBZ0ZcXqCqBVUknBQlLFWTAip0nA1ZFN0sdCrZB1f8sgM70Y7PCPB//u//5CXznrgfYjoFGaxyzbbYrgis/aJj2W+1SHTNtGKoNhn02wJCASk1K+1a5dktjHRdpxNhuB2rhLl4lrpjQrlToOtB65axN08ELn3c+fu3vvBOXbGRni2kI2Wa1zEUHxyPQBE7xgYBvMyQ1aRrxgJJKOlWpBFY/ZVJmF6xUrM2mjtsu6XLVNTkS+W5PQMdrIvEreGjrND7yic/i49d9Ga3lZxqzrCZdvOkVV+FX3/d2gqoGfPZS69onSmERkJG7WuhiqOxMoh2zJ1z18dDjU/i/H/4Ybr3jAVRqy9DNQnRjMkdPmqMAwnlVckdfWqcB46GdVQcEeWTg5NRFn1awyzFlGRLfsyesTg5+ueuKn7B3HSPrzQHRPF579RX4B7/0bpyxuokRRhkQcGnbh6r2vSFzTsjws4p61iWwKukkIlVoNX6aTFrqTBPSKwQ/xbR2zZPSXEvWeLYz7ZJw23cfxQf++jO4f18PvWqTvtSyhsCR7hmegi1apviIA0kOKJkT/bljafSuNFh8l3zGZlGRV6RJnz7Y0QvZGepLe55gWctDpXcAL7z0PPzCz70DF5/L+LvAiD9AvSIe41JNhEdbaQk1y8A+s+AOJZV0qpL3W6T8uqSfEjlGmDMfw7W5kUXQpFU1flBDu9Mh4Khh1bI6VqxYjV63g8cefwIhe7xve8Mr8UvvewfOXFPDoBehoRPmNWlJ5+VYGGTQNHOdHjunNWSBj/u3RfjQx76AW75/LzpJQKDVJMNtkCEKVLGHS2YrrZPpjchcBaxkaz7IoJr3aCkIDDgRcC0ycGfymSF2LRYrv/0kQp9hNupNhEEd27ZsxfTUNC668EJk7F2HIQEke9qaq2VMWt1spUOfwlCUTyWVtOSJTSKOBoiiPsKatjbJV+ayzacVHzFBVUrTp9u+KeDGb9yJD/31p7H9wBy63gg7Nmzn9GegSnMcjXsU8MXNbXLA6vA24671pPBfmIpplZO4j7oOUq5V0Z07CC0CHKlX0ZvehatfcD5+8T1vxSWbRm2RruZV2TYqKW8sQv7IKDwDWC4F9oimpJJOVSo1Vj9lUmYXGS5WJBW+01bR2K6duiZ5YrQemW4I7ejUizNs23UIf/ahT2F8fAJvfM0rcNn5q5B12NOsxGjqVGdxb/VAY4KiWoOgKUA3kdaogkd2Rfg/f/0VfPkbt9qQQq0xjrmuJrgSWJGhV2ziacXAlG3uSVMVuGKYKQFSJMBmjLNgmUfaJCbhSIba1xYNtZBMmXCLveEg7WIkSPCmV1+FX/ult2GCPNsn1w58xmsCg9+cClipN+3CKKmkpU5JpDmUrNBqpmwkGTtHaumJgSu35UmHP9t2dfClr3wbX//Wd9mxSnBgPkJlbBWBlYbc+KI02jkwkim4t2uZrkOjSIrOjrTG8l9oudRt0r2AVsj0DAiS4t4c6n6GVq2CfmcarYaHyy84E7/2c2/BBedMamYBAoYzUmec7CjZQfHq+RjJZnpMI+ZSkLuUVNIpSyWwejbJcl4/jhmaTa6UxjESFktVu6uTobZ7PXIqsiqvjq07p20y+urJJkL6rSQJWuxxQr1IhaF9sTTRwScgU7B8dGguxQc/8RV8+LrbMdvJ0GiO0id7pf0EYdCEjszRq44havK5JqE7I82UtlZIjZHSSN9/GC3e6wuGbo10/EYm7VmaIu33sHpiBGmHXfL4EP7l//sreN2rLsVYU+BKQC4HVwRWJkBKlVVJJxENUm3uy86K5iWxPWn7hIT1Wy13pgPcff92fPGrN+Pu+x7DfG/AzhTBzPKVmO5G7NywPbAxSKvsYItA1VDj0PzMBR6SAyvxkCOAlRqVaa/4bshmqSNqkHTQrPGdZI7X83j5y16E973tdbhi03Kwz2aa8mYtQIMmZhvWKkAbujdSGmhMc+U0VqKhlJVU0ilHJbB6Nmghy4cZo7PcjugDgiMCGl5rBaC0NwOCjk43hlcbMa9i0loOHfBZRlBVFWP1tLs6/ZLxqQc816dTCNz2vQfxH3/3/2LHTAtBbQxxnBj4qgV1hkWmqwmw0pQtMGcZoTLHpMWYdZir6KkYpr1JD7KdT02F1QljTiBUMzJz9naloapV21i93MNv/+av4/yzl7mtI5IuatpYUJv2yChKyZCSSlrSNLB5THaljgM7S9owt8smp87PnkOZDc9/6Ru34eFtexBr4Yq0yKEmp6sNFpuFunYk7bLAkeCT4RmFqz+1VRrn1/nw1MnilQNWakyMn+/b3yBi0F00A7ZQgirtqn71iy/De971M7hk4zI0+h3rvOkcUSnWJSq04aji1V5ZWnW4QIpGZPzCLnK7pJJOPSrF1k+dxHhy0FJwI/Ig3dnQABmnmKBHkKSNQ20ELtXBNxkamjYVdVATOBmwKylmTcAlhudmN1URE7wIVKk3rNGD3fv6+NpNN2PvvoMWibbz9MkQG75PRpogas+iSmCm8DVRXWnSOWUpGWdcJQRiIHEl5NOQT2gGsrUCSEYTYZ0RXHITY2WChXvtz+X7OvNQqwiJnrw6uhEZcziKJ3cfxI1f/xZ27J2mX5F60koCfzSEWPDokkpaAqR2eDyTsZ16Ptsm21y727U2lrCK33PfDnzkY9fhY5+8AQ8/vhOdyGO7q2PA9qEFJ9r8k6/bIeoyFYZj8xvNZiPX9XBDUc/GQI1cF40jZ7un7LglEeohW37SQ1BN8LpXXY1f/PmfxWaCKiQp6lV2i9IeKpoDKT4jkGbAkGlSh47hOI6RB6q7nIeUVNKpTCWwelaIjEfcMmdABYOSMWxBJmX3pkQSXNJdagv96j7vtRsyr6WxogcybIIWzzdgpm0RZOvwZI0e/vC+h/Dlr30TzeYYmaePuEtGSaZpTDphv5jvV7OIjFN6JUuBMeKEPdOYDDTiOzqDTMAqI6jSQuxsILMIphYB1ZHXYsJMl3rd/IqUiYvTKvzaKOa69Fkfx/U3fgNbt++hf36KhgwtW+ifAsgx6ZJKWsrk2rkOOe/0u2wDGdu3h/0Hu/jyV2/Hhz/yKXz1G7figHbr9UbYfpsEUyG6KcFL0EK11lITNx5gxoCUM87NhT8Mn4RyChftOedQT2GL3PsCVVF3HmOtEG9546vx3nf9DM5e32ILh83b1AHQUiAbR6m6PbGkIhO+UsuUcbGLiiu6Gm8rqaRTl8qhwJ86MbsXslzASAzQsaSjSL1UcVVTr9OYJzI3cTbNeRKfVFj5czFSsdqIyKxH/naoA/yr//C/cNtdD6DWXEmAM2LzqYzNkuFKk++C0Ptiwo4Zqzdd9EgF8qqDfGcrRUU3uxDZjXrkdle4OlIY+YWGNCsUJvKnMxLDgOKAveSwGiHtHcRrXv58/Pa/ez/GQiDkt1V1AHNKQVNt0GgvrpJK+jGRKuVhFTUnV7FJhQeaot0NvaA2oeFzGZsHWDwqvBl+0UVCEBXRKWWnJ8C8DlNXg+PzR7fO40tfvRk3fv07ODQbIWhOoJ+pY0TDToz2pnKbbarNEIgxHA0HWrBGGsbTr6Lkr8K1a0dqs+7aQxCOYnpmFvV6zTbsTeIuQk9H0CToz+7HGWvH8ZbXvBSvffkLcfqKAMFAG4Ky+6T47EBl8huLQx/mhgFNceWitDQs2opVRnfFk5JKOvWoBFZLjVhahUarYF+aySRGrodSDkUDMnHioJu+txv//N//N/S9UUQxmWalxgI/AYZHLqp5XscjV4OOXY0cjFOaCcCGBFWVlnrfIdO9rFnF7//Ov8Gl51XsUNeg0uZbM7wazU1JJf2YyHoL7vIwKqr3Qh2VRxrdq4Kbu3Q3mp1U5Z86GjTD4akZSsvKDsIABFWa+U2AMtdPENcmMUV89J3btuC6G76CR7bsQuY10Euq6EXsDgXsRFjYAk2ufahro+Ya64rtL9dBWXqUXPk5nOTqOmoibd8QZQ20RkbR7cwijuYwNhKgVu2hN7cXF5y1Gm+89kq89uoXYv2kj2oUgZwDnm1azLAsTQJUJZVU0jOhstWcNGSsFh57ulLfayur22/7PrrdiE8C0xg5P88GOYbvmP7RRj3qW269Hf0+fdCbesR8QCqrZ0k/ZjJET/BjRtdyo3HNx1VAu5CmRghJUL9OWyCjzichTa7FEaoaDitgx8bX3m0Z4UkN3VTHUtUw8Cfx0OMdfOjD38Qf/+lf4b77n0AUVdHpZuzwVOD5TVb3gHHIMGzZikMnIRC8ObDFGE0VVSS4SrA1ZAj0nNE97aK9ZzEGcZfJ66PFYCvRPNLONDZtWIN3vvn1eN0rX4y1K3w7t1OdJy/gN0tLpVMV7BtLKqmkZ0pqoSWdFCQmqOIUIwba88Ddd99DoKUhgCaZppi2/J0A8T112o9n+GvejkcmD5gqGaXTrsnEbbiRD6VlU1rn2i4kzUFxS8NLxl7Sj5c0YD7QKrsFo3viDxk+l3H11ZkF0g092XYHZuhJBylLK1XVhMYYKQ1xks1LnIsqvK4SXNXxmevvxO/87p/gs5//qs2lao6sRFAfJ6jSvENtqULwZZPUacyu0qbJbQEqDT7qr2jngwXj2oodV2MgqwBYbD9sXyN1H/NTezFaq9AwbXP7cc76Ffjl974dL7/yfKwYJR7UpyXkHJpeYMdU5aakkko6ISqB1VIj8dWjaJHhSlMVk9fv2H4I27buQuA3yKB9uklkHPPlH5EKUXMsc3wqANUwqFoUDJ7NJ6k3R7Bj127s3d92gk29dQHBsnqW9GMmASudnlcYQiszR9VqVlPZC2CLxn403CcHkYb96CD9VDfrYjbqIfM8pKy+CavvDx7q4Xf/8Dr86YduwAOP7aWvBvz6BA7N9jE9FyNsTCCsjbLNCsRIQyWbHaMF8Kb7HMTlCVvQWgmECVAZiHILRQpTuKvXk0azWDEWwE/mEM3swhUXnIFfe9/bce0Lz8Cqpuni4DPcoMpWZzPVGX7FR6p4rK2WVFJJz5RKyXXSkGO4aUJmyt7no49ssSM0pLFKEwIadclPmCh4yKSPa3JfxycXtwNYBFTsWRc9bmmrdHzPXLuLbdt3UPhIbrlZYxJ4JZX046RhoO+wivst0NJhrWToxnCGXeSG3rVnnHZNj1mPs2oDXjiGDh8d7AKfuv5+/Nvf/gNc9+XbcagbYPmajegmHqbmYzTHJlFrjmNmtoNuL4bnh4bR2JQWbP1Y28pcV8SZxStnFtvRopG7I7Uif9BD0jlgR9S89PkX4F/8g1/EK69aj1Fy/ga9NmlrryqtDlac0iCr/WmVcUkllXRiVAKrk4IKRuvU+VoVvXXrdtRrLWTsDSdEK4Gvvuki0/3pkUvbgjDTEKBdOyFQ9QJESYZ+nGD33v0m3npJahsoSr6UVNKPlwRPNFyuCej6dbXTzVLSdrZuC4OFFpVfsNoukmEQAqrMo9EJBy10khB75wb4zp078B9+50P4w//7Ueybz1Bfvg6R38KOfdMYeHWMTEwiYidHhx00RkYMsHW6HdqCeHSsqAUMGbrbIKA8yuQJcm3IJcr9LrrqPYEqpg51L8KK0Qped+0L8as//3Zccf4IAvKDRpYRWPG7kwiVpM/w1ZVZjFmhyJRUUknPnEpgdbKQMV1H6vEePDjFiyriOLVhQDd5fZFh/jjN0xLTpj+ROsaLVEEQhnbMhyasz8zO21AmeT5fkfBzaS6ppB8XOTClmqV1fQJXTu8jPY2trB1ENAQakNHCD94ToBQDh3Sw+VgR66vt9DTwMN0GHnp8Dn/5N1/Bf/0fH8K3b38Q/UoDXba/mShCGnjwmw0CK+1l1cdse972tFJ4fsB0aOa4zdfSyl4aHXpu905v61qZg0xOm0VTkBwIiuw4KGmomCqf6ff5HV7awQhR1Jte/RL8w7/7Xlx63qhNCWtIS+WrkWkbB8bh0CWq7JQJQCrW4ShKKqmkZ0YlsDopiNzQjPuNJQsIZubm26jXG6jrQGYiFw0tOEb8YzZPQYspG7L5SnFtb5Obe36AdqeDHtOusxAXuH1JJf0YSQqh6gJmYf0yo3pMh4yoI+4gi+aJLoiW0CWs6SDJ5mi3CVl6BEwxYlbNHl/p0PuWHQN8+nN34b//r4/hM1/4Hg7M+PAaq5BUmxgEIap1bbAbI2XEOnhZRykEtQABwdaAIErbMlT4XAOKZoR8zAhg5SCLbUx7wWVphjRJ7dq+xVqPtGxOOyUwVWN4VabfZ/rXTTbx937hZ/H+d70WZ6xxwer0Bp3LyY+0d3nhjLVja43W6txVSSWVdCJUAquTicgNKyxR7bje63Xz0/SfbRY5IJDK2KPOaA8NYNg1WXpKwVD1KDASRH2dnK+HIic2Sirpx05FxZI9bES+j2qo45oGiNOE0IMPdAIB62tqG30C08Qk2/dHuP7r9+O//a8P4YMf/SLue3Q/4sE4IcsIDTsymlDOumwrD4nkzLYIisg0XFcY7Y5Fs6Chol/5t3cyOwYnYfuoelXUGzUmkaCMIFCnJTT8im3oWU3mMehNwU9mGfs8Lt64Cv/0V38Ob3jlJVg9ziCF0RiOtHMOUInU2GTIJ/KxzvzO7JJKKunESG2opCVPZJaao+E6srZiOk7Yg6WQcDM3Cmb+k6MihiONA1NDAkSJFMjiU10LUHlaJp73xik7jNzQIVPO9wtzJA0/O9KUVNJT0nAlFRXXOsBPda8qYOQRLLmTDLrpADPxADsOtvGt792H3/+TD+MPP/Ax3PXgDvQGY8j85YhzUJXq+CdII6UgBWKIahYiUuhDbYJtwM3rErhi3NJqyfCaNVmKZ2vH2oVdpI5IkkRsK31e9zBI2vCyLhrVCI1KB+NhhNe97HL8i197H6554WqM1/gpjNoXCAs11MdwbaxdCRGgUrhqdA5OFcDK3ZVUUkknQmo/JZ0U5IYLROLBtZpPW6xRQwli7O7ZT4IMyBzXSHg4QFXRCie6Fcae69ge4/ID1Gs1S7s+40imfthJ+jnJ7XimpJKOSaoaxzRiheyI6MDxQcNAUlyZQIRxzMUj2HWogq9952H88YduwH/5X39FcPUgOnbCQR0d1mEND8ZEMCk7OFkOioSKKtqHKnVbKFR5f7ghA6ZZ3ELBGdvPSmkx42aA6TxQhRkRVGm7qWYjAJu4DVv6gy6aXoTVYz7e/tqX4v/5O2/DpWc30FDY8s+vCXyGovSxcaUCUzoQXVuamNEKQCcKBPoUo2uTJZVU0omQa00lLXESEyTjlNZKzJqlOrliObmkEArZ/EBzNpyfnxQVoR9p9Gug6jimmgOswPOxYsWkGwqUW/72kUDpmWilhv0Om5JOcTIgxXqgoTfTDonYaAQy/CbBVIBu5qHN/siO/QMCqgfxfz74BfzJX34JN93+BA52GhjUVqJLYNVOK0jUGwg9JNWEoEWDhwxT1SwTsPJRNePAlQNYDmR5tGV0XzyT0V5WhRG4iqVFUzuwyeUD6zDpAPZKFqFmw4AdrF81il9531vx/re/FusnfAS9LhpZD80gRcg0efzONEuYMn58EDKtmupO+KStT9S+FtqY8kMdMWnayrZSUkknQiWwOolIq3o0D1e887TT1hJEaN6GlEKJMeSfGAmsPIVxGqrDAZXTZLFnzDQPshS1MMBp69ZZb9z4ud7NGXsBiNI05bdQQNAuro9nngpAleDq1KWMIEM7pKeaUE4AwdpiW3skBDRa4denny5xxZO7E3z5Gw/jT/7is/jzv/oibvrOw9i1X1uBLEPmTRJ8tZD5NXjNGkFKhHY0jazaJUjpsdayI6P6nRE0aWf1NDS7OiDAYhx2TA1NoaEqwJa5CVDZM5/1lECP11V2OhLVd4bsEcSlSYRuZ57PYjRrHl724ivwD/7uL+Dal7wQq8Y9jIYpWl6MkHaV4EoT5G24UT2uihuijNgEY14Us7oWWoTahtqnuZZUUkknQiWwWqJU9C8d5XcCUQOtNAJWrppkD1WrjHIQ43w8BcnHsHGksBaY7gnQwnwSS4OM7gW03HOPyE/AKgx8rFoxyWeslHxofoUSCZKU/ox+BJjiJEWcZogoDZOsQlPNbU2PIfiin1R+TTgUqR82Py46VtiFKenp6Vj5JnN8enofR9JwuM6wdhBOxUgIsBK2jYhugh0RAU2XKGPb7gifuf4O/Pc//Ev86Qc/g2/cfB9BVh+9bJz+lxF8jRGUNGlC9AesdwzRq1URNKT50cHL6sTQMDbCpVxjFbK++4y+AE0OUJkRCz7sugBduc101Wt1xFGELCZY8jWE6FYArls5gZ95w6vwd977NrzosnVYMV6Bp04Uv69aYwo0wZ1tScN6rlWrnWS2h1Yx+jfcShwdfldSSSU9c6qw9162oiVDYoPsDVuvVoyalzI5DtIqoph+ZnsD7DrQw9/9h/8BB+dCumlYkP7J+AsSky2ujO3mQwFFZdCGhcM0+JHA2dFE2GOCQOzdTegVR/dtwrqGAaPONMabA1xw7mr8p3/3/+CsdRRGaQd+tQ0/oV+vyW51ohm86FGQSfj5tRB/9CcfR6O5DFe+6MXYdM6IDSEqyYEn7VbHAJv2KVIvX0RxlBt9hbQDEmJyPwbR0d7KHx7uR09kVBYyIheHSN9pEmuB3NvHjGc4EtHCcMxSIX6AAdhhOuIbDrtdvNGkboGcRVKe6XlhhvPQUZHLLGIr6yI4U7K4S77mgLtcDEYNNMdQiyJc2UcCVnxBgFwHH/teYKl46Ik27vrho/jKN27FvoNtHJzuIdKJBVXN/nZHxmhuUqaOANuZ2oNsm/+tclNaLBGMhXXL5k0V9YxuKW+VIteuaDQMaS840GNfq3fYYajQs8e4fMbrVT3bQLTZUJshIOwdRFDt4JLzT8db33gtrrriIixrVUBsZy1L50HbcLrIAi7mV7op8tpZXfVs2Ethu2v5tQ8hubSXVFJJz4xKYLWkSExSgxUEVplO3Oel+KB4H3lgRqGS8K9Nt7gS4F/+mz/BV75+D8YmNmG+24cXFkyTL5DB6s+JIV5proWe5nx0cSdo3fCK5kRYrPblkT5A5xVqCbqGN3TQrFi2R4FX9xP05nbh3W+7Fv/sH70dy1tyb/ML2/wIfmeFwErCyKeAoZCKqwHufXQ/fvM//T6e2HIAl15yOV78whfg8uedjfPOXUYhoyR3bbhEw4oBBacAlVVzfpwElkeQaaLFPvgIIxJuHfpYu1y4LzxKMBb5WbyoK4HHwrPso4WYkUVwmAtvj7h/rpOBKpmCjpH+BafDv1c1NaNxOVc8KwS5bJlFWsxh1Q8+VbSLwdm1stRKQ2BKmtqFtzTgp20LUpaaRzBU510Vh9oJ7nv4SQKqx/Hdux7CY1v2IR7U+EwT2LXlgjRGLk1qCxlBSmYR57RQhmo/MvKfJ8Lcna1bASt709oVryx9zrZja2hCAimf8QVsKx6BXxoliHp9jI2O0CvrdDSNkVqEa196Md71tldgw9oRNIIMLaIq1fGqTcDXHnCLZE4llVTST5VKYLWkSMJcwEraKjJQ8WaVXs7fNXE2rST0oRVEHj7+uTvxm7/1v7Fi5fmYniewakhYiMT885cKkwt1ByjUGx8GVjInWk20jJzptrEHIRYCD0YiN2myJloeZvZvwW//5j/F295wHmryNeixYhJY6Rsp6JSGmBKiT8HT5fP/+j/+Btfd8C3UGisxO91G6Hk4c8MKPO+SM3HVi87HCy7fhJWtholFHeejSbsB/fia8MvP0JJ1bfEu4GWaDH2jTe7KyQSkbGcd/e16ULgVNt34Lw2Z5VvhRlME4+6L36PpeO5LnZQbx8pBV4ELOvzr3RO56c3Dn9ksoQVNmXuWpgROmntHgOJrY05fGhogit3wsbYs8AMNkgG7D6W494FH8N077sHd9z2KHXum0I2kjaqjEjT5ntNQubDzuPP2cJgmd6EN8XcYWImGnokEptz77k5/eixb86ZUJ+NehEZYM4DVb3etri4fG0HcnULan8Fpq8fx7ne8Hm9+3aUEWGon9B+w6rIdudiIoioCVnn9JS01rF5SSScDlcBqCZGGTzQxVoNcFZvYao7GoGUygioNr3QpUWJClG07Ivz6P/lP2LOP74RjNo9EQxnmeYHxO1MwYCc43DCHBZ675xLhGZPVLgVDAKONQE0A0UmDMhIMaX8KF5yzDv/1P/8LbFzn+ttVAquqQShp5UJEFJpdhRMGuPfxQ/iXv/m7eHLXHIL6CuiAad+j0KywRx9PY5yd+41nrMSbrn0VXnjJpVi/fgTayL3H4Hqd2JapE3NZmqrkLLcqAAA4gElEQVRa6y7QZ0bfWwhr5u2QcDKyR057cRQpGBEfZfQi7UjhbxhWPR0dJ/TnLOmzixw7korvKLLmSLJvPd5DvqyhNufhaE8Gj7SFiKljZFRWglsewZVzmu8M0ItS1Js+agQhHZb/nn1d3HLnfbj1zntxz30PYe+BaQNSYXMcYWOM2L+O2Y4mexOULRREkQbT69LOH1iyFjy5Z5ae3M9Qe3EuyimBK/lbDFHetK+UNv2sBQHac3NIoj4B1TjrdRXTB3Zhohbhos0b8Ivvfzde/IKVGu2Ex+DUfipZn+9JY8Vg2bbcULvLD5HcSyqppJ8ulcBqCZF6vRo+keSokoEeJnfIQTXDSmeM6ZSzTr9qR2f8wf/+Ev7iQ9ehPrbW9t0Z7om7IStnHLBiYAtDFDnYYCTmL58r8kxJQ4Bi9vYmw6raxF43PFgddNGf34t/+xv/CO97x/Nt+liDEoP9dfMHDcdUa+gmAyQUMjED+aMP3Yi//uSX0U+bqPoT6EeEmrE0UB0mvYPA67PXn6La7mPjmnW45pqX4ZqXvxSbzm0Jl1meSWFVI9jyeFPRvDMKKO3144ZNlFLBOwmogvjAvl+28sK5LthDpKlvEp+OFvPrSK9H3stnUTJLhVRTVEuO9S0FHe97fL2kl4/luajYVheLGIpYZKsNyPAFIqCsEtI1QJL5iFPWLr4SEExpQcM8AdWjj83i2zffgu99/y48sWcGM5Hqu4/W6DiqYQPtXow+61hF2ybQ2BwqSwMDKjoYNF6+ZcIiHZ540xjl18O2fnWWn4XDm2I6+WL7YxvL9D1aHevZPME07vE+QzNI8OZXXIb3vP21OH1NDX1+zxj7G6org6RrfnXAgoVtv66eurDFJ5ZarSqppKVPJbBaQmSTcU3QqIdKJs8r8f+CbcZZl8JBvjzM9wfsqddx5w/24z//9h9gy645xOFKPhNgOJKx0+jfhEkuzBaAle7FrPVeEdMzoRrjaVBwxMjUwyaYqlZ6TGHXtEznn7MOv/Mf/xXOXOsh7aUYCW2aMGNM3QRjr4aEiEdi56EdXfzb//z7eHjLQcSDEQrDGvygxZ59SOGSIvT0Xh9JPIegTwDXi3jdx+hIHZs3nYUXX3U5XvTCS7Hh9JZprSRHdf6tEN3A0qWZN/pKfqtWZdn3SgjTdRhYiZRVwy1H13rEMJ22T+TeP5bXYVuUv2r2UiHVkBwuGBVpH/6GY7mJNE/KXi5IHsyTHtAoDxfqozM2fCZ2RXflqq0z1cq5Sp1BebbaLabX2Xlg2455fP/O+/C9O+/Bo09sx7wQVpXIujaOiP6FoquewBjQj1lX/AB+SEgfa2VfUf9lu7gVn/ai0nYJi3TElx6l1V28t5Wu+hwXktnFU1sBO9AgpeYFxkiieTQbHq688vl4w6tfglddsQbdTg+jzbrlW0p0VQ8C1neFwfQdod1Tih2JT7g5hiWVVNJPj0pgtYRIokU6K4kVMUsxZseiHaUDgoqsT4FRQyS5UKmh0wE+e9238Ud//mnMDpZTVNhgmzF3E082fCDwoFB05QTK8Lllbs7RiQGrgbRkWZMCUD3wHgWHetk91LwuBUMX/79/+mt43SsvA+UIKgl77IxXmx9qJWBCYdmX3NCGhnz7Qx/7Jv7wz/4Gqb+c7jo6pEX5WKMH7e3jjvjw+X4YVFDn9zX90K7b7RnMzRygsKri3HPW47xNZ+CqK5+HNavHcdraZZgYr1vPX8BPk95Dxut0bMxl5otWZrn8ppvyqWgxx2o5mtxswng4r1weD7stisFFGi7LpUD6StWS4juKtB/+pbp2Xz9MDjMN5UABDMxj4a4Y5I21PtMwOP/IrqTzHLBOVgioBxWBIWB6to+de6ax98AcvnrTbXhi2x48uWs/osRDrTnOYgvQ6fYJyAOkBFjG9RiGhqcFskwRKfAj7KyvWgBXBt/cNwhsP4XG6nikr3fghnWIEdmfbCbC1q2mXdSCAVpNAsP+NFZONvHa17wMr3n11Vg/Kf0p24V9teYMxmgEDbuuarzSqZppK6+ccUPR+kDV2ZBmOM0llVTST5pKYLWESJBK4kVM3P05du6MxA7BSMZeb9VNvu1rODCsYteuCP/5dz+Am3+w0wRLRT13CiT11k1Ho40DFZ74tDFlCRRBmYJZC1hp3tGxSaAsMyHpJuK6ewlDppjACqDEGHRpC1R1Gdo8lo1VcO7GVfgv/+lfYoReqmmMJtPqEVBpqwS+TAHooctEZgSK+w7F+K3f+UN889Z70Zw4Hb20hkG1RcGp+DV8QuGYJcgIjLyqBJbCUJpS+BouoakQOEXRPNK4jWa9inPOXo9LLzkP5593Ns44fS1WrVyO8VFfM7vg67MZhOa0F0Z4T3Yhy0w62yRq2oWbrp3UHvIo0n1uG8kefq7X9N6xyQHf5xapxqlOFncFuS9zNXLha4c/TY42NCYtTSH0C5+8F7rhvYpPm3dqQrr2JrNFD8wHAaOOgakIe/cfxJYnd+HBh5/AfQ8+bmBqph3DCwm6gyYSgqE4VZgEy0GN4FvgifXM85FqL7RYKxMdeFYSlGaX2LzuE7C4NiE3hnOYVmroeviSadSf7aWmMmXYGYHdgKBMQas1aY5UJYsRELw1An5bPI+a38NLr7oEb3rDy3Hh+etsuFotuaYFK+w0BewouaE9ATzZJCVLpPgZuOMQedqtFaiLUORxSSWV9NOgElgtIToSWIn0m4shMnL2as25aptoao6SmLy0Vvc8sg//8fc/jK07DlDGECRVQ/QiAo6wTqElIeAEjjsWx8330NCYxZrv+eNiO5qk1dGhz6pJYSDgVkGSSBAqrSGFVot+ukwVgVW1jV57Dy67+Az8xj/7e7hw81r2vAnvCHqkEws0yZ3xDJh+iV3tHZQMfHzui9/B//nAJ3BwTp81gSir8ZmGGd32BhJYJj70HconpkFL3JUv0sINGxtYJADVztUVfmurGWLD+rW46MILcN65Z+OcdcuxcryOZRMjGGnp+xSwIwNXjEhHhGh7SOWTwhRZmchJWg0VRA5YHeXNzBXQIuXOjjS/54jnQ/RsgKunZg8qY+ahJculzV3m381ydcT7Ihh50AsV2+OcxvnNmGcyOlZG2iXlhYb1BP71qqpz1B9gbraNHQd6eHT7FB565BE88PDD2LF7H9rdmODFZ9aHGHih1RszDEeHKbvhtyp8ptdTOzGARGMaKAEe3YsKW8SYDWQ5Iy/FZxxOajuELyxvnQggu7hW50L7YBFCWVpUv7U2t6pD0lkHQ0QYCVOcffoKXPvS5+GVV1+GNStDtocOQWAXdW0+yvdde1darZUwSt4X2SvSY6XP0qgH7qGbMqCHJZVU0k+LSmC1hEgFVQArUc5LaRyYUA+56C0nlERVChrJOE3W3jsFfPWWB/FXH/2M9fD9Wssm/cKrox+T0RNsWd88o2eCBo+CQpofaWQyAiuby8LnxyK5qhoJnBXVSYLFtFe8zeIUgZ8g9Ai+kmmcdfoyvOedr8Ob33AV6pQT6rkL4EhT5fM9+yLKBQ0Fapr7gakY//l3/gDfvfNRDPwJzFIeh81lNtxpZ53pDf7Yl7voEQvc0ShflHMOYDlb811Cn9/DONPYzcPSzvC1WohmnSBrRROnrx7HOWefhXPP2YjTTluNFZMtG6rRaz7TrLlZSqlSqb27FYdNFU74a8LakeWYFZLlkjPmWFCeYElET0Jz8d3nAj0le2D+DbKeq3OqaAaYXPk5uU6b32W1swjG8oH3XkQvPavP0hwJuFcJiNzCAeYq/WuFX7sNHJruYvuO3di6dTu2btmGB7cexPb9XfT6fUQJQRLzreqrLrvz76KMdZHpsPqc24pX6QiyPgLN9ZMb02abeSrPF2yXPkujpcSRbT9iZhjNFMSQFQXrW6oOBf9U9z2PcTMt2gaCMMrSUaNbqHD6HTSqKc5YM4ErLjkXr7r6Bbjo3OUYbbC99tto1AjD/AF6nXnUm2OMo6gbtNUWlbjhBObJdsBK5H71VSWVVNJPl0pgtYSo4KVFgeUiK7+mOy9NwJHUW9YQmXCKOs3s0OPAHHDdDd/GZz5/A/bsn4UXjtqQCrwGBVOdAkBDLvTMwAQ+hG60O7q0Qho6VGzHI2mtLG18R0JFwCqOE9MQaK+dQcYeeDRPULUc733nG/CG176IQGuAVo2h2sRdiZ1cQFMc6K6fEhzx/itfuxP/8w8+iAMzA9RbqzDdJuQKm045pFiZ1mLuiglIXveJfASuCrIrec1t7Rsk8CggZ8BAn8u/yoCiuX+I4r2HBkHW+FgL69atJMA6A+dsPB1rVi/D6tUTdG9gdCxAaNmtlGjwlVkpYEUg6sJkeIxQRmciGtrQEJguZVRgQpDWBBmQ5gy5FB6TTlRj9XRN/ETDtaE8ghRHDMPKjrZJd9YH2SpLlolSYIY/qmJxtY800Lt6Jq1KaCv6ZmZ7mGtH2PbkXhyamsf2J/dhKzsCO3ftxcGD0+h0eoiq40gIsEUVApUq65tAfURQ008JYcKQgIrx5EkRWQ7wOsy6rJMC0qoteVlZnVHpMf28NtvSpZfzVmbhEUjavKsjKG8rqj/aL0vkzulkHDQCVqYlVnriHk0HqyZG8OLLL8S1V12GSzafhjXLQcAH1Koxc6PP6Jk37HBYhrGduqF4ASqlk6QPksm/ryD73iG3Ix6XVFJJPwUqgdUSJFdgBWcV23fc1G286Uilatf8SXRoa0TBM6hhrpPhS1/9Jj79+S9jx95p+I1liLVXFAFBSqZdqaqnrfknTpsjwGRztkzgHJtN6xyzgMJMYEqTayXkfOuxexRibfjZDGVEB+duXG/nmr3kRRez555itFlFTZOZTFgVX5ULMhqKQOw+mOH3/scHcPv3HkCnX0OttRIz8xFxHtMkjZq9q+E4Xur7rTfvmbZKQ4HHSrNySX+mnWNaTQBSkApfCBg2mKZK1jNNVkbhJi1Vs+6jXvcw2qph3doVOG3dSpx5xjraq7B65XKsXDmJiTGGTYxlIlrRuuKxcCn/F+ZoLeSkhDGNvlZeK8zn/MmPlX5ywEr5J1DJ9y0MB0aku8s/nXUB6BMjSPukaUw57kBE79pvbZ4geWp6Fvv2T2H7jj14/Ikd2L33APbum8Icy3l2jkBKY4KVgPVJw8waVqtZnbXPYjjSDCl+F5+mbjM/80+Sm9l2r5RpEjjrCx9Urb7ktcE8MByz3bW+pdj3zcLJJ7M7KkImCdjLNwtX3pMkYb0h+Ff95wdLS5pFc7bvVDP0cMHmjXjl1Vfihc87H+smPet4CDZVsojtgTFLK8Y2a6A71Aa5eqpaI5PTUPRDl0rqAg1dllRSST9FKoHVUqOitGxIQjcyjunaKB65qcmCIdKKOc250lyTPgHUXCfB7Xc9iC98+Vv4wf1bMDVHYRO0yP4JjrwQIZm5NFcCTKbV0ZwVjc0ch1VXKdh0LIeqksCV4tcQiIBLkB1Co3oIz7voPLznnW/FZRdvssnqGg7xKzECHXKmb5GkI0kQS7ZJBPYobm749mP4P3/819i7v0sB20BIIHhweh6jRDFR0sGAPXxpTpQDi8Cq0K45YyFbmI5MkGpCMb/RVX8JRKabV7rXXDWPKEirEyUU0zRi3jIvbIg0NTtgNLWwSqDVwKoVy7Hh9PVYs2YlNqxfiRXLx3m9CpPLqwhNULoSkpzUZ+pdgS8lyI4zUWrpQecnOrRwNJ04+Pnb0VOxB+aUAQgDUsx72fYh+lgm1/AQr22bMV7HxGAHDqYETQexe/9BbN+7H3todu3eiwOHpjHX7qLbT82fNvf0gwY8v8764Dttqg0ZKg6WnSLIkyatbKEdknOmsyWPIudZ89gFlgyT05jNZ676uTzOS4TxHg6sqjkIdmHZC474stz1pw6J0hMEGtrMhwbjLpaFPZyxegzXXH0VXv6SF2L9mqZpOzV53W0VwvAVlbUjBcn6qIDUGAQccypiHYrdyKV80S6ppJKePSqB1VIilZSMcU9JLRpzkJjOgRWvTBaICnugQ5AFELQze4CsGqJNPPKDB/fguhu+iW9/9x50+hV02UmOCaDCWoPCwbMVU2L2npanK6rjsG0/8NFpdyj8EjQbTeupJzpLhv7XLIvxqpdsxJtf92qcdfpqAirYcRwSKlF3HmGTN4WUI6WMKDUBWcXWQ1X8wZ9/Dt/69l2Ym5foGqXfFgVwB+MEL714lv4ifq/mzCgY/krrlvl2bfc52SPLK5djRkxDAVjUDPQnYKf8cYLbzTXzlQmDFGncl9S2+Vlu5aEQAw0Bmob6fH+A8QkPzVYV42NjWDm5DGsJsM46Yz3OOH0dVq9YZqsOtdorUNyMV5+tJBjQ0ry4xdQdRX8bcHW8d/82zb8AHgpBwSiPlX/EP2Z2741wcGoOO3fvo9lrgEpA6sDBKUzNRpjtSJOleiktE8NhmRcTzcNak52AzIb37OBg1keBYYuX9blK8KtvkkZVf6K8Cjm3/Nqe8br4+p4XINZkcLqZTooJd3legCbzznTk3yMjR9o+i1r7SDkfzq8RA2OU1la0elEaNGki+/2edTomR2t428vOx2tecgk2b9qAJjsWAtfaGkQrVZ12q4IoYhrY1jxfRwO4vFQ02gCUQS+Qi1mpspSR5OJyocgLR87l8LdLKqmknzSVwGopUc5ojTQsUUgPigYzw89JAkOZ5gx5YtgZBkmEPpm3Xx9DjxKjKw0Cscltdz6KL3zpG3hsyy5Mz7RNS1AjuNLKvkyqBk28lSYoJ8emi8gomChR5BYQYEnLNT09hbGxUbzoRS/C66+9EC97wWlYRkAxiAdoBe4k/t78HOoCVQpDM8Fz3q+Jxwas2Fv/8u1b8D/+7+exdct+Cq4RVLwxdHsDBLU60xNTrPT4noCVJr9La6As0YR5j0KQ4CcHVi5LCJuYX5ZiAlJd2bwnGglBawYWgIe4UrOViDpqZEBBKW+aWK9clvDVgbnSZDnBrJznMwk/lklamUbVj90kfAEzxlWv+Rhp1AiqmqbNWkmAtXb1SqxeNYlVKyYxObkc4yNNrFomQKi0Hk0GXIaeuS9bJKVH3/jMSSHpyxZpOBQVxXBkw8+0eGBmPkG708PU1AyB1H7s3LUHu/bsx9T0PPYemMLsfA8zcx3TQBlAEniinWZNwtJRhu/gzAJMsIysoh8z333mh8dyoJ+EH+/KSOvcdBqmA9N6WVo/ZY5qobR+st0Qn54X9/LKOu8H6DNMV24qPweohlPhJqnTP+3MjAJi/U6rdjiyC0lUvCfbLYpgn8Kue70225CPq656Ed7x5tfg+adXsUKAKlBHhfFobhqNsKI6PPZpBFTs1tiQvELNI7FhwqKEzN1+lVYWQO4isu8sXjLSWzLDbiWVVNJPmkpgtdSoKC1JBiPZYpw58zxWacqv3KUZoMSQZsBWXcmJr0lTNT2X4I6778MXb/w67v7BAwQwWiXXoqAI6K+JpDrmwtDkazN8W1oDPvWJBrrtGSRxj4BhBS677BK89CVX4bLnbQLxA3vnAwpCmcw0NTZQpyM8rIvPsCjsYmkneFkJ6ujxuk9Q9yd/8zV89PrvotMmiCJQCoImExDwFe0/FPOeICqf9yJh5sCVy4uK9s/SIc4u0XQaEpoSSgZM6VQ8N8NfE/xaIam5MXJlmHpdD/mjONRknEDVfe5ud3T3pElRXLqVAJUHJ7wLoKYtLaRVERBtNupoNBpoUAhvOvd0jDRDgtIxA6bj46NYvmyC9hhGR0KMjAD0bkEq6DpxaYFJpSDUkT0F/HWpc6Tnxb1LpyOrA3yvzmzScxnNhdKcqF6fwIlFJM3TXDszLdOhmVnMzbUJmqZxaGoaBw7NYc+eKfqN0e10WWd6iPhSaglkTEQNujRApZiF0pi/ItvXyY6icbRoO3+2TYH5d+/qeQF+PdqeMsC55u+6X/leXOGnuJQjNHkaYr+PxBOoyWGI2Xxir7vwbJd0c2R5WV2huzk0+LiGLEmQaJic6aj5VQT05+uoppQAsn0QK5Y18OIrL8W111yJCy44B5MTzGMG4TPNqvIVaTtlW6QWcU6Cegb3jnClX3c55F68W7i47zic5HK0a0kllfSTpRJYnSqkUpYs0iWvM/Z2U/7KSSZmt1waAs2HeWLrIXznlu/ju9+9G1u37sR0h4J20KKwI8snqJIWRmDK92VnBE/jOG3NClxy0Xm44vJLcM7Z6wgELCoT1BWtdKIQ8XOj/rgAihIVUyhrB+0qAVWUVW2Vog7NveMHj+H/+8NP4u5HpwkmWtDQZEzkJVAVSqMW1hARAUgEOTHkwFUhaOwYnXzpvn1hDqwWheWiX2fLOEEkCOiE8rHpqZrMUw3XFc9s89Q8DLc4QFtTAIcO7bSd4gOWg4aGpLypES1pdWK9HmCk1WS+tpjvmrvlY4zAq0VQFngZNqxbzncp5KUSIWlVqEhxamhWccpNaZeJCUy73S56vQT9TmpDwH2ChXa3h7n5jg23dpi//ThDpxdhnkgrIuCVAlPz9Xq8r1RqmBhbQzd+D8N2m8QyTqIGm2tnd8cmbYMwELo4Dj1VHmslnxvm5bcYOHGA2ZWhSM8ErFTTnHHlybL15mm6+b38CJAUttLNXwIgrepjLvKbEpaVNEqsZ94Ir312Djw0Q+3PnyHpzKOash6mbTS8GNe89DK8+toX4eILz8TycZ/lywqdEYRp4r3+WB4ybi7iU+VQSSWVtFSpBFanCh1WytprR6BqEVhpYEsaikSaoZCCi7JG2orpaWDvgQg79x3E1NQhTNNotdzYaANrVk1ixeSYrY4babJXTvlViIqIfvr9rg3l1DTvKhdxVYspB0FKk2kwtDu2hgGrmJrrwg8b+MjHPoG//PTtaGMdhRpDpZESwwwTpuEft7RdwEpfIAQnW4HSVPRM2gpR7kbjBLCosJ2AdqRrCl8b9jy+0DvRJiNhqq0BipAVioEsMwnGx+qmLZFmK4kj5mEkHwSvmn/TM21X4Gvum571bbjR9kqS6ikLCLDcykyGYPmjiHQv0pCuaYFImvej6zjSCs4+anWWhxIlv9LY8UW9rpKq1ZvEIB7rggIj4Au0wEF5yxwnZuh36ev/396Z+MhxXHf47Vx7cHd5iRJFydRJibIsyzaQxEiMIEASA0ECJH9bECBBgPwhRhIHCBDEFpxAliWTum9KpMRryb3m2vy+97pmemZnVyI9cqDl+3Zru7qurq7umffbqupqzgvBoC3F0DzUoZznLGI+1cEpDhVWuj7xzr6xSI71pfBzZAjJrdQqrFxPuQUEIb2ttAtpiMcf+8DQsP7qPCVKWyFwqSqr+vd2eW3Sgq0sduTfsv72XTu1vmI/fPGC/d3f/IU998yjdu4R88nofd61w5N+PMHgxxkLq+KSJDl6pLB6YHBrpyseRqOIK3xhkviSxwCwyGI8yYV9cbtc2Zy6GShmqIRhzpXLBQJDhbxiBrPFuwn9aUPFIoBYCzuEkBxVohdMBnvjrgTV0qo12k17/dL79k///C/2i9dv20b/rDG5mSO0WggHlaB95n81Jaw4hpfl56Vz8gqpTATUSETViAQV+KlZhcdVBvkbMHr+UaNa9OhIWGBYkQEueKpeEnpMvOV8X8Zd1WupLckYi7Y2bMBQVL9X9Xbp7AcIpWWVp/agTOXD4UfIIdQ4Bq1BHgSph3u6bYmm24qJeF/5HbFbOQQV7cFwHi3MSujgZetqNiVa8OPAy9Q1ZdkD75Xx0P34wq5VnntlYU/1H+peRVD5tee6c9dqn/ugElc47bjjHPAxhy3msWlPgqoMvfl9wDnp/vIlG2h/Pgl+D+H6trSwbcvNvq6B/gnY2VI5fXvx4rP2t3/9U/vJj5+3k+ujgUd39M5WMlX3rAI4hijtVdosSZKjRQqrBwYsIq4YitjHBLF3e/OOT1hvtZa0J3E1bPhTSgwjyZ7LMLCeU/SQRK/KwI07Ly1eWeGVx6XMKB+BRc/KXnPFFlprblIwMMXQeDrdevSksHgiBntHx9uTePrZv/7c/v4f/tE+u3Xchp1nVC8euW/Y7i49NX3Ze4a8OsoTxxoPB1EuyFSyDAPDMG40iwGToa/EkzsZ1on9Cje04917AsF0UF7vmUIkevE148qvtv4eO8IIEPz1aP1BTNHmCKvykcWPUEKqDljrCLHiYolYRBk9j9Hy7JceqxJPWuaotReJY9hLAqDKH0dQTSQ0/LF/lc3wpYtc6qgwZG2Ta8Cv5yOXtp6XZHEeM1Ec1/R+WNhrzxRWdXHlc+mq+yGEU9AatK054B8IwkJY4ec2oPp9tQNPueKYC8V9zJN+PFm72L9qS3sbtrq6bBefe8b+8i/+zP7kxy/ZyVXl0/8Tuki2xHCsiowFIUK2qeFUtqRWdb5+jQ9rmyRJvtWksHpg4DJjaPZvxz8MOTH5uiXhIjGDMVAyejyYJI0R80U1ZSi8Z0Wiy62R/Hss5aB/y7EXDVbUxIOQaEikyeiH+QpRhcGJguVkbHa2d629tGKb213blbh465337d/+/T/sV2/ctPevDP3VJUxup2er2UJAxNDUcIhBrErz+oWDhUZXTsJqQjjJoFVDQJEQCVP8Y6InBTebw4wiQudAiNM5FxHCYQnyOrjRJW+48d+gvh/53eP7amUbtv2v79eZVddy/EClqj3jCNwBqoeupx9LvySLlGrnKp+XKcfQ7gJCi/CSSuHeU6Wtz/MaHWcSv26HCKvD2pinPmMosDquCymEVRFaCsXJ75d/hOo86EgMxjw0shLmHsQ5PVUSUi3WQlDeWL9M/1BonwViHz8xsD/+0bP2k5/82J584nFbX2vGxH/mYyntkg9NM+OfZRRoSYRvJd4RqLXzPez8kiT5dpPC6oED41sclz7cgCE8GRnvcZFB8M4Nt0oyDNgqiRjeyYbdDYMU2z16WVBd0yiP21wW/pEdI1sRVGUbLNj29o51lpaVhRcuK5/c3a1d++WrH9srr35kly6/ae+9/4EPFy40FyWuePlyy7pKXCYn+2ToMPVyOp5EVcyloW5jFz1UdabrE2VGjWdzqNGvtrMoR9iHC5OqFvrji5XqGH4c6usRpWSuUfQiRT2UTyKy17ilJCzWSX5P6LgY8p492iTycLRISIJFuVW1SyVUiPI8EiXaNnnykhh6XbgpvGz9IaFfsSjbpRhx+sMPv7FUR8RPE0OOZJjNoW3sPY1xI0azsJWrtuN9jkP8mIVhp+rtYk//IEhMhdhnzbahL+jKYrC97pbu7a6dPLFmF559xp575gn78x9ftOefOG3rx+NhA2ow8HclkhcxpfPVb1PXp8l7ONWmyE9SRr2Cw84tSZJvPymsHiC40OOv9DBAbgl8CyWFnBt0OYxAsU71ZFAFj7JNU2VlLSCiw5G4OFCIvIgphp162rLKNpOGtwZmd3bMPvjwS/vN65fs1V+/YW++/YF9cX3Duoz0NXnyr628vpCD8tObxZpb9GaxDIQMYIvX8wxsQI+XBEsMjcnoYlBd7XH+iAgdjK1+FnzlIAzifvw079MwumCRw7DOMq4j0VO1VHU0OlJU78pAe7OFeEHneJk86t/uass5BMRTln+8qyL9uPKy60IJn9rOFhjKpXdlsl5eAwQKx9DBYr/EVOGUr10v2eM8Ksr+CsptNYtaNfajjBFNfXURtcPxfLV/1YdXMhE2KIKy2udJSHo7fWiT+WzK01SbNXzB0a4E1662u7bcXrAzp9ftwlPn/UnXl1960Z56YtVOSIPSxDyZymKw8QAmi+8y5Ex5XCEdi3tHomo4oJ4MKSqoquOs654kydEihdUDRLnSs7/aiSy3AlbgKwwA0VN3Tn3XS1Ma7EgpKbblOCU1oYiAkFxF5uG2hwPrMbwjIzUYLtjn127am299YK/86jW7/NZH9umn1217l6cZMZZLcssyrExul+hgMUcecVcFeBk0x+h0Olg+xTNPCzPHSvQ8GReGERd2WmW5gZw/BxtW6lMJIzXceDhSzq9FZZ1H+8VV1LzTHGrMFeUGHz+N7iJYHv1G2PiKlFL0peHpvJfQVcO9wylw3Psj6hM1rMSV32xsVSdVmWuP0GJld4asmSvoArs5sGGLuX4DyR9ElQTVgBcz79hSs29PnHvIvnvhvP3By9+1779wwR49s+5zpvZUToc5hhzGD4Uw1/VyMYsr54IA1r2DYKV+JTiqmiTJA0AKqwcIv9Jy/v3+VV/y9bvCxwIRJ5NWokz8DX8Io2mInTS99VT4oyIlf3HQtV3rDna8B4pJ9Q1/wtDsypd37dMrN+yddz+1/331sv3mjXftxo0t63YlzCSsWEi03VmVuGq5qPL1lapJ2ByHuUjY4P6wawOJKjeSTXqrwkA2bFGpqnk480SnWvpa9qM60mvGkJH/Rrvixv5oyXqcIzHRdCFY7U/hx5wdJcbXdnwFY+tZUCmjr4g4chDCaug9afeOl8i53gfMnfK8LqR0BpWuaTIHr9E2XsXUauLnehM/8J41BFG/tas6d32Yb9DbtuX2nn3n7Cl78bkn7LknH7UffPdZO3/2tJ09fcyW1KQLPDTAPCufd8YQdLQlwjzqUF0zPxJEzyLXZBQENNy48ZIkOcKksHpQ0FX2C60/E9/vZafcBdP70GC4Y0eecaJi3MsW6v6AGSYSNBI7+6gnE5RcXGFgmzKhOzJTrNXesL4y9b2sjvI3fTjwkyub9v6HV+2ddz621157y95++327dXtL6Xm6ccmazY6E1qL1Bnu2xXLiEgLNTluCjWEh1bgp15LUkoFk+JDJ+c2FJUXdX4/V/Q71+PIQElZF3MTfaE/atd6D5et6ab+0FXVtDXk9UAivaQ6vEQ8rSJH6kGi99QPvnaqFj48qwSJh00fcHHQEqll5Z7P/eF+HPUSNbgOfi6Yff2hP15fhTUJWllasu72tdhr6AqvUuccTqmrf3sKmLXS6/nqhJ7/zqL384gX70UvP2dPnH7GzJzt2PDo1rdHfseYeL1Su1XHIO/yq+6I0tYur4pfz3sSKkpWgwxsiSZIjRAqrB4kDrjTBo+/9mQagzCOZLGC8d7DVaNDzszej96fKUi8x/PVS6UkZ+CPwhDIHi0GcMG7+CmRf2X1beonXsFy/vmOXLr9tr776uv328nv22dWbtrnJi3CXrNVZkbhacGeNtn47EgYsVSBjO+zJ6ViKYjkJnxxdXhB3j9y3sMLRqxK7TrREiCoXV74PsV/AFxLj/vAOF/dU2wmmImtfF9Tr0GZS/MHRKmd04HukycMKuju8N2noPVMthfnrfSSm/HVJuqa8k29B4oiFPBGO6xJTD59Z8xch/9Ef/sguPPOEPfLQij/Zx4KevMOyu71lKx1WV4+yvMeOHk8XkLqPfeHZGuUEZ53oYW2TJMmRJYXVg8SMK13+wZ59ExCKk4Fi+GVECa8zafrH8TJGQ1kumDY02p8sZbJcX7lawqnNo1qya33myOwNrNlm7lTDbt+5ayvH1hTGPColkXFkQvfGnYFdv3XXLr/9nv33L35lv37tsl37YsO6fVYOX5NtXLbN3YGLq4VW29+X2JcBrTqCrIHAuc+PRTxVeTAHzSviacUmgq7WSN4aVGjkd68TwqoEMDcMmVm/RtMccD57TWkOhG+t8Do6/ljETafhbA4+JguhHlCqUH28l+zeGUjc+NRzXWwdwlpqcp7u2xvsultq627tb6o5tuU3O/PQcbt48Vn7/vdesB9cfNoeP3PSlqSmeAqw1dyztm4vL4PeKZXDFeR9gDx92fShTkJ0ID8Z/hxwVvVg93NNSrtTBi5JkqNOCqsHivqlDitASAmNbQkZO3+ySVb9AHNSo54P2MqYMN+kMGV8Ssog8o5q1pdRwzYRUHMYc17pwrpFnUWG/Oh5gphT0+0OjIUHBo2GbW1JZN3ctEuXP7ZXfvWGvfI/l+zjT29Ya+m40tDzIZHG2litlvVlqHv9ns52vIzAvRJPHR7MQR83Vj1qDVlyc5zfW8PPNxj7y18FEIZAadTnwE1y2EecYVof9nTVhotN5KD8qM+0uCLelyb1F3HPLt+XhKj8+yHP/Qkrv0KNReu0WLxW4q6/KyG04xPRmwtdG3Q37KnzZ+ylF5+277/0rF18/rw9evYhO7bStvXB0FYk0FmHzZt6NJTHGla6s3QPtNqLarNYusOHGRXLZWXF9ZisrvuynHK19c1EE3Fu9PLGnbng762c6u1KkuRIksLqgYHLXBzw7T82ibEt/SklXewxkbtxfzZwkmJ4oPLHEQo1UYXryYChF0qnQUnMvvd2xIKOTDuPd/AVEYA5G8rx3B9Pg7Vc2zFc+MFHO3bpzY/s5//5S/vwk6v28ZVrtrXTt1ZnydpLvBam4UNM5SXJQalVtFkwORxXwv0lvu6DehnB9MetXAGGH5sSOA0XoboOVSHE1v0IgXKVIOIV0qQ9xuF14pCz42gYF1ehMqI8wqueqjgbOf2OzzfSNZgT5sJqknKkSZE5mcrPwYPq17yUHG4UXrVZaSvjac9my1f939natN7OXVtdbtv5xx+27zx22v7qp39qzz37mJ1/bMkWpZnpj4uz69kyc+hY24O6cQCUE+XSM+UiUoFqE9484N1hUQmvAlliALqk86iyCar0IahiKJsUTHxPYZUkDwYprB4opi/1yApUMdPxZR/jW3nvl/GhvgbVwcZdNPvz+z6R9YrVzyeEBrEuwWQsGeRhqDAkmdnVq4is9+y131yy19+4bO+++4Fd+/KWNVYfNltck53lMX0ZQxlcnkxkfa1en16NBWu2OjLuMYTGOphFiC3IUNOLwlwrX5Cz1E8bJsYzoTpWZ8dJEg5Jiw1nor88SufvCdSPn02VdDR3a8aFoJkQkftjgsPmfcVRxm5cRgmrqEQHXxf+3kHOV78MleE4Bm3gr+3xOUmSZHJRK/xlDbFIhxxjOI+2incgIuEYzutJCHcVzsuniaOGEe6r/qttetvXrTnctFMnT9jj5x61C88+ZT/8/vfshy+/aE881lZa1UtVx3HEpo5Rngf1PrSiVJ3qjEdtxHYcX8U6ERrn89WQrjioxFiSJEeeFFbJEaWST357I7Nk4jH82iVmgPFtLcrYMwk6Jr6/996H9uHHn9nP/us1e//z23Z7Y8Pu3N1yUdVS2mabFSLb2m/4pHkccTyh6MNeCAyOU4kLjoeWQHi0eM0PNUF4NRnCwsjy7r2BOyZh8wRbqS9546OprX7G1P0BkmFPx9gfExwqrBRFmwT1dOEPEeXeEIoqiy2Oc+x1GVZjn/Tj/GRhcVafF6eGincMKoyeRdK7MG1ar7drvd0d81fHqK0WOw1bbNN/Rr4d63e3td21dmvB1o6t2Pr6mj3/5Cl7+YXH7YWLF+3i88/ZqeOIUvN5dt3tXVs/xnIZY0GFeBvhbYHISZIk+WZIYZUcUYqwwo80kdhBrLjtl2GVGIreJ4mepgx56B7rSmR1leaz62aX37xiv7102d597wP79NPP7cvrt+zu5o7t9qSoFnhv4aK1OxJnLEap4/A+Q4ap9lS2qwjhLzaWuOgzGVqCoimBNRJTqo/3+Ehg4Hq7gxAuci7UKkEUf8XIA9qJk/GNaqRznEgwRsExpLcfmifW94IZaWgzNjoP3+Uolbjy/i161/gKqepd0nDeTF73d+VxPnLeo6XzJq48tddWe7BGlO3xkum+xNDQXb+3LSG1ZA+dPm6PnTtrzzz1pETUBXv66cdMQb7G1KJ07qgfSEVSjO+rOmyjj5Kqxdk5XkdCkyRJvhlSWCVHFIRAubW9v8oFACLE73iJH9l4X9Gdp7+kEzw1YT4NXPsepvSbW2aff961jz+5Yh99fEWC6x27eu1LhX1htzfuhqCSeceM71hbIqelYyCOECCU3Yg5YAwpUg96s5SDPCGeEB2q5QCDz/BYMfwx9BYf0ZIW8NfS6C/PbVY66x6JOk4StQOGJSsfSQlwf9QIcdgbpfEXc3sdOcdo8yK2Sj5osIL5cMeagy2J2oYLq8VO09bXjtmZ0yftFO/ne+ZJn3D+9FPn7dzZdVs9Rm+X8qq4+mnS2ziUQCa801pQeQqsRJa+3FxHeQuRiTp4u9VLSJIkmS8prJIjSjHkmPexyCohLnwkqBBDoQvC2I50hEDskB7dgYFmn+G/nR2za19sSWh9Zlc++9w++/yaXb16zW7cumuf3NiyzS5PJnat2+tarzeQeENkIHww8SGKGCbjHXbs96UOut2hdTpr2tfB9JEkXH+E8lAPHBVQXpVQCSu2LhtGZR+MFzYDiaGJHhwvLbwL9DzRi1aJJtSK4vyHuhir1utk6bWijf2rxM/URY0vtqo8rDPlZcixInqn07YTS3t29kTLHjlzxh4796ide/QRCamHJaLO2MkTy7a6IiGlauGYWoV4omzWGRtQtvZaElKUS61cSJFCydiGi/MgTcB+iU2SJPlmSGGVHFHCEAfh52e05xaYiefMc6K/h3lUrG20YN2drksNhu18UVIlJY9PUpeRp2eI3pPSacTThrdv923j7ra9/9lNu76xbdeufeGi64svv7Bbt+/Y9s6u0vVsc3vHtuR2JLwQd4greoyYDdT39aTk96ohGpgYjgBTHRAXLmZCVBFHnYuw6h/yMT7sI04ZzdGil6ST86GzcPTajV7ELDnDHDFvScrc04nbrupHPbTP8J/i6IViiO/Y8pKtyK2vrdqJ9XU7feqkPfzwGXvo9EN27vSKPf7Qsh0/vm7H19u2yGL6Ks2diuru9nyINsRV9Eh5nSTihrxoG4egUz2QmkX4Ueu6bBr7iYF6bJIkyfxJYZUcUbit67f2eD+EgURAJUowtvTbAHENVu7GAGODJWaYEsSnBBHkQ4gucJReG89f2WoEFysX8aQ+Imx7W4JrY2hfXr9pN27dlsDasBs3b9uN27ft+o2bPozI5PjNrU3bkpjb7fHkIb1dPeMdh0z63mM5BAkptjHWh4iJYUXq7OfgwdV2Fl5Pr+k+WJ/MJ2g5pKmcL2ehtmBoDTHDo3bVfqfdtrZcs8kcqYGtra7a6toxW11ettVjK3byhMSSxNSpUyfs9Injdu7sI3bm9JodO8bkdPMFOVnVqe318mK9fUOYyel4DZY+H/T8aUC/StQj1JVAhVGCqJ+zClFWnxSfJEny/0UKq+SIwm09fWvX9yOen7DNxUJjnGMS+ahLijjPWsJisjefHP/0EFxlL58m790ivspCPMsnsZg8r+DZ3B7Y5ua2bdzdtDt37tjmzq73eG3vdm1TYRsbd9zxSh56b7bp5ZL4GqqQfn/oQ4z9PuJrqGMNbaerQqs67MPrqfP0Xp2mD9Exeb7TWbTlxSXb82E2nZXqydOLDNUtLrat1WnaysqSRBQvtm7Z8vKSra6u2Nr6msKXbe3Ysk8uX5agYp8eKtzqKr1V9DRVeojCqQOiR17mQXnzxmHD7z6vqLaIOjnEHJlKAaP4tjLQu1eonTjxrgahFi7IORmSJEkyf1JYJUcUbuvDbu0SX3d1igmum2L84UKO1eMC1rFyMUCcqy1cCDGEFhrG/VVW/O6031U2Js/3+nLdnu1KUCGqev2B7UpU0ZM1UAGIKuZwEU/PVl/xN27e8PJmonpED11DwqmlY/SVtysxtGIn1o9bm544wVAaAmppadEWl9o+nLe03FGeyMerhTqKb0t4taVrEEjSXCPQP4ilctb4CfNlD0qgQyJ62CIg/paWoO20rQssT0+YvA4HLcOXMFG4lz0dNsoqaimTJEnmTgqr5Igy3Rs1y5xWRnufi9eZlDyEjCnl7C/P5dYwJnOP4utGXgUxjFgmmjM7qNQwRuSUL3ZFyYOTTwql0iG+X4YnORT1k846EPKRnuIYJcPvc5ikjpZZmovyFeeuOg6Ocv0YlaO9mNdEzYGhSF9OwffijCir+BFUxFFWeCLOXTVPqhDRVdxMV4M2cclW8IKDyYONqJcwGZMkSTJfUlglRxJEVTGnzKByczrzTi/pcAgbcvK2wLrhPpxiqGN+EMKqTFqqYnxTjj9OXXcuA/29QVHJ+CskIuITGulG54ICwudComKUaRKSuLASvoSEtvR8QZPlyTltiqyK8knqElAMGfqTgPplP5ZVUD4P4qepVqq6rCZ6lPDIFfVXmtLLr+IWOjYo86QEUR5dMSmyZlAPHompQt0fTCSvtkmSJN8EKaySI0k8kM+tHUbXBUm502fe8QSiMLRhgrqHBYcZ4nFc9NLEKlgICsXsy+iFh3ciEv+e7e5uuRexhPPeIJYqkDIZC6hqq0NxNIJ5upA5U6O4KQj1xVHlWs1YVytePRPnS1hQNYwXgz/yII5caPlXRaTxOqpejVqv05iSjrzaUN6o/kDgZI8V1FPU/fcCJRfut4wkSZLfhRRWyZEkhBUO84o40ZY7vdzt03c9yQirxsXKHCiYbaCjgHEc+9OF1qFPyjdjRn55VFAIM1E/oIIO/oSWCIRYbbLTV0H5ozLloZcO8SShRTDRTHRHPMXXQ4SOxV2B+OkwGBXu7Mvn0U1pz1l5A4+ZLGYEhzwgyimlHlx6kiTJN0cKq+RIsud9TtzamNevIazqMFxWWWXflLTFUvORQYCVCDa+z1rkLDoalOSTVHnEOD7mIvW7A996b5C78Lunlm/sjy2T0nla0KtwEFWZZEHijcQOG4RV9cOvU8V7uwmCh4Ohv/vPBZjagN60Rd4rM6IqU5AeV0JKsQVGBxvTgV8Trk1p42nK8diOa5MkSfL7I4VVciQZ91hhwpEHMrPF2tep7x9klSfylJ2pwqr0dWEF9WKgvr8vrirOw6cj9yEZNProVuf3dVAWFhpFN9ErBYO9vgstBNokh5cZLVBrgyr9uFZBPQWwT//avIVVOd70NkmS5PdJCqvkiFK/radM7Ffd8V/LIs8uJPqe7p1vqwi43y+P3/V8Dzrut7UdkyQ5OqSwSpIkSZIkmRPTff9JkiRJkiTJfZLCKkmSJEmSZE6ksEqSJEmSJJkTKaySJEmSJEnmRAqrJEmSJEmSOZHCKkmSJEmSZE6ksEqSJEmSJJkTKaySJEmSJEnmRAqrJEmSJEmSOZHCKkmSJEmSZE6ksEqSJEmSJJkTKaySJEmSJEnmRAqrJEmSJEmSOZHCKkmSJEmSZE6ksEqSJEmSJJkTKaySJEmSJEnmRAqrJEmSJEmSOZHCKkmSJEmSZE6ksEqSJEmSJJkTKaySJEmSJEnmRAqrJEmSJEmSOZHCKkmSJEmSZE6ksEqSJEmSJJkTKaySJEmSJEnmRAqrJEmSJEmSOZHCKkmSJEmSZE6ksEqSJEmSJJkTKaySJEmSJEnmRAqrJEmSJEmSOZHCKkmSJEmSZC6Y/R+bwVH9AW0eCgAAAABJRU5ErkJggg==;imageBorder=default;" vertex="1" parent="1">
          <mxGeometry x="316" y="220" width="114.58" height="101.17" as="geometry" />
        </mxCell>
        <mxCell id="t9vtO4sTCr5M2yLo7zf6-7" value="&amp;nbsp;Gemini-1.5-Flash-Latest&lt;div&gt;or&lt;/div&gt;&lt;div&gt;Groq Llama3-8b-8192&lt;br&gt;or&lt;/div&gt;&lt;div&gt;Ollama (local)&lt;/div&gt;" style="text;html=1;align=center;verticalAlign=middle;resizable=0;points=[];autosize=1;strokeColor=none;fillColor=none;" vertex="1" parent="1">
          <mxGeometry x="292.28999999999996" y="318.66999999999996" width="160" height="90" as="geometry" />
        </mxCell>
        <mxCell id="t9vtO4sTCr5M2yLo7zf6-8" value="" style="edgeStyle=orthogonalEdgeStyle;rounded=0;orthogonalLoop=1;jettySize=auto;html=1;" edge="1" parent="1" source="t9vtO4sTCr5M2yLo7zf6-9" target="t9vtO4sTCr5M2yLo7zf6-11">
          <mxGeometry relative="1" as="geometry" />
        </mxCell>
        <mxCell id="t9vtO4sTCr5M2yLo7zf6-9" value="Initial LLM Answer" style="rounded=0;whiteSpace=wrap;html=1;fillColor=#f8cecc;strokeColor=#b85450;" vertex="1" parent="1">
          <mxGeometry x="454" y="249.63" width="120" height="43.08" as="geometry" />
        </mxCell>
        <mxCell id="t9vtO4sTCr5M2yLo7zf6-10" value="" style="edgeStyle=orthogonalEdgeStyle;rounded=0;orthogonalLoop=1;jettySize=auto;html=1;" edge="1" parent="1" source="t9vtO4sTCr5M2yLo7zf6-11" target="t9vtO4sTCr5M2yLo7zf6-12">
          <mxGeometry relative="1" as="geometry" />
        </mxCell>
        <mxCell id="t9vtO4sTCr5M2yLo7zf6-11" value="Answer Polishing/Post-processing" style="rounded=1;whiteSpace=wrap;html=1;absoluteArcSize=1;arcSize=14;strokeWidth=2;fillColor=#d5e8d4;strokeColor=#82b366;" vertex="1" parent="1">
          <mxGeometry x="599" y="244.34000000000003" width="130" height="52.5" as="geometry" />
        </mxCell>
        <mxCell id="t9vtO4sTCr5M2yLo7zf6-12" value="Final Answer to User" style="rounded=0;whiteSpace=wrap;html=1;fillColor=#dae8fc;strokeColor=#6c8ebf;" vertex="1" parent="1">
          <mxGeometry x="754" y="249.04999999999995" width="120" height="43.08" as="geometry" />
        </mxCell>
      </root>
    </mxGraphModel>
  </diagram>
</mxfile>
